<?xml version="1.0" encoding="utf-8"?><svg width="980" height="798" viewBox="0 0 980 798" xmlns="http://www.w3.org/2000/svg" xmlns:xlink="http://www.w3.org/1999/xlink"><view id="arrow__rev" viewBox="769 492.33 46 46"/><svg width="46" height="46" viewBox="0 0 46 46" x="769" y="492.33" xmlns="http://www.w3.org/2000/svg"><circle cx="23" cy="23" r="23"/><path d="M27.172 22l-5.364-5.364 1.414-1.414L31 23l-7.778 7.778-1.414-1.414L27.172 24H15v-2h12.172z"/></svg><view id="avatar" viewBox="664 626 15 18"/><svg width="15" height="18" viewBox="0 0 15 18" x="664" y="626" xmlns="http://www.w3.org/2000/svg"><path d="M6 10.5V12a4.5 4.5 0 00-4.5 4.5H0a6 6 0 016-6zm0-.75a4.499 4.499 0 01-4.5-4.5C1.5 2.764 3.514.75 6 .75s4.5 2.014 4.5 4.5-2.014 4.5-4.5 4.5zm0-1.5a3 3 0 100-6 3 3 0 100 6zm4.5 7.875l-2.204 1.159.42-2.454-1.782-1.739 2.464-.358L10.5 10.5l1.102 2.233 2.464.358-1.783 1.739.42 2.454-2.203-1.159z"/></svg><view id="bas" viewBox="890 568 32 26"/><svg width="32" height="26" viewBox="0 0 32 26" x="890" y="568" xmlns="http://www.w3.org/2000/svg"><path d="M31.909 12.126l-3.429-8a1.143 1.143 0 00-1.051-.697H24V1.143A1.143 1.143 0 0022.857 0H1.143A1.143 1.143 0 000 1.143V20.57a1.143 1.143 0 001.143 1.143h2.446a4.571 4.571 0 008.822 0h7.178a4.572 4.572 0 008.822 0h2.446A1.143 1.143 0 0032 20.571v-8c0-.153-.031-.304-.091-.445zM24 5.714h2.674l2.446 5.715H24V5.714zM8 22.857a2.285 2.285 0 110-4.57 2.285 2.285 0 010 4.57zm11.589-3.428H12.41a4.572 4.572 0 00-8.822 0H2.286V2.286h19.428V16.64a4.57 4.57 0 00-2.125 2.789zM24 22.857a2.285 2.285 0 110-4.57 2.285 2.285 0 010 4.57zm5.714-3.428h-1.303A4.571 4.571 0 0024 16v-2.286h5.714v5.715z"/></svg><view id="bg-action-adv" viewBox="0 568 295 230"/><svg width="295" height="230" viewBox="0 0 295 230" y="568" xmlns="http://www.w3.org/2000/svg"><path d="M245.833 188.25c0-6.658-2.432-12.42-7.298-17.285-4.865-4.866-10.627-7.298-17.285-7.298-6.658 0-12.42 2.432-17.285 7.298-4.866 4.865-7.298 10.627-7.298 17.285 0 6.658 2.432 12.42 7.298 17.285 4.865 4.866 10.627 7.298 17.285 7.298 6.658 0 12.42-2.432 17.285-7.298 4.866-4.865 7.298-10.627 7.298-17.285zm-147.5-147.5c0-6.658-2.432-12.42-7.298-17.285-4.865-4.866-10.627-7.298-17.285-7.298-6.658 0-12.42 2.432-17.285 7.298-4.866 4.865-7.298 10.627-7.298 17.285 0 6.658 2.432 12.42 7.298 17.285 4.865 4.866 10.627 7.298 17.285 7.298 6.658 0 12.42-2.432 17.285-7.298 4.866-4.865 7.298-10.627 7.298-17.285zM295 188.25c0 20.358-7.202 37.739-21.606 52.144C258.989 254.798 241.608 262 221.25 262c-20.358 0-37.739-7.202-52.144-21.606-14.404-14.405-21.606-31.786-21.606-52.144 0-20.358 7.202-37.739 21.606-52.144 14.405-14.404 31.786-21.606 52.144-21.606 20.358 0 37.739 7.202 52.144 21.606C287.798 150.511 295 167.892 295 188.25zM276.562-20.708c0 2.56-.832 4.993-2.496 7.298L71.253 257.007C68.82 260.336 65.556 262 61.458 262H30.73c-3.329 0-6.21-1.216-8.642-3.649-2.433-2.433-3.65-5.314-3.65-8.643 0-2.56.833-4.993 2.497-7.298L223.747-28.006c2.432-3.33 5.697-4.994 9.795-4.994h30.729c3.329 0 6.21 1.216 8.642 3.65 2.433 2.432 3.649 5.313 3.649 8.642zM147.5 40.75c0 20.358-7.202 37.74-21.606 52.144C111.489 107.298 94.108 114.5 73.75 114.5c-20.358 0-37.74-7.202-52.144-21.606C7.202 78.489 0 61.108 0 40.75 0 20.392 7.202 3.01 21.606-11.394 36.011-25.798 53.392-33 73.75-33c20.358 0 37.739 7.202 52.144 21.606C140.298 3.011 147.5 20.392 147.5 40.75z"/></svg><view id="book" viewBox="815 568 39 32"/><svg width="39" height="32" viewBox="0 0 39 32" x="815" y="568" xmlns="http://www.w3.org/2000/svg"><path d="M19.68 4.462C21.975 2.937 25.09 2 28.52 2c3.433 0 6.546.937 8.841 2.462V30c-2.295-1.524-5.408-2.462-8.84-2.462-3.43 0-6.546.938-8.84 2.462m0-25.538V30 4.462zm0 0C17.386 2.937 14.27 2 10.84 2 7.41 2 4.294 2.937 2 4.462V30c2.295-1.524 5.41-2.462 8.84-2.462 3.43 0 6.546.938 8.84 2.462V4.462z"/></svg><view id="broom" viewBox="946 646 22 34"/><svg width="22" height="34" viewBox="0 0 22 34" x="946" y="646" xmlns="http://www.w3.org/2000/svg"><path d="M15.893 21.857a5.915 5.915 0 00-.799-2.917 5.963 5.963 0 00-2.14-2.15l8.541-14.707a1 1 0 00-.366-1.37l-.38-.217a1 1 0 00-1.363.364l-8.761 15.08a7.009 7.009 0 00-3.438.101 6.975 6.975 0 00-2.97 1.724C-.359 22.149-.004 32.4.013 32.834A1.213 1.213 0 001.235 34h18.322a1.228 1.228 0 001.16-.83 1.207 1.207 0 00-.427-1.356c-4.326-3.225-4.397-9.891-4.397-9.957zm-6.2-3.646c.978.01 1.914.395 2.614 1.075.7.679 1.109 1.6 1.143 2.571 0 .046.002.253.02.57L6.26 19.24a4.654 4.654 0 013.432-1.03zm4.302 13.36a6.298 6.298 0 01-1.773-3.642H9.778a7.858 7.858 0 001.183 3.642H8.244a20.06 20.06 0 01-.91-4.857H4.889c.08 1.645.352 3.276.813 4.857H2.445c.038-2.229.354-7.154 2.203-10.385l9.207 4.067a15.764 15.764 0 002.762 6.318h-2.622z"/></svg><view id="calc__img1" viewBox="911 412.33 64 80"/><svg width="64" height="80" viewBox="0 0 64 80" x="911" y="412.33" xmlns="http://www.w3.org/2000/svg"><path d="M64 10H12v70h52V10z"/><path d="M55 1H1v72h54V1zM9.5 22.5l7.5-5M38 56l7.5-5M19 17l11.5-7.5m-6.5 56L35.5 58M9 15.5L22 7m11 59.5L46 58"/></svg><view id="calc__img2" viewBox="555 646 118 80"/><svg width="118" height="80" viewBox="0 0 118 80" x="555" y="646" xmlns="http://www.w3.org/2000/svg"><path d="M118 10H9v70h109V10z"/><path d="M55 1H1v72h54V1zM9.5 22.5l7.5-5m2-.5l11.5-7.5M9 15.5L22 7M109 1H55v72h54V1zM92 56l7.5-5M78 65.5L89.5 58M87 66.5l13-8.5"/></svg><view id="calc__img3" viewBox="567 412.33 172 80"/><svg width="172" height="80" viewBox="0 0 172 80" x="567" y="412.33" xmlns="http://www.w3.org/2000/svg"><path d="M172 10H10v70h162V10z"/><path d="M55 1H1v72h54V1zM9.5 22.5l7.5-5m2-.5l11.5-7.5M9 15.5L22 7M109 1H55v72h54V1zm54 0h-54v72h54V1zM146 56l7.5-5M132 65.5l11.5-7.5m-2.5 8.5l13-8.5"/></svg><view id="calc__img4" viewBox="295 568 135 78"/><svg width="135" height="78" viewBox="0 0 135 78" x="295" y="568" xmlns="http://www.w3.org/2000/svg"><path d="M114 4H6v43h108V4z"/><path d="M135 10H94v68h41V10z"/><path d="M126 1H83v70h43V1zM112 53l7.5-5M98 62.5l11.5-7.5m-2.5 8.5l13-8.5M83 1H42v41h41V1zM42 1H1v41h41V1zM9.5 22.5l7.5-5m2-.5l11.5-7.5M9 15.5L22 7"/></svg><view id="calc__img5" viewBox="295 646 130 80"/><svg width="130" height="80" viewBox="0 0 130 80" x="295" y="646" xmlns="http://www.w3.org/2000/svg"><path d="M130 28H34v52h96V28z"/><path d="M79 2V1H33C15.327 1 1 15.327 1 33v40h78V2zM11.5 28.5l7.5-5m2-.5l11.5-7.5m-21.5 6L24 13"/><path d="M51 2V1h46c17.673 0 32 14.327 32 32v40H51V2zM123 51l-7.5 5m-2 .5L102 64m21.5-6l-13 8.5"/><path d="M91 1H37v72h54V1z"/></svg><view id="calendar" viewBox="913 521.3299999999999 14 14"/><svg width="14" height="14" viewBox="0 0 14 14" x="913" y="521.3299999999999" xmlns="http://www.w3.org/2000/svg"><path d="M12.36 1.094h-.657V0H10.61v1.094H3.391V0H2.297v1.094H1.64C.736 1.094 0 1.83 0 2.734v9.625C0 13.264.736 14 1.64 14h10.72c.904 0 1.64-.736 1.64-1.64V2.733c0-.904-.736-1.64-1.64-1.64zm.546 11.265a.547.547 0 01-.547.547H1.641a.547.547 0 01-.547-.547V5.141h11.812v7.218zm0-8.312H1.094V2.734c0-.301.245-.546.547-.546h.656V3.28H3.39V2.187h7.218v1.094h1.094V2.187h.656c.302 0 .547.246.547.547v1.313z"/><path d="M3.172 6.29H2.078v1.093h1.094V6.289zm2.188 0H4.265v1.093h1.093V6.289zm2.187 0H6.453v1.093h1.094V6.289zm2.187 0H8.641v1.093h1.093V6.289zm2.188 0h-1.094v1.093h1.094V6.289zm-8.75 2.187H2.078V9.57h1.094V8.477zm2.188 0H4.265V9.57h1.093V8.477zm2.187 0H6.453V9.57h1.094V8.477zm2.187 0H8.641V9.57h1.093V8.477zm-6.562 2.187H2.078v1.094h1.094v-1.094zm2.188 0H4.265v1.094h1.093v-1.094zm2.187 0H6.453v1.094h1.094v-1.094zm2.187 0H8.641v1.094h1.093v-1.094zm2.188-2.187h-1.094V9.57h1.094V8.477z"/></svg><view id="car" viewBox="922 568 32 26"/><svg width="32" height="26" viewBox="0 0 32 26" x="922" y="568" xmlns="http://www.w3.org/2000/svg"><path d="M31.909 12.126l-3.429-8a1.143 1.143 0 00-1.051-.697H24V1.143A1.143 1.143 0 0022.857 0H1.143A1.143 1.143 0 000 1.143V20.57a1.143 1.143 0 001.143 1.143h2.446a4.571 4.571 0 008.822 0h7.178a4.572 4.572 0 008.822 0h2.446A1.143 1.143 0 0032 20.571v-8c0-.153-.031-.304-.091-.445zM24 5.714h2.674l2.446 5.715H24V5.714zM8 22.857a2.285 2.285 0 110-4.57 2.285 2.285 0 010 4.57zm11.589-3.428H12.41a4.572 4.572 0 00-8.822 0H2.286V2.286h19.428V16.64a4.57 4.57 0 00-2.125 2.789zM24 22.857a2.285 2.285 0 110-4.57 2.285 2.285 0 010 4.57zm5.714-3.428h-1.303A4.571 4.571 0 0024 16v-2.286h5.714v5.715z"/></svg><view id="carbon" viewBox="328 726 32 32"/><svg width="32" height="32" viewBox="0 0 32 32" x="328" y="726" xmlns="http://www.w3.org/2000/svg"><path d="M27.001 16.76v-1.53l1.92-1.68a2 2 0 00.38-2.55l-2.36-4a2 2 0 00-1.73-1 2 2 0 00-.64.1l-2.43.82a11.34 11.34 0 00-1.31-.75l-.51-2.52a2 2 0 00-2-1.61h-4.68a2 2 0 00-2 1.61l-.51 2.52c-.456.22-.897.471-1.32.75l-2.38-.86a2 2 0 00-.64-.06 2 2 0 00-1.73 1l-2.36 4a2 2 0 00.41 2.51l1.89 1.73v1.53l-1.89 1.68a2 2 0 00-.41 2.55l2.36 4a2 2 0 001.73 1c.218.002.434-.032.64-.1l2.43-.82c.42.279.857.53 1.31.75l.51 2.52a2 2 0 002 1.61h4.72a2 2 0 002-1.61l.51-2.52c.456-.22.897-.471 1.32-.75l2.42.82c.207.068.423.102.64.1a2 2 0 001.73-1l2.28-4a2 2 0 00-.41-2.51l-1.89-1.73zM25.211 24l-3.43-1.16a8.859 8.859 0 01-2.71 1.57l-.71 3.59h-4.72l-.71-3.55a9.36 9.36 0 01-2.7-1.57L6.791 24l-2.36-4 2.72-2.4a8.9 8.9 0 010-3.13L4.431 12l2.36-4 3.43 1.16a8.86 8.86 0 012.71-1.57l.71-3.59h4.72l.71 3.55a9.36 9.36 0 012.7 1.57L25.211 8l2.36 4-2.72 2.4a8.9 8.9 0 010 3.13l2.72 2.47-2.36 4z"/><path d="M16 22a6 6 0 116-6 5.94 5.94 0 01-6 6zm0-10a3.91 3.91 0 00-4 4 3.91 3.91 0 004 4 3.91 3.91 0 004-4 3.91 3.91 0 00-4-4z"/></svg><view id="check-img" viewBox="698 492.33 71 54"/><svg width="71" height="54" viewBox="0 0 71 54" x="698" y="492.33" xmlns="http://www.w3.org/2000/svg"><path fill-rule="evenodd" clip-rule="evenodd" d="M59.807 1.8A6.682 6.682 0 0164.376 0a6.686 6.686 0 014.579 1.776c1.222 1.142 1.924 2.697 1.953 4.328.03 1.631-.616 3.208-1.797 4.39L34.433 51.807a6.517 6.517 0 01-2.115 1.444 6.797 6.797 0 01-5.097.09 6.55 6.55 0 01-2.17-1.368L2.074 30.066a6.225 6.225 0 01-1.51-2.016 5.954 5.954 0 01-.09-4.853 6.195 6.195 0 011.434-2.065 6.548 6.548 0 012.167-1.367 6.8 6.8 0 015.092.086c.8.34 1.518.829 2.115 1.439l18.19 17.329 30.17-36.637c.054-.064.112-.125.174-.182h-.009z"/><defs><linearGradient id="aopaint0_linear" x1="70.909" y1="0" x2="-2.435" y2="3.555" gradientUnits="userSpaceOnUse"><stop stop-color="#C7B8F5"/><stop offset="1" stop-color="#33C5F3"/></linearGradient></defs></svg><view id="circle" viewBox="679 626 18 18"/><svg width="18" height="18" viewBox="0 0 18 18" x="679" y="626" xmlns="http://www.w3.org/2000/svg"><path d="M9 15.666A6.667 6.667 0 109 2.333a6.667 6.667 0 000 13.333zm0 1.667A8.333 8.333 0 119 .667a8.333 8.333 0 010 16.666zm0-6.666a1.667 1.667 0 100-3.334 1.667 1.667 0 000 3.333zm0 1.666a3.333 3.333 0 110-6.667 3.333 3.333 0 010 6.667z"/></svg><view id="client" viewBox="0 0 567 568"/><svg width="567" height="568" viewBox="0 0 567 568" xmlns="http://www.w3.org/2000/svg"><path d="M297.016 290.212c67.923 0 122.986-55.062 122.986-122.985 0-67.922-55.063-122.985-122.986-122.985-67.922 0-122.985 55.063-122.985 122.985 0 67.923 55.063 122.985 122.985 122.985z"/><path fill-rule="evenodd" clip-rule="evenodd" d="M532.818 493.241c-14.314-117.534-114.446-208.577-235.844-208.577-121.397 0-221.53 91.043-235.845 208.577h51.519c13.942-89.255 91.159-157.547 184.326-157.547 93.167 0 170.383 68.292 184.326 157.547h51.518z"/></svg><view id="clock" viewBox="451 726 30 30"/><svg width="30" height="30" viewBox="0 0 30 30" x="451" y="726" xmlns="http://www.w3.org/2000/svg"><path d="M14.985 0C6.705 0 0 6.72 0 15c0 8.28 6.705 15 14.985 15C23.28 30 30 23.28 30 15c0-8.28-6.72-15-15.015-15zM15 27C8.37 27 3 21.63 3 15S8.37 3 15 3s12 5.37 12 12-5.37 12-12 12zm-.33-19.5h-.09c-.6 0-1.08.48-1.08 1.08v7.08c0 .525.27 1.02.735 1.29l6.225 3.735c.51.3 1.17.15 1.47-.36a1.065 1.065 0 00-.375-1.485l-5.805-3.45V8.58c0-.6-.48-1.08-1.08-1.08z"/></svg><view id="cubes" viewBox="854 568 36 32"/><svg width="36" height="32" viewBox="0 0 36 32" x="854" y="568" xmlns="http://www.w3.org/2000/svg"><path d="M35 11.695V5.469a1.167 1.167 0 00-.58-1.007l-5.54-3.225a1.748 1.748 0 00-1.759 0l-5.54 3.225A1.167 1.167 0 0021 5.47v6.226a1.167 1.167 0 00.58 1.007l5.541 3.225a1.75 1.75 0 001.759 0l5.541-3.225A1.167 1.167 0 0035 11.695z"/><path d="M21.184 4.863L28 8.873l6.818-4.01M28 16.165V8.874M24.25 22.669V12.33a1.937 1.937 0 00-.962-1.672l-9.203-5.356a2.903 2.903 0 00-2.921 0l-9.202 5.356A1.938 1.938 0 001 12.33v10.339a1.938 1.938 0 00.962 1.673l9.203 5.356a2.906 2.906 0 002.921 0l9.203-5.356a1.937 1.937 0 00.961-1.673z"/><path d="M1.305 11.324l11.322 6.66 11.322-6.66"/><path d="M1.305 11.324l11.322 6.66 11.322-6.66M12.625 30.093v-12.11 12.11zM12.625 30.093v-12.11"/></svg><view id="cup" viewBox="892 646 30 36"/><svg width="30" height="36" viewBox="0 0 30 36" x="892" y="646" xmlns="http://www.w3.org/2000/svg"><path d="M0 14.947V25.45c0 2.894 1.019 5.356 3.056 7.387 2.038 2.03 4.508 3.045 7.412 3.045h3.021c2.623 0 4.907-.851 6.85-2.555 1.944-1.704 3.104-3.84 3.478-6.407h.14c1.64 0 3.057-.583 4.251-1.75C29.403 24.003 30 22.602 30 20.969c0-1.634-.597-3.046-1.792-4.236-1.194-1.19-2.61-1.786-4.25-1.786 0-.793-.293-1.482-.878-2.065-.586-.584-1.277-.875-2.073-.875H3.021c-.843 0-1.557.291-2.143.875C.293 13.465 0 14.154 0 14.947zm23.958 3.011c.843 0 1.557.292 2.143.875.585.584.878 1.296.878 2.136 0 .793-.293 1.482-.878 2.065-.586.584-1.3.876-2.143.876v-5.952zm-2.951 7.492c0 2.054-.726 3.804-2.178 5.251-1.452 1.447-3.232 2.17-5.34 2.17h-3.02c-2.062 0-3.818-.723-5.27-2.17-1.452-1.447-2.178-3.197-2.178-5.251V14.947h17.986V25.45zM10.187 2.414c.469-.887.328-1.587-.421-2.1C8.97-.2 8.314-.083 7.799.664l-.773.98C6.183 2.998 5.843 4.456 6.007 6.02c.164 1.564.808 2.906 1.932 4.026.281.28.632.42 1.054.42.422 0 .773-.14 1.054-.42.609-.7.609-1.4 0-2.1A3.568 3.568 0 018.993 5.74c-.094-.863.117-1.669.632-2.415l.562-.91zm5.27 3.711l.562-.56c.655-.653.702-1.354.14-2.1-.187-.28-.503-.432-.948-.456-.445-.023-.808.082-1.09.316l-.632.56c-1.03.887-1.475 1.937-1.334 3.15.14 1.307.89 2.358 2.248 3.151.093.187.28.28.562.28.562 0 1.03-.233 1.405-.7.515-.887.304-1.587-.632-2.1-.515-.327-.773-.584-.773-.77l.492-.77z"/></svg><view id="door" viewBox="697 626 18 17"/><svg width="18" height="17" viewBox="0 0 18 17" x="697" y="626" xmlns="http://www.w3.org/2000/svg"><path d="M.667 16.5v-1.667h1.666V3.03c0-.403.289-.748.684-.82L10.911.774a.499.499 0 01.589.492v1.066l3.333.001c.46 0 .834.373.834.833v11.667h1.666V16.5H14V4h-2.5v12.5H.667zM9.833 2.663L4 3.725v11.108h5.833V2.663zM9 8.166v1.667H7.333V8.166H9z"/></svg><view id="door-menu" viewBox="694 568 40 57"/><svg width="40" height="57" viewBox="0 0 40 57" x="694" y="568" xmlns="http://www.w3.org/2000/svg"><path d="M38.825.961H1v54.706h37.825V.96z"/><path d="M18.806 2.663H2.548V53.76h16.258V2.663zm18.581 0H21.129V53.76h16.258V2.663zM7.893 30.8l5.48-6.216m-4.95 8.289l3.535-3.937"/></svg><view id="door-menu2" viewBox="734 568 41 57"/><svg width="41" height="57" viewBox="0 0 41 57" x="734" y="568" xmlns="http://www.w3.org/2000/svg"><path d="M40.058.69H1.288v55.326h38.77V.69z"/><path d="M37.963 2.786H3.383v53.23h34.58V2.786zM1.288.69l2.096 2.096M40.058.69l-2.096 2.096"/><path d="M33.771 25.628H30v8.802h3.772v-8.802zm-1.886 2.934h-6.077"/></svg><view id="door-menu3" viewBox="565 568 46 58"/><svg width="46" height="58" viewBox="0 0 46 58" x="565" y="568" xmlns="http://www.w3.org/2000/svg"><g clip-path="url(#axclip0)" stroke-miterlimit="10"><path d="M45.477 56.943H.629V22.155L18.652 1.616h26.825v55.326z"/><path d="M19.49 23.831H3.144v30.807H19.49V23.83zm23.682 0H21.586v30.807h21.586V23.83zm0-19.909H21.586v18.023h21.586V3.922zM19.7 21.946H3.772L19.7 4.342v17.604zM10.06 39.968l4.4-4.4m-5.03 7.125l2.725-2.724m21.586-25.987l4.401-4.4m-5.03 7.124l2.934-2.724"/></g><defs><clipPath id="axclip0"><path transform="translate(0 .988)" d="M0 0h45.896v56.374H0z"/></clipPath></defs></svg><view id="door-menu4" viewBox="611 568 41 58"/><svg width="41" height="58" viewBox="0 0 41 58" x="611" y="568" xmlns="http://www.w3.org/2000/svg"><path d="M4.144 52.196H1V3.576h11.317m11.316 48.62h-5.868m11.317-48.62h11.317v48.62h-3.144m-19.49-48.62h5.868M4.144 52.196V6.301M37.255 6.3v45.896M17.765 6.3h5.868"/><path d="M17.765 57.016l-13.621-4.82V6.3l13.621-4.61v55.326zm19.49-4.82V6.3L23.633 1.69v55.326l13.622-4.82zM26.567 25.37v7.126M14.832 25.58v7.126"/></svg><view id="door-menu5" viewBox="652 568 42 58"/><svg width="42" height="58" viewBox="0 0 42 58" x="652" y="568" xmlns="http://www.w3.org/2000/svg"><path d="M7.496 56.612v-43.38m13.832 16.137V4.22M1 54.098v-43.38m0 43.38l6.497 2.514M1 10.717l6.497 2.515m7.125-11.737l6.706 2.725m13.202 9.43l6.707 2.725M21.328 29.368l19.909-12.993v18.022L7.497 56.612M21.328 22.243l13.203-8.592M21.328 4.22L7.496 13.232m7.545-11.945L1 10.717"/><path d="M13.155 53.05s-.838-3.983 0-6.288 0-4.82-.838-6.496c-.839-1.677-1.467-3.982-1.048-5.24.21-1.257.21-6.496-3.563-8.382m3.143-15.508c-1.467 3.982-.42 5.658.838 9.012 1.258 3.353 2.515 5.239 2.305 11.316 0 6.078 1.677 7.335 1.886 7.545 0 0 1.677-3.563 1.468-7.335-.21-3.563-.63-9.012 0-11.946.628-3.143 1.676-10.478-.839-12.364m2.935 41.494s-2.305-3.563-1.886-5.659c.419-2.095 2.095-5.239 2.515-7.335.419-2.305 2.514-.628 3.772 1.887 1.257 2.514 6.497.419 6.706 3.981M25.31 26.853s0 4.82 1.886 6.916 5.239 1.886 5.868 6.077"/><path d="M13.364 9.46s-1.886 4.4.838 10.897c0 0 2.306-5.868.838-11.945m-4.61 46.105s-.838-2.306-.419-4.82c.42-2.515.629-4.192.42-6.288-.21-2.095-2.096-4.82-1.677-6.496.419-1.886-1.048-3.563-1.048-3.563m14.46 13.622s-2.096-1.886-2.096-3.563c0-1.676 1.467-2.933 1.677-3.981 0 0 .838 1.676 2.515 1.676 1.676.21 3.982.839 4.191 1.677"/><path d="M25.31 44.877s-.21-.838-1.258-.838a2.182 2.182 0 01-1.467-1.048m0-14.461s.839 4.82 2.725 6.497m3.772-10.688s-1.048 5.24 1.048 6.706c2.095 1.467 3.772 2.096 4.4 3.563 0 0 0-2.934 1.048-5.659 1.048-2.515 1.886-6.915 1.467-9.85"/><path d="M31.597 22.662s-.21 2.305 0 4.191c.21 1.886 1.047 3.144 1.047 3.144s1.258-3.563 1.467-5.24c.21-1.676.42-3.981.42-3.981m2.724 16.347s-.21-4.401 1.048-6.707c1.047-2.305 1.047-5.03 1.047-5.03M7.496 19.519s2.096 4.4 2.934 5.239"/></svg><view id="drop" viewBox="481 726 24 30"/><svg width="24" height="30" viewBox="0 0 24 30" x="481" y="726" xmlns="http://www.w3.org/2000/svg"><path d="M12.786.28a1.552 1.552 0 00-1.78 0 33.49 33.49 0 00-5.453 5.038C1.92 9.496 0 13.917 0 18.103a11.897 11.897 0 0023.793 0C23.793 8.1 13.236.595 12.786.281zm-.89 26.616a8.803 8.803 0 01-8.793-8.793c0-4.307 2.581-8.193 4.746-10.695a32.2 32.2 0 014.048-3.902 32.199 32.199 0 014.047 3.902c2.165 2.502 4.746 6.388 4.746 10.695a8.803 8.803 0 01-8.793 8.793zm6.725-8.793a6.732 6.732 0 01-6.724 6.725 1.552 1.552 0 110-3.104 3.625 3.625 0 003.62-3.62 1.552 1.552 0 013.104 0z"/></svg><view id="flower" viewBox="505 726 27 30"/><svg width="27" height="30" viewBox="0 0 27 30" x="505" y="726" xmlns="http://www.w3.org/2000/svg"><path d="M0 16.5A13.5 13.5 0 0013.5 30 13.5 13.5 0 000 16.5zm3.66 3.66a10.48 10.48 0 016.18 6.18 10.478 10.478 0 01-6.18-6.18zM13.5 30A13.5 13.5 0 0027 16.5 13.5 13.5 0 0013.5 30zm3.63-3.645a10.313 10.313 0 016.225-6.225 10.545 10.545 0 01-6.225 6.225zM13.5 18a9 9 0 009-9V1.5a8.85 8.85 0 00-3.24.585 6.423 6.423 0 00-2.175 1.5L13.5 0 9.915 3.585a6.423 6.423 0 00-2.175-1.5A8.85 8.85 0 004.5 1.5V9a9 9 0 009 9zm-6-12.585L9.855 7.89 13.5 4.245l3.645 3.645L19.5 5.415V9a6 6 0 11-12 0V5.415z"/></svg><view id="forest" viewBox="360 726 30 32"/><svg width="30" height="32" viewBox="0 0 30 32" x="360" y="726" xmlns="http://www.w3.org/2000/svg"><path d="M21.76 4.682a7.368 7.368 0 00-3.885 1.109 9.521 9.521 0 00-4.237-4.698A9.056 9.056 0 007.488.19a9.274 9.274 0 00-5.335 3.29A9.839 9.839 0 000 9.502v6.428a9.84 9.84 0 002.206 6.217 9.26 9.26 0 005.566 3.28v4.965c0 .426.163.835.455 1.136.291.302.687.471 1.099.471.412 0 .807-.17 1.099-.47.291-.302.455-.71.455-1.137v-4.965a9.309 9.309 0 004.321-2.025 7.93 7.93 0 002.145 2.337 7.645 7.645 0 002.86 1.279v3.374c0 .426.164.835.455 1.136.292.302.687.471 1.1.471.412 0 .807-.17 1.099-.47.291-.302.455-.71.455-1.137v-3.375a7.733 7.733 0 004.466-2.791 8.204 8.204 0 001.751-5.083v-6.427a8.178 8.178 0 00-2.276-5.682 7.645 7.645 0 00-5.496-2.353zm-7.771 8.035v6.427c.015.307.046.613.093.916a6.196 6.196 0 01-3.202 2.09v-4.612c0-.427-.164-.835-.455-1.137a1.529 1.529 0 00-1.1-.47c-.411 0-.807.169-1.098.47-.292.302-.455.71-.455 1.137v4.595a6.206 6.206 0 01-3.355-2.279 6.568 6.568 0 01-1.308-3.923V9.503a6.585 6.585 0 011.04-3.58 6.268 6.268 0 012.79-2.377 6.029 6.029 0 013.597-.37 6.157 6.157 0 013.189 1.763 6.403 6.403 0 011.647 3.214 8.226 8.226 0 00-1.383 4.564zm12.434 6.427a4.933 4.933 0 01-.86 2.776 4.682 4.682 0 01-2.248 1.756v-6.138c0-.427-.164-.835-.456-1.137a1.529 1.529 0 00-1.099-.47 1.53 1.53 0 00-1.099.47c-.291.302-.455.71-.455 1.137v6.138a4.682 4.682 0 01-2.25-1.756 4.933 4.933 0 01-.858-2.776v-6.427c0-1.279.49-2.505 1.365-3.41a4.587 4.587 0 013.297-1.411 4.59 4.59 0 013.298 1.412 4.905 4.905 0 011.365 3.409v6.427z"/></svg><view id="hammer" viewBox="532 726 30 30"/><svg width="30" height="30" viewBox="0 0 30 30" x="532" y="726" xmlns="http://www.w3.org/2000/svg"><path d="M2.994 12.513l4.23 4.23 9.518-9.519-4.23-4.23-9.518 9.517v.002zm19.035 8.459l-7.403-7.404-1.056 1.06 7.403 7.403 1.056-1.06zm2.117 2.116l-1.058 1.058 2.643 2.642a.748.748 0 001.057-1.057l-2.642-2.643zM8.19 3.084L10.396.877a2.99 2.99 0 014.231 0l4.23 4.23a2.991 2.991 0 010 4.23l-2.115 2.115 12.163 12.163a3.74 3.74 0 11-5.289 5.288L11.454 16.741l-2.115 2.114a2.991 2.991 0 01-4.23 0L.877 14.627a2.991 2.991 0 010-4.23l2.206-2.205a2.243 2.243 0 01.438-2.555l2.116-2.113a2.243 2.243 0 012.555-.438l-.002-.002z"/></svg><view id="icon-calc__img1" viewBox="791 646 64 80"/><svg width="64" height="80" viewBox="0 0 64 80" x="791" y="646" xmlns="http://www.w3.org/2000/svg"><path d="M64 10H12v70h52V10z"/><path d="M55 1H1v72h54V1zM9.5 22.5l7.5-5M38 56l7.5-5M19 17l11.5-7.5m-6.5 56L35.5 58M9 15.5L22 7m11 59.5L46 58"/></svg><view id="icon-calc__img2" viewBox="673 646 118 80"/><svg width="118" height="80" viewBox="0 0 118 80" x="673" y="646" xmlns="http://www.w3.org/2000/svg"><path d="M118 10H9v70h109V10z"/><path d="M55 1H1v72h54V1zM9.5 22.5l7.5-5m2-.5l11.5-7.5M9 15.5L22 7M109 1H55v72h54V1zM92 56l7.5-5M78 65.5L89.5 58M87 66.5l13-8.5"/></svg><view id="icon-calc__img3" viewBox="739 412.33 172 80"/><svg width="172" height="80" viewBox="0 0 172 80" x="739" y="412.33" xmlns="http://www.w3.org/2000/svg"><path d="M172 10H10v70h162V10z"/><path d="M55 1H1v72h54V1zM9.5 22.5l7.5-5m2-.5l11.5-7.5M9 15.5L22 7M109 1H55v72h54V1zm54 0h-54v72h54V1zM146 56l7.5-5M132 65.5l11.5-7.5m-2.5 8.5l13-8.5"/></svg><view id="icon-calc__img4" viewBox="430 568 135 78"/><svg width="135" height="78" viewBox="0 0 135 78" x="430" y="568" xmlns="http://www.w3.org/2000/svg"><path d="M114 4H6v43h108V4z"/><path d="M135 10H94v68h41V10z"/><path d="M126 1H83v70h43V1zM112 53l7.5-5M98 62.5l11.5-7.5m-2.5 8.5l13-8.5M83 1H42v41h41V1zM42 1H1v41h41V1zM9.5 22.5l7.5-5m2-.5l11.5-7.5M9 15.5L22 7"/></svg><view id="icon-calc__img5" viewBox="425 646 130 80"/><svg width="130" height="80" viewBox="0 0 130 80" x="425" y="646" xmlns="http://www.w3.org/2000/svg"><path d="M130 28H34v52h96V28z"/><path d="M79 2V1H33C15.327 1 1 15.327 1 33v40h78V2zM11.5 28.5l7.5-5m2-.5l11.5-7.5m-21.5 6L24 13"/><path d="M51 2V1h46c17.673 0 32 14.327 32 32v40H51V2zM123 51l-7.5 5m-2 .5L102 64m21.5-6l-13 8.5"/><path d="M91 1H37v72h54V1z"/></svg><view id="inst" viewBox="715 626 17 17"/><svg width="17" height="17" viewBox="0 0 17 17" x="715" y="626" xmlns="http://www.w3.org/2000/svg"><path d="M14.827 11.74a3.114 3.114 0 01-.913 2.21 3.133 3.133 0 01-2.214.92H4.633a3.14 3.14 0 01-2.89-1.934 3.122 3.122 0 01-.237-1.196V4.675a3.124 3.124 0 01.913-2.213 3.144 3.144 0 012.214-.923H11.7a3.144 3.144 0 012.89 1.939c.158.38.238.787.237 1.197v7.065zM11.65 0H4.716A4.735 4.735 0 001.38 1.383 4.706 4.706 0 000 4.713v6.907a4.694 4.694 0 001.379 3.33 4.724 4.724 0 003.336 1.383h6.903a4.734 4.734 0 003.337-1.383 4.703 4.703 0 001.378-3.33V4.714a4.693 4.693 0 00-1.378-3.33A4.724 4.724 0 0011.618 0h.032zM8.167 10.955a2.765 2.765 0 01-2.557-1.69 2.742 2.742 0 01.59-3 2.76 2.76 0 014.7 1.668 2.744 2.744 0 01-1.681 2.81c-.333.14-.69.21-1.052.212zm0-6.97a4.268 4.268 0 00-2.372.707A4.248 4.248 0 003.97 9.05a4.262 4.262 0 007.72 1.536c.469-.7.718-1.521.717-2.362a4.232 4.232 0 00-2.612-3.93 4.253 4.253 0 00-1.627-.328v.02zm4.379-1.166a.994.994 0 00-.998 1.034.984.984 0 00.796.924.994.994 0 001.183-.871.985.985 0 00-.432-.92.98.98 0 00-.55-.167z"/></svg><view id="key" viewBox="674 726 18 18"/><svg width="18" height="18" viewBox="0 0 18 18" x="674" y="726" xmlns="http://www.w3.org/2000/svg"><path d="M9 17.333A8.333 8.333 0 119 .667a8.333 8.333 0 010 16.666zm0-1.666A6.667 6.667 0 109 2.332a6.667 6.667 0 000 13.333zM8.167 9.66a2.083 2.083 0 111.666 0v2.673H8.167V9.66z"/></svg><view id="lamp" viewBox="390 726 29 32"/><svg width="29" height="32" viewBox="0 0 29 32" x="390" y="726" xmlns="http://www.w3.org/2000/svg"><path d="M1.11 17.57l-.877-.68a1.11 1.11 0 00.091 1.464l.786-.783zm11.1-15.538l-.786.785.786-.785zm4.44 4.44l.785.785.784-.786-.784-.785-.786.785zm-4.44 4.44l-.786.785.786.784.785-.784-.785-.786zm-4.44-4.44l-.786.785.786-.786zm6.962 1.917l.785.784-.785-.784zm-.604.604l-.786-.783.786.783zm.604 12.716l-.784-.786.784.786zM27.447 8.993l-.786-.783.786.783zm0-.604l-.786.784.786-.784zm-13.32 13.32l.784-.786-.783.786zM2.22 32h24.42v-2.22H2.22V32zm12.995-1.896L1.896 16.784.324 18.358l13.32 13.319 1.571-1.57v-.002zM1.985 18.252l7.77-9.99L8.002 6.9l-7.77 9.99 1.754 1.362h-.002zm9.439-15.435l4.44 4.44 1.571-1.571-4.44-4.44-1.571 1.571zm4.44 2.869l-4.44 4.44 1.572 1.571 4.44-4.44-1.572-1.571zm-2.869 4.44l-4.44-4.44-1.57 1.571 4.439 4.44 1.572-1.572zm-4.44-7.309a2.029 2.029 0 012.869 0l1.572-1.571a4.248 4.248 0 00-6.012 0l1.572 1.571zm-1.57-1.571a4.249 4.249 0 000 6.011l1.57-1.571a2.029 2.029 0 010-2.869l-1.57-1.571zm6.963 6.358l-.606.606 1.57 1.569.605-.606-1.57-1.57zm1.57 14.888L28.23 9.78l-1.569-1.57-12.713 12.714 1.57 1.57zM28.23 9.78c.6-.6.6-1.576 0-2.175l-1.569 1.569a.681.681 0 010-.963l1.57 1.569zM13.342 22.492c.6.6 1.576.6 2.175 0l-1.57-1.57a.68.68 0 01.964 0l-1.57 1.57zm0-14.282a10.1 10.1 0 000 14.282l1.57-1.57a7.88 7.88 0 010-11.143l-1.57-1.57zm2.175.963a7.88 7.88 0 0111.144 0l1.57-1.57a10.1 10.1 0 00-14.283 0l1.57 1.57z"/></svg><view id="lightning" viewBox="922 646 24 36"/><svg width="24" height="36" viewBox="0 0 24 36" x="922" y="646" xmlns="http://www.w3.org/2000/svg"><path d="M14.948 2.254h.035-.035zm0 0l-2.557 13.35 9.304.036L9.052 33.746l2.557-14.69-9.304-.035L14.948 2.255zm0-2.254h-.178c-.19.023-.355.065-.497.123a2.904 2.904 0 00-.48.264 2.33 2.33 0 00-.479.423.277.277 0 00-.053.07.275.275 0 01-.054.071L.458 17.648c-.544.751-.604 1.538-.177 2.36.07.14.16.276.266.405.107.13.225.247.355.352.13.106.272.194.426.264a2.387 2.387 0 00.977.211l6.57.036L6.78 33.358a2.104 2.104 0 00.248 1.462c.26.458.628.792 1.101 1.004.142.07.29.117.444.14.154.024.314.036.48.036.686 0 1.266-.305 1.74-.916l12.749-18.106c.544-.751.603-1.538.177-2.36-.426-.822-1.1-1.232-2.024-1.232h-6.57l2.06-10.603a2.59 2.59 0 00.053-.264 1.981 1.981 0 00-.071-.863A2.544 2.544 0 0016.6.67a1.83 1.83 0 00-.444-.353 2.691 2.691 0 00-.533-.229A1.91 1.91 0 0015.054 0h-.106z"/></svg><view id="lock" viewBox="562 726 24 30"/><svg width="24" height="30" viewBox="0 0 24 30" x="562" y="726" xmlns="http://www.w3.org/2000/svg"><path d="M12 0C7.864 0 4.5 3.365 4.5 7.5v3H3c-1.655 0-3 1.345-3 3V27c0 1.654 1.345 3 3 3h18c1.654 0 3-1.346 3-3V13.5c0-1.655-1.346-3-3-3h-1.5v-3C19.5 3.364 16.136 0 12 0zM7.5 7.5C7.5 5.019 9.519 3 12 3s4.5 2.019 4.5 4.5v3h-9v-3zM21.003 27H13.5v-3.417A2.99 2.99 0 0015 21c0-1.654-1.345-3-3-3s-3 1.346-3 3a2.99 2.99 0 001.5 2.583V27H3V13.5h18l.003 13.5z"/></svg><view id="mail" viewBox="645 626 19 18"/><svg width="19" height="18" viewBox="0 0 19 18" x="645" y="626" xmlns="http://www.w3.org/2000/svg"><path d="M12.417 2.5a4.183 4.183 0 000 1.667H2.759l6.292 5.552 4.207-3.767a4.18 4.18 0 001.303 1.07L9.06 11.949 2.333 6.013v9.82h13.334V7.418c.55.112 1.116.112 1.666 0v9.25a.834.834 0 01-.833.833h-15a.833.833 0 01-.833-.833V3.333A.833.833 0 011.5 2.5h10.917zM16.5 5.833a2.5 2.5 0 110-5 2.5 2.5 0 010 5z"/></svg><view id="many" viewBox="419 726 32 31"/><svg width="32" height="31" viewBox="0 0 32 31" x="419" y="726" xmlns="http://www.w3.org/2000/svg"><path d="M21.454 20.09c0-1.506-4.273-2.726-9.545-2.726m9.545 2.727c0 1.507-4.273 2.727-9.545 2.727s-9.545-1.22-9.545-2.727m19.09 0v6.732c0 1.553-4.273 2.813-9.545 2.813s-9.545-1.258-9.545-2.813v-6.732m19.09 0H2.364m19.09 0c5.215 0 9.546-1.346 9.546-2.727V3.727M11.91 17.364c-5.273 0-9.546 1.22-9.546 2.727m9.545-2.727C5.885 17.364 1 16.018 1 14.636V7.818m0 0c0-1.507 4.885-2.727 10.91-2.727v5.455M1 7.818c0 1.507 4.885 2.728 10.91 2.728m0 0c0 1.38 4.435 2.727 9.65 2.727 5.213 0 9.44-1.346 9.44-2.727m0-6.819C31 2.22 26.773 1 21.56 1c-5.215 0-9.44 1.22-9.44 2.727m18.88 0c0 1.507-4.227 2.728-9.44 2.728-5.214 0-9.44-1.22-9.44-2.728m0 0V17.59"/></svg><view id="mark" viewBox="732 626 14 17"/><svg width="14" height="17" viewBox="0 0 14 17" x="732" y="626" xmlns="http://www.w3.org/2000/svg"><path d="M7 14.675l3.713-3.713a5.25 5.25 0 10-7.425 0L7 14.675zm0 2.12l-4.773-4.772a6.75 6.75 0 119.546 0L7 16.796zM7 8.75a1.5 1.5 0 100-3 1.5 1.5 0 000 3zm0 1.5a3 3 0 110-6 3 3 0 010 6z"/></svg><view id="marker" viewBox="901 521.3299999999999 12 15"/><svg width="12" height="15" viewBox="0 0 12 15" x="901" y="521.3299999999999" xmlns="http://www.w3.org/2000/svg"><path d="M10.243 10.576L6 14.82l-4.243-4.243a6 6 0 118.486 0zM6 7.666A1.333 1.333 0 106 5a1.333 1.333 0 000 2.667z"/></svg><view id="mastercard" viewBox="860 492.33 44 28"/><svg width="44" height="28" viewBox="0 0 44 28" x="860" y="492.33" xmlns="http://www.w3.org/2000/svg"><g clip-path="url(#bsclip0)"><path d="M27.948 2.86H16.05v21.03h11.898V2.86z"/><path d="M16.806 13.376a13.168 13.168 0 011.364-5.847c.9-1.822 2.21-3.419 3.83-4.67A13.724 13.724 0 0015.047.077a13.797 13.797 0 00-7.394 1.269A13.522 13.522 0 002.07 6.279 13.21 13.21 0 000 13.374c0 2.509.718 4.967 2.071 7.094a13.522 13.522 0 005.583 4.933 13.798 13.798 0 007.394 1.269 13.725 13.725 0 006.951-2.782 13.395 13.395 0 01-3.828-4.668 13.168 13.168 0 01-1.365-5.844z"/><path d="M44 13.376c0 2.51-.718 4.968-2.072 7.095a13.522 13.522 0 01-5.583 4.933 13.798 13.798 0 01-7.394 1.268 13.724 13.724 0 01-6.952-2.784 13.419 13.419 0 003.828-4.669 13.189 13.189 0 000-11.69 13.418 13.418 0 00-3.828-4.669A13.723 13.723 0 0128.95.076a13.804 13.804 0 017.394 1.268 13.522 13.522 0 015.583 4.933A13.21 13.21 0 0144 13.372v.004z"/></g><defs><clipPath id="bsclip0"><path d="M0 0h44v28H0z"/></clipPath></defs></svg><view id="mini-cli1" viewBox="758 546.3299999999999 20 20"/><svg width="20" height="20" viewBox="0 0 20 20" x="758" y="546.3299999999999" xmlns="http://www.w3.org/2000/svg"><path d="M17 3H3v14h14V3z"/><path d="M17 3H9v14h8V3z"/><path d="M13 9.5l.45.6.8-.6-.8-.6-.45.6zm-.45-.6l-.667.5.9 1.2.667-.5-.9-1.2zm.45-.15h-2v1.5h2v-1.5zm-1.117.85l.667.5.9-1.2-.667-.5-.9 1.2zM3.25 6v3h1.5V6h-1.5z"/><circle cx="5.5" cy="9.5" r=".5"/><circle cx="5.5" cy="9.5" r=".5"/><circle cx="5.5" cy="7.5" r=".5"/><circle cx="5.5" cy="7.5" r=".5"/><circle cx="5.5" cy="5.5" r=".5"/><circle cx="5.5" cy="5.5" r=".5"/></svg><view id="mini-cli2" viewBox="778 546.3299999999999 20 20"/><svg width="20" height="20" viewBox="0 0 20 20" x="778" y="546.3299999999999" xmlns="http://www.w3.org/2000/svg"><path d="M17 3H3v14h14V3z"/><path d="M14 9H6v8h8V9zM6 3v6H3m10 0h4m-6 8V9m-2 8V9m5 0V3M6 13H3m11 0h3m-7-4V3"/></svg><view id="mini-cli3" viewBox="798 546.3299999999999 20 20"/><svg width="20" height="20" viewBox="0 0 20 20" x="798" y="546.3299999999999" xmlns="http://www.w3.org/2000/svg"><path d="M17 15.25V3l-7 1.75L3 3v12.25L10 17l7-1.75z"/><path d="M10 17V4.5m-7 7l7 1.5 7-1.5M3 7l7 1.5L17 7"/></svg><view id="mini-cli4" viewBox="818 546.3299999999999 20 20"/><svg width="20" height="20" viewBox="0 0 20 20" x="818" y="546.3299999999999" xmlns="http://www.w3.org/2000/svg"><path d="M17 3H3v13h14V3zM10 3v12.5M3 8h14M5 5.5h3m4 0h3M12.5 17h3m-11 0h3"/></svg><view id="mini-cli5" viewBox="838 546.3299999999999 20 20"/><svg width="20" height="20" viewBox="0 0 20 20" x="838" y="546.3299999999999" xmlns="http://www.w3.org/2000/svg"><path d="M17 3H3v3h14V3zm0 8H3v6h14v-6zM5 6v5.5M5 3v3m3-3v3m4-3v3m3-3v3m0 0v5.5"/></svg><view id="mini-comp" viewBox="858 546.3299999999999 20 20"/><svg width="20" height="20" viewBox="0 0 20 20" x="858" y="546.3299999999999" xmlns="http://www.w3.org/2000/svg"><path d="M17 3H3v14h14V3z"/><path d="M17 3H9v14h8V3z"/><path d="M13 9.5l.45.6.8-.6-.8-.6-.45.6zm-.45-.6l-.667.5.9 1.2.667-.5-.9-1.2zm.45-.15h-2v1.5h2v-1.5zm-1.117.85l.667.5.9-1.2-.667-.5-.9 1.2zM3.25 6v3h1.5V6h-1.5z"/><circle cx="5.5" cy="9.5" r=".5"/><circle cx="5.5" cy="9.5" r=".5"/><circle cx="5.5" cy="7.5" r=".5"/><circle cx="5.5" cy="7.5" r=".5"/><circle cx="5.5" cy="5.5" r=".5"/><circle cx="5.5" cy="5.5" r=".5"/></svg><view id="mini-comp1" viewBox="878 546.3299999999999 20 20"/><svg width="20" height="20" viewBox="0 0 20 20" x="878" y="546.3299999999999" xmlns="http://www.w3.org/2000/svg"><path d="M17 3v9.056L3 17"/><path d="M17 3l-3 1v6.057L3 14v3"/><path d="M14 4c-1.833.667-6 2-6 2s-3.5 5.333-5 8"/></svg><view id="mini-comp2" viewBox="898 546.3299999999999 20 20"/><svg width="20" height="20" viewBox="0 0 20 20" x="898" y="546.3299999999999" xmlns="http://www.w3.org/2000/svg"><path d="M3 8l6-5m1 14l2.23-1.57v-1.96l.309-.248L17 10V7l-7 5.041M3 8l7 4.046V17l-7-3.963V8zm6-5l8 4"/></svg><view id="mini-comp3" viewBox="918 546.3299999999999 20 20"/><svg width="20" height="20" viewBox="0 0 20 20" x="918" y="546.3299999999999" xmlns="http://www.w3.org/2000/svg"><path d="M10 6V3H3v14h7V8"/><path d="M17 6H6v2h11V6zM6.5 11v3"/></svg><view id="mini-comp4" viewBox="938 546.3299999999999 20 20"/><svg width="20" height="20" viewBox="0 0 20 20" x="938" y="546.3299999999999" xmlns="http://www.w3.org/2000/svg"><path d="M17 3H3v14h14V3z"/><path d="M5.5 17c-.167-1.167-.5-3 1-5s-.2-4.4-1-6m2-3c.333 1.167 1.3 3.9 2.5 5.5s-.5 4.333-1.5 5.5c1.333-.5 4.2-1.9 5-3.5 1-2-.5-5.5.5-7.5m-3 0c0 1 .1 3.2.5 4m.5 10c0-.667.4-2.2 2-3 2-1 3-2 3-3"/></svg><view id="mini-comp5" viewBox="837 521.3299999999999 16 16"/><svg width="16" height="16" viewBox="0 0 16 16" x="837" y="521.3299999999999" xmlns="http://www.w3.org/2000/svg"><path d="M-4.728 5.171l15.556 15.557M-2.748 3.19l15.556 15.557M-.768 1.212l15.556 15.556M1.212-.768l15.556 15.556M3.192-2.748l15.556 15.556M5.17-4.728l15.557 15.556M10.828-4.728L-4.728 10.828M12.808-2.748L-2.748 12.808M14.788-.768L-.768 14.788M16.768 1.212L1.21 16.768M18.748 3.192L3.19 18.748M20.728 5.17L5.17 20.728"/></svg><view id="mini-comp6" viewBox="958 546.3299999999999 20 20"/><svg width="20" height="20" viewBox="0 0 20 20" x="958" y="546.3299999999999" xmlns="http://www.w3.org/2000/svg"><path d="M16.5 14l.5 3H4l-1-5h.5"/><path d="M16.5 11l.5 3H4L3 9h.5"/><path d="M16.5 8l.5 3H4L3 6h.5"/><path d="M4 8h13l-1-5H3l1 5zM6 3v12m8-12v12"/></svg><view id="mini-door1" viewBox="775 605 20 20"/><svg width="20" height="20" viewBox="0 0 20 20" x="775" y="605" xmlns="http://www.w3.org/2000/svg"><path d="M17 3H3v14h14V3z"/><path d="M14 6H6v11h8V6zM11 10.5v2"/></svg><view id="mini-door2" viewBox="795 605 20 20"/><svg width="20" height="20" viewBox="0 0 20 20" x="795" y="605" xmlns="http://www.w3.org/2000/svg"><path d="M17 3H3v14h14V3z"/><path d="M14 6H6v11h8V6zM11 10.5v2"/></svg><view id="mini-door3" viewBox="815 605 20 20"/><svg width="20" height="20" viewBox="0 0 20 20" x="815" y="605" xmlns="http://www.w3.org/2000/svg"><path d="M17 3.5H3v14h14v-14zM10 3v14"/><ellipse cx="7.5" cy="10.5" rx=".5" ry="1"/><ellipse cx="7.5" cy="10.5" rx=".5" ry="1"/><ellipse cx="7.5" cy="10.5" rx=".5" ry="1"/><ellipse cx="12.5" cy="10.5" rx=".5" ry="1"/><ellipse cx="12.5" cy="10.5" rx=".5" ry="1"/><ellipse cx="12.5" cy="10.5" rx=".5" ry="1"/></svg><view id="mini-door4" viewBox="835 605 20 20"/><svg width="20" height="20" viewBox="0 0 20 20" x="835" y="605" xmlns="http://www.w3.org/2000/svg"><path d="M17 3H3v14h14V3z"/><path d="M17 3h-6v14h6V3zM9 3H3v14h6V3z"/><path d="M6 10.5l-.45.6-.8-.6.8-.6.45.6zm.45-.6l.667.5-.9 1.2-.667-.5.9-1.2zM6 9.75h2v1.5H6v-1.5zm1.117.85l-.667.5-.9-1.2.667-.5.9 1.2zM14 10.5l.45.6.8-.6-.8-.6-.45.6zm-.45-.6l-.667.5.9 1.2.667-.5-.9-1.2zm.45-.15h-2v1.5h2v-1.5zm-1.117.85l.667.5.9-1.2-.667-.5-.9 1.2z"/></svg><view id="mini-door5" viewBox="855 605 20 20"/><svg width="20" height="20" viewBox="0 0 20 20" x="855" y="605" xmlns="http://www.w3.org/2000/svg"><path d="M17 3H3v14h14V3z"/><path d="M17 3H9v14h8V3z"/><path d="M13 9.5l.45.6.8-.6-.8-.6-.45.6zm-.45-.6l-.667.5.9 1.2.667-.5-.9-1.2zm.45-.15h-2v1.5h2v-1.5zm-1.117.85l.667.5.9-1.2-.667-.5-.9 1.2zM3.25 6v3h1.5V6h-1.5z"/><circle cx="5.5" cy="9.5" r=".5"/><circle cx="5.5" cy="9.5" r=".5"/><circle cx="5.5" cy="7.5" r=".5"/><circle cx="5.5" cy="7.5" r=".5"/><circle cx="5.5" cy="5.5" r=".5"/><circle cx="5.5" cy="5.5" r=".5"/></svg><view id="mini-door6" viewBox="875 605 20 20"/><svg width="20" height="20" viewBox="0 0 20 20" x="875" y="605" xmlns="http://www.w3.org/2000/svg"><path d="M17 3H3v14h14V3z"/><path d="M14 5H6v12h8V5zM12 8H8m4 2H8m4 2H8m4 2H8"/></svg><view id="mini-door7" viewBox="895 605 20 20"/><svg width="20" height="20" viewBox="0 0 20 20" x="895" y="605" xmlns="http://www.w3.org/2000/svg"><path d="M17 3H3v14h14V3z"/><path d="M13 9H7v8h6V9zM7 3v6H3m10 0h4m-7 8V9m3 0V3M7 13H3m10 0h4"/></svg><view id="mini-fac1" viewBox="915 605 20 20"/><svg width="20" height="20" viewBox="0 0 20 20" x="915" y="605" xmlns="http://www.w3.org/2000/svg"><path d="M14.5 3h-9L3 9h14l-2.5-6z"/><path d="M14 17V9m-8 8V9m0 0c0-.4.667-4.167 1-6m7 6l-1-6m-3 6V3"/></svg><view id="mini-fac2" viewBox="935 605 20 20"/><svg width="20" height="20" viewBox="0 0 20 20" x="935" y="605" xmlns="http://www.w3.org/2000/svg"><path d="M17 17V3.933S14 3 10 3s-7 .933-7 .933V17s3-.933 7-.933S17 17 17 17zM8 3v13m4 0V3"/></svg><view id="mini-fac3" viewBox="955 605 20 20"/><svg width="20" height="20" viewBox="0 0 20 20" x="955" y="605" xmlns="http://www.w3.org/2000/svg"><path d="M17 3H3v14h14V3z"/><path d="M5.5 17V8h4v9m2.5-5h2.5V6H12v6z"/></svg><view id="mini-fac4" viewBox="565 626 20 20"/><svg width="20" height="20" viewBox="0 0 20 20" x="565" y="626" xmlns="http://www.w3.org/2000/svg"><path d="M3 10v7h7m-7-7l7-7m-7 7h7m0-7h7v7m-7-7v7m0 0h7m-7 0v7m7-7v7h-7"/></svg><view id="mini-win1" viewBox="585 626 20 20"/><svg width="20" height="20" viewBox="0 0 20 20" x="585" y="626" xmlns="http://www.w3.org/2000/svg"><path d="M17 3H3v14h14V3zM10 17V3m-7 7h14"/></svg><view id="mini-win2" viewBox="605 626 20 20"/><svg width="20" height="20" viewBox="0 0 20 20" x="605" y="626" xmlns="http://www.w3.org/2000/svg"><path d="M17 3H3v14h14V3zM10 17V3"/></svg><view id="mini-win3" viewBox="625 626 20 20"/><svg width="20" height="20" viewBox="0 0 20 20" x="625" y="626" xmlns="http://www.w3.org/2000/svg"><path d="M3 17V3h14v14"/><path d="M7 3H3v10h4V3zm6 0H7v10h6V3zm4 0h-4v10h4V3zM15 13v4M5 13v4m2.5-4v4m2.5-4v4m2.5-4v4"/></svg><view id="mounted" viewBox="954 568 24 21"/><svg width="24" height="21" viewBox="0 0 24 21" x="954" y="568" xmlns="http://www.w3.org/2000/svg"><path fill-rule="evenodd" clip-rule="evenodd" d="M21 1.5H3A1.5 1.5 0 001.5 3v15A1.5 1.5 0 003 19.5h18a1.5 1.5 0 001.5-1.5V3A1.5 1.5 0 0021 1.5zM3 0a3 3 0 00-3 3v15a3 3 0 003 3h18a3 3 0 003-3V3a3 3 0 00-3-3H3z"/><path d="M15.969 9.969a.75.75 0 01.865-.14l5.666 2.92v6.75h-21v-3l3.969-3.53a.75.75 0 01.945-.093l3.99 2.66 5.565-5.566z"/><path fill-rule="evenodd" clip-rule="evenodd" d="M6.75 9a2.25 2.25 0 100-4.5 2.25 2.25 0 000 4.5z"/></svg><view id="pdf" viewBox="646 726 28 28"/><svg width="28" height="28" viewBox="0 0 28 28" x="646" y="726" xmlns="http://www.w3.org/2000/svg"><path d="M7 0c-.963 0-1.75.787-1.75 1.75v24.5c0 .962.787 1.75 1.75 1.75h17.5c.962 0 1.75-.788 1.75-1.75V7l-7-7H7z"/><path d="M21 7h5.25l-7-7v5.25c0 .963.788 1.75 1.75 1.75zM26.25 12.25L21 7h5.25v5.25zM22.75 22.75a.878.878 0 01-.875.875H2.625a.878.878 0 01-.875-.875V14c0-.481.394-.875.875-.875h19.25c.481 0 .875.394.875.875v8.75z"/><path d="M5.564 16.579c0-.231.182-.483.475-.483h1.616c.91 0 1.73.609 1.73 1.776 0 1.106-.82 1.722-1.73 1.722H6.487v.924c0 .308-.196.482-.448.482a.471.471 0 01-.475-.482v-3.94zm.923.398v1.743h1.168c.47 0 .84-.414.84-.848 0-.49-.37-.895-.84-.895H6.487zM10.755 21c-.231 0-.483-.126-.483-.433v-3.975c0-.25.252-.434.483-.434h1.602c3.197 0 3.127 4.842.063 4.842h-1.665zm.44-3.988v3.135h1.162c1.889 0 1.973-3.135 0-3.135h-1.161zm5.423.057v1.112h1.784c.252 0 .504.252.504.496 0 .23-.252.42-.504.42h-1.784v1.469c0 .245-.174.433-.42.433-.307 0-.495-.188-.495-.433v-3.974c0-.251.189-.434.496-.434h2.456c.308 0 .49.183.49.434a.483.483 0 01-.49.476h-2.037zM21.875 23.625H5.25v.875h16.625a.878.878 0 00.875-.875v-.875a.878.878 0 01-.875.875z"/></svg><view id="pen" viewBox="855 646 37 38"/><svg width="37" height="38" viewBox="0 0 37 38" x="855" y="646" xmlns="http://www.w3.org/2000/svg"><path d="M7.441 1.836c-2.848 10.629 1.519 17.49 3.618 20.787l2.727 4.678a11.165 11.165 0 006.83 5.241l1.764.473-1.791-3.103a8.68 8.68 0 01-4.636-3.857l-2.784-4.774c-1.825-2.865-5.533-8.69-3.617-17.553 5.388 1.731 8.654 4.765 10.731 7.532l.266 4.441.782-2.92a37.01 37.01 0 011.617 2.854l.854 1.497.283 4.693.765-2.858.834 1.462a8.692 8.692 0 01.875 6.64l-.66 2.467-8.213-14.224-2.165 1.25 11.75 20.352 2.164-1.25-1.77-3.065 1.31-4.884a11.177 11.177 0 00-1.128-8.542l-2.685-4.692c-1.8-3.465-5.559-10.68-16.19-13.529L7.765.63 7.44 1.836z"/></svg><view id="pen-line" viewBox="855 684 36 36"/><svg width="36" height="36" viewBox="0 0 36 36" x="855" y="684" xmlns="http://www.w3.org/2000/svg"><path d="M9 17.41V27h9.59l-2-2H11v-5.59l-2-2z"/><path d="M34.87 32.29L30 27.5l2 4.5H4v-4.15h2v-1.6H4V19.6h2V18H4v-6.4h2V10H4V4.41L22 22.5v-2.82L3.71 1.29A1 1 0 002 2v31a1 1 0 001 1h31.16a1 1 0 00.71-1.71z"/><path d="M32 32l-2-4.5-1 1.5 3 3z"/><circle cx="34" cy="23" r="2"/><path d="M24 30h4a2 2 0 002-2V8.7l-2.3-4.23a2 2 0 00-1.76-1 2 2 0 00-1.76 1.08L22 8.72V28a2 2 0 002 2zm0-20.8l1.94-3.77L28 9.21V24h-4V9.2zm0 16.43h4v2.44h-4v-2.44z"/></svg><view id="people" viewBox="815 492.33 45 29"/><svg width="45" height="29" viewBox="0 0 45 29" x="815" y="492.33" xmlns="http://www.w3.org/2000/svg"><path d="M25.945 23.327a13.43 13.43 0 00-2.895-4.292 13.487 13.487 0 00-4.29-2.894c-.015-.007-.03-.01-.044-.018A8.904 8.904 0 0013.502 0a8.904 8.904 0 00-8.906 8.905 8.898 8.898 0 003.692 7.222c-.014.007-.029.01-.043.018a13.372 13.372 0 00-4.291 2.894 13.488 13.488 0 00-2.895 4.291A13.348 13.348 0 000 28.29a.287.287 0 00.287.294h2.155a.287.287 0 00.287-.28 10.706 10.706 0 013.153-7.337 10.773 10.773 0 013.253-2.238 10.748 10.748 0 014.367-.918c2.88 0 5.584 1.12 7.62 3.156a10.706 10.706 0 013.153 7.337c.003.158.129.28.287.28h2.154a.288.288 0 00.288-.295 13.381 13.381 0 00-1.06-4.962zm-12.443-8.245c-1.648 0-3.2-.643-4.367-1.81a6.136 6.136 0 01-1.81-4.367c0-1.648.643-3.199 1.81-4.366a6.136 6.136 0 014.367-1.81c1.648 0 3.2.643 4.367 1.81a6.136 6.136 0 011.81 4.366c0 1.649-.643 3.2-1.81 4.367a6.136 6.136 0 01-4.367 1.81z"/><path d="M44.176 20.954a10.33 10.33 0 00-2.25-3.303 10.496 10.496 0 00-3.338-2.228c-.01-.005-.022-.008-.033-.014a6.818 6.818 0 002.87-5.555C41.425 6.068 38.325 3 34.5 3c-3.826 0-6.925 3.068-6.925 6.854a6.827 6.827 0 002.87 5.558c-.01.006-.022.009-.033.014a10.406 10.406 0 00-3.337 2.228 10.376 10.376 0 00-2.251 3.302A10.183 10.183 0 0024 24.773a.22.22 0 00.137.21.226.226 0 00.087.017h1.675c.123 0 .22-.097.223-.216a8.2 8.2 0 012.452-5.646 8.384 8.384 0 012.53-1.723 8.432 8.432 0 013.396-.706c2.24 0 4.342.862 5.926 2.429a8.2 8.2 0 012.452 5.646.22.22 0 00.223.216h1.675a.226.226 0 00.16-.067.222.222 0 00.064-.16 10.209 10.209 0 00-.824-3.82zM34.5 14.608a4.797 4.797 0 01-3.396-1.393 4.699 4.699 0 01-1.407-3.36c0-1.27.5-2.463 1.407-3.362A4.797 4.797 0 0134.5 5.1a4.8 4.8 0 013.396 1.393 4.698 4.698 0 011.407 3.361 4.7 4.7 0 01-1.407 3.361 4.797 4.797 0 01-3.396 1.393z"/></svg><view id="phone" viewBox="692 726 12 18"/><svg width="12" height="18" viewBox="0 0 12 18" x="692" y="726" xmlns="http://www.w3.org/2000/svg"><path d="M4.348 7.534a7.917 7.917 0 002.095 3.63l.881-.725a.75.75 0 01.995.037 8.566 8.566 0 003.055 1.877.75.75 0 01.474.901l-.866 3.233a.75.75 0 01-.844.546 11.632 11.632 0 01-1.176-.251C2.76 15.12-.92 8.745.742 2.544c.104-.39.227-.771.37-1.145a.75.75 0 01.895-.457l3.233.866a.75.75 0 01.543.86 8.566 8.566 0 00.099 3.586.75.75 0 01-.466.88l-1.068.4zm-1.7-.966l1.64-.614a10.058 10.058 0 01-.083-2.87l-1.91-.512c-.037.12-.071.24-.104.36C.743 8.334 3.95 13.886 9.35 15.332c.121.033.243.063.364.09l.512-1.91a10.055 10.055 0 01-2.444-1.507L6.43 13.118a9.335 9.335 0 01-1.005-.851l-.036-.035a9.417 9.417 0 01-2.493-4.32l-.013-.048a9.332 9.332 0 01-.235-1.296z"/></svg><view id="pint" viewBox="815 521.3299999999999 22 16"/><svg width="22" height="16" viewBox="0 0 22 16" x="815" y="521.3299999999999" xmlns="http://www.w3.org/2000/svg"><path fill-rule="evenodd" clip-rule="evenodd" d="M17.789.535c.361-.341.85-.534 1.359-.535a1.99 1.99 0 011.362.528c.363.34.572.802.58 1.288a1.8 1.8 0 01-.534 1.305L10.241 15.41a1.94 1.94 0 01-.629.43 2.018 2.018 0 01-2.161-.381L.617 8.943a1.852 1.852 0 01-.45-.6A1.775 1.775 0 01.142 6.9c.098-.23.243-.44.427-.615s.403-.313.644-.406a2.022 2.022 0 011.515.025c.237.101.451.247.629.428l5.41 5.155L17.74.589a.591.591 0 01.051-.054h-.002z"/></svg><view id="plus" viewBox="927 521.3299999999999 14 14"/><svg width="14" height="14" viewBox="0 0 14 14" x="927" y="521.3299999999999" xmlns="http://www.w3.org/2000/svg"><path d="M6 6V0h2v6h6v2H8v6H6V8H0V6h6z"/></svg><view id="power" viewBox="944 492.33 25 25"/><svg width="25" height="25" viewBox="0 0 25 25" x="944" y="492.33" xmlns="http://www.w3.org/2000/svg"><path d="M12.188 24.375C5.468 24.375 0 18.898 0 12.167c0-3.66 1.597-7.09 4.38-9.407a1.29 1.29 0 111.651 1.98c-2.194 1.828-3.453 4.535-3.453 7.427 0 5.31 4.31 9.63 9.61 9.63 5.298 0 9.609-4.32 9.609-9.63a9.61 9.61 0 00-3.506-7.42 1.29 1.29 0 111.64-1.988 12.18 12.18 0 014.444 9.408c0 6.731-5.467 12.208-12.188 12.208z"/><path d="M12.188 13.125a1.289 1.289 0 01-1.29-1.29V1.29a1.289 1.289 0 112.579 0v10.547a1.289 1.289 0 01-1.29 1.289z"/></svg><view id="san" viewBox="295 726 33 33"/><svg width="33" height="33" viewBox="0 0 33 33" x="295" y="726" xmlns="http://www.w3.org/2000/svg"><path d="M16.5 0a1.65 1.65 0 011.65 1.65V3.3a1.65 1.65 0 11-3.3 0V1.65A1.65 1.65 0 0116.5 0zm11.667 4.833a1.65 1.65 0 010 2.333l-1.166 1.166A1.65 1.65 0 1124.667 6l1.167-1.166a1.65 1.65 0 012.333 0zm-23.334 0a1.65 1.65 0 012.333 0l1.166 1.166A1.65 1.65 0 016 8.332L4.833 7.166a1.65 1.65 0 010-2.333zM16.5 9.9a6.6 6.6 0 100 13.2 6.6 6.6 0 000-13.2zm-9.9 6.6a9.9 9.9 0 1119.8 0 9.9 9.9 0 01-19.8 0zm-6.6 0a1.65 1.65 0 011.65-1.65H3.3a1.65 1.65 0 110 3.3H1.65A1.65 1.65 0 010 16.5zm28.05 0a1.65 1.65 0 011.65-1.65h1.65a1.65 1.65 0 110 3.3H29.7a1.65 1.65 0 01-1.65-1.65zM6 24.668A1.65 1.65 0 018.331 27l-1.166 1.166a1.65 1.65 0 01-2.333-2.333l1.166-1.166zM24.667 27A1.65 1.65 0 0127 24.667l1.166 1.167a1.65 1.65 0 01-2.333 2.333l-1.166-1.166zM16.5 28.05a1.65 1.65 0 011.65 1.65v1.65a1.65 1.65 0 11-3.3 0V29.7a1.65 1.65 0 011.65-1.65z"/></svg><view id="shield" viewBox="926 684 34 34"/><svg width="34" height="34" viewBox="0 0 34 34" x="926" y="684" xmlns="http://www.w3.org/2000/svg"><path d="M31.937 6.642C25.488 5.486 22.822 4.63 17.001 2c-5.82 2.629-8.487 3.486-14.936 4.642C.896 25.16 15.889 31.554 17 32.002c1.112-.448 16.105-6.842 14.936-25.36z"/></svg><view id="silence" viewBox="567 492.33 75 75"/><svg width="75" height="75" viewBox="0 0 75 75" x="567" y="492.33" xmlns="http://www.w3.org/2000/svg"><path d="M25.994 35.513l4.23 4.23 9.518-9.519-4.23-4.23-9.518 9.517v.002zm19.035 8.459l-7.403-7.404-1.056 1.06 7.403 7.403 1.056-1.06zm2.117 2.116l-1.058 1.058 2.643 2.642a.748.748 0 001.057-1.057l-2.642-2.643zM31.19 26.084l2.206-2.207a2.991 2.991 0 014.231 0l4.23 4.23a2.991 2.991 0 010 4.23l-2.115 2.115 12.163 12.163a3.74 3.74 0 11-5.289 5.288L34.454 39.741l-2.115 2.114a2.991 2.991 0 01-4.23 0l-4.233-4.228a2.993 2.993 0 010-4.23l2.207-2.205a2.244 2.244 0 01.438-2.555l2.116-2.113a2.244 2.244 0 012.555-.438l-.002-.002z"/><path d="M74.5 37.5c0 20.434-16.566 37-37 37s-37-16.566-37-37c0-10.984 4.786-20.85 12.387-27.627A36.86 36.86 0 0137.5.5c20.434 0 37 16.566 37 37zM64 11.5l-52 52"/></svg><view id="slidingdoors-arrow" viewBox="904 492.33 40 25"/><svg width="40" height="25" viewBox="0 0 40 25" x="904" y="492.33" xmlns="http://www.w3.org/2000/svg"><path fill-rule="evenodd" clip-rule="evenodd" d="M27.152 1.325a1.667 1.667 0 012.36 0l9.998 9.997a1.665 1.665 0 010 2.359l-9.999 9.996a1.669 1.669 0 01-2.36-2.359l8.823-8.817-8.822-8.816a1.666 1.666 0 010-2.36z"/><path fill-rule="evenodd" clip-rule="evenodd" d="M0 12.502a1.666 1.666 0 011.666-1.666h34.995a1.667 1.667 0 010 3.332H1.666A1.667 1.667 0 010 12.502z"/></svg><view id="slidingdoors-arrow-2" viewBox="775 568 40 37"/><svg width="40" height="37" viewBox="0 0 40 37" x="775" y="568" xmlns="http://www.w3.org/2000/svg"><path fill-rule="evenodd" clip-rule="evenodd" d="M27.152.49a1.667 1.667 0 012.36 0l9.998 9.996a1.665 1.665 0 010 2.359l-10 9.995a1.669 1.669 0 01-2.36-2.359l8.823-8.817-8.822-8.816a1.666 1.666 0 010-2.36z"/><path fill-rule="evenodd" clip-rule="evenodd" d="M0 11.666A1.666 1.666 0 011.666 10h34.995a1.666 1.666 0 110 3.332H1.666A1.666 1.666 0 010 11.666z"/><path fill-rule="evenodd" clip-rule="evenodd" d="M1.667 10.164a1.666 1.666 0 011.666 1.667l.001 22.833a1.667 1.667 0 01-3.332 0L0 11.83a1.667 1.667 0 011.666-1.666z"/></svg><view id="star" viewBox="736 546.3299999999999 22 20"/><svg width="22" height="20" viewBox="0 0 22 20" x="736" y="546.3299999999999" xmlns="http://www.w3.org/2000/svg"><path d="M11 0l2.47 7.6h7.992l-6.466 4.698 2.47 7.601L11 15.202l-6.466 4.697 2.47-7.6L.538 7.6H8.53L11 0z"/></svg><view id="temp" viewBox="960 684 19 32"/><svg width="19" height="32" viewBox="0 0 19 32" x="960" y="684" xmlns="http://www.w3.org/2000/svg"><path d="M11.429 24c0 .952-.334 1.762-1 2.429-.667.666-1.477 1-2.429 1-.952 0-1.762-.334-2.429-1-.666-.667-1-1.477-1-2.429 0-.714.209-1.369.625-1.964a3.386 3.386 0 011.661-1.268V9.143h2.286v11.625c.69.25 1.244.672 1.66 1.268.417.595.626 1.25.626 1.964zm2.285 0c0-.917-.202-1.774-.607-2.571a5.68 5.68 0 00-1.678-2V5.714c0-.952-.334-1.762-1-2.428-.667-.667-1.477-1-2.429-1-.952 0-1.762.333-2.429 1-.666.666-1 1.476-1 2.428V19.43a5.68 5.68 0 00-1.678 2A5.602 5.602 0 002.286 24c0 1.583.556 2.931 1.67 4.045 1.112 1.113 2.46 1.67 4.044 1.67 1.583 0 2.931-.557 4.045-1.67 1.113-1.114 1.67-2.462 1.67-4.045zM16 24c0 2.202-.783 4.086-2.348 5.652C12.086 31.217 10.202 32 8 32s-4.086-.783-5.652-2.348C.783 28.086 0 26.202 0 24c0-2.167.762-4.03 2.286-5.59V5.715c0-1.583.556-2.931 1.67-4.044C5.067.557 6.415 0 8 0c1.583 0 2.931.557 4.045 1.67 1.113 1.113 1.67 2.461 1.67 4.044v12.697C15.237 19.97 16 21.833 16 24zm2.286-10.286V16h-3.429v-2.286h3.429zm0-4.571v2.286h-3.429V9.143h3.429zm0-4.572v2.286h-3.429V4.571h3.429z"/></svg><view id="tg" viewBox="746 626 17 17"/><svg width="17" height="17" viewBox="0 0 17 17" x="746" y="626" xmlns="http://www.w3.org/2000/svg"><path d="M15.458.002c-.211.01-.41.079-.587.155h-.002c-.18.08-1.031.478-2.325 1.082L7.905 3.415c-3.328 1.56-6.6 3.096-6.6 3.096l.04-.017s-.226.082-.462.263c-.12.087-.253.207-.368.396a1.266 1.266 0 00-.174.776c.056.505.35.809.562.975.213.17.417.249.417.249h.005l3.068 1.15c.137.492.935 3.41 1.126 4.083.113.402.224.653.361.844.067.099.145.18.238.246a.672.672 0 00.155.074l-.032-.008c.01.003.017.01.025.014.024.008.041.01.073.016.486.164.877-.172.877-.172l.022-.02 1.811-1.836 3.036 2.594.069.032c.633.31 1.274.137 1.613-.166.34-.306.473-.697.473-.697l.022-.063L16.61 1.862c.066-.33.083-.639.01-.94-.074-.3-.263-.582-.491-.732-.231-.153-.46-.2-.67-.188zm-.064 1.434c-.003.044.005.038-.012.123v.008L13.057 14.81c-.01.019-.027.06-.074.1-.049.044-.088.072-.292-.018l-3.713-3.17-2.244 2.276.472-3.35 6.067-6.296c.25-.26.167-.314.167-.314.017-.317-.378-.093-.378-.093L5.412 9.22l-.003-.013-3.667-1.375V7.83l-.01-.002c.003 0 .02-.008.02-.008l.02-.011.02-.009 6.602-3.096c1.666-.781 3.345-1.568 4.636-2.175a629.666 629.666 0 012.3-1.071c.052-.022.027-.022.064-.022z"/></svg><view id="time" viewBox="853 521.3299999999999 16 16"/><svg width="16" height="16" viewBox="0 0 16 16" x="853" y="521.3299999999999" xmlns="http://www.w3.org/2000/svg"><path d="M8 15.32c-4.142 0-7.5-3.402-7.5-7.598C.5 3.527 3.858.125 8 .125c4.142 0 7.5 3.402 7.5 7.597 0 4.196-3.358 7.597-7.5 7.597zm0-1.52c1.591 0 3.117-.64 4.243-1.78A6.117 6.117 0 0014 7.722a6.117 6.117 0 00-1.757-4.297A5.961 5.961 0 008 1.645c-1.591 0-3.117.64-4.243 1.78A6.117 6.117 0 002 7.722a6.12 6.12 0 001.757 4.298A5.962 5.962 0 008 13.8zm.75-6.078h3v1.52h-4.5V3.924h1.5v3.798z"/></svg><view id="tool" viewBox="586 726 30 30"/><svg width="30" height="30" viewBox="0 0 30 30" x="586" y="726" xmlns="http://www.w3.org/2000/svg"><path d="M2.858 0l-.644.607L.607 2.214 0 2.858l.464.75 2.394 4 .321.572h3.36l4.572 4.537c-4.085 4.104-9.283 9.319-9.466 9.503-1.791 1.79-1.795 4.723.034 6.43 1.787 1.762 4.698 1.808 6.396 0l.034-.037 7.037-7.072 7.074 7.108.106.072c1.795 1.691 4.649 1.714 6.324-.072v-.035h.034c1.751-1.791 1.77-4.703-.034-6.395l-.037-.035-5.965-5.93c4.014-.375 7.157-3.764 7.216-7.859h.035c.005-.023 0-.05 0-.072v-.035c.112-1.322-.174-2.586-.857-3.68l-.784-1.213-5.324 5.322-1.607-1.679 5.43-5.43-1.572-.642a8.036 8.036 0 00-3.18-.68c-4.394 0-8.002 3.607-8.002 8.002 0 .477.103.892.178 1.321-.5.5-.874.911-1.464 1.5L8.18 6.574V3.179l-.571-.321L3.608.464 2.858 0zm19.147 2.572c.16 0 .272.094.428.107l-4.322 4.323.786.821 3.215 3.322.786.822 4.537-4.537c.022.263.21.455.178.75v.108a5.726 5.726 0 01-5.716 5.715c-.42 0-.928-.098-1.5-.215l-.607-.106-.43.428L6.468 27.041H6.43v.037c-.812.888-2.233.91-3.179-.037v-.035h-.037c-.888-.812-.91-2.233.037-3.18.433-.434 8.822-8.895 12.93-13.002l.466-.464-.18-.644a6.989 6.989 0 01-.178-1.428 5.726 5.726 0 015.716-5.716zm-18.79.286l2.679 1.644v1.143l-.25.249H4.503L2.858 3.216l.356-.358zm16.717 13.895l7.11 7.074v.035h.035c.89.812.91 2.233-.035 3.18h-.036v.036c-.812.888-2.233.91-3.18-.037l-7.073-7.108 3.18-3.18z"/></svg><view id="umbrella" viewBox="891 684 35 35"/><svg width="35" height="35" viewBox="0 0 35 35" x="891" y="684" xmlns="http://www.w3.org/2000/svg"><path d="M16.406 1.674v-.58a1.094 1.094 0 012.188 0v.58C27.417 2.189 35 8.998 35 18.047c0 .792-.82 1.325-1.546.996-4.914-2.234-8.104.403-8.564.82-.38.443-1.05.508-1.506.137-.088-.071-.102-.107-.337-.29-.998-.775-2.556-1.431-4.453-1.611v13.073A3.833 3.833 0 0114.766 35a3.832 3.832 0 01-3.829-3.828 1.094 1.094 0 012.188 0 1.642 1.642 0 003.281 0V18.099c-1.914.181-3.487.85-4.479 1.631-.211.167-.218.193-.3.262-.495.396-1.15.3-1.516-.127-.473-.429-3.66-3.052-8.565-.822A1.094 1.094 0 010 18.047C0 8.997 7.585 2.189 16.406 1.674zm6.52 15.404c-.263-6.066-1.672-9.325-2.872-11.023-1.077-1.524-2.127-2.032-2.555-2.186-.395.144-1.381.617-2.405 1.983-1.265 1.686-2.75 4.974-3.02 11.226 3.248-1.636 7.621-1.62 10.851 0zm9.789-.645C32 10.592 27.46 5.813 21.485 4.317c2.665 3.365 3.458 8.485 3.63 12.772 2.366-1.252 5.03-1.421 7.6-.656zm-22.83.656c.172-4.29.966-9.407 3.63-12.772C7.54 5.814 2.999 10.592 2.285 16.433c2.57-.765 5.233-.597 7.6.656z"/></svg><view id="user" viewBox="567 0 412.33 412.33"/><svg viewBox="0 0 412.333 412.333" width="412.33" height="412.33" x="567" xmlns="http://www.w3.org/2000/svg"><path d="M206.167 205.333c56.61 0 102.667-46.056 102.667-102.667S262.777 0 206.167 0 103.5 46.056 103.5 102.667s46.056 102.666 102.667 102.666zm0-165.333c34.554 0 62.667 28.112 62.667 62.667s-28.112 62.667-62.667 62.667-62.667-28.113-62.667-62.667S171.612 40 206.167 40zm0 183.333c-93.187 0-169 75.813-169 169v20h338v-20c0-93.187-75.813-169-169-169zm-127.453 149c9.637-61.671 63.12-109 127.452-109s117.815 47.329 127.452 109H78.714z"/></svg><view id="viber" viewBox="763 626 17 17"/><svg width="17" height="17" viewBox="0 0 17 17" x="763" y="626" xmlns="http://www.w3.org/2000/svg"><g clip-path="url(#doclip0)"><path d="M4.64 14.535c-.02.997-.138 2.137.73 2.412.85.277 1.344-.407 2.453-1.796 4.136.283 7.788-.88 8.276-5.05.438-3.707-.128-6.48-1.583-7.8-2.135-2.046-9.084-2.332-11.628.1C1.84 3.49 1.33 5.088 1.282 7.43c-.039 1.914-.117 5.828 3.359 7.104zM2.304 7.453c.042-2.071.462-3.452 1.305-4.33 2.124-2.03 8.418-1.795 10.211-.074 1.198 1.084 1.66 3.61 1.267 6.933-.357 3.046-2.318 3.566-3.056 3.761a12.7 12.7 0 01-4.386.37c-.368-.04-.513.31-.647.436-.666.8-1.147 1.38-1.271 1.457-.092-.137-.078-.784-.067-1.304-.033-.234.176-.881-.37-1.028-3.093-.913-3.023-4.365-2.986-6.221z"/><path d="M4.255 6.098c.545 1.086 1.077 3.007 3.118 4.678.708.584 2.829 1.932 3.66 1.932 1.186 0 2.54-1.866 1.548-2.699-.446-.436-1.074-.865-1.477-1.101l-.002-.001c-1.046-.605-1.619.508-1.687.552-1.532 1.372-3.42-1.011-2.097-2.164.163-.202 1.133-.67.557-1.735-.51-.924-.847-1.241-1.038-1.505-1.005-1.255-3.18.83-2.582 2.043zM10.5 9.754c.07.044.674.309 1.396 1.011.092.077-.52.968-.91.916-.077-.034-.633-.167-1.828-.897 1.134-.385 1.125-.989 1.342-1.03zM5.962 4.701c.042-.022.064-.024.062-.03.196.274.489.534.956 1.378.123.23-.182.319-.38.52-.28.25-.487.546-.613.873-.418-.788-.605-1.357-.796-1.754-.076-.362.447-.802.771-.987z"/><path d="M9.054 6.485c.007.001.748.096.88.893.113.676 1.117.494 1.007-.168-.206-1.238-1.248-1.679-1.772-1.739-.67-.075-.785.937-.115 1.014z"/><path d="M8.521 4.285c.012 0 1.619-.029 2.665 1.09 1.033 1.105.805 2.712.803 2.726-.104.663.902.838 1.008.159.013-.085.313-2.107-1.065-3.582-1.369-1.465-3.36-1.42-3.442-1.414-.697.023-.613 1.074.031 1.02z"/></g><defs><clipPath id="doclip0"><path transform="translate(.334 .667)" d="M0 0h16.333v16.333H0z"/></clipPath></defs></svg><view id="voice" viewBox="616 726 30 28"/><svg width="30" height="28" viewBox="0 0 30 28" x="616" y="726" xmlns="http://www.w3.org/2000/svg"><path d="M18.9 0c-.201 0-.407.055-.595.182L6.165 8.116H.547A.55.55 0 000 8.664v9.863a.55.55 0 00.548.548h5.616l12.14 7.935c.19.124.398.182.597.182.572 0 1.099-.456 1.099-1.1V1.1c0-.645-.527-1.1-1.1-1.1zm-1.366 23.562L7.514 17.01l-.617-.4H2.466v-6.028h4.431l.613-.4L17.534 3.63v19.932zm11.918-11.199h-4.384a.55.55 0 00-.548.548v1.37a.55.55 0 00.549.548h4.383A.55.55 0 0030 14.28v-1.37a.55.55 0 00-.548-.548zm-1.435 8.966l-3.777-2.182a.543.543 0 00-.743.202l-.682 1.182a.547.547 0 00.199.746l3.777 2.182a.546.546 0 00.743-.202l.682-1.182a.55.55 0 00-.199-.746zM23.493 7.842a.544.544 0 00.743.203l3.778-2.182a.547.547 0 00.198-.747l-.678-1.178a.544.544 0 00-.743-.202l-3.777 2.182a.547.547 0 00-.199.746l.678 1.178z"/></svg><view id="wall-torg" viewBox="698 546.3299999999999 38 20"/><svg width="38" height="20" viewBox="0 0 38 20" x="698" y="546.3299999999999" xmlns="http://www.w3.org/2000/svg"><mask id="dqa"><rect x=".73" y="11.691" width="16.808" height="8.038" rx=".731"/></mask><rect x=".73" y="11.691" width="16.808" height="8.038" rx=".731" mask="url(#dqa)"/><mask id="dqb"><rect x="6.578" y="5.846" width="16.808" height="8.038" rx=".731"/></mask><rect x="6.578" y="5.846" width="16.808" height="8.038" rx=".731" mask="url(#dqb)"/><mask id="dqc"><rect width="16.808" height="8.038" rx=".731"/></mask><rect width="16.808" height="8.038" rx=".731" mask="url(#dqc)"/><mask id="dqd"><rect x="15.348" y="11.691" width="16.808" height="8.038" rx=".731"/></mask><rect x="15.348" y="11.691" width="16.808" height="8.038" rx=".731" mask="url(#dqd)"/><mask id="dqe"><rect x="14.617" width="16.808" height="8.038" rx=".731"/></mask><rect x="14.617" width="16.808" height="8.038" rx=".731" mask="url(#dqe)"/><mask id="dqf"><rect x="21.191" y="5.846" width="16.808" height="8.038" rx=".731"/></mask><rect x="21.191" y="5.846" width="16.808" height="8.038" rx=".731" mask="url(#dqf)"/></svg><view id="walls" viewBox="295 759 20 32"/><svg width="20" height="32" viewBox="0 0 20 32" x="295" y="759" xmlns="http://www.w3.org/2000/svg"><path d="M10.964 10.857l2.893-2.893 4.046-4.045A.643.643 0 0119 4.374v16.824c0 .17-.068.334-.188.455l-8.679 8.678a.643.643 0 01-1.097-.454v-8.734m1.928-10.286V2.124a.643.643 0 00-1.097-.455l-8.679 8.678a.643.643 0 00-.188.455v16.825c0 .572.692.86 1.097.454l6.939-6.938m1.928-10.286l-1.74 1.74a.643.643 0 00-.188.455v8.091"/></svg><view id="whatsapp" viewBox="869 521.3299999999999 16 16"/><svg width="16" height="16" viewBox="0 0 16 16" x="869" y="521.3299999999999" xmlns="http://www.w3.org/2000/svg"><path fill-rule="evenodd" clip-rule="evenodd" d="M13.589 2.394A7.55 7.55 0 008.216.17C4.03.169.623 3.573.621 7.756c0 1.337.349 2.643 1.014 3.794L.557 15.48l4.026-1.055a7.593 7.593 0 003.63.924h.003c4.186 0 7.594-3.404 7.595-7.588a7.538 7.538 0 00-2.222-5.368zM8.216 14.068h-.003A6.309 6.309 0 015 13.19l-.23-.136-2.39.626.638-2.328-.15-.238a6.286 6.286 0 01-.965-3.356C1.905 4.279 4.737 1.45 8.22 1.45a6.278 6.278 0 014.463 1.85 6.266 6.266 0 011.847 4.462 6.319 6.319 0 01-6.313 6.306zm3.463-4.723c-.19-.095-1.123-.553-1.297-.617-.174-.063-.3-.095-.427.095-.126.19-.49.617-.6.743-.112.127-.222.143-.412.048-.19-.095-.801-.295-1.526-.941A5.72 5.72 0 016.36 7.36c-.11-.19 0-.283.083-.387.206-.255.411-.522.475-.649.063-.126.031-.237-.016-.332-.048-.095-.427-1.028-.585-1.408-.154-.37-.31-.32-.427-.325a7.584 7.584 0 00-.364-.007.697.697 0 00-.506.237c-.174.19-.664.649-.664 1.582s.68 1.835.775 1.961c.095.127 1.338 2.042 3.242 2.863.452.196.806.312 1.082.4.454.144.868.123 1.195.075.364-.055 1.123-.46 1.28-.902.159-.443.159-.822.111-.902-.047-.079-.174-.126-.363-.221z"/></svg><view id="window" viewBox="885 521.3299999999999 16 16"/><svg width="16" height="16" viewBox="0 0 16 16" x="885" y="521.3299999999999" xmlns="http://www.w3.org/2000/svg"><path d="M7.167 2.167h-5v5h5v-5zm1.666 0v5h5v-5h-5zm5 6.666h-5v5h5v-5zm-6.666 5v-5h-5v5h5zM.5.5h15v15H.5V.5z"/></svg><view id="window-calc" viewBox="642 492.33 56 74"/><svg width="56" height="74" viewBox="0 0 56 74" x="642" y="492.33" xmlns="http://www.w3.org/2000/svg"><path d="M1 1h54v72H1z"/></svg></svg>