<?xml version="1.0" encoding="utf-8"?><svg xmlns="http://www.w3.org/2000/svg" xmlns:xlink="http://www.w3.org/1999/xlink"><symbol viewBox="0 0 26 20" id="mail" xmlns="http://www.w3.org/2000/svg"><path d="M24.227 0H1.773C.768 0 0 .765 0 1.765v16.47C0 19.235.768 20 1.773 20h22.454C25.232 20 26 19.235 26 18.235V1.765C26 .765 25.232 0 24.227 0zm0 17l-4.668-4.647a.86.86 0 00-1.24 0 .85.85 0 000 1.235l4.667 4.647H3.014l4.668-4.647a.85.85 0 000-1.235.86.86 0 00-1.241 0L1.773 17V5.706l10.636 8a.955.955 0 00.532.176.955.955 0 00.532-.176l10.754-8V17zm0-15.235V3.47l-11.286 8.352L1.773 3.471V1.765h22.454z"/></symbol><symbol viewBox="0 0 58 58" id="phone-call" xmlns="http://www.w3.org/2000/svg"><path d="M24.017 33.983c-5.536-5.536-6.786-11.072-7.068-13.29a1.988 1.988 0 01.571-1.664L22 14.551a2 2 0 00.282-2.475L15.149 1a2 2 0 00-2.591-.729L1.107 5.664a1.989 1.989 0 00-1.1 1.987c.6 5.7 3.085 19.712 16.855 33.483s27.78 16.255 33.483 16.855a1.989 1.989 0 001.987-1.1l5.393-11.451A2 2 0 0057 42.851L45.924 35.72a2 2 0 00-2.475.28l-4.478 4.48c-.436.439-1.05.65-1.664.571-2.218-.282-7.754-1.532-13.29-7.068z"/><path d="M46 31a2 2 0 01-2-2c-.01-8.28-6.72-14.99-15-15a2 2 0 110-4c10.489.012 18.988 8.511 19 19a2 2 0 01-2 2z"/><path d="M56 31a2 2 0 01-2-2C53.985 15.2 42.8 4.015 29 4a2 2 0 110-4c16.009.018 28.982 12.991 29 29a2 2 0 01-2 2z"/></symbol><symbol viewBox="0 0 80 80" id="tick" xmlns="http://www.w3.org/2000/svg"><path d="M77.712 10.937a3.014 3.014 0 00-4.263-.005L37.28 47.007 24.227 32.833a3.016 3.016 0 00-4.436 4.085l15.176 16.481a3.011 3.011 0 002.153.972h.065c.797 0 1.564-.316 2.128-.879l38.393-38.29a3.015 3.015 0 00.005-4.265z"/><path d="M76.985 36.985A3.015 3.015 0 0073.97 40c0 18.732-15.238 33.97-33.97 33.97C21.27 73.97 6.03 58.732 6.03 40 6.03 21.27 21.27 6.03 40 6.03A3.015 3.015 0 1040 0C17.944 0 0 17.944 0 40c0 22.055 17.944 40 40 40 22.055 0 40-17.945 40-40a3.015 3.015 0 00-3.015-3.015z"/></symbol><symbol viewBox="0 0 30 30" id="viber" xmlns="http://www.w3.org/2000/svg"><g clip-path="url(#dclip0)"><path d="M28.944 17.366c.895-7.534-.43-12.29-2.82-14.441v-.001C22.268-.75 9.24-1.294 4.625 3.089c-2.072 2.143-2.802 5.29-2.882 9.185-.08 3.896-.175 11.195 6.627 13.175h.006l-.006 3.023s-.047 1.225.736 1.472c.895.29 1.3-.28 4.084-3.604 4.655.404 8.23-.521 8.636-.656.94-.315 6.259-1.02 7.119-8.318zm-15.297 6.846s-2.946 3.674-3.862 4.628c-.3.31-.629.281-.624-.334 0-.404.023-5.02.023-5.02-5.767-1.652-5.427-7.867-5.364-11.119.062-3.252.657-5.916 2.412-7.71 4.05-3.796 15.47-2.947 18.38-.212 3.558 3.154 2.292 12.064 2.3 12.367-.732 6.093-5.042 6.48-5.835 6.743-.338.112-3.482.921-7.43.657z"/><path d="M15.277 5.371c-.48 0-.48.75 0 .756 3.734.03 6.81 2.632 6.843 7.405 0 .504.737.498.731-.006h-.001c-.04-5.144-3.398-8.126-7.573-8.155z"/><path d="M20.189 12.741c-.012.498.725.522.73.018.062-2.836-1.687-5.173-4.973-5.419-.481-.035-.531.721-.051.756 2.85.217 4.351 2.162 4.294 4.645zm-.788 3.227c-.617-.358-1.246-.135-1.506.216l-.544.704c-.276.357-.792.31-.792.31-3.768-.997-4.775-4.94-4.775-4.94s-.046-.533.298-.82l.68-.562c.34-.27.556-.92.21-1.558-.926-1.672-1.547-2.248-1.863-2.69-.333-.417-.833-.51-1.353-.23h-.011c-1.081.633-2.265 1.817-1.886 3.036.646 1.285 1.834 5.381 5.618 8.476 1.78 1.464 4.594 2.964 5.79 3.31l.01.018c1.178.392 2.323-.838 2.934-1.952v-.008c.272-.54.181-1.05-.215-1.383-.702-.685-1.762-1.441-2.595-1.927z"/><path d="M16.461 10.13c1.201.07 1.784.698 1.846 1.986.023.504.754.47.732-.035-.08-1.682-.958-2.62-2.538-2.707-.481-.029-.526.727-.04.756z"/></g><defs><clipPath id="dclip0"><path d="M0 0h30v30H0z"/></clipPath></defs></symbol><symbol viewBox="0 0 30 30" id="whats" xmlns="http://www.w3.org/2000/svg"><path d="M15.004 0h-.008C6.726 0 0 6.728 0 15a14.89 14.89 0 002.856 8.792l-1.87 5.572 5.766-1.843A14.87 14.87 0 0015.004 30C23.274 30 30 23.27 30 15S23.274 0 15.004 0zm8.728 21.182c-.362 1.022-1.798 1.87-2.944 2.117-.784.167-1.807.3-5.254-1.129-4.408-1.826-7.247-6.306-7.468-6.596-.212-.29-1.781-2.372-1.781-4.525 0-2.152 1.093-3.2 1.534-3.65.362-.37.96-.538 1.533-.538.186 0 .353.009.503.017.44.018.662.045.952.74.362.872 1.244 3.024 1.349 3.246.106.221.213.521.063.812-.14.3-.264.433-.485.688-.222.255-.431.45-.653.723-.202.239-.431.494-.176.934.255.431 1.136 1.87 2.434 3.025 1.674 1.49 3.032 1.966 3.517 2.169.362.15.793.114 1.058-.167.335-.362.75-.962 1.172-1.552.3-.424.678-.477 1.076-.327.405.141 2.548 1.2 2.989 1.42.44.221.73.326.838.512.105.185.105 1.057-.257 2.08z"/></symbol></svg>