<?xml version="1.0" encoding="utf-8"?><svg width="358" height="314" viewBox="0 0 358 314" xmlns="http://www.w3.org/2000/svg" xmlns:xlink="http://www.w3.org/1999/xlink"><view id="about1" viewBox="99 0 103 168"/><svg width="103" height="168" viewBox="0 0 103 168" x="99" xmlns="http://www.w3.org/2000/svg"><path d="M46.66 9.117a10.91 10.91 0 00-10.896 10.899 2.461 2.461 0 104.921 0 5.983 5.983 0 015.977-5.977h16.015a2.46 2.46 0 000-4.922H46.66zm30.764 0h-4.36a2.46 2.46 0 100 4.922h4.36a2.46 2.46 0 000-4.922zM63.91 5.602h13.512a2.46 2.46 0 100-4.922H63.91a2.46 2.46 0 100 4.922z" fill-opacity=".2"/><path d="M29.784 22.477a2.46 2.46 0 002.464-2.461 14.43 14.43 0 0114.41-14.414h6.498a2.46 2.46 0 100-4.922h-6.497a19.356 19.356 0 00-19.333 19.336 2.46 2.46 0 002.458 2.46zm80.897-13.36a10.91 10.91 0 00-10.898 10.899 2.459 2.459 0 002.461 2.46 2.46 2.46 0 002.461-2.46 5.982 5.982 0 015.976-5.977h7.421a2.46 2.46 0 001.74-4.201 2.46 2.46 0 00-1.74-.72h-7.421z" fill-opacity=".2"/><path d="M93.807 22.477a2.46 2.46 0 002.46-2.461 14.429 14.429 0 0114.414-14.414h13.836a2.46 2.46 0 002.461-2.461A2.46 2.46 0 00124.517.68h-13.836a19.357 19.357 0 00-19.335 19.336 2.46 2.46 0 002.46 2.46zm71.049 131.485h-5.977V66.634l6.271-.754a2.46 2.46 0 00-.588-4.885l-50.122 6.022-1.35-28.316a2.454 2.454 0 001.455-2.242v-8.438a2.458 2.458 0 00-2.46-2.46H83.96a2.46 2.46 0 00-2.46 2.46v8.438a2.456 2.456 0 001.46 2.25l-1.532 32.282-30.646 3.679-1.704-35.972a2.455 2.455 0 001.452-2.239v-8.438a2.461 2.461 0 00-2.46-2.46H19.944a2.46 2.46 0 00-2.461 2.46v8.438a2.458 2.458 0 001.468 2.25l-4.49 94.16H12.59a2.461 2.461 0 00-2.458 2.342l-.9 18.751H3.141a2.46 2.46 0 00-2.46 2.461v8.438a2.462 2.462 0 002.46 2.461h161.715a2.459 2.459 0 002.461-2.461v-8.438a2.459 2.459 0 00-2.461-2.461zm-24.706 0v-25.664a2.46 2.46 0 00-2.461-2.461h-16.875a2.459 2.459 0 00-2.461 2.461v25.664h-3.796v-25.664a2.465 2.465 0 00-2.461-2.461H95.221a2.461 2.461 0 00-2.46 2.461v25.664H36.467V81.348l117.49-14.12v86.734H140.15zm-4.922 0h-11.953v-23.203h11.953v23.203zm-25.593 0H97.682v-23.203h11.953v23.203zM86.432 30.482h23.203v3.516H86.432v-3.516zm1.457 8.438h20.285l1.367 28.687-23.152 2.783 1.5-31.47zm-65.475-8.438h23.194v3.516H22.406l.008-3.516zm1.464 8.438h20.283l1.72 36.337-20.608 2.48a2.461 2.461 0 00.588 4.886l5.685-.684v50.93H19.39l4.49-93.95zm-8.942 98.871h16.61v16.171H14.16l.776-16.171zM162.395 162.4H5.601v-3.516h156.794v3.516z" fill-opacity=".2"/><path d="M79.003 117.635H50.88a2.46 2.46 0 00-2.461 2.461 2.463 2.463 0 002.46 2.461h28.125a2.463 2.463 0 002.461-2.461 2.46 2.46 0 00-2.46-2.461zm0-16.875H50.88a2.46 2.46 0 00-2.461 2.461 2.463 2.463 0 002.46 2.461h28.125a2.463 2.463 0 002.461-2.461 2.46 2.46 0 00-2.46-2.461zm0 8.437H50.88a2.463 2.463 0 00-2.461 2.461 2.46 2.46 0 002.46 2.461h28.125a2.459 2.459 0 002.461-2.461 2.463 2.463 0 00-2.46-2.461zm28.872-4.218h-8.438a2.454 2.454 0 00-2.46 2.46v8.438a2.462 2.462 0 002.46 2.461h8.438a2.46 2.46 0 002.461-2.461v-8.438a2.464 2.464 0 00-2.461-2.46zm-2.461 8.437h-3.516V109.9h3.516v3.516z" fill-opacity=".2"/></svg><view id="about2" viewBox="0 173 140 141"/><svg width="140" height="141" viewBox="0 0 140 141" y="173" xmlns="http://www.w3.org/2000/svg"><path d="M24.396 51.94H51.79a3.536 3.536 0 000-7.07H24.397a3.536 3.536 0 000 7.07zm0 24.478H51.79a3.536 3.536 0 000-7.07H24.397a3.536 3.536 0 000 7.07zm33.936 59.255c-.741-1.778-2.832-2.65-4.617-1.912-1.779.736-2.646 2.84-1.909 4.617.74 1.78 2.832 2.648 4.614 1.913 1.778-.735 2.652-2.841 1.912-4.618z" fill-opacity=".2"/><path d="M180.051 80.97l-42.048-45.137 12.874-12.844a11.601 11.601 0 003.468-8.308c0-3.102-1.201-6.022-3.381-8.221-4.508-4.554-11.929-4.612-16.542-.13a1.073 1.073 0 01-.034.033l-17.651 17.609h-6.595V10.396a3.535 3.535 0 00-3.535-3.535h-18.72V3.973a3.536 3.536 0 00-7.07 0V6.86H67.901V3.973a3.535 3.535 0 00-7.07 0V6.86H47.917V3.973a3.536 3.536 0 00-7.07 0V6.86H27.932V3.973a3.536 3.536 0 00-7.07 0V6.86H3.535A3.536 3.536 0 000 10.396v126.629a3.535 3.535 0 003.535 3.535H39.62a3.536 3.536 0 000-7.07H7.07V13.93h13.792v3.208a3.535 3.535 0 007.07 0v-3.207h12.915v3.207a3.535 3.535 0 007.07 0v-3.207h12.915v3.207a3.535 3.535 0 007.07 0v-3.207h12.914v3.207a3.536 3.536 0 007.07 0v-3.207h15.185v10.06c-6.35.259-12.414 2.94-16.916 7.417L60.139 57.423c-1.572 1.573-1.28 4.265.58 5.47a24.043 24.043 0 009.643 3.612c1.144.165 2.304.249 3.473.249h.016l-4.058 4.048a3.534 3.534 0 00-.7 1.005L57.751 88.841a7.72 7.72 0 00-1.287 4.987H24.397a3.535 3.535 0 000 7.07H64.21c1.53 0 3.073-.51 4.333-1.367L85.78 87.82c.204-.133.4-.291.573-.463l7.995-7.976 8.722 8.703v45.407H70.72a3.535 3.535 0 000 7.07h35.886a3.535 3.535 0 003.535-3.535v-42.04c4.469 3.71 10.041 5.734 15.925 5.734h14.104c2.933 0 5.777 1.216 7.785 3.318l26.934 28.624c2.142 2.277 6.11.708 6.11-2.423v-46.86c0-.894-.339-1.755-.949-2.41zM91.155 36.408a18.38 18.38 0 0112.955-5.367h5.539L87.623 53.014c-2.038 1.957-3.967 3.874-6.577 5.084a17.277 17.277 0 01-12.375.793l22.484-22.483zm48.207-25.02c1.844-1.777 4.79-1.758 6.579.048a4.58 4.58 0 011.333 3.245 4.592 4.592 0 01-1.379 3.292l-36.946 36.86-1.78-1.781a13.79 13.79 0 00-6.043-3.52l38.236-38.144zM64.57 93.684c-.303.205-.585.182-.847-.078-.391-.388-.193-.686-.086-.846l9.238-13.876 5.457 5.448-13.762 9.352zm19.29-13.827l-6.558-6.559 6.736-6.72c.636 2.3 1.896 4.402 3.581 6.087l1.725 1.722-5.483 5.47zm90.07 41.466l-20.843-22.15a17.941 17.941 0 00-12.916-5.524h-14.104a17.787 17.787 0 01-12.644-5.225l-20.817-20.77c-3.005-2.254-2.334-7.25 0-9.622 2.624-2.553 6.997-2.548 9.563.019l16.913 16.913c1.36 1.36 3.638 1.36 5 0a3.537 3.537 0 000-5L113.949 59.83l19.046-19.002L173.93 84.77v36.552z" fill-opacity=".2"/></svg><view id="about3" viewBox="202 0 156 121"/><svg width="156" height="121" viewBox="0 0 156 121" x="202" xmlns="http://www.w3.org/2000/svg"><path d="M175.875 72.98a3.141 3.141 0 00-3.141 3.14v22.007h-4.996c-1.232-10.893-11.06-18.725-21.953-17.494a19.85 19.85 0 00-17.494 17.494H62.813V7.049h109.921v9.877a3.141 3.141 0 006.282 0V3.908a3.141 3.141 0 00-3.141-3.14H59.672a3.14 3.14 0 00-3.14 3.14v3.14H20.564C12.68 7.06 6.29 13.449 6.28 21.333v4.56a3.14 3.14 0 003.14 3.141h3.653l-2.396 28.784A14.274 14.274 0 000 71.582v26.545a3.141 3.141 0 003.14 3.141H9.5c.861 11.23 10.664 19.637 21.895 18.776 10.034-.769 18.007-8.742 18.777-18.776.028 0 .05.015.078.015h6.281a3.14 3.14 0 003.14 3.141h68.906c2.237 10.735 12.754 17.624 23.489 15.386a19.853 19.853 0 0015.386-15.386h8.423a3.141 3.141 0 003.141-3.141V76.121a3.141 3.141 0 00-3.141-3.141zm-146.04 40.85c-7.804 0-14.132-6.327-14.132-14.133 0-7.805 6.328-14.133 14.133-14.133 7.805 0 14.133 6.328 14.133 14.133-.009 7.802-6.331 14.124-14.133 14.133zm26.696-18.844H50.25c-.184.02-.366.056-.543.11C47.18 84.122 36.237 77.274 25.264 79.8a20.389 20.389 0 00-15.27 15.186H6.28V71.582a8.012 8.012 0 018.003-8.002H56.53v31.406zm0-37.687H17.022l2.356-28.266H56.53V57.3zm0-34.547H12.563v-1.42a8.012 8.012 0 018.002-8.002H56.53v9.422zm105.036 78.39c-.403 7.185-6.353 12.801-13.549 12.789h-.003a13.572 13.572 0 01-13.342-11.253 2.825 2.825 0 00-.16-3.056c.42-7.47 6.816-13.187 14.287-12.767 7.471.42 13.188 6.816 12.767 14.287z" fill-opacity=".2"/><path d="M172.734 25.893h-43.968a3.14 3.14 0 100 6.28h43.968a3.14 3.14 0 100-6.28zm6.282 34.547h-69.094a3.14 3.14 0 100 6.28h69.094a3.14 3.14 0 000-6.28zm-6.282-18.844h-34.546a3.14 3.14 0 100 6.281h34.546a3.14 3.14 0 100-6.281z" fill-opacity=".2"/></svg><view id="about4" viewBox="0 0 99 173"/><svg width="99" height="173" viewBox="0 0 99 173" xmlns="http://www.w3.org/2000/svg"><g clip-path="url(#dclip0)"><path d="M81.508 128.022a2.926 2.926 0 00-4.089.626l-.36.492a2.924 2.924 0 004.709 3.469l.366-.498a2.926 2.926 0 00-.626-4.089z"/><path d="M82.272 155.85l-7.523-13.678 7.024-9.566a2.925 2.925 0 10-4.715-3.462l-8.13 11.071a2.924 2.924 0 00-.205 3.14l8.423 15.314a2.925 2.925 0 005.126-2.819zm21.799-15.636l-8.096-11.026a2.924 2.924 0 10-4.715 3.464l6.989 9.519-7.471 13.585a2.925 2.925 0 105.126 2.821l8.372-15.222a2.924 2.924 0 00-.205-3.141zm4.636-45.966a2.925 2.925 0 00-3.02.18 46.56 46.56 0 00-4.798 3.774c-7.872 7.116-15.35 6.153-15.643 6.111a2.89 2.89 0 00-.533-.035c-3.111.08-8.72-2.763-14.654-7.423a47.874 47.874 0 00-2.767-2.019 2.924 2.924 0 00-4.562 2.424v10.034a2.927 2.927 0 001.351 2.465l20.74 13.859a.06.06 0 01.01.007l.055.036a2.925 2.925 0 003.263-.021l.03-.02a.689.689 0 00.035-.023l20.691-13.826a2.925 2.925 0 001.367-2.476V96.837a2.924 2.924 0 00-1.565-2.59zm-4.285 11.482l-17.921 11.975-17.92-11.975v-2.661c4.363 3.172 10.782 7.061 16.014 7.061h.034c1.757.194 10.715.722 19.793-7.241v2.841z"/><path d="M89.385 120.743a2.925 2.925 0 00-5.243-1.25l-6.723 9.157a2.925 2.925 0 104.716 3.461l6.688-9.108a2.923 2.923 0 00.562-2.26zm41.676-94.295c-.058-.459-1.428-10.347-10.736-14.248.27-1.737.242-3.97-.861-6.14-1.482-2.92-4.406-4.821-8.692-5.655a2.921 2.921 0 00-.558-.053H70.955c-15.94 0-28.91 12.968-28.91 28.91v15.405c0 4.014 1.368 7.927 3.852 11.02 1.23 1.533 2.747 4.21 2.976 8.26a2.925 2.925 0 005.845-.165V43.696c1.986-8.214 8.765-9.813 9.93-10.029h12.699c1.494 0 2.962-.228 4.366-.678 2.415-.774 6.246-2.2 9.035-3.259a8.48 8.48 0 015.816-.073l13.594 4.773c6.797 2.507 8.01 8.473 8.16 9.41v24.105a2.923 2.923 0 002.927 2.923 2.928 2.928 0 002.891-2.492c.011-.075 1.179-7.62 4.945-13.66a13.102 13.102 0 002.004-6.932V26.817c0-.123-.008-.247-.024-.37zm-5.827 21.335a7.252 7.252 0 01-1.066 3.756V43.64c0-.105-.006-.21-.018-.315-.045-.425-1.254-10.449-11.994-14.394a1.4 1.4 0 00-.04-.014l-13.615-4.78a14.328 14.328 0 00-9.831.125c-3.905 1.483-6.929 2.575-8.743 3.157a8.44 8.44 0 01-2.58.399H64.412c-.126 0-.251.008-.376.024-.495.064-12.162 1.723-15.097 14.882-.047.21-.07.423-.07.637v6.02a11.886 11.886 0 01-.975-4.715V29.263c0-12.716 10.345-23.06 23.06-23.06h38.965c1.613.343 3.573 1.048 4.317 2.483.91 1.756-.127 4.174-.128 4.176a2.926 2.926 0 001.963 4.086c7.446 1.793 8.965 8.935 9.163 10.09v20.745z"/><path d="M124.152 43.326c-.046-.425-1.255-10.449-11.995-14.394l-.039-.014-13.616-4.78a14.344 14.344 0 00-9.831.124c-3.905 1.483-6.929 2.575-8.744 3.157a8.442 8.442 0 01-2.58.4H64.413c-.126 0-.252.007-.376.023-.495.064-12.162 1.723-15.098 14.883-.046.209-.07.422-.07.636v25.21c.02.873.638 21.5 14.89 30.934l.074.052c.061.043.122.087.186.13a42.232 42.232 0 012.427 1.77c4.152 3.261 11.977 8.674 18.15 8.674h.033c.335.037.934.086 1.745.086 3.499 0 10.962-.916 18.437-7.674a40.801 40.801 0 014.195-3.296l.219-.153c.071-.05.142-.101.216-.15 4.754-3.194 12.988-11.433 14.716-30.738.008-.087.012-.174.012-.261V43.642c0-.106-.006-.211-.017-.316zm-5.833 24.487c-1.594 17.422-9.017 24.176-12.14 26.273-.111.075-.22.152-.33.23l-.162.113a46.56 46.56 0 00-4.798 3.774c-7.843 7.09-15.297 6.16-15.662 6.108a2.949 2.949 0 00-.515-.031c-3.11.08-8.72-2.763-14.653-7.423a47.62 47.62 0 00-2.766-2.019l-.072-.05c-.07-.05-.14-.1-.223-.155-11.501-7.612-12.254-25.426-12.279-26.17V43.697c1.993-8.244 8.814-9.824 9.925-10.028h12.704c1.493 0 2.962-.228 4.366-.678 2.415-.775 6.246-2.2 9.034-3.26a8.48 8.48 0 015.816-.072l13.595 4.772c6.797 2.507 8.01 8.474 8.16 9.411v23.972zm-29.203 52.104a2.925 2.925 0 00-4.974-.423l-7.006 9.543a2.926 2.926 0 004.712 3.467l7.007-9.508a3.03 3.03 0 00.57-1.77c0-.453-.106-.902-.309-1.309zm.187 47.094a2.925 2.925 0 00-4.087-.137l-.67.612a2.924 2.924 0 00-.579 3.584l.02.037a2.925 2.925 0 004.623.642l.648-.649a2.924 2.924 0 00.045-4.089z"/><path d="M88.453 167.485l-.67-.611a2.925 2.925 0 00-4.041 4.227l.648.648a2.922 2.922 0 004.633-.661l.02-.037a2.927 2.927 0 00-.59-3.566z"/><path d="M88.503 167.532l-.004-.003a2.928 2.928 0 00-3.992-.005l-.008.008a2.926 2.926 0 00-.092 4.236l.031.03c.57.568 1.316.851 2.063.851.748 0 1.497-.286 2.067-.856l.031-.031a2.925 2.925 0 00-.096-4.23zm-1.053-49.138a2.935 2.935 0 00-3.279 1.099 2.922 2.922 0 002.39 4.614 2.925 2.925 0 002.93-2.926v-.007a2.921 2.921 0 00-2.041-2.78z"/><path d="M88.876 119.468l-.025-.034a2.924 2.924 0 00-5.277 1.739v.05c0 1.077.605 2.058 1.553 2.568.43.231.905.345 1.378.345a2.96 2.96 0 001.633-.491 2.928 2.928 0 00.738-4.177z"/><path d="M121.297 110.281a2.923 2.923 0 00-1.749-1.718l-11.215-4.02a2.918 2.918 0 00-2.613.321l-20.78 13.885-.017.012 1.632 2.426-1.669-2.401a2.924 2.924 0 00-.742 4.172l15.213 20.719a2.922 2.922 0 004.92-.322l16.847-30.629a2.925 2.925 0 00.173-2.445zm-19.937 26.24l-10.692-14.563 17.077-11.412 6.6 2.367-12.985 23.608z"/><path d="M89.382 120.72a2.928 2.928 0 00-1.251-1.925l-20.85-13.931a2.927 2.927 0 00-2.613-.321l-11.215 4.02a2.925 2.925 0 00-1.575 4.163l16.846 30.629a2.924 2.924 0 004.92.321l8.13-11.071.019-.027 7.066-9.623a2.93 2.93 0 00.523-2.235zm-12.323 8.422l-.021.028-5.397 7.351-12.986-23.609 6.6-2.366 17.078 11.412-5.274 7.184zm95.795 31.07l-3.773-22.785a20.17 20.17 0 00-13.024-15.655l-36.504-13.207a2.924 2.924 0 00-3.612 4.056l7.621 15.284-7.478.116a2.923 2.923 0 00-2.546 4.281l3.067 5.857-31.39 28.716a6.31 6.31 0 00-.095.09l-.648.648a2.925 2.925 0 00-.498 3.472l.023.041a2.926 2.926 0 002.566 1.522h75.746a10.67 10.67 0 008.152-3.776 10.672 10.672 0 002.393-8.66zm-6.853 4.876a4.833 4.833 0 01-3.692 1.71H93.965l28.252-25.843a2.924 2.924 0 00.617-3.515l-1.909-3.644 7.375-.113a2.927 2.927 0 002.573-4.23l-6.433-12.9 29.629 10.719a14.316 14.316 0 019.242 11.11l3.773 22.785v.001a4.83 4.83 0 01-1.083 3.92z"/><path d="M88.526 167.555l-.034-.031a2.925 2.925 0 00-4.037.106l-.03.031a2.925 2.925 0 002.074 4.987h.064a2.925 2.925 0 001.963-5.093z"/><path d="M88.435 167.472a2.922 2.922 0 00-4.521.767l-.02.037a2.924 2.924 0 00.462 3.44l.01.011a2.914 2.914 0 002.103.891 2.91 2.91 0 001.97-.764l.031-.028a2.92 2.92 0 00.646-.854c.589-1.176.297-2.621-.68-3.5z"/><path d="M88.562 167.649l-.012-.012-.023-.024-.65-.648a1.954 1.954 0 00-.093-.089l-31.39-28.717 3.067-5.856a2.925 2.925 0 00-2.546-4.282l-7.48-.115 7.622-15.284a2.927 2.927 0 00-.433-3.252 2.922 2.922 0 00-3.179-.804l-36.503 13.206a20.17 20.17 0 00-13.024 15.656L.144 160.213a10.669 10.669 0 002.394 8.659 10.67 10.67 0 008.152 3.776H86.5a2.925 2.925 0 002.062-4.999zm-77.871-.851a4.832 4.832 0 01-3.692-1.709 4.834 4.834 0 01-1.083-3.921l3.773-22.785a14.312 14.312 0 019.243-11.11l29.628-10.719-6.432 12.898a2.925 2.925 0 002.572 4.23l7.375.114-1.908 3.644a2.925 2.925 0 00.616 3.515l28.252 25.843H10.69z"/><path d="M96.456 131.628a2.925 2.925 0 00-.48-2.441l-7.119-9.694a2.916 2.916 0 00-3.268-1.03 2.921 2.921 0 00-1.538 1.19l-6.988 9.482a2.925 2.925 0 00-.049 3.41l2.976 4.274-3.17 19.982a2.924 2.924 0 00.326 1.867l6.791 12.347a2.925 2.925 0 005.126 0l6.842-12.438a2.93 2.93 0 00.362-1.41v-.001a2.94 2.94 0 00-.037-.459l-3.155-19.888 2.944-4.226c.202-.293.35-.62.436-.965zM86.5 163.537l-3.745-6.81 3.198-20.155a2.923 2.923 0 00-.49-2.129l-2.45-3.521 3.496-4.743 3.514 4.786-2.422 3.478a2.923 2.923 0 00-.489 2.129l3.184 20.063-3.796 6.902z"/></g><defs><clipPath id="dclip0"><path d="M0 0h98.119v173H0z"/></clipPath></defs></svg><view id="basket" viewBox="202 139 15 15"/><svg width="15" height="15" viewBox="0 0 15 15" x="202" y="139" xmlns="http://www.w3.org/2000/svg"><path d="M1.667 9.667v-8H.333V.333h2A.667.667 0 013 1v8h8.292l1.333-5.333H4.333V2.334h9.147a.667.667 0 01.647.828L12.46 9.83a.667.667 0 01-.647.505h-9.48a.666.666 0 01-.666-.667zM3 14.334a1.334 1.334 0 110-2.668 1.334 1.334 0 010 2.668zm8 0a1.333 1.333 0 110-2.667 1.333 1.333 0 010 2.667z"/></svg><view id="fb" viewBox="217 139 7 15"/><svg width="7" height="15" viewBox="0 0 7 15" x="217" y="139" xmlns="http://www.w3.org/2000/svg"><path d="M7 0C1.978 0 1.57.475 1.57 4.92H0v2.586h1.57V15h3.076V7.506h2.053L7 4.921H4.709V3.603c0-.724.238-1.024 1.148-1.024H7V0z"/></svg><view id="inst" viewBox="202 154 14 14"/><svg width="14" height="14" viewBox="0 0 14 14" x="202" y="154" xmlns="http://www.w3.org/2000/svg"><path d="M12.71 10.063a2.67 2.67 0 01-.784 1.894 2.685 2.685 0 01-1.897.789H3.97a2.691 2.691 0 01-2.477-1.658 2.677 2.677 0 01-.203-1.025V4.006a2.678 2.678 0 01.782-1.896 2.695 2.695 0 011.898-.792h6.058a2.695 2.695 0 012.478 1.662c.134.326.203.674.202 1.027v6.056zM9.984 0H4.043a4.059 4.059 0 00-2.861 1.186A4.033 4.033 0 000 4.04v5.92a4.023 4.023 0 001.182 2.854A4.05 4.05 0 004.042 14h5.916a4.058 4.058 0 002.86-1.186A4.034 4.034 0 0014 9.96V4.04a4.024 4.024 0 00-1.182-2.854A4.049 4.049 0 009.958 0h.027zM7 9.39a2.37 2.37 0 01-2.192-1.448 2.35 2.35 0 01.506-2.572A2.366 2.366 0 019.343 6.8a2.352 2.352 0 01-1.441 2.409c-.285.119-.592.18-.902.18zm0-5.974a3.64 3.64 0 00-3.598 4.341 3.653 3.653 0 106.96-2.102A3.645 3.645 0 007 3.4v.017zm3.753-1a.852.852 0 00-.854.886.845.845 0 00.682.792.852.852 0 001.013-.746.844.844 0 00-.84-.932z"/></svg><view id="phone" viewBox="202 121 18 18"/><svg width="18" height="18" viewBox="0 0 18 18" x="202" y="121" xmlns="http://www.w3.org/2000/svg"><path d="M14.679 13.942l-.685 2.556a.748.748 0 01-.867.54 12.03 12.03 0 01-.784-.174c-6.4-1.715-10.202-8.282-8.49-14.668.053-.2.133-.455.24-.765a.748.748 0 01.903-.478l2.561.686a.375.375 0 01.274.422c-.028.17-.049.307-.061.411a10.405 10.405 0 00.1 3.126.34.34 0 01-.216.382l-1.862.695a9.773 9.773 0 003.632 6.275l1.533-1.258a.347.347 0 01.444.003 10.442 10.442 0 003.05 1.8.376.376 0 01.228.448z"/></svg><view id="profile" viewBox="224 139 12 15"/><svg width="12" height="15" viewBox="0 0 12 15" x="224" y="139" xmlns="http://www.w3.org/2000/svg"><path d="M11.333 14.667H10v-1.333a2 2 0 00-2-2H4a2 2 0 00-2 2v1.333H.667v-1.333A3.334 3.334 0 014 10h4a3.333 3.333 0 013.333 3.334v1.333zM6 8.667a4 4 0 110-8 4 4 0 010 8zm0-1.333A2.667 2.667 0 106 2a2.667 2.667 0 000 5.334z"/></svg><view id="search" viewBox="216 154 14 14"/><svg width="14" height="14" viewBox="0 0 14 14" x="216" y="154" xmlns="http://www.w3.org/2000/svg"><path d="M11.02 10.078l2.856 2.855-.943.943-2.855-2.855A6.002 6.002 0 01.333 6.334c0-3.312 2.688-6 6-6a6.002 6.002 0 014.688 9.744zm-1.337-.494a4.665 4.665 0 00-3.35-7.917 4.665 4.665 0 00-4.666 4.667 4.665 4.665 0 007.916 3.35l.1-.1z"/></svg><view id="tg" viewBox="230 154 14 13"/><svg width="14" height="13" viewBox="0 0 14 13" x="230" y="154" xmlns="http://www.w3.org/2000/svg"><path d="M12.964.001a1.561 1.561 0 00-.503.124h-.002c-.154.063-.884.38-1.992.861L6.49 2.718.833 5.182l.034-.013s-.194.065-.396.209a1.11 1.11 0 00-.315.315.95.95 0 00-.15.618c.049.402.301.643.482.776.183.135.358.198.358.198H.85l2.63.916c.117.391.801 2.714.965 3.25.097.319.192.519.31.671a.771.771 0 00.204.196.595.595 0 00.132.059l-.027-.007c.008.002.015.009.02.01.022.007.037.01.064.014.417.13.751-.137.751-.137l.019-.015 1.553-1.462 2.602 2.064.059.026c.543.246 1.092.11 1.382-.132.293-.244.406-.555.406-.555l.02-.05 2.01-10.65c.057-.264.072-.51.009-.749a1.004 1.004 0 00-.42-.583.982.982 0 00-.575-.15zm-.055 1.142c-.002.035.004.03-.01.098v.006l-1.993 10.54c-.008.015-.023.048-.063.08-.042.035-.076.057-.25-.015L7.41 9.33l-1.923 1.81.404-2.666 5.2-5.011c.215-.207.143-.25.143-.25.015-.253-.324-.074-.324-.074l-6.557 4.2-.002-.011-3.144-1.094v-.003L1.2 6.23l.017-.006.017-.009.017-.007L6.91 3.744l3.974-1.731 1.971-.853c.045-.017.024-.017.055-.017z"/></svg><view id="tw" viewBox="236 139 15 12"/><svg width="15" height="12" viewBox="0 0 15 12" x="236" y="139" xmlns="http://www.w3.org/2000/svg"><path d="M10.2 1.7a1.933 1.933 0 00-1.934 1.897l-.018 1.05a.4.4 0 01-.454.39l-1.04-.142c-1.37-.187-2.682-.818-3.94-1.866-.399 2.206.38 3.735 2.255 4.914l1.165.732a.4.4 0 01.022.662l-1.061.776c.631.04 1.23.011 1.728-.088 3.145-.628 5.237-2.994 5.237-6.898 0-.319-.675-1.428-1.96-1.428zM6.933 3.572a3.267 3.267 0 015.59-2.237c.474-.003.877.117 1.78-.43-.224 1.093-.334 1.568-.81 2.22 0 5.095-3.131 7.573-6.309 8.207-2.178.434-5.346-.28-6.254-1.228.462-.036 2.342-.238 3.429-1.033-.92-.606-4.579-2.76-2.174-8.549C3.314 1.841 4.458 2.74 5.618 3.215c.772.316.962.31 1.316.358h-.001z"/></svg><view id="vk" viewBox="220 121 16 9"/><svg width="16" height="9" viewBox="0 0 16 9" x="220" y="121" xmlns="http://www.w3.org/2000/svg"><path d="M15.61.65c.126-.362 0-.624-.514-.624H13.36a.836.836 0 00-.47.123.753.753 0 00-.304.357 13.481 13.481 0 01-2.18 3.359c-.388.361-.581.48-.835.48-.133 0-.26-.119-.26-.48V.624C9.312.206 9.185 0 8.8 0H6.037a.453.453 0 00-.304.096.398.398 0 00-.15.265c0 .418.667.48.707 1.62v2.475c0 .542-.126.623-.32.623-.573 0-2.054-2.038-2.888-4.363-.194-.48-.32-.66-.774-.66H.574C.06.057 0 .3 0 .537c0 .423.574 2.58 2.762 5.465C4.236 7.922 6.23 9 8.098 9c1.094 0 1.288-.237 1.288-.66V6.843c0-.487.126-.543.446-.543s.707.119 1.735 1.079C12.787 8.52 12.98 9 13.62 9h1.735c.513 0 .774-.237.58-.717a5.868 5.868 0 00-1.48-1.925c-.381-.48-1.028-.96-1.222-1.197a.501.501 0 01-.122-.165.471.471 0 01.122-.558c-.006.019 2.182-2.83 2.375-3.79V.65z"/></svg><view id="ytube" viewBox="251 139 14 10"/><svg width="14" height="10" viewBox="0 0 14 10" x="251" y="139" xmlns="http://www.w3.org/2000/svg"><path d="M13.69 1.563a1.806 1.806 0 00-.454-.8 1.756 1.756 0 00-.785-.464C11.361 0 6.997 0 6.997 0S2.622 0 1.533.31a1.756 1.756 0 00-.785.463 1.807 1.807 0 00-.455.801A19.476 19.476 0 000 5a19.024 19.024 0 00.293 3.437c.08.302.238.578.455.8.218.222.489.382.786.464C2.622 10 6.997 10 6.997 10s4.376 0 5.464-.299a1.75 1.75 0 00.785-.464 1.8 1.8 0 00.455-.8A18.55 18.55 0 0014 5a18.953 18.953 0 00-.309-3.437zM5.596 7.134V2.866L9.227 5 5.595 7.134z"/></svg></svg>