<?xml version="1.0" encoding="utf-8"?><svg width="33" height="33" viewBox="0 0 33 33" xmlns="http://www.w3.org/2000/svg" xmlns:xlink="http://www.w3.org/1999/xlink"><view id="basket" viewBox="18 0 15 15"/><svg width="15" height="15" viewBox="0 0 15 15" x="18" xmlns="http://www.w3.org/2000/svg"><path d="M1.667 9.667v-8H.333V.333h2A.667.667 0 013 1v8h8.292l1.333-5.333H4.333V2.334h9.147a.667.667 0 01.647.828L12.46 9.83a.667.667 0 01-.647.505h-9.48a.666.666 0 01-.666-.667zM3 14.334a1.334 1.334 0 110-2.668 1.334 1.334 0 010 2.668zm8 0a1.333 1.333 0 110-2.667 1.333 1.333 0 010 2.667z"/></svg><view id="phone" viewBox="0 0 18 18"/><svg width="18" height="18" viewBox="0 0 18 18" xmlns="http://www.w3.org/2000/svg"><path d="M14.679 13.942l-.685 2.556a.748.748 0 01-.867.54 12.03 12.03 0 01-.784-.174c-6.4-1.715-10.202-8.282-8.49-14.668.053-.2.133-.455.24-.765a.748.748 0 01.903-.478l2.561.686a.375.375 0 01.274.422c-.028.17-.049.307-.061.411a10.405 10.405 0 00.1 3.126.34.34 0 01-.216.382l-1.862.695a9.773 9.773 0 003.632 6.275l1.533-1.258a.347.347 0 01.444.003 10.442 10.442 0 003.05 1.8.376.376 0 01.228.448z"/></svg><view id="profile" viewBox="0 18 12 15"/><svg width="12" height="15" viewBox="0 0 12 15" y="18" xmlns="http://www.w3.org/2000/svg"><path d="M11.333 14.667H10v-1.333a2 2 0 00-2-2H4a2 2 0 00-2 2v1.333H.667v-1.333A3.334 3.334 0 014 10h4a3.333 3.333 0 013.333 3.334v1.333zM6 8.667a4 4 0 110-8 4 4 0 010 8zm0-1.333A2.667 2.667 0 106 2a2.667 2.667 0 000 5.334z"/></svg><view id="search" viewBox="12 18 14 14"/><svg width="14" height="14" viewBox="0 0 14 14" x="12" y="18" xmlns="http://www.w3.org/2000/svg"><path d="M11.02 10.078l2.856 2.855-.943.943-2.855-2.855A6.002 6.002 0 01.333 6.334c0-3.312 2.688-6 6-6a6.002 6.002 0 014.688 9.744zm-1.337-.494a4.665 4.665 0 00-3.35-7.917 4.665 4.665 0 00-4.666 4.667 4.665 4.665 0 007.916 3.35l.1-.1z"/></svg></svg>