<?xml version="1.0" encoding="utf-8"?><svg width="48" height="46" viewBox="0 0 48 46" xmlns="http://www.w3.org/2000/svg" xmlns:xlink="http://www.w3.org/1999/xlink"><view id="basket" viewBox="0 18 15 15"/><svg width="15" height="15" viewBox="0 0 15 15" y="18" xmlns="http://www.w3.org/2000/svg"><path d="M1.667 9.667v-8H.333V.333h2A.667.667 0 013 1v8h8.292l1.333-5.333H4.333V2.334h9.147a.667.667 0 01.647.828L12.46 9.83a.667.667 0 01-.647.505h-9.48a.666.666 0 01-.666-.667zM3 14.334a1.334 1.334 0 110-2.668 1.334 1.334 0 010 2.668zm8 0a1.333 1.333 0 110-2.667 1.333 1.333 0 010 2.667z"/></svg><view id="fb" viewBox="15 18 7 15"/><svg width="7" height="15" viewBox="0 0 7 15" x="15" y="18" xmlns="http://www.w3.org/2000/svg"><path d="M7 0C1.978 0 1.57.475 1.57 4.92H0v2.586h1.57V15h3.076V7.506h2.053L7 4.921H4.709V3.603c0-.724.238-1.024 1.148-1.024H7V0z"/></svg><view id="inst" viewBox="34 0 14 14"/><svg width="14" height="14" viewBox="0 0 14 14" x="34" xmlns="http://www.w3.org/2000/svg"><path d="M12.71 10.063a2.67 2.67 0 01-.784 1.894 2.685 2.685 0 01-1.897.789H3.97a2.691 2.691 0 01-2.477-1.658 2.677 2.677 0 01-.203-1.025V4.006a2.678 2.678 0 01.782-1.896 2.695 2.695 0 011.898-.792h6.058a2.695 2.695 0 012.478 1.662c.134.326.203.674.202 1.027v6.056zM9.984 0H4.043a4.059 4.059 0 00-2.861 1.186A4.033 4.033 0 000 4.04v5.92a4.023 4.023 0 001.182 2.854A4.05 4.05 0 004.042 14h5.916a4.058 4.058 0 002.86-1.186A4.034 4.034 0 0014 9.96V4.04a4.024 4.024 0 00-1.182-2.854A4.049 4.049 0 009.958 0h.027zM7 9.39a2.37 2.37 0 01-2.192-1.448 2.35 2.35 0 01.506-2.572A2.366 2.366 0 019.343 6.8a2.352 2.352 0 01-1.441 2.409c-.285.119-.592.18-.902.18zm0-5.974a3.64 3.64 0 00-3.598 4.341 3.653 3.653 0 106.96-2.102A3.645 3.645 0 007 3.4v.017zm3.753-1a.852.852 0 00-.854.886.845.845 0 00.682.792.852.852 0 001.013-.746.844.844 0 00-.84-.932z"/></svg><view id="phone" viewBox="0 0 18 18"/><svg width="18" height="18" viewBox="0 0 18 18" xmlns="http://www.w3.org/2000/svg"><path d="M14.679 13.942l-.685 2.556a.748.748 0 01-.867.54 12.03 12.03 0 01-.784-.174c-6.4-1.715-10.202-8.282-8.49-14.668.053-.2.133-.455.24-.765a.748.748 0 01.903-.478l2.561.686a.375.375 0 01.274.422c-.028.17-.049.307-.061.411a10.405 10.405 0 00.1 3.126.34.34 0 01-.216.382l-1.862.695a9.773 9.773 0 003.632 6.275l1.533-1.258a.347.347 0 01.444.003 10.442 10.442 0 003.05 1.8.376.376 0 01.228.448z"/></svg><view id="profile" viewBox="22 18 12 15"/><svg width="12" height="15" viewBox="0 0 12 15" x="22" y="18" xmlns="http://www.w3.org/2000/svg"><path d="M11.333 14.667H10v-1.333a2 2 0 00-2-2H4a2 2 0 00-2 2v1.333H.667v-1.333A3.334 3.334 0 014 10h4a3.333 3.333 0 013.333 3.334v1.333zM6 8.667a4 4 0 110-8 4 4 0 010 8zm0-1.333A2.667 2.667 0 106 2a2.667 2.667 0 000 5.334z"/></svg><view id="search" viewBox="34 14 14 14"/><svg width="14" height="14" viewBox="0 0 14 14" x="34" y="14" xmlns="http://www.w3.org/2000/svg"><path d="M11.02 10.078l2.856 2.855-.943.943-2.855-2.855A6.002 6.002 0 01.333 6.334c0-3.312 2.688-6 6-6a6.002 6.002 0 014.688 9.744zm-1.337-.494a4.665 4.665 0 00-3.35-7.917 4.665 4.665 0 00-4.666 4.667 4.665 4.665 0 007.916 3.35l.1-.1z"/></svg><view id="tg" viewBox="0 33 14 13"/><svg width="14" height="13" viewBox="0 0 14 13" y="33" xmlns="http://www.w3.org/2000/svg"><path d="M12.964.001a1.561 1.561 0 00-.503.124h-.002c-.154.063-.884.38-1.992.861L6.49 2.718.833 5.182l.034-.013s-.194.065-.396.209a1.11 1.11 0 00-.315.315.95.95 0 00-.15.618c.049.402.301.643.482.776.183.135.358.198.358.198H.85l2.63.916c.117.391.801 2.714.965 3.25.097.319.192.519.31.671a.771.771 0 00.204.196.595.595 0 00.132.059l-.027-.007c.008.002.015.009.02.01.022.007.037.01.064.014.417.13.751-.137.751-.137l.019-.015 1.553-1.462 2.602 2.064.059.026c.543.246 1.092.11 1.382-.132.293-.244.406-.555.406-.555l.02-.05 2.01-10.65c.057-.264.072-.51.009-.749a1.004 1.004 0 00-.42-.583.982.982 0 00-.575-.15zm-.055 1.142c-.002.035.004.03-.01.098v.006l-1.993 10.54c-.008.015-.023.048-.063.08-.042.035-.076.057-.25-.015L7.41 9.33l-1.923 1.81.404-2.666 5.2-5.011c.215-.207.143-.25.143-.25.015-.253-.324-.074-.324-.074l-6.557 4.2-.002-.011-3.144-1.094v-.003L1.2 6.23l.017-.006.017-.009.017-.007L6.91 3.744l3.974-1.731 1.971-.853c.045-.017.024-.017.055-.017z"/></svg><view id="vk" viewBox="18 0 16 9"/><svg width="16" height="9" viewBox="0 0 16 9" x="18" xmlns="http://www.w3.org/2000/svg"><path d="M15.61.65c.126-.362 0-.624-.514-.624H13.36a.836.836 0 00-.47.123.753.753 0 00-.304.357 13.481 13.481 0 01-2.18 3.359c-.388.361-.581.48-.835.48-.133 0-.26-.119-.26-.48V.624C9.312.206 9.185 0 8.8 0H6.037a.453.453 0 00-.304.096.398.398 0 00-.15.265c0 .418.667.48.707 1.62v2.475c0 .542-.126.623-.32.623-.573 0-2.054-2.038-2.888-4.363-.194-.48-.32-.66-.774-.66H.574C.06.057 0 .3 0 .537c0 .423.574 2.58 2.762 5.465C4.236 7.922 6.23 9 8.098 9c1.094 0 1.288-.237 1.288-.66V6.843c0-.487.126-.543.446-.543s.707.119 1.735 1.079C12.787 8.52 12.98 9 13.62 9h1.735c.513 0 .774-.237.58-.717a5.868 5.868 0 00-1.48-1.925c-.381-.48-1.028-.96-1.222-1.197a.501.501 0 01-.122-.165.471.471 0 01.122-.558c-.006.019 2.182-2.83 2.375-3.79V.65z"/></svg><view id="ytube" viewBox="14 33 14 10"/><svg width="14" height="10" viewBox="0 0 14 10" x="14" y="33" xmlns="http://www.w3.org/2000/svg"><path d="M13.69 1.563a1.806 1.806 0 00-.454-.8 1.756 1.756 0 00-.785-.464C11.361 0 6.997 0 6.997 0S2.622 0 1.533.31a1.756 1.756 0 00-.785.463 1.807 1.807 0 00-.455.801A19.476 19.476 0 000 5a19.024 19.024 0 00.293 3.437c.08.302.238.578.455.8.218.222.489.382.786.464C2.622 10 6.997 10 6.997 10s4.376 0 5.464-.299a1.75 1.75 0 00.785-.464 1.8 1.8 0 00.455-.8A18.55 18.55 0 0014 5a18.953 18.953 0 00-.309-3.437zM5.596 7.134V2.866L9.227 5 5.595 7.134z"/></svg></svg>