<svg width="527" height="529" viewBox="0 0 527 529" fill="none" xmlns="http://www.w3.org/2000/svg">
<path opacity="0.2" d="M441.539 154.25L246.227 511.957L50.9145 154.25L441.539 154.25Z" stroke="white"/>
<path opacity="0.2" d="M242.133 303.75L128.227 512.954L14.3198 303.75L242.133 303.75Z" stroke="white"/>
<ellipse cx="127.5" cy="510" rx="3.5" ry="4" fill="white"/>
<path d="M250 510.5C250 512.433 248.433 514 246.5 514C244.567 514 243 512.433 243 510.5C243 508.567 244.567 507 246.5 507C248.433 507 250 508.567 250 510.5Z" fill="white"/>
<path d="M16.5 303.5C16.5 305.433 14.933 307 13 307C11.067 307 9.5 305.433 9.5 303.5C9.5 301.567 11.067 300 13 300C14.933 300 16.5 301.567 16.5 303.5Z" fill="white"/>
<circle cx="50.5" cy="154.5" r="3.5" fill="white"/>
</svg>
