<svg width="315" height="44" fill="none" xmlns="http://www.w3.org/2000/svg"><path opacity=".8" d="M12.832 43L7.848 25.36V43H.4V1.336h7.448v16.016L12.72 1.336h7.336l-5.88 18.928L20.672 43h-7.84zm20.492 0V20.88L28.508 43h-7.28V1.336h7.28v22.288l4.816-22.288h7.28V43h-7.28zm9.396 0V1.336h16.52v7.336h-9.072v8.232h3.528c4.854 0 7.28 2.8 7.28 8.4v9.52c0 2.8-.541 4.872-1.624 6.216-1.045 1.307-3.061 1.96-6.048 1.96H42.72zm7.448-6.44h1.4c.784 0 1.288-.187 1.512-.56.262-.41.392-1.027.392-1.848v-8.12c0-.784-.13-1.363-.392-1.736-.224-.41-.728-.616-1.512-.616h-1.4v12.88zm12.68-35.224h15.568v7.336h-8.12v9.072h6.384v7.504h-6.384v10.248h8.512V43h-15.96V1.336zm28.367 24.976h-3.529V43h-7.448V1.336h10.585c2.986 0 5.002.672 6.048 2.016 1.082 1.344 1.624 3.416 1.624 6.216v8.344c0 5.6-2.427 8.4-7.28 8.4zM87.686 7.776v11.76h1.4c.785 0 1.288-.187 1.513-.56.26-.41.391-1.008.391-1.792V10.24c0-.859-.13-1.475-.391-1.848-.225-.41-.728-.616-1.513-.616h-1.4zm23.936 26.04v-9.184h7.392v9.408c0 2.8-.691 5.115-2.072 6.944-1.344 1.792-3.528 2.688-6.552 2.688h-1.512c-3.285 0-5.581-.896-6.888-2.688-1.269-1.792-1.904-4.181-1.904-7.168v-23.52c0-2.8.691-5.077 2.072-6.832 1.419-1.755 3.659-2.632 6.72-2.632h1.512c1.717 0 3.155.243 4.312.728 1.195.485 2.091 1.195 2.688 2.128a8.408 8.408 0 011.232 2.856c.261 1.008.392 2.165.392 3.472v7h-7.392v-6.72c0-1.605-.635-2.408-1.904-2.408-1.232 0-1.848.803-1.848 2.408v23.52c0 1.68.635 2.52 1.904 2.52 1.232 0 1.848-.84 1.848-2.52zM120.759 43V1.336h18.256V43h-7.448V8.672h-3.36V43h-7.448zm39.887-31.584V33.48c0 3.099-.784 5.563-2.352 7.392-1.568 1.83-3.734 2.744-6.496 2.744h-1.68c-2.95 0-5.19-.859-6.72-2.576-1.531-1.755-2.296-4.275-2.296-7.56V11.472c0-7.093 2.986-10.64 8.96-10.64h1.68c5.936 0 8.904 3.528 8.904 10.584zm-7.784 22.288V10.856c0-1.83-.654-2.744-1.96-2.744-1.344 0-2.016.915-2.016 2.744v22.848c0 1.643.69 2.464 2.072 2.464 1.269 0 1.904-.821 1.904-2.464zm20.712-7.392h-3.528V43h-7.448V1.336h10.584c2.987 0 5.003.672 6.048 2.016 1.083 1.344 1.624 3.416 1.624 6.216v8.344c0 5.6-2.427 8.4-7.28 8.4zm-3.528-18.536v11.76h1.4c.784 0 1.288-.187 1.512-.56.261-.41.392-1.008.392-1.792V10.24c0-.859-.131-1.475-.392-1.848-.224-.41-.728-.616-1.512-.616h-1.4zm11.73-6.44h18.088v7.336h-5.32V43h-7.448V8.672h-5.32V1.336zM207.004 43V1.336h15.96v7.28h-8.512v9.072h6.272v7.504h-6.272V43h-7.448zm25.167-41.664V43h-7.448V1.336h7.448zM234.512 43V1.336h15.96v7.28h-8.512v9.072h6.272v7.504h-6.272V43h-7.448zm26.568 0l-.784-7h-4.48l-.672 7h-6.608L253.8 1.336h8.848L268.304 43h-7.224zM258 14.552l-1.456 14.28h3.024L258 14.552zm27.226-5.04c0-1.27-.467-1.904-1.4-1.904-.933 0-1.4.635-1.4 1.904v6.44h-7V8.616c0-2.203.616-4.05 1.848-5.544 1.232-1.493 3.155-2.24 5.768-2.24h1.512c2.725 0 4.816.672 6.272 2.016 1.456 1.344 2.184 3.341 2.184 5.992v2.352c0 2.539-.205 4.536-.616 5.992-.373 1.419-1.381 3.192-3.024 5.32a3343.7 3343.7 0 01-4.088 5.32c-1.456 1.904-2.539 3.472-3.248 4.704-.672 1.195-1.027 1.904-1.064 2.128-.037.224-.056.597-.056 1.12h5.208v-7.112h7.28V43H274.53v-4.256c0-2.613.299-4.816.896-6.608.597-1.792 1.979-4.499 4.144-8.12l3.584-5.936c1.381-2.315 2.072-4.33 2.072-6.048v-2.52zm28.968 1.904V33.76c0 3.061-.766 5.47-2.296 7.224-1.531 1.755-3.678 2.632-6.44 2.632h-1.68c-2.838 0-4.966-.859-6.384-2.576-1.419-1.755-2.128-4.181-2.128-7.28V11.472c0-7.093 2.856-10.64 8.568-10.64h1.68c5.786 0 8.68 3.528 8.68 10.584zm-7.84 22.344V10.688c0-.896-.131-1.55-.392-1.96-.224-.41-.654-.616-1.288-.616-1.12 0-1.68.859-1.68 2.576V33.76c0 1.605.541 2.408 1.624 2.408 1.157 0 1.736-.803 1.736-2.408z" fill="#000"/></svg>