<svg width="503" height="99" fill="none" xmlns="http://www.w3.org/2000/svg"><path d="M11.207 60.194V38.236c0-15.304-.083-24.286-.25-26.948-.166-2.245-.623-3.867-1.372-4.865C8.92 5.34 7.59 4.593 5.593 4.177c-.998-.25-2.412-.374-4.242-.374-.665 0-.998-.25-.998-.749 0-.665.666-.998 1.996-.998 1.664 0 3.618.042 5.864.125 2.246 0 4.159.041 5.739.125 1.58.083 2.412.124 2.495.124.25 0 2.37-.041 6.363-.124 4.075-.167 6.862-.25 8.359-.25 10.147 0 17.757 1.83 22.83 5.49 2.08 1.497 4.035 3.742 5.864 6.736 1.83 2.995 2.745 6.405 2.745 10.23 0 9.898-5.032 19.505-15.096 28.82C60.737 70.3 69.387 80.946 73.462 85.271c4.907 5.156 9.981 8.15 15.22 8.982 1.581.25 3.203.375 4.867.375.748 0 1.122.25 1.122.748 0 .666-.998.998-2.994.998H82.82c-5.988 0-10.438-.79-13.349-2.37-1.663-.915-3.535-2.412-5.614-4.492-1.996-2.079-3.494-3.742-4.492-4.99-.998-1.33-3.243-4.283-6.737-8.858a3508.396 3508.396 0 01-7.735-10.48c-3.243-4.491-5.198-7.152-5.863-7.984-.5-.5-1.04-.749-1.622-.749l-15.346-.25c-.582 0-.873.333-.873.999v2.994c0 14.555.208 23.58.624 27.073.25 2.08.665 3.701 1.247 4.865.666 1.082 1.872 1.747 3.618 1.997 2.33.332 4.2.499 5.615.499.665 0 .998.25.998.748 0 .666-.666.998-1.996.998-1.997 0-4.242-.041-6.738-.124-2.412 0-4.45-.042-6.113-.125-1.58-.083-2.412-.125-2.495-.125h-.873c-.582.083-1.331.125-2.246.125-.915.083-1.871.124-2.87.124H6.842a35.709 35.709 0 01-2.62.125c-1.331 0-1.996-.332-1.996-.998 0-.499.332-.748.998-.748.998 0 2.245-.167 3.742-.5 1.83-.332 3.036-2.62 3.618-6.861.416-3.493.624-12.518.624-27.073zm9.981-51.9V49.09c0 .666.291 1.165.873 1.497 2.246 1.331 6.613 1.997 13.1 1.997 3.992 0 7.111-.79 9.357-2.37 5.074-3.494 7.61-9.898 7.61-19.214 0-7.818-1.954-13.931-5.863-18.34-3.826-4.408-9.066-6.612-15.72-6.612-3.91 0-6.696.25-8.359.749-.665.25-.998.748-.998 1.497zM91.042 49.09c0-5.323.956-10.729 2.87-16.218 1.995-5.49 4.865-10.688 8.608-15.595 3.826-4.99 9.024-9.066 15.595-12.227 6.57-3.16 13.931-4.74 22.082-4.74 14.306 0 26.033 4.241 35.182 12.725 9.232 8.4 13.848 19.753 13.848 34.06 0 14.305-4.616 26.407-13.848 36.304-9.232 9.815-21.209 14.722-35.931 14.722-6.57 0-12.6-.957-18.09-2.87-5.489-1.996-10.064-4.616-13.723-7.86-3.66-3.243-6.779-7.028-9.357-11.353-2.579-4.325-4.45-8.733-5.614-13.224a58.425 58.425 0 01-1.622-13.724zm11.852-3.493c0 14.306 3.784 25.867 11.353 34.683 7.569 8.733 17.092 13.1 28.57 13.1 2.578 0 5.198-.291 7.86-.873 2.744-.666 5.739-1.913 8.982-3.743a32.174 32.174 0 008.734-7.36c2.495-2.995 4.574-7.154 6.238-12.477 1.746-5.323 2.62-11.436 2.62-18.34 0-14.305-3.702-25.534-11.104-33.685-7.402-8.234-16.344-12.35-26.823-12.35-10.813 0-19.588 3.534-26.325 10.604-6.737 7.07-10.105 17.217-10.105 30.441zm200.992-41.92l8.359 76.603c.832 7.652 3.078 12.06 6.737 13.225 2.412.748 5.116 1.123 8.11 1.123.665 0 .998.208.998.623 0 .749-.873 1.123-2.62 1.123-7.735 0-14.68-.25-20.835-.748-2.329-.167-3.493-.583-3.493-1.248 0-.499.291-.79.873-.873.665-.166.832-1.664.499-4.492l-5.988-64.376h-.375l-30.566 64.876c-1.913 4.075-3.077 6.237-3.493 6.487a1.387 1.387 0 01-.624.125c-.582 0-1.871-1.913-3.867-5.74-1.414-2.744-6.28-12.392-14.597-28.943-.666-1.414-3.452-7.32-8.359-17.716-4.824-10.397-7.527-16.344-8.11-17.84h-.499l-4.99 57.888c-.083 1.33-.125 3.451-.125 6.362 0 .915.291 1.747.874 2.496.665.748 1.455 1.206 2.37 1.372 1.747.416 3.327.624 4.741.624.665 0 .998.208.998.623 0 .749-.749 1.123-2.246 1.123-1.829 0-4.241-.041-7.236-.124l-4.366-.25c-.167 0-1.622.042-4.367.125-2.745.166-4.782.25-6.113.25-1.414 0-2.121-.375-2.121-1.124 0-.415.416-.623 1.248-.623 1.247 0 2.495-.125 3.742-.375.998-.166 1.789-.54 2.371-1.123.665-.582 1.164-1.455 1.497-2.62.333-1.247.541-2.204.624-2.869.166-.749.332-1.996.499-3.743l8.982-81.343c.25-1.497.707-2.246 1.373-2.246.665 0 1.289.624 1.871 1.872l38.177 78.474 36.679-78.35C301.1.976 301.724.31 302.389.31c.749 0 1.248 1.123 1.497 3.369zm39.275 52.774V38.236c0-15.304-.083-24.286-.249-26.948-.166-2.245-.624-3.867-1.373-4.865-.665-1.082-1.996-1.83-3.992-2.246-.998-.25-2.412-.374-4.242-.374-.665 0-.998-.25-.998-.749 0-.665.666-.998 1.996-.998 2.246 0 5.199.042 8.858.125l5.49.25c.166 0 1.871-.042 5.115-.125 3.327-.167 5.739-.25 7.236-.25 1.331 0 1.996.333 1.996.998 0 .5-.333.749-.998.749-.582 0-1.622.124-3.119.374-1.58.25-2.703.915-3.368 1.996-.666 1.081-1.082 2.786-1.248 5.115-.166 2.662-.25 11.644-.25 26.948v17.467c0 8.317.791 14.846 2.371 19.587 1.663 4.658 3.992 8.4 6.986 11.228 2.828 2.662 5.698 4.492 8.609 5.49 2.911.915 6.321 1.372 10.23 1.372 3.743 0 7.361-.79 10.854-2.37 3.577-1.664 6.488-3.868 8.733-6.613 4.824-5.988 7.236-16.177 7.236-30.566V38.236c0-15.304-.083-24.286-.249-26.948-.166-2.245-.624-3.867-1.372-4.865-.666-1.082-1.997-1.83-3.993-2.246-.998-.25-2.412-.374-4.242-.374-.665 0-.998-.25-.998-.749 0-.665.666-.998 1.997-.998 1.663 0 3.534.042 5.614.125 2.079 0 3.826.041 5.24.125 1.497.083 2.287.124 2.37.124.083 0 1.456-.041 4.117-.124 2.745-.167 4.866-.25 6.363-.25 1.331 0 1.996.333 1.996.998 0 .5-.333.749-.998.749a12.79 12.79 0 00-3.119.374c-1.664.333-2.828 1.04-3.493 2.12-.583 1.082-.957 2.746-1.123 4.991-.167 2.662-.25 11.644-.25 26.948v13.35c0 8.234-.79 15.511-2.37 21.832-1.58 6.322-4.616 11.478-9.108 15.47-6.903 6.155-15.47 9.233-25.7 9.233-10.896 0-19.463-2.953-25.701-8.858-7.236-6.903-10.854-17.84-10.854-32.812zm121.276-18.215v22.208c0 9.564.167 16.468.5 20.71.415 4.158 1.164 6.778 2.245 7.86 1.913 1.912 6.904 2.869 14.971 2.869 4.076 0 7.278-.208 9.607-.624 2.329-.416 4.158-1.455 5.489-3.119 1.747-2.08 2.828-4.574 3.244-7.485.166-1.082.541-1.622 1.123-1.622.499 0 .748.623.748 1.871 0 3.826-.623 7.985-1.871 12.476-.416 1.497-1.04 2.412-1.871 2.745-.832.416-2.828.624-5.989.624-6.903 0-13.848-.125-20.835-.375-6.903-.25-11.103-.374-12.6-.374h-1.747a51.25 51.25 0 01-3.369.125c-3.326.166-5.697.25-7.111.25-1.331 0-1.996-.333-1.996-.999 0-.499.333-.748.998-.748.998 0 2.246-.167 3.743-.5 1.83-.332 3.036-2.62 3.618-6.861.416-3.493.624-12.518.624-27.073V38.236c0-15.304-.084-24.286-.25-26.948-.166-2.245-.624-3.867-1.372-4.865-.666-1.082-1.996-1.83-3.993-2.246-.998-.25-2.412-.374-4.241-.374-.666 0-.998-.25-.998-.749 0-.665.665-.998 1.996-.998 1.663 0 3.618.042 5.863.125 2.246 0 4.159.041 5.739.125 1.581.083 2.412.124 2.496.124.083 0 .998-.041 2.744-.124a123.18 123.18 0 015.864-.125c2.162-.083 3.784-.125 4.866-.125 1.33 0 1.996.333 1.996.998 0 .5-.333.749-.998.749-1.248 0-2.62.124-4.117.374-1.747.333-2.953 1.04-3.618 2.12-.666 1.082-1.082 2.746-1.248 4.991-.166 2.662-.25 11.644-.25 26.948z" fill="#F8EEE6"/></svg>