<svg width="559" height="198" fill="none" xmlns="http://www.w3.org/2000/svg"><path d="M78.366 156.989c-22.72 0-41.496-7.142-56.326-21.428C7.347 121.276 0 103.453 0 82.093 0 61.005 7.21 43.25 21.632 28.828 36.19 14.407 54.285 7.196 75.917 7.196c23.129 0 41.836 7.279 56.121 21.837L115.712 45.97c-10.476-10.476-23.741-15.714-39.795-15.714-14.966 0-27.346 5.034-37.142 15.102C28.979 55.29 24.08 67.535 24.08 82.093c0 14.965 4.898 27.346 14.694 37.142 9.931 9.796 23.06 14.693 39.387 14.693 15.51 0 27.074-3.129 34.693-9.387V92.297H76.529V69.848h59.591v66.325c-6.259 6.803-14.558 11.973-24.898 15.51-10.34 3.538-21.292 5.306-32.856 5.306z" fill="url(#paint0_linear)" fill-opacity=".7"/><path d="M173.205 30.257c-4.082 0-7.619-1.429-10.612-4.286-2.994-2.993-4.49-6.598-4.49-10.816 0-4.081 1.496-7.55 4.49-10.408 2.993-2.993 6.53-4.49 10.612-4.49 4.217 0 7.755 1.497 10.612 4.49 2.857 2.857 4.285 6.327 4.285 10.408 0 4.218-1.428 7.823-4.285 10.816-2.857 2.857-6.395 4.286-10.612 4.286zM161.98 154.54V52.502h22.449V154.54H161.98z" fill="url(#paint1_linear)" fill-opacity=".7"/><path d="M214.594 154.54V1.482h22.449V154.54h-22.449z" fill="url(#paint2_linear)" fill-opacity=".7"/><path d="M267.208 154.54V52.502h22.448v18.162c1.905-5.714 5.374-10.34 10.408-13.877 5.17-3.537 10.68-5.306 16.531-5.306 3.537 0 6.462.272 8.775.816v23.061c-3.265-1.224-7.007-1.837-11.224-1.837-6.803 0-12.585 2.79-17.347 8.368-4.762 5.442-7.143 13.06-7.143 22.856v49.795h-22.448z" fill="url(#paint3_linear)" fill-opacity=".7"/><path d="M425.226 141.275c-10.204 10.204-22.857 15.306-37.958 15.306-15.102 0-27.823-5.102-38.163-15.306-10.204-10.34-15.306-22.924-15.306-37.754 0-14.83 5.102-27.347 15.306-37.55 10.34-10.34 23.061-15.51 38.163-15.51 15.101 0 27.754 5.17 37.958 15.51 10.34 10.203 15.51 22.72 15.51 37.55 0 14.83-5.17 27.414-15.51 37.754zm-37.958-5.51c8.843 0 16.122-3.061 21.836-9.183 5.85-6.259 8.775-13.946 8.775-23.061 0-9.116-2.925-16.734-8.775-22.857-5.714-6.258-12.993-9.387-21.836-9.387-8.98 0-16.395 3.129-22.245 9.387-5.714 6.123-8.571 13.741-8.571 22.857 0 9.115 2.857 16.802 8.571 23.061 5.85 6.122 13.265 9.183 22.245 9.183z" fill="url(#paint4_linear)" fill-opacity=".7"/><path d="M493.375 197.193h-24.693l21.836-48.163-43.876-96.529h24.693l31.224 72.244 31.428-72.244h24.897l-65.509 144.692z" fill="url(#paint5_linear)" fill-opacity=".7"/><defs><linearGradient id="paint0_linear" x1="558.884" y1=".257" x2="20.73" y2="248.987" gradientUnits="userSpaceOnUse"><stop stop-color="#F9F5F1"/><stop offset="1" stop-color="#EADBC4"/></linearGradient><linearGradient id="paint1_linear" x1="558.884" y1=".257" x2="20.73" y2="248.987" gradientUnits="userSpaceOnUse"><stop stop-color="#F9F5F1"/><stop offset="1" stop-color="#EADBC4"/></linearGradient><linearGradient id="paint2_linear" x1="558.884" y1=".257" x2="20.73" y2="248.987" gradientUnits="userSpaceOnUse"><stop stop-color="#F9F5F1"/><stop offset="1" stop-color="#EADBC4"/></linearGradient><linearGradient id="paint3_linear" x1="558.884" y1=".257" x2="20.73" y2="248.987" gradientUnits="userSpaceOnUse"><stop stop-color="#F9F5F1"/><stop offset="1" stop-color="#EADBC4"/></linearGradient><linearGradient id="paint4_linear" x1="558.884" y1=".257" x2="20.73" y2="248.987" gradientUnits="userSpaceOnUse"><stop stop-color="#F9F5F1"/><stop offset="1" stop-color="#EADBC4"/></linearGradient><linearGradient id="paint5_linear" x1="558.884" y1=".257" x2="20.73" y2="248.987" gradientUnits="userSpaceOnUse"><stop stop-color="#F9F5F1"/><stop offset="1" stop-color="#EADBC4"/></linearGradient></defs></svg>