<svg width="146" height="97" fill="none" xmlns="http://www.w3.org/2000/svg"><path stroke="url(#paint0_linear)" stroke-opacity=".5" d="M3.5 3.118h138.806v90.109H3.5z"/><path fill="#fff" d="M139.402 0h5.76v5.76h-5.76z"/><path stroke="url(#paint1_linear)" stroke-opacity=".5" d="M139.902.5h4.76v4.76h-4.76z"/><path fill="#fff" d="M.402 0h5.76v5.76H.402z"/><path stroke="url(#paint2_linear)" stroke-opacity=".5" d="M.902.5h4.76v4.76H.902z"/><path fill="#fff" d="M139.926 90.847h5.76v5.76h-5.76z"/><path stroke="url(#paint3_linear)" stroke-opacity=".5" d="M140.426 91.347h4.76v4.76h-4.76z"/><path fill="#fff" d="M.926 90.847h5.76v5.76H.926z"/><path stroke="url(#paint4_linear)" stroke-opacity=".5" d="M1.426 91.347h4.76v4.76h-4.76z"/><defs><linearGradient id="paint0_linear" x1="142.806" y1="2.618" x2="-1.681" y2="10.771" gradientUnits="userSpaceOnUse"><stop stop-color="#33C5F3"/><stop offset=".854" stop-color="#C7B8F5"/></linearGradient><linearGradient id="paint1_linear" x1="145.162" y1="0" x2="139.199" y2=".219" gradientUnits="userSpaceOnUse"><stop stop-color="#33C5F3"/><stop offset=".854" stop-color="#C7B8F5"/></linearGradient><linearGradient id="paint2_linear" x1="6.162" y1="0" x2=".199" y2=".219" gradientUnits="userSpaceOnUse"><stop stop-color="#33C5F3"/><stop offset=".854" stop-color="#C7B8F5"/></linearGradient><linearGradient id="paint3_linear" x1="145.686" y1="90.847" x2="139.722" y2="91.067" gradientUnits="userSpaceOnUse"><stop stop-color="#33C5F3"/><stop offset=".854" stop-color="#C7B8F5"/></linearGradient><linearGradient id="paint4_linear" x1="6.686" y1="90.847" x2=".722" y2="91.067" gradientUnits="userSpaceOnUse"><stop stop-color="#33C5F3"/><stop offset=".854" stop-color="#C7B8F5"/></linearGradient></defs></svg>