<svg width="441" height="264" fill="none" xmlns="http://www.w3.org/2000/svg"><path d="M-17 259.732L97.867 0h28.168l115.233 259.732h-35.484l-33.655-75.725H51.042L18.12 259.732H-17zM111.403 46.093L64.578 153.278h94.015l-47.19-107.185z" fill="url(#paint0_linear)" fill-opacity=".15"/><path d="M345.155 263.39c-25.363 0-46.703-9.268-64.018-27.802-17.072-18.535-25.607-40.972-25.607-67.311 0-26.339 8.535-48.776 25.607-67.311 17.315-18.535 38.655-27.802 64.018-27.802 13.414 0 25.852 3.048 37.314 9.145 11.706 5.853 20.73 13.414 27.071 22.681V76.822H441v182.91h-31.46v-28.168c-6.341 9.267-15.365 16.949-27.071 23.046-11.462 5.853-23.9 8.78-37.314 8.78zm4.756-28.9c18.047 0 32.924-6.341 44.63-19.022 11.706-12.682 17.559-28.412 17.559-47.191 0-18.779-5.853-34.509-17.559-47.191-11.706-12.682-26.583-19.022-44.63-19.022-18.291 0-33.29 6.34-44.996 19.022-11.706 12.682-17.559 28.412-17.559 47.191 0 18.779 5.853 34.509 17.559 47.191 11.706 12.681 26.705 19.022 44.996 19.022z" fill="url(#paint1_linear)" fill-opacity=".15"/><defs><linearGradient id="paint0_linear" x1="441" y1="0" x2="-31.909" y2="30.24" gradientUnits="userSpaceOnUse"><stop stop-color="#33C5F3"/><stop offset=".854" stop-color="#C7B8F5"/></linearGradient><linearGradient id="paint1_linear" x1="441" y1="0" x2="-31.909" y2="30.24" gradientUnits="userSpaceOnUse"><stop stop-color="#33C5F3"/><stop offset=".854" stop-color="#C7B8F5"/></linearGradient></defs></svg>