<svg width="375" height="84" fill="none" xmlns="http://www.w3.org/2000/svg"><path d="M2.006 58H24.12c18.518 0 22.405-8.068 22.405-15.132v-1.254c0-7.315-4.514-14.714-22.447-14.714H2.007V58zm11.872-22.949h8.82c10.367 0 11.495 4.473 11.495 7.19v.25c0 2.718-1.128 7.274-11.495 7.274h-8.82V35.051zm47.352-.585h13.628c2.675 0 3.594 1.17 3.594 2.634v.041c0 1.505-.961 2.676-3.594 2.676H61.23v-5.35zm0 12.875H72.6c4.682 0 6.312 1.839 6.312 5.392v3.637c0 .878.084 1.296.376 1.63h12.123v-.209c-.293-.543-.585-1.338-.585-3.511v-4.598c0-4.013-2.55-6.521-6.396-7.4 2.34-.543 6.27-2.424 6.27-6.938v-.46c0-5.058-4.013-7.984-13.084-7.984H49.36V58h11.87V47.34zm32.453-5.602c0 6.02 2.55 16.763 20.65 16.763h1.672c17.598 0 20.482-10.743 20.482-16.763V26.9h-11.871v13.92c0 3.804-1.756 8.36-9.489 8.36-7.859 0-9.531-4.556-9.531-8.36V26.9H93.683v14.84zM152.017 58V44.08L167.191 58h15.466l-18.685-16.971 18.1-14.129h-14.756l-15.299 12.29V26.9h-11.872V58h11.872zm68.621 0l6.27-19.646L233.387 58h13.752l12.123-31.1h-12.164l-6.856 20.19-6.312-20.19h-13.376l-6.228 20.524-7.065-20.524h-13.209L206.174 58h14.464zm51.923-31.1h-11.83V58h11.83V26.9zM276.57 58h22.112c18.518 0 22.406-8.068 22.406-15.132v-1.254c0-7.315-4.515-14.714-22.447-14.714H276.57V58zm11.871-22.949h8.82c10.367 0 11.495 4.473 11.495 7.19v.25c0 2.718-1.128 7.274-11.495 7.274h-8.82V35.051zm35.481-8.15V58h34.737v-7.775h-23.032v-4.264h22.238v-7.566h-22.238v-3.887h22.698V26.9h-34.403zm49.245 22.948H361.38V58h11.787v-8.151z" fill="#ECEDED"/><path stroke="#ECEDED" d="M0 77.733h375"/></svg>