<svg width="50" height="37" fill="none" xmlns="http://www.w3.org/2000/svg"><path d="M0 9.694c.24 0 .474-.004.714-.004h20.02c.347 0 .343 0 .316.371-.088 1.098-.451 2.106-1.01 3.05-1.111 1.865-2.747 3.094-4.76 3.84-1.54.564-3.137.78-4.768.784-3.446.004-6.892.004-10.338 0-.058 0-.116-.004-.174-.004V9.694zm33.57 18.42c0-2.87-.002-5.743-.005-8.616 0-.182.05-.22.224-.22 2.97.003 5.94.003 8.91 0 .19 0 .232.05.232.235-.003 5.73-.005 11.462-.003 17.195 0 .247 0 .247-.247.247h-8.853c-.259 0-.255 0-.255-.263-.004-2.859-.005-5.718-.004-8.578zm-1.553.007c0 2.871.002 5.743.004 8.617 0 .154-.034.209-.2.209a3647.59 3647.59 0 00-9.239 0c-.166 0-.204-.058-.2-.21.003-2.897-.008-5.795.007-8.693.012-1.874.533-3.593 1.697-5.081.973-1.244 2.226-2.122 3.661-2.744a11.162 11.162 0 013.723-.92c.551-.038.551-.038.551.5a8870.57 8870.57 0 00-.004 8.322zM21.062 8.15c-.24 0-.475.004-.714.004H.328c-.348 0-.344 0-.317-.37.089-1.098.451-2.107 1.01-3.05C2.134 2.869 3.769 1.64 5.782.895 7.322.33 8.919.114 10.55.108c3.444-.004 6.89-.004 10.338 0 .057 0 .115.004.173.004l.001 8.038zm11.832 1.538c3.434 0 6.865 0 10.296-.003.197 0 .232.065.224.24-.043 1.015-.347 1.958-.826 2.847-1.118 2.086-2.862 3.431-5.06 4.22-1.494.533-3.04.745-4.618.745-3.437.004-6.878 0-10.315.008-.181 0-.216-.054-.216-.224.004-2.535.004-5.071 0-7.608 0-.174.038-.225.22-.225 3.433.004 6.865.004 10.295 0zm0-1.558c3.434 0 6.865.001 10.296.004.197 0 .232-.065.224-.239-.043-1.011-.347-1.95-.826-2.835-1.118-2.078-2.862-3.416-5.06-4.201C36.033.328 34.485.116 32.91.116c-3.437-.004-6.878 0-10.315-.008-.181 0-.216.054-.216.224.004 2.524.004 5.049 0 7.573 0 .173.038.223.22.223 3.433-.002 6.865-.001 10.295.002zM10.527 28.878c-3.435 0-6.87 0-10.302-.003-.197 0-.232.065-.224.24.042 1.015.347 1.958.826 2.847 1.119 2.086 2.864 3.431 5.064 4.22 1.494.532 3.042.745 4.62.745 3.44.004 6.883 0 10.323.008.181 0 .216-.054.216-.224-.004-2.535-.004-5.071 0-7.608 0-.174-.038-.225-.22-.225-3.436.004-6.87.004-10.303 0zm0-1.558c-3.435 0-6.87.001-10.302.004-.197 0-.232-.066-.224-.239.042-1.012.347-1.95.826-2.835 1.119-2.078 2.864-3.416 5.064-4.201 1.494-.531 3.042-.743 4.62-.743 3.44-.004 6.883 0 10.323-.008.181 0 .216.054.216.224-.004 2.524-.004 5.05 0 7.575 0 .173-.038.223-.22.223-3.436-.003-6.87-.003-10.303 0zM47.9 36.812a.861.861 0 01-.88-.88c0-.313.11-.502.265-.666l.222.193c-.127.136-.212.282-.212.477 0 .327.267.563.605.563.338 0 .606-.236.606-.563 0-.209-.086-.343-.221-.489l.193-.193a.881.881 0 01.3.692c.002.496-.384.866-.878.866zm.212-1.767a.684.684 0 01-.668-.685.686.686 0 01.668-.686c.365 0 .669.292.669.69a.667.667 0 01-.669.68zm0-1.076c-.226 0-.413.163-.413.394 0 .232.185.387.413.387.229 0 .416-.163.416-.392 0-.238-.19-.39-.416-.39zm.161-1.376c.06.12.093.25.097.383 0 .255-.14.438-.403.438h-.498v-.295h.427a.215.215 0 00.206-.128.215.215 0 00.018-.084.656.656 0 00-.085-.314h-.566V32.3h1.283v.294h-.479zm-.804-.665v-.287h.86c-.287-.202-.573-.405-.86-.609v-.277h1.283v.285h-.856l.856.61v.278h-1.283zm1.107-1.382v-.175c-.26-.163-.678-.258-1.23-.258h-.296v-1.115h1.526v-.222l.554.03v.16h-.379v1.383l.38.034v.163h-.555zm0-1.356h-1.35v.738h.22c.44 0 .898.085 1.131.226v-.964zm-1.081-.665v-.187h.994l-.994-.747v-.183h1.257v.188h-.996l.994.75v.18h-1.255zm.887-1.44c-.27 0-.41-.22-.41-.538a1.3 1.3 0 01.053-.387h-.039c-.224 0-.34.137-.34.373 0 .132.031.263.09.382l-.154.056a1.032 1.032 0 01-.107-.458c0-.177.048-.316.138-.407.09-.09.21-.13.37-.13h.767v.184h-.184a.552.552 0 01.214.453c-.002.238-.137.472-.398.472zm-.092-.925h-.116c-.035.12-.053.243-.054.367 0 .232.103.368.258.368.155 0 .25-.146.25-.317 0-.23-.14-.418-.338-.418zm.462-.368l-.161-.022c.01-.03.015-.06.017-.09 0-.15-.066-.277-1.008-.277h-.105v-.891h1.257v.187H47.66v.525h.03c.979 0 1.08.178 1.08.416a.78.78 0 01-.019.152zm-.628-1.621a.656.656 0 11.001-1.311.656.656 0 010 1.311zm0-1.12a.476.476 0 00-.49.467c0 .273.22.46.49.46s.489-.2.489-.464c0-.273-.219-.463-.489-.463zm-.629-.531v-.854h.165v.667h1.092v.186h-1.257zm-1.359 14.33l-.214-.18c.14-.163.221-.326.221-.537 0-.186-.085-.303-.219-.303-.121 0-.187.069-.262.387-.085.363-.193.567-.51.567-.292 0-.494-.243-.494-.582a.945.945 0 01.214-.618l.226.16a.767.767 0 00-.175.464c0 .175.09.278.207.278.13 0 .19-.078.267-.404.088-.36.217-.548.502-.548.318 0 .508.25.508.609 0 .261-.096.514-.271.707zm-.393-1.567a.684.684 0 010-1.37c.365 0 .669.292.669.689a.667.667 0 01-.669.681zm0-1.076c-.226 0-.413.163-.413.395 0 .231.185.386.413.386.229 0 .413-.163.413-.392 0-.238-.187-.389-.413-.389zm.001-.521a.66.66 0 01-.67-.667c0-.244.09-.395.22-.514l.197.183c-.094.09-.16.185-.16.333 0 .214.185.37.413.37.228 0 .413-.158.413-.386 0-.139-.065-.241-.16-.334l.175-.177c.14.126.24.275.24.526a.66.66 0 01-.668.666zm-1.136-1.463v-.294h.69a.463.463 0 01-.226-.402c0-.29.193-.458.494-.458h.816v.295h-.729c-.199 0-.313.1-.313.275 0 .175.119.29.318.29h.724v.294h-1.774zm.015-1.513v-.316h.278v.316h-.278zm.476-.012v-.297h1.283v.294l-1.283.003zm-.417-.736v-.592c0-.535.366-.905.848-.905s.85.37.85.905v.592h-1.698zm1.523-.592c0-.43-.291-.706-.673-.706-.381 0-.673.275-.673.706v.4h1.346v-.4zm-1.56-1.285v-.214h.207v.214h-.206zm.482-.013v-.187h1.256v.187h-1.256zm.887-.527c-.27 0-.411-.22-.411-.538a1.32 1.32 0 01.053-.385h-.039c-.223 0-.34.137-.34.373 0 .132.031.263.09.382l-.154.056c-.07-.143-.108-.3-.108-.458 0-.178.05-.317.14-.407.09-.09.208-.131.369-.131h.768v.185h-.188a.552.552 0 01.214.453c.001.235-.132.47-.395.47zm-.093-.928h-.116a1.29 1.29 0 00-.053.368c0 .234.102.368.257.368.156 0 .25-.146.25-.317 0-.228-.139-.417-.338-.417v-.002zm-1.313-.594v-.188h1.775v.188h-1.775zm1.148-.545a.655.655 0 01-.642-.787.656.656 0 111.248.385.65.65 0 01-.606.402zm0-1.12a.476.476 0 00-.49.466c0 .273.22.46.49.46s.489-.199.489-.463c0-.273-.219-.463-.489-.463zm.845-.517l-.146-.085a.799.799 0 00.16-.484c0-.277-.154-.457-.446-.457h-.15c.146.109.266.262.266.494a.594.594 0 01-1.013.42.594.594 0 01-.173-.42.59.59 0 01.252-.492h-.226v-.188h1.038c.193 0 .343.059.445.161.112.112.168.28.168.48a.985.985 0 01-.175.572zm-.911-1.032c-.258 0-.424.225-.424.464 0 .24.165.436.428.436a.424.424 0 00.427-.436c0-.24-.174-.463-.431-.463zm.216-.579h-.78v-.187h.733c.231 0 .379-.127.379-.348 0-.214-.158-.377-.394-.377h-.719v-.185h1.256v.185h-.218a.48.48 0 01.245.43c.001.305-.203.483-.502.483zm.345-2.074a.524.524 0 00-.177-.396l.104-.116a.649.649 0 01.236.518c0 .346-.265.628-.656.628-.364 0-.656-.255-.656-.603 0-.373.297-.587.666-.587.022 0 .044 0 .066.002v.998a.441.441 0 00.417-.444zm-.569-.367c-.228.022-.424.154-.424.401 0 .217.18.383.424.41v-.811z" fill="#E3A868"/></svg>