<svg width="41" height="41" fill="none" xmlns="http://www.w3.org/2000/svg"><g clip-path="url(#clip0)"><path fill-rule="evenodd" clip-rule="evenodd" d="M18.695 2.368a1.081 1.081 0 01-.323-.733c-.024-.306.048-.563.226-.773a.928.928 0 01.701-.346l.032-.008c.314-.016.574.064.758.255.193.198.308.46.323.736.021.273-.056.545-.218.765-.162.217-.403.339-.718.363h-.113c-.274 0-.5-.081-.668-.255v-.004zm8.996 9.913v-.088c.025.024.049.057.08.088.025.057.057.113.09.178v.078h-.09a.786.786 0 00-.08.088.411.411 0 00-.08.09 4.092 4.092 0 00-.45-.087 1.61 1.61 0 01.088-.17v-.088h.355a.892.892 0 01.087-.088zm-24.13 1.546l.041-.031c.009.012.02.023.033.031.064.07.121.145.17.226.04.074.072.153.095.234.02.079.022.16.009.241a1.545 1.545 0 01-.04.202l-.009.024a.97.97 0 01-.951.676 1.308 1.308 0 01-.387-.064 1.1 1.1 0 01-.62-.499.893.893 0 01-.057-.79l.008-.024a.722.722 0 01.09-.191c.007-.008.015-.024.023-.033a.817.817 0 01.07-.09l.016-.016.016-.016a.485.485 0 01.057-.064c.008-.016.024-.032.024-.048a.114.114 0 00-.008-.072.308.308 0 00-.089-.064l.009-.025.032-.08.653.225-.008.023-.022.083a.76.76 0 00-.428.049.445.445 0 00-.137.096.397.397 0 00-.127.191.553.553 0 00.056.443c.08.162.29.299.613.411.274.089.5.113.685.057a.507.507 0 00.361-.347.527.527 0 000-.354 1.201 1.201 0 00-.217-.347l.008-.024.032-.033zm12.666 6.902a.074.074 0 00.096.055.073.073 0 00.05-.061.074.074 0 00-.073-.083.082.082 0 00-.073.088v.001zm1.751-1.135c-.105.443.63.475.653.064.016-.162-.097-.242-.242-.242a.658.658 0 00-.41.178zm-2.765 0c0 .04.073.072.161.072.089 0 .17-.032.17-.072 0-.04-.073-.073-.17-.073-.097 0-.161.032-.161.073zm1.878-.427c-.225.225-.524.45-.048.265.191-.072.37-.249.574-.313.516-.17-.008-.371-.25-.693-.265.04-.12.588-.274.741h-.002zm-2.484-.186c-.008.25.446.45.446.191 0-.127-.137-.25-.29-.25a.24.24 0 00-.153.057l-.003.002zm1.798-1.038l-.299.032-.185.282-.637.266v.127l.144.115.04-.218.485-.204.339.024.225-.25.299-.273-.234-.255-.177.354zm2.224.33c-.056-.177-.19-.233-.314-.137-.016.033-.137.363-.032.322a.388.388 0 01.097-.016c.17 0 .339.113.25-.169zm.63-.548c.008.137.08.66.273.66.137 0-.127-.58.09-.595.216-.016.574.072.574.016 0-.073.137-.266.048-.314a9.317 9.317 0 00-.274-.08.997.997 0 01-.71.313h-.001zm-4.037-.539c0 .056.096.096.201.096.105 0 .202-.04.202-.096s-.089-.089-.202-.089c-.113 0-.201.04-.201.089zm1.104-.806c0 .041.04.476.145.38.191-.192.613-.105.307-.412a.336.336 0 00-.236-.11.24.24 0 00-.218.144l.002-.002zm1.756-.015c-.057-.17-.21-.225-.339-.137-.016.032-.137.363-.032.32a.459.459 0 01.105-.017c.185 0 .354.113.266-.17v.004zm1.088-.213c-.024.049-.29.128-.202.185.113.082.92.025 1.048.017.178-.024.146-.306.016-.387-.225-.144-.51 0-.741-.113-.113.016-.089.234-.12.298zm-4.515-.042c0 .08.032.145.072.145.04 0 .073-.064.073-.145 0-.082-.032-.137-.073-.137-.04 0-.072.064-.072.137zm.702-.644a.065.065 0 00.015.05.063.063 0 00.049.022.064.064 0 00.056-.072.066.066 0 00-.013-.048.064.064 0 00-.043-.025.065.065 0 00-.049.022.063.063 0 00-.015.05zm1.709-.153c0 .113.459-.024.524-.056.185-.09-.387-.21-.427-.21a.064.064 0 00-.033-.008c-.088 0-.063.225-.063.274h-.001zm-.596-.21a.071.071 0 00.021.052.07.07 0 00.051.02.072.072 0 00.073-.072.071.071 0 00-.073-.063.064.064 0 00-.04.007v-.022a.073.073 0 00-.1-.067.074.074 0 00-.04.039.073.073 0 00-.006.028.063.063 0 00.022.049.063.063 0 00.05.015.07.07 0 00.041-.008v.023zm-.153-.319c0 .073.032.128.072.128.04 0 .064-.057.064-.128 0-.07-.032-.127-.073-.127-.04 0-.063.056-.063.127zm1.29-.733c0 .033.08.064.177.064.097 0 .185-.032.185-.064 0-.031-.088-.072-.185-.072s-.177.032-.177.072zm.387-.088a.07.07 0 00.072.064.07.07 0 00.072-.064.072.072 0 00-.072-.072.07.07 0 00-.051.02.073.073 0 00-.021.052zm6.956 6.943c.307.032.5.234.829.25.04 0 .395.017.395-.024 0-.185-.355-.097-.516-.154l-.911-.313c-.702.008-.185.209.201.241h.002zm-1.854-.756c0 .072.032.136.064.136s.064-.064.064-.136c0-.073-.033-.137-.064-.137s-.064.056-.064.137zm.366-2.078c.088 0 .266.056.347.024.063-.024.048-.218 0-.225-.18 0-.73.2-.347.2zm-.892-1.66c.153.154.612.033.846.178.17.096.202.443.46.443.257 0-.097-.516-.145-.588-.048-.073-.621-.427-.734-.435.017-.04-.008-.056-.056-.056-.177 0-.613.217-.371.459zm-.605-.33c.726.234.524-.788.064-.788-.395 0-.677.255-1 .467a.447.447 0 01-.016.185c.016-.032.081-.12.266-.178a.108.108 0 01.048-.007c.186 0 .46.265.638.319v.003zm-1.03.773c0 .128-.063.67.128.575.306-.145.685.153.685-.255 0-.21-.016-.468-.282-.468-.307 0-.379-.015-.693-.176-.128.016.16.282.16.33l.002-.006zm.361 2.091c-.016.033.347-.305.21-.427a.112.112 0 00-.073-.031c-.113 0-.08.37-.137.458zm0 .999c0 .104.42-.072.492-.096.347-.08.154-.25.024-.379-.089-.088-.153-.121-.21-.121-.177 0-.209.387-.306.596zm-.602-1.584c-.122.25.063.532-.097.774-.137.209-.08.45-.097.708-.008.178.347-.088.347-.088.127-.064.08-.805.048-.926-.032-.105-.191-.234-.056-.346.12-.098.072-.25-.017-.25-.04 0-.088.032-.127.128h-.001zm1.5-4.381h-.08v-.53l-.089-.09h-.089v-.088a.855.855 0 00-.088-.08h-.089v-.09l-.088-.087h-.09v-.09a.964.964 0 00-.088-.088h-.258v-.088l-.089-.09-.177-.176a.446.446 0 00-.089.088v.79c-.015.177.073.354.17.297v-.088h.266v.088c-.057.009-.201.057-.242.17a.168.168 0 00-.008.063.51.51 0 00-.097.089v.081c.027.031.057.06.089.088 0 .089 0 .089.177.089v-.089h.347c.024.033.064.057.088.089v.048c-.015.008-.024.024-.04.04-.059.09-.11.184-.153.282a.293.293 0 01.089-.04c.043-.085.094-.166.153-.242h.127c.057-.034.116-.064.178-.088h.446a.767.767 0 01.08-.089h.09c.032-.032.063-.056.096-.088h.169v-.081a.733.733 0 01.089.081v.354l-.089.089v.266c.033.024.057.057.089.08a.464.464 0 00.086.089h.17a.87.87 0 00.096.086h.18c.056.033.113.056.177.089h.078c.028.031.058.06.089.088a.963.963 0 00.088.09h.178a.907.907 0 00.092.09c.056.024.112.056.177.088h.255a.472.472 0 00.089.09v.176h-.09v.09h-.828c-.024-.025-.04-.033-.049-.05-.024-.015-.031-.032-.048-.04-.008-.024-.024-.032-.032-.048-.024-.016-.032-.032-.048-.04-.016-.024-.033-.033-.04-.049a.136.136 0 00-.049.049c.016.008.024.024.048.04v.048h.04c.017.008.025.025.05.04.007.017.023.025.031.05.017.007.024.023.048.04.031.014.06.03.09.048v.088l.088.088v.09a.472.472 0 00-.089.088l.089.089h.089c.024.023.056.047.089.08l.09.089a.443.443 0 01.088-.089v-.08h-.088v-.09a.446.446 0 01.088-.088h.178c.024.024.048.056.08.089v.169l.088.089h.355v.088h.267a.426.426 0 01.08-.088.466.466 0 01.089-.089h.178v-.08h.087a.468.468 0 01.09-.09h.088v-.088c.032-.064.056-.12.089-.177v-.354h.355c.058.026.114.056.17.088.03.028.06.057.087.09h.267v-.267c.056 0 .185.008.25.008.088.032.177.056.266.089a.824.824 0 01.088-.089h.089a1.203 1.203 0 01-.089-.177.446.446 0 01-.088-.089h-.266v-.265a.861.861 0 01.088-.081.466.466 0 01.086-.088v-.089l-.088-.089c-.089-.031-.25-.072-.339-.096h-.088a1.196 1.196 0 00-.178.088h-.178v.089h-.266c-.024-.032-.056-.056-.08-.089h-.088a.957.957 0 00-.09-.088h-.177v-.089a.53.53 0 01.048-.088c-.023-.016-.031-.033-.048-.04v-.138a1.07 1.07 0 01.09-.088v-.088h.265a.74.74 0 01.08-.081v-.177a.855.855 0 00-.08-.089h-.088a.952.952 0 00-.09-.088v-.04a.262.262 0 01.049-.05.936.936 0 00-.048-.088v-.089h.443a.424.424 0 01.08-.088h.267c.023.088.056.177.088.266v.088h.09a.963.963 0 01.088.09v.088h.088v.177c.057.024.113.048.178.08.026.061.056.12.088.177.028-.031.058-.06.089-.088v-.17l-.089-.088h-.088v-.354a.484.484 0 01.088-.089.486.486 0 01.089-.089v-.169h.087c.056.025.113.057.177.08.024.025.049.057.081.09v.088c.056.024.113.057.177.089h.266v.088l.089.09c.032.032.057.055.088.088.025-.062.055-.121.09-.178a4.016 4.016 0 01-.09-.266h-.177l-.088-.088v-.435h.088a.49.49 0 01.089-.088v-.09h.088v-.088h-.088l-.089-.088h-.088c-.033-.032-.064-.057-.09-.08-.031-.065-.063-.122-.088-.178v-.088l-.088-.089v-.085h.443v.088c.024.024.057.056.088.089h.09v.088c.023.025.047.057.08.09h.089v.254l.088.09h.089c.024.056.056.112.089.176v.178l.088.088v.089c.057.024.113.048.177.08v.266h-.088a.465.465 0 00-.089.089v.088h.177v.09l.025.023c.019.023.04.044.064.063.024.025.048.057.08.09v.254h-.957a.469.469 0 00-.088.09.468.468 0 00-.09.09v.177h-.267v.346h-.177c-.049.024-.089.048-.137.073a.063.063 0 01-.04.016l.04.04a.341.341 0 00.056.048h.258c.028.032.058.061.089.089v.048a.25.25 0 00-.049.04c.014.032.03.061.049.089l.09.09v.354c-.12.025-.241.056-.354.09a1.021 1.021 0 00-.177.087h-.083v.177a1.243 1.243 0 00-.089.177c-.061.022-.12.049-.177.08h-.089a.45.45 0 00-.088.09v.088a.462.462 0 00-.09.088v.089l.09.088h.354l.089.088h.08c0 .049 0 .073.04.08a.53.53 0 00.138.01v-.09a.446.446 0 01.089-.088h.265v.265c.025.024.057.049.09.081v.089h.088l.088.089v.088c-.048.016-.048.016.09.088h.08c.064.128.064.128.089.089h.088v-.089a.468.468 0 01.089-.088h.089v-.088a.469.469 0 01.088-.09h.177l.09.09v.088h.08a9.873 9.873 0 00-.08.523h-.088a.465.465 0 00-.088.09.462.462 0 00-.089.087v.178a3.967 3.967 0 00-.088.266 1.188 1.188 0 00-.178.09.392.392 0 00-.088.08 1.608 1.608 0 00-.17.089h-.089a1.226 1.226 0 00-.088.176h.178v.178a.449.449 0 00-.09.088.47.47 0 00-.088.09h-.09a.468.468 0 00-.09.088h-.265l-.087-.088h-.177c0-.088 0-.088-.17-.088v.088a.465.465 0 00-.089.088.43.43 0 00-.088.081h-.355c-.06.026-.12.055-.177.087h-.347c-.04-.032-.064-.064-.097-.088-.088-.033-.177-.057-.255-.081v-.087c-.032-.063-.017-.08-.04-.137v-.09a.952.952 0 01.078-.09v-.264h.709l.088.089h.17v-.09h.089a.409.409 0 01.088-.08c.024-.032.089-.04.121-.063.058-.033.117-.063.178-.089a.448.448 0 01.088-.089v-.089h-.088a1.074 1.074 0 00-.089-.091 1.06 1.06 0 00-.089-.086v-.435h.355v.089a.836.836 0 01.092.088h.177v.17c.025-.058.054-.115.085-.17a.469.469 0 01.09-.088v-.089c-.033-.032-.146-.127-.17-.153l-.089-.089h-.265v-.088h-.436a.465.465 0 00-.088.088h-.267c-.032-.032-.016-.063-.04-.088-.032-.088-.024-.192-.048-.282-.033-.032-.146-.04-.177-.064h-.09c-.06.023-.12.05-.177.081a.963.963 0 00-.088.09v.088h-.08a.445.445 0 00-.09.088v.089h-.266l-.085-.09-.09-.088h-.177v-.178h-.435v.443a1.873 1.873 0 00-.178.177l.09.09c.024.023.055.047.088.08h.177v.176h.178c.024.024.048.057.08.089h.267v.177c-.09.025-.178.056-.267.089h-.17v.089c-.032.054-.062.11-.088.169h-.355a2.42 2.42 0 00-.177-.08 1.655 1.655 0 00-.17-.09h-.265a1.204 1.204 0 00-.138-.088c-.016-.024-.032-.033-.04-.049a.139.139 0 00-.048.049c.016.008.024.024.048.04a.975.975 0 00.09.049v.169h.177v.088h.177l.086.088h.524l.089.088v.178a.466.466 0 00-.09.089h-.176a.449.449 0 00-.09.088h-.255c.025.08.049.17.08.256l.09.088h.088l.09.089.088.091c.056.024.113.056.177.089v.088h.178c.024.025.048.057.08.088a.48.48 0 01.089-.088h.088v-.088c.09 0 .09 0 .09-.178h-.267v-.049h-.032v-.176h.169v.04a.267.267 0 00-.04.048.098.098 0 01.04-.04h.217l.09.089h.177c.145.024.29.056.435.088h.446c0 .09 0 .09.178.09v-.09h.177a.484.484 0 01.088-.088h.355c.024.024.048.056.081.088h.177v.09c.057.023.113.055.177.088v.265a.413.413 0 00-.093.082h-.266v.177a.43.43 0 00-.081.089v.089c.024.024.048.056.08.088v.087c-.048.017-.088.033-.136.048a.759.759 0 00-.121.04h-.355a.468.468 0 00-.088.09c-.061.023-.12.05-.178.08a.824.824 0 00-.088.09h-.09a.449.449 0 00-.088.087v.089h.089v.266c-.177.023-.347.056-.533.088v-.088h-.08c-.145-.033-.298-.057-.446-.089v.089h-.178v.088H25.1c-.033-.032-.064-.064-.09-.088h-.176a.958.958 0 01-.09-.089h-.612v-.177h-.088l-.09-.089h-.088l-.086-.088h-.255v-.088h-.177v-.259a.999.999 0 00-.097-.088v-.089h-.258v.089h-.089c-.057-.032-.12-.064-.169-.089h-.097c-.057-.032-.121-.063-.169-.088v-.09c-.04-.031-.064-.063-.097-.088v-.169h-.08a.946.946 0 00-.098-.088c0-.089 0-.089-.169-.089v.088a3.623 3.623 0 00-.266.09h-.177a.733.733 0 00-.091.081v.266a.434.434 0 00-.089.089v.175h-.17v.258h.09v.09a.468.468 0 00-.09.087v.178c.025.056.058.12.09.177v.346h.08v.354a.45.45 0 00.089.09l.089.087v.089l.177.089c.06.026.12.056.177.088h.089c.016.056.024.113.048.177.08-.137.08-.137.04-.177v-.266a.968.968 0 01-.088-.088v-.088l.088-.09v-.088h.08c0 .089 0 .089.179.089v-.089h.097c.053.035.11.064.169.089.03.031.062.061.096.088h.092c.053.035.11.064.169.09h.177v-.356h.446a.469.469 0 00.089.09.446.446 0 00.075.088c.146.032.29.064.447.088.056.035.115.064.177.09v.176h.088v-.089h.128a.21.21 0 00.04.049c.024-.016.057-.032.089-.049h.09v.178h.089l.088.088.09.089v.177l.096.137c.798 0 1.604 0 2.402.008.863 0 1.734.008 2.596.032v.17H12.527l.008-.21c.565-.008 1.129-.008 1.693-.016.685 0 1.37-.008 2.056-.017a.206.206 0 00.164-.104c.032-.097.024-.089.128-.089h.168c.09 0 .082.008.097.049.008.024.016.032.073.032.113.008.096-.024.096-.169 0-.073.033-.089.09-.089h.177c.104 0 .096-.016.136-.056.057-.064.162-.024.243 0 .169.056.161.056.25.225.016.04.032.073.047.105.041.064.041.105.122.105.063 0 .024-.073 0-.153a4.236 4.236 0 01-.064-.226c-.032-.08-.049-.08.016-.137.048-.048.064-.04.127-.04.097 0 .097-.008.145-.056.049-.049.089-.04 0-.089l-.064-.032a.158.158 0 01-.127-.04.132.132 0 01-.041-.09c0-.047 0-.047.049-.047a.235.235 0 00.08-.017c.073-.007.073-.007.073-.056-.008-.064.008-.048.064-.08a.745.745 0 01.113-.057h.088c.09.032.154.008.242.032h.286v.09h.275v-.09h.08l.092-.088v-.256h.088v-.533a.824.824 0 01.09-.088v-.082c-.034-.063-.058-.12-.09-.177l-.088-.088c-.033-.064-.064-.121-.09-.177-.063-.032-.12-.064-.177-.09a.975.975 0 00-.088-.088h-.17c-.032-.032-.096-.064-.12-.088-.323.024-.605.032-.928.056-.032.032-.113.089-.137.12h-.088l-.09.09v.265a1.059 1.059 0 00-.089.089c0 .088-.169.088-.169.17h-.086a.451.451 0 00-.09.088h-.089a.446.446 0 00-.089.088.486.486 0 00-.088.089h-.345a.469.469 0 00-.09.089v.088h-.09a.849.849 0 00-.088.089.465.465 0 00-.089.088h-.355a.424.424 0 00-.08.089v.08h-.266c0-.08 0-.08-.178-.08v.08a3.586 3.586 0 01-.266.089 1.657 1.657 0 01-.169.088 3.96 3.96 0 01-.266.09h-.089a.486.486 0 01-.088-.09h-.266l-.089-.088c-.057-.024-.113-.056-.177-.089v-.08h-.081a1.01 1.01 0 00-.097-.089h-.088a1.762 1.762 0 00-.178-.088v-.177h-.169l-.089-.09-.088-.088v-.177h-.178c-.032-.032-.063-.056-.088-.08v-.178h-.089v-.53h.092c.026-.058.056-.114.089-.17 0-.152.024-.273.024-.418h.088v-.09h.266c.025 0 .105-.04.138-.04h.168a.486.486 0 01.09-.089v-.086c.032-.056.056-.113.088-.177.032-.089.064-.177.089-.266v-.09c.011-.058.026-.114.044-.169-.048.025-.089.057-.136.081h-.178c-.056-.024-.113-.056-.17-.08-.088-.032-.25-.04-.338-.064v-.09c-.032-.064-.064-.122-.089-.178v-.179a1.045 1.045 0 00-.088-.089v-.175c-.033-.032-.064-.056-.089-.08h-.088v-.089l-.09-.088h-.08v-.354c-.032-.064-.063-.122-.088-.178-.033-.032-.064-.056-.089-.08v-.444h.089a.462.462 0 01.089-.088h.08a.449.449 0 01.09-.088 1.736 1.736 0 01-.09-.17h-.08v-.266a.445.445 0 01.08-.088h.09v-.088l-.09-.089c-.032-.032-.056-.064-.08-.089a6.327 6.327 0 01-.09-.354.899.899 0 01.09-.088v-.089h-.09v-.089a.888.888 0 01.09-.091c.024-.024.048-.056.08-.089v-.166h-.08v-.62a.828.828 0 01.08-.088v-.17a.519.519 0 01.064-.064l.024-.023h.093v-.09a.443.443 0 01.089-.088h.612c.059-.017.118-.03.178-.04a1.377 1.377 0 00-.089-.137 1.052 1.052 0 00-.089-.09h-.435v-.434h.088v-.266l-.088-.089v-.255h.088v-.177a.444.444 0 01.09-.09v-.086h.088a.446.446 0 01.08-.09v-.088h.446v-.169a.968.968 0 01.09-.088v-.089c.031-.12.055-.242.088-.354l.088-.089v-.612h.266a4.85 4.85 0 01.089-.346h.04c.017.008.025.024.049.032.03.015.06.03.088.049h.178c.058.026.115.056.17.088v.088l.088.089a.486.486 0 01.088-.089v-.255c.025.024.057.048.089.08h.178c-.064-.088-.121-.177-.178-.255h-.089c-.031-.064-.063-.12-.088-.177L15.08 9.6v-.354a.427.427 0 01-.08-.089v-.088c.024-.056.048-.113.08-.177v-.08h.089a.946.946 0 01.088-.097v-.347a.488.488 0 01.089-.089.484.484 0 01.089-.088v-.088h.435a.89.89 0 01.089-.089h.088v-.089l.09-.088h.088v.088h.35v.083h.08a.96.96 0 00.09.088h.177v-.177h.266v.089a.979.979 0 00.089.088h.255a.826.826 0 01.089.09h.088V7.83a.96.96 0 00-.088-.088h-.255v-.08c-.064-.033-.122-.065-.178-.09v-.087a.451.451 0 01.089-.09 1.12 1.12 0 01.089-.177h.08c.057-.032.116-.062.177-.088h.177v-.09h.178a.875.875 0 01.088-.088v-.081h.09v-.177h.354l.089.088c0 .089 0 .089.177.089v-.089h.089c.055-.032.111-.062.17-.088h.265l.089.088v.089h.266c.024.024.057.048.088.081h.081v-.081h.09a.466.466 0 01.088-.089v-.088h.088a.465.465 0 01.089-.088v-.09h.613v.087h.088v.088c.025.057.056.113.09.177.025.059.055.115.088.17a.465.465 0 01.088-.089h.089c.026.06.056.12.089.177v.266c-.089 0-.089.177-.178.177h-.266v-.177l-.09-.087c-.063-.113-.063-.113-.258-.128.024.045.051.087.081.128v.089l.089.088.088.088v.089h.09v.169c.024.061.053.12.088.177v.09a.445.445 0 00-.089.088.465.465 0 00-.088.088h-.347l-.089-.088v-.089a1.059 1.059 0 01-.089-.089v-.088h-.088v.266l.088.088.089.089.089.088v.089h.088c.113.024.226.056.347.089.026-.061.056-.12.089-.178.056-.034.116-.064.177-.088h.089v.349c.027.034.057.066.088.097v.08l-.088.089h-.266l-.089.088h-.088a.462.462 0 01-.09-.088h-.088v.088a.448.448 0 00.089.088v.532h-.089a.428.428 0 00-.08.088v.266l.08.08v.09a.423.423 0 00-.08.088c.023.088.048.177.08.266l.089.088v.178a.392.392 0 00-.089.08h-.347v.177l.089.089h.089l.088.088v.266a.48.48 0 00-.088.088h-.089v.348h.089v.177h.088v.088c.024.025.049.057.081.09.025-.062.054-.122.089-.178v-.089a.443.443 0 01.088-.088c.09 0 .09 0 .09-.178h-.09v-.088h.09v-.612a.446.446 0 01.088-.089.449.449 0 01.088-.088v-.08h.09v-.09a.465.465 0 01.088-.088v-.091l-.089-.089h-.089l-.088-.089v-.088c.04-.024.04-.024-.089-.088v-.089a.408.408 0 01.089-.08h.177a.466.466 0 01.089-.09v-.442h-.089v-.266l.089-.089v-.088h.17c.023-.113.055-.234.088-.354.032-.025.056-.057.089-.08a.888.888 0 01.088-.09h.089c.024.202.056.411.088.612a.899.899 0 00.09.09v.353l.088.089h.266v.176h-.097c-.048.024-.113.056-.17.089a.467.467 0 00-.088.088.775.775 0 00-.088.08v.09c.056.024.112.056.177.087h.088a.406.406 0 01.08.09.935.935 0 01.098.088h.025a.294.294 0 00-.025-.089.946.946 0 00-.097-.089v-.176a.895.895 0 01.097-.08h.347v.168h.097v-.088h.09v.265a4.612 4.612 0 00-.354.089c-.032 0-.064.073-.097.104v.162a.432.432 0 00-.08.089v.08h.258v-.17l.088-.088c.064-.064.121-.121.186-.177.023.024.048.056.08.088h.089l.088.09h.17c.063.025.125.055.186.088.026.058.056.114.088.169a1.176 1.176 0 00-.088.177h-.09a.947.947 0 00-.096.088 4.823 4.823 0 00-.347-.088h-.08v.18c-.186 0-.186 0-.186.088h-.088c0-.088 0-.088-.178-.088v.088h-.08a.885.885 0 00-.098-.088h-.08l-.089-.089c-.063-.032-.12-.064-.177-.089h-.089c0-.088 0-.088-.177-.088v.088h-.091a.446.446 0 00-.089.089v.266h-.08v.177a.426.426 0 00-.09.08v.178h-.088a.485.485 0 00-.089.09v.088h-.088v.089l.088.088.09.09h.088a.468.468 0 01.088-.09c.055-.032.112-.062.17-.088a.824.824 0 01.089-.089h.088v-.435a.465.465 0 01.089-.088v-.089h.354v.177h.08l.098.17c.016.023.056.056.08.088 0 .088 0 .088.178.088v-.088h.089c.034.027.066.057.096.088h.092c.048.025.113.057.169.09v.088c.01.06.024.119.04.177a1.28 1.28 0 01.137-.088.87.87 0 01.08.088.886.886 0 01.098-.088v-.178h.088v-.088a.465.465 0 01.09-.092v-.79a.428.428 0 01.088-.088.446.446 0 01.088-.088v-.17h.078v-.176c.025-.061.055-.12.089-.178v-.088h.178l.088.088h.092v.09l.088.088h.258l.088.089h.267l.088.088h.347a.466.466 0 01.089-.088v-.443c.026-.058.056-.115.088-.17a.454.454 0 01.09-.088h.265c.255-.089.255-.089.255-.177h-.346l-.09-.09v-.088c.05-.023.05-.023-.087-.088v-.089c.088 0 .088 0 .088-.177h-.177a1.208 1.208 0 01-.178-.089.428.428 0 01-.08-.088v-.177a.938.938 0 01-.089-.08.928.928 0 01-.088-.097V8.45h.435a.906.906 0 00.089.09l.088.088h.178v.346c.032-.113.056-.234.089-.346h.168c.025.024.064.056.09.08.03.034.062.067.096.097.023.058.05.114.08.17v.087h.09a.908.908 0 00.088.089.454.454 0 00.089.089v.088h.266v.178c.024.056.056.112.088.176v.09c.025.055.057.112.09.177v.088h-.09v.17a.465.465 0 00-.088.087.894.894 0 00-.089.089h-.088a.446.446 0 00-.09.089c-.088-.025-.176-.032-.266-.049.09.049.178.089.267.137h.354v.09h.178c.088.023.177.055.266.088h.258v.088c.024.024.056.048.088.08v.178l.09.088.088.089h.088v.089l.09.088v.089a.49.49 0 00-.09.088 3.502 3.502 0 00-.266.081c-.032 0-.032-.057-.063-.057-.049-.007-.105-.007-.162-.016-.185-.008-.387.009-.564-.008v-.088h-.178v-.267h.443v-.089l-.088-.089H26.15v-.088h-.168a.977.977 0 00-.09-.088h-.354a2.366 2.366 0 00-.255.088 1.17 1.17 0 00-.178.088c-.061.025-.12.055-.177.089a.465.465 0 00-.089.089 4.275 4.275 0 00-.346.088v.089a.446.446 0 00-.09.089.484.484 0 00-.088.088.406.406 0 00-.088.079.465.465 0 00-.09.088.449.449 0 00-.088.089h-.089v.177a1.244 1.244 0 00-.089.177.467.467 0 00-.09.089v.17a.423.423 0 00-.081.087c-.089 0-.089 0-.089.178h.255v.088h.36v.266h-.177c0-.088 0-.088-.178-.088v.088a.491.491 0 00-.09.088h.446v.08c.023.057.056.114.088.178v.089h-.177a.436.436 0 00-.089.088 1.187 1.187 0 00-.089.178v.088h.267v-.265h.346v.354c.024.024.057.048.088.08.027.061.056.12.09.177a1.25 1.25 0 00-.09.178h-.434a.825.825 0 00-.09.088h-.266c-.056-.032-.113-.056-.169-.088h-.088l-.089-.089c-.064-.033-.121-.064-.177-.089v-.088c-.033-.032-.064-.056-.097-.088h-.081v-.081l-.091-.09a.513.513 0 01-.064-.063l-.024-.023a.825.825 0 00-.089-.09h-.169a.946.946 0 00-.097.09 4.577 4.577 0 00-.347.258.798.798 0 00-.097-.082l.001-.001zm2.846 1.104a1.215 1.215 0 01-.081-.144c0-.032-.161-.161-.161-.192 0-.03.04-.08.04-.104.032.024.185.225.29.177v.265l-.088-.002zm.105.42a.895.895 0 00-.088-.09v-.088h.088l.089-.09h.266v.178a.449.449 0 00-.089.089h-.088a.906.906 0 00-.09.089.468.468 0 00-.088-.09v.002zm-.178 4.396a.958.958 0 00-.089-.09v-.09c.057-.033.117-.062.179-.086h.088v.266h-.178zm.87-1.587l-.089-.088v-.256h.436c.024.025.056.049.089.08v.087a.443.443 0 00-.089.089h-.081a.463.463 0 00-.09.088h-.176zm-11.606.17a.064.064 0 00.016-.033.042.042 0 00-.016-.032.341.341 0 00-.178-.04c-.112 0-.201.032-.201.072 0 .04.09.073.201.073a.341.341 0 00.178-.04zm4.547-4.658c-.024.306-.048.306-.255.484-.024.176.87.225.773-.21a.847.847 0 00-.19-.274c-.081-.076-.171-.14-.235-.14-.048 0-.08.04-.097.145l.004-.005zm1.052.005c0 .057.033.128.105.25.105.153.266-.089.298-.25 0-.016.008-.04.008-.056 0-.523-.056-.16.138-.16.225 0 .17-.935-.138-.975-.225-.025-.314-.234-.564-.21-.064 0 0 .064.024.064h.049c.016.008-.009.008.024 0 .549.063.217.54.25.862.033.322-.21.298-.191.474l-.003.001zm7.773-1.927c.072-.008.145-.016.097.032-.064.064-.064.105-.097.121h-.016a.332.332 0 01-.121-.032c-.073-.024.04-.105.032-.105a.724.724 0 00.105-.016zm-13.375.08h-.064c-.04.009-.056.25.064.267a.144.144 0 00.12-.04c.202-.128.041-.21-.12-.227zm22.307.331l-.484-.83.072-.04.04.08.017.025.024.024a.18.18 0 00.08.04.19.19 0 00.122-.032l.653-.378-.363-.629-.653.38a.155.155 0 00-.089.087.165.165 0 00-.008.089l.008.032.016.024.049.081-.073.04-.008-.024-.483-.83.072-.04.04.08.016.025.025.024c.023.02.05.034.08.04a.27.27 0 00.121-.032l1.314-.766a.21.21 0 00.097-.088.17.17 0 000-.088l-.008-.033-.016-.024-.04-.08.064-.04.016.023.475.83-.063.04-.049-.08-.016-.025-.024-.024a.197.197 0 00-.081-.04.276.276 0 00-.12.032l-.55.319.364.628.547-.319a.157.157 0 00.09-.088.113.113 0 00.007-.09l-.007-.031-.017-.024-.04-.073.064-.04.016.016.476.83-.064.04-.047-.073-.017-.024-.024-.032a.148.148 0 00-.08-.032.151.151 0 00-.114.024l-1.322.765a.192.192 0 00-.088.09.164.164 0 00-.008.088l.008.032.016.024.048.08-.072.04-.01-.023zm.62 1.513l-.08-.2.072-.033.032.089.017.024.016.024a.118.118 0 00.073.049.156.156 0 00.127-.017l.702-.281-.275-.669-.701.282a.236.236 0 00-.105.072.192.192 0 00-.016.089l.008.032.008.032.033.081-.073.032-.008-.024-.361-.886.073-.032.04.08.008.033.016.024c.022.024.05.04.081.048a.17.17 0 00.12-.016l1.411-.563c.057-.025.09-.049.097-.082a.123.123 0 00.024-.088l-.007-.032-.009-.024-.03-.08.072-.033.008.024.355.886-.064.032-.04-.089-.012-.023-.025-.024a.22.22 0 00-.063-.057.249.249 0 00-.128.016l-.589.242.275.668.588-.233a.198.198 0 00.096-.08.11.11 0 00.017-.09v-.024l-.017-.032-.031-.08.072-.033.016.025.355.885-.073.033-.032-.081-.016-.032-.025-.024a.081.081 0 00-.063-.049.191.191 0 00-.128.017l-.483.191-.93.37a.2.2 0 00-.096.08.098.098 0 00-.016.08v.033l.008.032.04.08-.08.033-.011-.02-.272-.687zM3.2 13.353a1.104 1.104 0 01-.564-.561c-.12-.25-.113-.51.024-.79l.008-.023a.656.656 0 01.113-.186 1.39 1.39 0 01.105-.112l.016-.016.016-.016a.45.45 0 00.064-.057.085.085 0 00.032-.04.118.118 0 000-.072.25.25 0 00-.08-.073l.008-.024.04-.073.629.29-.016.024-.033.073a.706.706 0 00-.427.008.501.501 0 00-.299.255.555.555 0 00.018.45c.063.16.255.318.564.466.266.12.483.16.669.128a.526.526 0 00.403-.306.476.476 0 00.034-.344 1.034 1.034 0 00-.177-.37l.008-.025.08-.056c.072.083.132.175.178.274.03.078.052.159.064.242a.593.593 0 01-.008.24 1.06 1.06 0 01-.064.192l-.008.024a.963.963 0 01-.597.54 1.12 1.12 0 01-.314.049 1.184 1.184 0 01-.484-.113l-.002.002zm-.36 6.442l.007-.089.009-.032-.009-.032a.192.192 0 00-.044-.08.214.214 0 00-.121-.04l-1.516-.128a.175.175 0 00-.12.016.15.15 0 00-.057.072l-.016.032v.024l-.009.097-.074-.01v-.023l.088-1.015c.009-.032.016-.08.025-.137a.481.481 0 01.052-.16.604.604 0 01.17-.243c.08-.072.193-.096.339-.087l.027.007h.013a.562.562 0 01.347.218c.104.12.137.314.113.587v.024c0 .033-.009.064-.009.097a.392.392 0 00-.018.105l.685.056a.212.212 0 00.128-.016.19.19 0 00.048-.073l.016-.031v-.025l.008-.127h.085v.032l-.089.99-.079-.01zm-1.615-1.288a.29.29 0 00-.113.155c-.008.023-.008.048-.016.072a.218.218 0 01-.008.073l-.007.102.821.072a.157.157 0 00.016-.064.222.222 0 00.016-.072v-.049a.325.325 0 00-.088-.217c-.057-.072-.17-.112-.33-.12a.24.24 0 00-.081-.009.297.297 0 00-.21.057zm37.16 1.16l-.083-.951.08-.008.009.088v.033l.016.032a.127.127 0 00.048.064.167.167 0 00.128.024l1.225-.105-1.288-.62a.18.18 0 00-.105.04.147.147 0 00-.049.057.154.154 0 00-.008.057c-.008.016-.008.024 0 .032v.088l-.072.009-.008-.024-.08-.957.08-.013.008.097c0 .011.003.022.008.032.004.017.01.033.016.049.015.02.035.036.056.048a.164.164 0 00.113.016l1.516-.127a.216.216 0 00.121-.04.204.204 0 00.04-.081v-.064l-.008-.088.081-.009v.024l.089.957-.084.01-.007-.096v-.026l-.017-.032a.148.148 0 00-.056-.073.177.177 0 00-.121-.015l-1.215.106 1.289.611a.138.138 0 00.104-.04.184.184 0 00.049-.072v-.064l-.007-.089.08-.008v.024l.093.95-.08.008-.01-.088-.007-.032-.008-.033c-.008-.024-.033-.04-.057-.064a.227.227 0 00-.121-.024l-1.515.137a.134.134 0 00-.113.04.187.187 0 00-.048.073v.064l.007.096h-.08l-.009-.024zm2.387-.767h-.05a.52.52 0 01-.063-.031.319.319 0 01-.12-.128.676.676 0 01-.073-.306v-.025c-.016-.17 0-.29.048-.379a.222.222 0 01.174-.135.156.156 0 01.137.04.165.165 0 01.056.113v.024a.185.185 0 01-.023.113.212.212 0 01-.074.056h-.087l-.009-.008h-.048l-.008.008c-.024.008-.032.032-.048.064a.403.403 0 00-.016.104.27.27 0 00.032.097c.016.025.024.04.04.049l.024.016h.049l.007-.008h.017l.032-.016h.056a.19.19 0 01.073.048.27.27 0 01.04.096v.04a.165.165 0 01-.04.114.147.147 0 01-.121.056l-.005-.002zM2.036 17.725a1.12 1.12 0 01-.691-.418c-.161-.218-.21-.476-.153-.774v-.023c.063-.315.21-.54.451-.669.239-.138.52-.18.79-.121.27.048.514.191.688.403.16.217.217.475.16.79l-.007.023c-.057.314-.21.532-.444.669a1.07 1.07 0 01-.538.144 1.34 1.34 0 01-.256-.024zm-.457-1.481a.377.377 0 00-.255.298.383.383 0 00.127.378c.115.092.246.163.386.21.048.025.1.041.153.049a1.4 1.4 0 00.153.033l.145.023c.054.01.108.015.162.017a1.12 1.12 0 00.435-.049.383.383 0 00.266-.306.374.374 0 00-.128-.37 1.14 1.14 0 00-.54-.258c-.056-.016-.105-.024-.153-.04l-.146-.024c-.056-.008-.112-.008-.169-.016h-.074a1.14 1.14 0 00-.362.056v-.001zm36.593 1.07l-.234-.925.072-.025.025.089.007.032.017.032c.02.021.04.04.064.056a.172.172 0 00.127 0l1.476-.361a.25.25 0 00.112-.064.182.182 0 00.025-.089v-.056l-.025-.089.073-.016.008.024.234.927-.073.023-.024-.088-.008-.032-.016-.025a.248.248 0 00-.064-.064.236.236 0 00-.128 0l-1.475.371a.185.185 0 00-.112.056.629.629 0 00-.033.08v.042l.008.023.025.089-.073.024-.008-.033zm-9.497-.346h-.089a1.657 1.657 0 00-.169-.088l-.089-.089-.088-.089v-.088h-.089c-.032-.063-.064-.12-.09-.177v-.08c.026-.062.055-.121.09-.178h.524v.089h.266v-.089a.894.894 0 01.089-.088h.089c0 .088 0 .088.177.088v-.088h.088c.057.024.113.056.178.088l.088.089v.089a.409.409 0 00-.088.08h-.089a.443.443 0 00-.088.089h-.09a.883.883 0 00-.088.088v.088a.894.894 0 00-.088.09.952.952 0 00-.09.088 3.3 3.3 0 00-.266.088h-.088zm9.425-.74a.79.79 0 01-.235-.256 1.348 1.348 0 01-.08-.201c-.016-.064-.032-.12-.04-.16l-.008-.025-.218-.861.08-.019.025.089.008.024.016.032c.008.024.032.04.064.057a.155.155 0 00.121 0l1.483-.363c.049-.016.089-.032.105-.064a.169.169 0 00.032-.08v-.033l-.008-.031-.024-.09.08-.015.009.024.225.926-.072.024-.024-.088-.008-.033-.016-.024a.128.128 0 00-.064-.063.15.15 0 00-.12 0l-.613.152.008.017.016.023c.008.033.008.057.016.089a.75.75 0 01.024.097l.008.024a.954.954 0 01.024.467.808.808 0 01-.147.264.534.534 0 01-.16.106.69.69 0 01-.274.064.37.37 0 01-.233-.071v-.002zm-.081-.884c-.008.008-.025.008-.04.017-.017.008-.017.007-.032.016-.033.007-.049.031-.073.056a.17.17 0 00-.009.113.125.125 0 00.017.048c.008.016.008.032.024.048.038.06.093.107.16.135.097.04.206.042.305.007.162-.032.267-.104.307-.2a.45.45 0 00.016-.355.109.109 0 00-.016-.048l-.66.163zm-8.538.4h-.343c-.033-.032-.064-.056-.089-.08v-.08h-.177a.866.866 0 01-.089-.081h-.177a.788.788 0 01-.081-.08 4.238 4.238 0 01-.089-.162l-.088-.089v-.644h.177c.058.02.114.048.166.081.056.024.113.049.178.08v.08a.794.794 0 00.088.081c.024.024.056.049.089.081v.161h-.089c.024.056.056.105.089.17h.177c.024.023.057.048.089.08h.17c.024.024.056.048.088.08h.089v.08a1.552 1.552 0 00-.089.161v.08l-.089.001zm-15.31 23.16l.025-.08.032.008.048.016.033.008h.035a.153.153 0 00.08-.024.156.156 0 00.064-.105l.42-1.467a.212.212 0 00.007-.12.172.172 0 00-.056-.074l-.033-.016-.024-.008-.088-.024.015-.08.025.008.927.265-.024.08-.089-.024-.024-.007-.032-.008a.19.19 0 00-.089.032.21.21 0 00-.064.105l-.212.733.701.191.21-.725a.177.177 0 000-.127.23.23 0 00-.056-.064l-.032-.016-.025-.008-.088-.024.023-.08.025.007.92.266-.025.08-.081-.032-.032-.007h-.032a.113.113 0 00-.08.032.154.154 0 00-.073.104l-.42 1.468a.208.208 0 000 .12.184.184 0 00.057.074l.032.007.024.016.09.024-.026.073-.023-.008-.92-.266.024-.072.089.024.024.008h.033a.18.18 0 00.088-.025.251.251 0 00.064-.104l.17-.612-.694-.201-.177.612a.155.155 0 000 .12.176.176 0 00.056.073l.032.016.024.008.09.024-.025.073h-.024l-.862-.25-.057-.016zm-.51-.145l-.862-.403.031-.072.081.032.025.017.031.008a.175.175 0 00.09-.016.199.199 0 00.08-.097l.516-1.111-1.175.813a.145.145 0 00-.015.113c.006.028.02.053.04.073l.032.024.024.016.08.04-.032.073-.024-.017-.87-.402.032-.073.08.041.033.008.032.008c.03.002.06-.004.088-.016a.2.2 0 00.082-.097l.637-1.377a.18.18 0 00.024-.121.154.154 0 00-.04-.072l-.032-.024-.024-.016-.08-.04.032-.073.024.016.87.402-.04.073-.08-.04-.025-.008-.032-.008a.191.191 0 00-.089.016c-.032.008-.056.04-.08.096l-.524 1.112 1.185-.806.008-.015a.141.141 0 00.008-.114.15.15 0 00-.056-.08l-.017-.016-.016-.008-.089-.04.041-.073.016.008.549.256.322.153-.032.072-.081-.04-.032-.008-.024-.008a.155.155 0 00-.09.008.16.16 0 00-.063.064c-.008.016-.017.024-.017.032l-.644 1.385a.18.18 0 00-.024.12c.006.03.023.056.048.073l.024.024.024.008.09.04-.041.073-.029-.006zm13.94-1.65l.41 1.2a.157.157 0 00.073.096.095.095 0 00.088.024h.033l.024-.008.089-.032.024.08-.024.009-.718.24-.185.065-.033-.072.09-.033.024-.008.032-.016a.18.18 0 00.056-.072.173.173 0 00-.016-.121l-.202-.604-.685.241.202.596c.024.048.04.089.072.105a.18.18 0 00.09.024l.031-.008.024-.008.089-.032.024.08-.024.008-.903.306-.033-.072.09-.032.023-.008.033-.017a.177.177 0 00.057-.072.218.218 0 00-.009-.12l-.498-1.44a.152.152 0 00-.072-.097.08.08 0 00-.08-.024h-.033l-.032.007-.081.033-.032-.08.024-.009.912-.314.023.08-.089.025-.024.016-.024.016a.103.103 0 00-.056.072.16.16 0 00.007.121l.25.717.687-.232-.25-.717a.152.152 0 00-.073-.104.162.162 0 00-.089-.024l-.024.008-.032.008-.088.032-.025-.08.024-.009.83-.282.08-.032.024.08-.088.025-.016.008-.009.008-.032.016a.185.185 0 00-.048.064.152.152 0 00.007.127l.08.242zm1.184.91c-.105-.025-.185-.105-.25-.234l-.008-.016-.016-.024a.574.574 0 01-.008-.403c.049-.153.192-.29.436-.419l.023-.015c.025-.009.057-.025.09-.033a.81.81 0 01.088-.048l-.321-.612a.187.187 0 00-.089-.088.112.112 0 00-.088-.009l-.025.009-.032.016-.113.056-.04-.072.032-.009.87-.466.04.064-.08.048-.024.016-.024.017a.148.148 0 00-.04.08.18.18 0 00.024.12l.718 1.346a.158.158 0 00.088.088.115.115 0 00.089.008l.032-.008.025-.008.08-.048.032.072-.016.016-.903.476c-.032.016-.073.032-.12.056-.048.024-.106.032-.17.048-.032 0-.073.009-.113.009a.53.53 0 01-.186-.033h-.001zm.357-1.046l-.073.023-.016.017-.024.008a.36.36 0 00-.128.19c-.032.09 0 .203.073.347.064.12.127.192.201.217a.322.322 0 00.192.009.17.17 0 00.063-.032.662.662 0 00.064-.025l.097-.056-.387-.724c-.024.007-.04.015-.064.024l.002.002zm-17.793.674l-.806-.46c-.17-.104-.282-.2-.338-.297a.567.567 0 01-.098-.266.395.395 0 01.025-.145c.016-.048.032-.072.04-.096a.415.415 0 01.255-.202.487.487 0 01.282.008.117.117 0 01.048.016c.015 0 .03.006.04.016l.017-.032a.208.208 0 01-.048-.04.111.111 0 01-.057-.049.644.644 0 01-.162-.265.495.495 0 01.057-.346c.089-.145.186-.226.306-.242a.835.835 0 01.347.032c.058.018.115.04.17.064a.99.99 0 00.127.072l.025.016.806.468-.04.064-.082-.049-.024-.008-.032-.008a.16.16 0 00-.088 0 .185.185 0 00-.089.089l-.758 1.32a.153.153 0 00-.032.121c.002.03.013.058.032.08l.033.025.015.008.081.048-.04.073-.012-.015zm-.524-1.24a.492.492 0 00-.191.169l-.016.016-.009.016a.387.387 0 00-.056.298.406.406 0 00.127.192c.016.016.032.024.049.04.012.01.025.018.04.024l.016.017h.024l.395-.685-.089-.057a.447.447 0 00-.185-.056.219.219 0 00-.105.024v.002zm.446-.863a.499.499 0 00-.242.225c-.008.016-.016.04-.032.072a.481.481 0 00-.032.097.366.366 0 00.032.201c.046.089.12.16.21.202l.064.04.322-.563c.01-.01.018-.02.024-.033 0-.016.008-.024.016-.04a.175.175 0 000-.089.153.153 0 00-.072-.088.365.365 0 00-.17-.048.284.284 0 00-.12.024zm18.372.201h-.007v-.008a.516.516 0 00-.097-.04.137.137 0 00-.105.024v.008l-.048-.073.024-.007.765-.5.04.072-.072.041a.276.276 0 00-.113.116c0 .029.008.057.025.08.004.01.01.017.016.024l.024.025h.008v.008l.323.217.491-.322-.072-.314v-.024l-.008-.024-.008-.017-.009-.023-.015-.025a.087.087 0 00-.097-.048.36.36 0 00-.128.048l-.016.008-.016.017h-.007l-.04-.064.024-.017.499-.319.04.064-.016.008a.214.214 0 00-.088.185c0 .016.008.04.008.063s.009.049.016.081l.396 1.844-.017.017-.056.032-1.664-1.157zm.887.073l.565.386-.145-.652-.42.266zm-21.147.671l-1.258-1.015.363-.45.024.015.057.057a.732.732 0 01-.041.063c-.008.025-.024.049-.033.073a.522.522 0 00-.007.25c.016.088.08.177.191.274l.234.191.52-.633-.015-.007a.213.213 0 00-.057-.04.337.337 0 00-.072-.041.347.347 0 00-.178.008c-.072.016-.153.08-.255.191l-.016-.015-.064-.049.645-.797.025.016.056.049c-.08.12-.128.209-.128.29a.303.303 0 00.024.176.364.364 0 00.057.064c.014.016.03.03.048.04l.017.017.419-.524c.056-.064.063-.113.04-.153a.539.539 0 00-.097-.104l-.008-.009h-.008v-.005h-.008l-.008-.008-.008-.008c-.025-.016-.056-.04-.089-.064a.477.477 0 00-.113-.056.534.534 0 00-.282-.048.63.63 0 00-.338.153l-.025-.016-.063-.049.483-.435.024.016 1.25 1.015-.048.064-.073-.057a.281.281 0 00-.073-.04.29.29 0 00-.08.009.187.187 0 00-.089.063l-.968 1.184a.225.225 0 00-.048.097.22.22 0 00.016.08.17.17 0 00.032.049l.017.016.072.056-.048.064-.016-.017zm22.51-.725l.024-.016.056-.048c.127.121.234.185.314.185a.34.34 0 00.226-.056.142.142 0 00.057-.04.21.21 0 00.04-.032l.008-.009.049-.032-1.049-1.28a.191.191 0 00-.097-.073.156.156 0 00-.088.008l-.032.016-.017.016-.088.064-.049-.056.017-.016.781-.629.049.057-.087.073-.024.024-.016.024a.134.134 0 00-.024.08c-.009.033.016.073.048.114l1.037 1.28.04-.032c.016-.016.032-.024.047-.04a.099.099 0 00.041-.04.389.389 0 00.113-.21c.016-.08-.024-.201-.113-.354l.016-.017.064-.048.363.451-.024.016-1.322 1.071-.36-.45zm-24.13-.556l-.726-.708a.578.578 0 01-.097-.097 1.147 1.147 0 01-.096-.145.596.596 0 01-.073-.29c-.01-.105.038-.209.145-.313l.016-.015.016-.009a.546.546 0 01.381-.138c.162 0 .339.09.533.282l.024.016c.019.026.04.05.064.073a.54.54 0 00.072.08l.475-.499a.233.233 0 00.064-.113.161.161 0 00-.024-.088l-.017-.024-.016-.024-.096-.09.056-.055.016.016.718.692-.057.057-.063-.057-.016-.024-.033-.016a.148.148 0 00-.088-.016c-.033 0-.064.024-.105.063l-1.06 1.096a.168.168 0 00-.064.113.14.14 0 00.024.08l.017.033.016.016.063.064-.056.056-.013-.015zm-.492-1.207c-.097.096-.145.185-.145.255a.334.334 0 00.048.185c.015.02.03.04.049.057l.048.048.08.08.574-.588c-.016-.024-.024-.04-.04-.063a.366.366 0 00-.057-.057l-.015-.016-.016-.008a.324.324 0 00-.218-.073c-.097 0-.192.064-.307.178V34zm26.63.843l.064-.072.016-.017.016-.031a.155.155 0 00.016-.09.317.317 0 00-.063-.104l-1.122-1.038a.267.267 0 00-.104-.057.165.165 0 00-.089.024l-.024.017-.024.023-.064.064-.057-.056.017-.016.653-.702.064.048-.064.073-.017.016-.016.032a.11.11 0 00-.016.089c0 .032.025.064.064.105l.903.837-.403-1.37-.016-.016a.136.136 0 00-.105-.04.145.145 0 00-.089.024l-.024.016-.016.016-.056.064-.064-.048.017-.024.66-.702.057.056-.063.064-.017.024-.016.025a.16.16 0 00-.016.088.187.187 0 00.064.105l1.113 1.039a.162.162 0 00.112.056.113.113 0 00.089-.016l.024-.016.025-.024.063-.064.056.057-.024.016-.653.701-.056-.056.064-.064.016-.024.016-.024a.112.112 0 00.016-.089.187.187 0 00-.064-.104l-.892-.838.403 1.37a.137.137 0 00.105.055.233.233 0 00.08-.016l.033-.024.024-.016.064-.072.057.056-.025.016-.653.702-.059-.048zm-27.606-1.44a.9.9 0 01-.71-.353l-.023-.025a.9.9 0 01-.17-.322l-.008-.016-.008-.024a.997.997 0 00-.024-.081.256.256 0 00-.024-.048.157.157 0 00-.064-.032.286.286 0 00-.105.04l-.016-.016-.049-.064.533-.443.016.016.048.064a.645.645 0 00-.169.387.478.478 0 00.105.378.544.544 0 00.41.177c.178.016.404-.096.67-.314.217-.185.354-.37.403-.548a.556.556 0 00-.113-.498.517.517 0 00-.306-.178 1.186 1.186 0 00-.411.008l-.016-.016-.019-.104c.106-.025.214-.038.323-.041.084.008.168.021.25.04.076.03.15.068.217.113.053.044.101.093.146.146l.016.016a.923.923 0 01.234.765 1.11 1.11 0 01-.396.702c-.207.176-.47.273-.741.274v-.002zm29.352-.424l.057-.072.016-.025.008-.032a.113.113 0 00.008-.089.192.192 0 00-.072-.096l-1.202-.942a.195.195 0 00-.113-.049.19.19 0 00-.08.033l-.032.016-.016.024-.057.072-.064-.048.016-.016.589-.757.063.048-.056.072-.016.025-.016.024a.32.32 0 00-.008.088.21.21 0 00.08.105l.597.467.447-.574-.6-.466a.152.152 0 00-.113-.049.165.165 0 00-.089.024l-.023.025-.017.015-.056.073-.064-.048.017-.016.588-.758.064.049-.057.072-.016.024-.016.033a.159.159 0 000 .088c0 .032.025.064.073.097l1.2.934a.15.15 0 00.114.048.158.158 0 00.088-.024l.024-.024.017-.016.056-.073.064.049-.016.016-.589.757-.063-.048.056-.073.016-.024.016-.032a.155.155 0 000-.088c0-.033-.032-.064-.072-.097l-.501-.387-.443.574.5.387c.031.028.07.045.113.048a.121.121 0 00.08-.024l.032-.024.017-.024.056-.072.064.056-.017.016-.593.754-.059-.046zM4.74 32.028l-.51-.814.072-.04.048.072.017.025.016.024a.153.153 0 00.088.04.178.178 0 00.117-.04l1.04-.645-1.427.033c-.04.032-.073.056-.08.089a.16.16 0 000 .088l.007.032.017.024.048.08-.072.041-.009-.024-.515-.814.072-.04.048.08.017.025.024.025a.251.251 0 00.08.031.166.166 0 00.121-.04l1.29-.805a.14.14 0 00.08-.088.118.118 0 00.01-.09l-.017-.032-.008-.023-.049-.081.064-.04.016.024.51.813-.064.04-.056-.08-.016-.024-.016-.016a.141.141 0 00-.202 0l-1.051.651 1.435-.04.008-.008a.15.15 0 00.073-.088.191.191 0 000-.097l-.009-.025-.016-.015-.048-.082.073-.04.016.024.51.814-.073.04-.049-.08-.015-.024-.025-.016a.127.127 0 00-.08-.04.19.19 0 00-.121.031l-1.292.814a.187.187 0 00-.089.09.16.16 0 000 .088l.008.032.016.024.049.073-.064.048-.017-.024zm7.288-.597v-.112h.137c.153 0 .258-.04.323-.127.064-.088.088-.234.088-.436V27.84c0-.201-.032-.347-.088-.435-.056-.088-.162-.137-.323-.137h-.137v-.113h1.943c.089 0 .17.009.258.009.105.015.21.024.315.048.223.041.432.141.604.29a1.086 1.086 0 01.27 1.248c-.062.14-.15.266-.262.37-.185.192-.5.307-.927.347a4.942 4.942 0 01-.363.016h-.403v1.272c0 .202.024.347.089.435.065.089.16.128.314.128h.105v.112l-1.943.001zm2.201-3.955a1.015 1.015 0 00-.476-.105h-.29v1.876h.29a.872.872 0 00.476-.112 1.52 1.52 0 00.128-.113c.127-.153.191-.379.191-.684 0-.306-.048-.532-.16-.71a.493.493 0 00-.162-.152h.003zM27.6 31.043a.19.19 0 00.112.04c.073 0 .145-.048.226-.137.094-.124.173-.259.234-.402l-.574-.934-1.242-2.037c-.089-.162-.161-.256-.218-.298a.46.46 0 00-.266-.064v-.113h2.008v.113h-.121a.892.892 0 00-.161.016c-.128.016-.192.073-.192.161a.44.44 0 00.09.234l.104.177 1.075 1.773.878-1.74a.76.76 0 00.106-.33c0-.191-.17-.29-.5-.29h-.105V27.1h1.379v.111a.634.634 0 00-.331.153c-.073.064-.162.21-.266.42l-1.386 2.761a3.187 3.187 0 01-.396.612.697.697 0 01-.451.255.528.528 0 01-.162.016.798.798 0 01-.5-.145.463.463 0 01-.19-.41.49.49 0 01.104-.314.358.358 0 01.298-.127.304.304 0 01.242.088c.064.08.1.179.105.282.016.12.048.201.105.241H27.6zm8.106-1.037h-.016a.38.38 0 00-.097.008.136.136 0 00-.08.073l-.073-.032.016-.025.435-.797.073.04-.04.073a.247.247 0 00-.05.153.222.222 0 00.057.064c.016 0 .025.008.033.008l.024.008h.016l.379.048.29-.515-.21-.25-.007-.008-.009-.008-.016-.016-.015-.016-.025-.016-.016-.016c-.048-.025-.08-.025-.113.007a.381.381 0 00-.089.105l-.008.017-.008.015-.008.009-.073-.04.017-.025.29-.515.073.032-.009.016a.159.159 0 00.009.201.21.21 0 00.031.057c.019.02.035.041.049.064l1.217 1.441-.007.024-.033.056-2.007-.24zm.822-.346l.67.072-.436-.507-.234.435zm-33.096.25l-.773-1.514.51-.266.016.032.032.064c-.145.097-.225.191-.242.274a.33.33 0 00.008.233c.009.016.016.04.025.056.01.019.017.038.024.057h.008l.024.049 1.466-.75a.2.2 0 00.097-.08.177.177 0 00.009-.089l-.009-.031-.016-.025-.048-.097.073-.04.016.024.451.886-.073.04-.048-.096-.016-.033-.024-.024a.157.157 0 00-.073-.04.182.182 0 00-.12.024l-1.477.753.024.048.008.009.024.048a.162.162 0 00.032.048.372.372 0 00.178.153c.08.032.201.024.37-.04l.009.024.04.072-.516.256-.009-.025zm34.888-.837l.033-.09.007-.032.009-.032a.158.158 0 00-.025-.08.156.156 0 00-.096-.073l-1.427-.547a.16.16 0 00-.121-.008c-.024.008-.057.024-.064.048l-.024.024-.016.024-.033.089-.072-.025.008-.024.347-.901.072.031-.032.08-.008.033-.008.032a.21.21 0 00.024.089.25.25 0 00.097.073l1.393.531-1.139-1.104-.226-.217.008-.024.024-.072 1.936-.025-1.436-.548a.175.175 0 00-.121-.016.281.281 0 00-.072.049l-.024.032-.009.024-.032.089-.072-.032.008-.025.233-.604.073.024-.032.09-.008.023-.008.032a.142.142 0 00.12.161l1.42.548c.04.018.085.02.127.008a.12.12 0 00.073-.048l.016-.024.016-.032.032-.081.073.024-.008.024-.233.62-.048.113-1.475.024 1.063 1.047-.007.024-.266.685-.07-.031zM2.498 28.04l-.323-.83-.255-.676.54-.21.009.024.024.081a.422.422 0 00-.127.08.498.498 0 00-.137.21c-.032.089-.017.201.032.33l.064.161.048.128.33-.128.428-.161-.008-.016v-.008c-.008-.016-.016-.04-.024-.056l-.049-.072a.334.334 0 00-.16-.081.603.603 0 00-.315.04l-.008-.024-.024-.073.95-.37.009.024.032.073c-.127.063-.218.12-.258.185a.25.25 0 00-.064.169c0 .024.009.056.009.08a.444.444 0 00.024.064l.008.017.628-.242c.073-.025.113-.064.106-.113a.366.366 0 00-.037-.144v-.008h-.01v-.024l-.007-.008c-.016-.032-.033-.064-.049-.105a.68.68 0 00-.063-.104.594.594 0 00-.597-.218l-.008-.023-.024-.073.629-.137.008.024.53 1.384.049.121-.073.032-.033-.089a.096.096 0 00-.016-.024.081.081 0 00-.031-.04v-.008a.154.154 0 00-.073-.032.176.176 0 00-.105.015l-.072.025-1.355.523a.187.187 0 00-.088.057.128.128 0 00-.025.072.128.128 0 000 .057c0 .016.008.024.008.031l.033.08-.073.034-.008-.024zm22.912-.83a1.072 1.072 0 00-.097-.266 1.17 1.17 0 00-.386-.41 2.93 2.93 0 00-.533-.255 1.465 1.465 0 00-.33-.073c-.178-.032-.363-.064-.557-.191l.057-.08c.177.12.347.144.524.176.118.014.234.04.346.081.192.069.376.158.549.266a1.262 1.262 0 01.532.757c.012.07.012.14 0 .21-.025.16-.137.289-.347.394a1.032 1.032 0 01-.468.096 1.093 1.093 0 01-.16-.008 1.805 1.805 0 01-.823-.322 2.612 2.612 0 01-.446-.375 7.845 7.845 0 01-.919-1.144c-.5-.74-1.016-1.368-1.887-1.674-.685-.234-1.733-.306-2.346.161a2.188 2.188 0 00-.419.394c-.156.172-.28.372-.363.589a1.66 1.66 0 00-.12.701 1.852 1.852 0 00.29.973c.078.136.176.26.29.37a.733.733 0 00.145.127c.008-.015.016-.04.024-.056.06-.16.143-.31.25-.443.04-.056.08-.112.128-.169.186-.212.394-.404.62-.574.371-.29.88-.483 1.411-.54-.467-.684-1.25-.813-1.886-.756l-.008-.097c.854-.064 1.594.217 2.007.845a3.02 3.02 0 011.37.242c.166.072.32.167.46.282.064-.016.128-.04.186-.049a.825.825 0 00-.137.09c.245.217.465.462.657.728.3.442.557.912.765 1.404.153.378.419.717.717 1.02.192.192.492.299.765.33a1.1 1.1 0 00.581-.08c.17-.088.266-.191.29-.319.024-.127-.024-.29-.113-.458a1.11 1.11 0 00-.386-.411 3.202 3.202 0 00-.525-.255 1.743 1.743 0 00-.33-.073c-.186-.032-.371-.063-.564-.201l.056-.072c.16.094.339.154.524.177.119.012.235.039.347.08.191.069.375.158.548.266.174.11.319.262.42.443.096.191.144.37.112.523-.032.154-.127.29-.338.395a1.189 1.189 0 01-.469.096 1.256 1.256 0 01-.168-.008 2.03 2.03 0 01-.823-.322c-.516-.346-1.064-1.079-1.363-1.514a5.675 5.675 0 00-.82-1.02 2.656 2.656 0 00-.362-.299c-.073.097-.145.192-.21.298-.233.355-.386.757-.532 1.168a.502.502 0 01.178.21c.074.12.11.26.104.402-.005.157-.043.31-.112.451-.076.16-.19.297-.331.403-.16.128-.343.224-.54.282a.916.916 0 01-.161.047c-.138.195-.3.372-.484.524a1.1 1.1 0 01.25.741 1.391 1.391 0 01-.382.886 1.57 1.57 0 01-.88.467c-.284.044-.574.03-.854-.04-.225-.073-.41-.192-.491-.379-.153-.346-.128-.644 0-.902.024-.04.04-.072.063-.105a2.303 2.303 0 01-.749-.152 1.565 1.565 0 00-.185.628 1.463 1.463 0 00.725 1.328c.333.18.71.266 1.088.249 1-.008 1.96-1.248 2.346-2.005.452-.942 1.314-2.594 2.5-2.859-1.073.604-1.25 1.812-1.701 2.818-.63 1.458-1.444 2.094-3.129 2.143h-.088c-.387 0-.742-.073-1.064-.266-.355-.201-.621-.532-.734-1.015a1.331 1.331 0 01-.04-.395c.013-.234.078-.462.191-.668a1.536 1.536 0 01-.91-1.488 1.73 1.73 0 01.51-1.103 2.282 2.282 0 011.088-.62c.156-.036.316-.052.476-.048a.1.1 0 00.048.008c.008-.04.024-.073.032-.113a1.79 1.79 0 01-.185-.153 2.057 2.057 0 01-.435-.66 1.914 1.914 0 01-.049-1.499 2.17 2.17 0 01.387-.611c.187-.212.395-.405.62-.575.702-.555 1.871-.749 2.895-.305.887.383 1.564 1.602 1.919 2.448.12.277.284.533.485.758.073.09.154.177.242.266.186.201.492.298.758.33.197.027.398 0 .58-.08.178-.089.267-.192.291-.322a.404.404 0 00-.008-.192v-.002zm-4.128.002c.133-.149.279-.287.436-.41a3.28 3.28 0 00-.533-.25 3.622 3.622 0 00-.476-.12c.058.261.03.534-.08.778-.008.025-.024.048-.032.073a1.18 1.18 0 01-.339.41c-.16.123-.34.216-.532.274-.226.077-.462.12-.701.128-.237 0-.473-.033-.702-.097a1.293 1.293 0 01-.322-.137l-.024.064c.351.052.68.206.943.443.083.078.159.163.226.255.395-.191.814-.387 1.185-.427.08-.01.16-.013.241-.008.207-.346.444-.674.71-.978v.002zm-.757-.002c.12-.247.149-.53.08-.797a3.123 3.123 0 00-.548-.048c-.444 0-.893.096-1.218.346a2.206 2.206 0 00-.419.395.502.502 0 00-.08.104 1.797 1.797 0 00-.283.476c-.008.023-.024.056-.032.08.101.061.21.11.323.145a2.8 2.8 0 00.677.089c.227-.01.452-.05.669-.12.185-.057.358-.147.51-.267.13-.098.234-.225.306-.37.008-.008.008-.025.016-.033h-.001zm-5.442-13.963c0 .048.127.089.298.089.171 0 .298-.041.298-.089 0-.048-.137-.08-.298-.08-.16 0-.298.032-.298.08zm3.28-.638c-.048.064-.499.064-.499.242 0 .032.137.306.16.298.192-.032.92-.089.92-.225 0-.137.274-.347.105-.508a.127.127 0 00-.105-.048c-.17 0-.37.225-.58.241zm-.434-.893c0 .072.209.088.255.016.063-.089-.105-.282-.105-.363 0-.063.105-.127.073-.169a.123.123 0 00-.09-.04c-.184 0-.265.556-.136.556h.003zm-1.647-.516c-.049.016.015.644.318.443.25-.169.064-.467-.191-.467a.352.352 0 00-.127.024zm3.418-.056c.063-.016.306-.177.274-.282-.064-.191-.25-.048-.283-.064-.024.306-.41.492.009.346zm-1.073-.104c.017-.08.024-.192-.048-.234-.032-.016-.016-.096-.032-.096-.04-.025-.073.008-.08.008-.065.128.096.604.16.319v.002zm.51-.977c-.057.056-.08.12-.057.145.024.024.09.008.146-.04.056-.05.088-.113.063-.137-.007-.017-.024-.017-.04-.017a.191.191 0 00-.113.049h.001zm-1.395-.556c0 .073.048.137.104.137.056 0 .105-.064.105-.137 0-.073-.048-.137-.105-.137-.056 0-.104.064-.104.137zm2.277-.27c.201.096.42-.25.323-.347-.255-.255-.452-.217-.452-.676 0-.128-.08-.33-.185-.338l-.009.33c0 .16-.233.088-.137.29.073.153-.153.185-.191.319-.145.427.161.2.338.145 0-.003.001-.005.003-.006a.008.008 0 01.006-.003c.088 0 .233.255.306.282l-.002.003zm-2.199-.165c0 .073.032.137.072.137.04 0 .064-.064.064-.137 0-.072-.032-.137-.064-.137s-.072.056-.072.137zm.362-.16c0 .072.033.136.073.136.04 0 .064-.064.064-.137 0-.073-.032-.136-.064-.136s-.073.056-.073.136zm.686-.266c0 .072.032.136.073.136.04 0 .063-.064.063-.136 0-.073-.024-.138-.063-.138-.04 0-.073.064-.073.138zm6.663 4.295l-.089-.089h-.17v-.088h-.088v-.266h.258a2.77 2.77 0 01.266-.08h.089a.465.465 0 01.088-.089v-.089h.09c.015.024.023.056.048.089l.04.04c.03.015.06.03.088.049v.08a.463.463 0 00-.088.089c0 .088-.177.088-.177.177a.487.487 0 00-.09.09h-.088a.472.472 0 00-.088.09l-.089-.003zm-1.427-.435c-.073-.024.008-.137-.008-.137.072 0 .322-.032.242.049-.08.08-.064.112-.113.112a.57.57 0 01-.121-.024zm2.185-.426h-.17v-.098c.059-.026.115-.055.17-.088h.088v.186h-.088zm-1.54-1.7v-.612a.468.468 0 01.089-.089h.177l.089.089h.177c.024.056.049.113.08.177v.089a.38.38 0 00-.08.08v.09h-.089a.445.445 0 00-.088.087v.089h-.175a.465.465 0 00-.089.088l-.089-.088h-.002zm-.425-.483h-.226v-.25h.226c.024.04.048.08.08.128v.12l-.08.002zm-.957-.192h-.363v-.088c-.015-.032-.024-.064-.04-.089-.016-.025-.024-.032-.04-.04V9.44a.788.788 0 01.08-.089v-.08h.178v-.089h.09a.432.432 0 01.088-.088v-.178a.93.93 0 01.08-.089c.028-.03.057-.06.089-.088v-.177h.266v.089l.089.088h.088v.088a.466.466 0 00-.088.09.488.488 0 00-.09.088.97.97 0 00-.088.089v.088h-.089a.961.961 0 00-.088.088v.17h-.089v.265h-.073zm.951-.555v-.089c.09 0 .09 0 .09-.177h-.09v-.08a.963.963 0 01.09-.097.943.943 0 01-.09-.08v-.09c.04-.032.04-.032-.088-.088V8.36a.464.464 0 01.088-.088v-.177a.905.905 0 01.09-.089V7.83a.905.905 0 01-.09-.089h-.265c-.064.033-.121.057-.178.089h-.094a.775.775 0 01-.08-.089h-.089v-.169l-.086-.09c-.064-.032-.121-.064-.177-.088v-.09c-.064-.032-.121-.056-.178-.088h-.435a.934.934 0 00-.097-.089V7.04a.925.925 0 01.097-.088h.089c.023.023.048.056.08.088a.962.962 0 01.089-.088v-.255a.48.48 0 01.086-.093.466.466 0 01.088-.089h.267v.089h.091v.088c.024.057.056.113.089.177h.088v.081c.025.024.049.057.08.089h.09v.088l.088.089h.533v.177h.08c.057.025.113.056.177.089.114.024.234.056.355.088h.089v.089a.412.412 0 00-.089.08v.269h-.089a.832.832 0 00-.088.088v.354h-.089a.906.906 0 00-.089.09v.17c.028.034.058.066.09.097a.94.94 0 00.088.08v.177h-.178v.088h-.433zm-.588-1.03v-.178h.255a.835.835 0 01.089.089v.088h-.344zm-.782-.347v-.178h.178v.178h-.178zm-1.362-.113a1.073 1.073 0 00-.089-.089c-.032-.064-.064-.12-.089-.177.024-.088.056-.177.09-.266v-.176c-.034-.033-.065-.057-.09-.081v-.178a.446.446 0 01.084-.091.826.826 0 01.089-.089v-.088h.088a.47.47 0 01.089-.089v-.089h.088V6.16h.444c0 .177 0 .177-.097.177-.024.024-.048.057-.08.089v.442a.428.428 0 00-.09.081v.177h-.088v.266h.089v.089a.465.465 0 00-.089.088v.089h-.177a.428.428 0 00-.089.08.843.843 0 00-.088-.08l.005.003zm1.535-.067h-.09v-.177h.09l.088.088v.089h-.088zm-.806-.692v-.177h.177v.177h-.177zm.42-.21h-.098v-.089a.466.466 0 00-.088-.089v-.088h-.081v-.178a.39.39 0 01.08-.088h.277c.023.056.048.113.08.177v.177a1.182 1.182 0 00-.08.178h-.09zm3.603-2.743l-.073-.016.008-.048a.335.335 0 00.016-.089.413.413 0 00.008-.104.453.453 0 00-.088-.202.43.43 0 00-.267-.16l-.846-.227c-.008-.007-.024-.007-.04-.007s-.024-.009-.04-.017a.428.428 0 00-.243.041c-.088.04-.16.153-.241.346h-.024l-.073-.024.185-.604.073.024c.153.04.314-.072.483-.33.19-.298.33-.626.411-.97.04-.145.057-.241.04-.281a.144.144 0 00-.104-.097l-.113-.025.024-.08.024.008 1.54.412-.016.08-.089-.024c-.008 0-.016-.008-.032-.008h-.057a.149.149 0 00-.063.04.181.181 0 00-.056.097l-.403 1.506a.082.082 0 00.023.088.635.635 0 00.097.032l.008.008.113.032-.161.605-.024-.006zm-.549-2.504a6.573 6.573 0 01-.29.877c-.105.25-.278.465-.5.62l.806.216.46-1.716-.436-.12-.04.123zm1.653 2.44l.024-.073.08.032a.204.204 0 00.057.017c.034.014.07.016.105.007a.099.099 0 00.049-.063c.008-.008.008-.025.015-.032v-.041l-.007-.387-.162-.064-.387-.144-.217.24-.008.01-.008.007-.017.016-.008.025-.016.024-.016.016a.094.094 0 00.025.113c.032.03.07.055.112.072l.016.008.016.008h.017l-.033.072-.024-.008-.556-.21.032-.08.016.009c.03.013.064.018.097.016a.156.156 0 00.097-.049l.048-.048a.352.352 0 00.056-.056l1.258-1.404.025.008.063.016.04 2.021v.016c.001.034.01.067.025.097.008.032.04.048.08.073h.008l-.032.072-.024-.008-.685-.266-.16-.062zm-.138-.855l.299.112.169.064-.024-.686-.444.51zm-12.761.313a.152.152 0 00.072.096.15.15 0 00.08.024h.032l.033-.007.08-.041.033.08-.024.008-.62.242-.275.097-.033-.072.09-.033.023-.008.033-.016a.4.4 0 00.048-.072.247.247 0 00-.008-.128l-.443-1.152-.242 1.41c.01.038.032.072.063.096a.128.128 0 00.073.024h.057a.063.063 0 01.032-.007l.08-.033.032.073-.024.008-.893.346-.032-.08.09-.033a.083.083 0 01.023-.008.1.1 0 00.04-.04.115.115 0 00.04-.064.2.2 0 00-.015-.112l-.541-1.421a.192.192 0 00-.081-.105.115.115 0 00-.09-.016h-.023l-.032.008-.081.032-.032-.072.024-.008.892-.347.032.08-.088.033-.025.009-.024.016a.263.263 0 00-.056.072.192.192 0 00.016.127l.435 1.144.234-1.41a.15.15 0 00-.063-.096.357.357 0 00-.089-.016h-.032l-.032.008-.08.032-.033-.072.024-.008.893-.347.032.081-.089.032-.024.008-.024.025a.117.117 0 00-.049.072.162.162 0 00.008.12l.553 1.42zm2.176-.44l.089-.017c.008 0 .016-.008.032-.008l.049-.024a.477.477 0 00.048-.064.241.241 0 00.008-.113l-.266-1.497a.18.18 0 00-.049-.105.162.162 0 00-.063-.04h-.081l-.097.016-.008-.08h.024l1.53-.275.106.574h-.033l-.072.017c-.049-.191-.128-.298-.25-.33a1.044 1.044 0 00-.42-.008l-.152.032.29 1.613c.006.037.02.073.04.104.023.017.047.03.073.04a.116.116 0 00.049.009.08.08 0 00.032-.009l.127-.015.017.072-.033.008-.975.169-.015-.07zm6.595-.128h-.033a.374.374 0 01-.233-.121.223.223 0 01-.057-.177v-.033a.162.162 0 01.073-.127.198.198 0 01.113-.04h.048l.024.008.016.008h.025c.032.017.06.042.08.072.026.041.034.09.024.137l-.007.024v.024a.11.11 0 00.015.049c.009.016.016.024.033.024a.212.212 0 00.072-.008.171.171 0 00.089-.072.083.083 0 00.04-.049.477.477 0 00.049-.064L23.153.86l-.016-.024-.009-.033a.218.218 0 00-.056-.063.182.182 0 00-.097-.048h-.016l.016-.08.024.007.92.161-.01.074-.17-.032a.1.1 0 00-.048.008.13.13 0 00-.025.032v.04l.009.033.008.008.008.016.338.983.524-.782h.009v-.016l.016-.016.007-.024.009-.024.008-.016A.086.086 0 0024.585 1a.071.071 0 00-.047-.032L24.513.96 24.49.95l-.145-.024.016-.08.024.008.645.113-.016.08-.032-.008a.145.145 0 00-.105.008.15.15 0 00-.08.064l-.025.032c-.008.008-.016.024-.024.033l-.91 1.304a.279.279 0 01-.042.064c-.016.024-.032.04-.048.063a.748.748 0 01-.17.137.373.373 0 01-.168.04.427.427 0 01-.097-.015l.002.005zm-18.438 9.12l.049-.08.015-.025.009-.032a.174.174 0 000-.088c-.009-.033-.04-.057-.089-.09l-1.275-.829a.215.215 0 00-.12-.04.155.155 0 00-.082.04l-.024.017-.016.024-.048.08-.064-.048.008-.016.524-.806.072.04-.056.082-.016.023-.008.033a.16.16 0 000 .088.154.154 0 00.089.089l1.02.668-.638-1.28a.163.163 0 00-.113-.032.237.237 0 00-.08.032l-.025.024-.016.024-.057.08-.063-.048.016-.024.524-.797.064.04-.049.073-.016.032-.008.032a.132.132 0 000 .08c.016.04.044.074.08.098l1.282.83a.163.163 0 00.113.032.12.12 0 00.08-.033l.025-.024.024-.024.049-.072.064.04-.009.024-.524.805-.072-.048.054-.075.017-.024.016-.032a.16.16 0 000-.089.241.241 0 00-.089-.097l-1.032-.666.638 1.28.017.008a.155.155 0 00.112.033.137.137 0 00.08-.049l.017-.016.016-.016.049-.08.064.048-.009.016-.525.805-.064-.04zm30.434-1.683l-1.016-1.257.057-.047.063.072.025.024a.208.208 0 00.04.032c.023.01.048.014.072.008a.172.172 0 00.105-.048l1.186-.957a.171.171 0 00.063-.09.107.107 0 000-.071.12.12 0 00-.016-.056c-.008-.009-.016-.017-.016-.025l-.056-.063.063-.057.009.024 1.028 1.247-.451.362-.016-.016-.049-.064a.306.306 0 00.049-.056.447.447 0 00.112-.306.483.483 0 00-.137-.306l-.191-.233-.634.507.008.008.009.008c.015.014.029.03.04.049a.172.172 0 00.063.048.255.255 0 00.178.032c.072 0 .17-.049.29-.128l.016.016.049.064-.798.645-.016-.025-.049-.056a.752.752 0 00.191-.255.344.344 0 00.009-.177.213.213 0 00-.04-.073.412.412 0 00-.04-.056l-.01-.015-.524.427c-.064.048-.089.097-.073.137.02.046.048.09.081.127l.008.008.008.008.008.009v.007c.025.024.048.056.08.089.03.028.063.053.098.073a.57.57 0 00.266.104.637.637 0 00.362-.072l.016.016.049.063-.556.32-.014-.024zm-29.152-.32l.057-.071a.108.108 0 01.015-.025.112.112 0 00.016-.048.132.132 0 000-.082.204.204 0 00-.065-.09L4.997 8.62a.197.197 0 00-.113-.049.163.163 0 00-.089.025l-.024.024-.017.016-.055.073-.064-.049.016-.024.604-.741.057.049-.057.072-.015.024-.016.024a.324.324 0 00-.009.089.184.184 0 00.081.104l.951.766-.51-1.337a.128.128 0 00-.097-.04.146.146 0 00-.089.024l-.024.016-.024.025-.056.072-.064-.048.016-.024.604-.741.064.048-.064.072-.008.025-.016.032a.154.154 0 00-.007.088.152.152 0 00.072.097l1.185.957a.173.173 0 00.105.048.146.146 0 00.088-.023l.025-.025.024-.016.056-.072.064.048-.017.024-.602.74-.064-.05.056-.072.017-.024.016-.024a.135.135 0 00.008-.097.191.191 0 00-.072-.096l-.96-.77.5 1.336a.173.173 0 00.104.048c.032 0 .056 0 .073-.016a.075.075 0 00.048-.032l.024-.016.057-.073.064.049-.017.024-.604.74-.064-.047zm28.047-1.34a.712.712 0 01-.322-.12 2.6 2.6 0 01-.145-.113l-.113-.112-.016-.017-.645-.668.056-.056.064.072.024.016.025.016a.158.158 0 00.088.025.215.215 0 00.105-.064l1.097-1.056c.04-.04.064-.072.064-.104a.102.102 0 00-.016-.089l-.016-.032-.016-.016-.064-.072.056-.049.017.016.644.66c.11.107.196.236.25.379.025.092.03.188.016.282a.535.535 0 01-.064.137c-.031.04-.048.064-.063.08a.446.446 0 01-.299.128.646.646 0 01-.322-.113c-.008-.016-.025-.024-.032-.032l-.025.016c.016.024.032.04.04.056a.7.7 0 01.121.37.419.419 0 01-.152.314.47.47 0 01-.315.145l-.042.002zm-.5-.737l-.023.032c-.009.008-.017.024-.025.033a.298.298 0 00-.032.088.17.17 0 00.048.105.34.34 0 00.275.105.54.54 0 00.29-.153.217.217 0 00.048-.064.24.24 0 00.056-.089.374.374 0 00.033-.191.472.472 0 00-.145-.256l-.057-.056-.468.446zm.565-.54l.072.08a.303.303 0 00.255.114.42.42 0 00.242-.113l.016-.008.017-.016a.36.36 0 00.137-.266.5.5 0 00-.073-.225.18.18 0 01-.032-.048.134.134 0 01-.032-.04l-.017-.017-.016-.008-.569.548zm-29.587.668a.191.191 0 01-.073-.113.156.156 0 01.04-.12l.016-.025a.15.15 0 01.097-.056.11.11 0 01.089.008h.008l.008.008.032.024.016.024V7.7l.017.017.016.016h.007l.009.007a.163.163 0 00.08-.016.603.603 0 00.09-.072.191.191 0 00.04-.08.218.218 0 00.008-.065l-.009-.023-.008-.017-.005-.01-.008-.008-.016-.009-.008-.007H5.11l-.024-.009-.024-.024-.009-.007-.007-.009a.158.158 0 01-.025-.088.166.166 0 01.04-.097l.017-.024h.008v-.008a.187.187 0 01.104-.056.174.174 0 01.128.048c.016.011.03.025.04.04.013.02.024.042.033.064.01.06.004.12-.016.177a.638.638 0 01-.153.274l-.017.016a.702.702 0 01-.299.242.401.401 0 01-.097.016.17.17 0 01-.127-.048v.002zm3.07-.236a1.079 1.079 0 01-.718-.354c-.188-.2-.299-.46-.314-.733a.92.92 0 01.323-.725l.015-.015a.67.67 0 01.17-.128c.056-.024.105-.049.145-.064l.016-.008.024-.008a.425.425 0 01.081-.024c.016-.008.032-.024.048-.033a.092.092 0 00.025-.063.197.197 0 00-.049-.105l.024-.016.057-.056.475.507-.016.024-.063.048a.73.73 0 00-.396-.152.499.499 0 00-.37.127.563.563 0 00-.161.419c0 .185.113.402.355.652.19.21.387.33.573.37a.528.528 0 00.645-.44 1.202 1.202 0 00-.024-.412l.017-.024.097-.019c.033.102.052.208.057.314 0 .084-.007.168-.024.25a.879.879 0 01-.232.379l-.025.023a.947.947 0 01-.661.275.319.319 0 01-.088-.009h-.006zm24.852-.54l-.765-.644.049-.056.088.073.024.016.025.008a.112.112 0 00.088.008c.033 0 .064-.024.106-.064l1.056-1.264-.04-.033v-.008a.182.182 0 01-.05-.04.398.398 0 01-.047-.032.414.414 0 00-.226-.064c-.089 0-.192.056-.323.178l-.024-.017-.056-.048.37-.446.024.016 1.299 1.095-.371.443-.016-.016-.064-.048c.096-.153.136-.266.127-.355a.344.344 0 00-.105-.2l-.048-.05-.04-.04h-.008l-.04-.04-1.064 1.264a.214.214 0 00-.049.113.146.146 0 00.024.089l.016.024.024.024.09.064-.057.064-.017-.013zm-23.451-.49l.072-.048.024-.025.016-.024a.145.145 0 00.032-.08.212.212 0 00-.048-.122l-.943-1.2a.191.191 0 00-.097-.072.108.108 0 00-.089.008l-.032.016-.024.016-.064.057-.056-.064.024-.017.758-.587.048.056-.072.056-.024.024-.016.024a.104.104 0 00-.033.081.21.21 0 00.049.12l.427.54.024-.877v-.064c-.008-.016-.008-.033-.017-.04v-.009l-.007-.007a.131.131 0 00-.057-.033.148.148 0 00-.08.033l-.073.056-.049-.056.025-.017.58-.459.048.064a.654.654 0 00-.16.185.424.424 0 00-.057.202.098.098 0 00-.008.048v.048l-.024.532 1.2.443a.976.976 0 00.128.032.22.22 0 00.113-.032l.049.056-.024.016-.67.523L10 6.017l.049-.032a.15.15 0 00.048-.057c.016-.016.008-.04-.008-.056l-.016-.016-.033-.024h-.007l-.009-.009L10 5.816l-.016-.009-.754-.289-.008.072.387.508a.237.237 0 00.105.072.11.11 0 00.09-.007l.023-.017.032-.016.049-.04.048.064-.016.008-.742.58-.043-.066zm22.057-.733a.66.66 0 01-.234-.057 1.174 1.174 0 01-.178-.096l-.023-.016c-.25-.178-.395-.403-.428-.677-.033-.274.039-.55.202-.773a1.17 1.17 0 01.653-.46c.266-.071.524-.015.774.162l.024.016c.058.04.112.086.161.137a.92.92 0 01.089.128l.016.016.008.016a.27.27 0 00.049.073c.008.016.024.032.032.048a.108.108 0 00.072 0 .157.157 0 00.089-.057l.024.016.064.04-.403.575-.016-.017-.064-.048a.692.692 0 00.064-.419.495.495 0 00-.202-.338.554.554 0 00-.446-.064c-.177.033-.362.192-.564.475-.161.234-.242.452-.242.639a.51.51 0 00.234.45.52.52 0 00.338.097c.138-.017.272-.058.395-.12l.017.015.048.089a.916.916 0 01-.306.12.665.665 0 01-.21.033l-.037-.003zm-20.457-.548l.08-.04.024-.016.024-.025a.152.152 0 00.008-.2l-.733-1.33c-.033-.048-.057-.08-.089-.088a.116.116 0 00-.089-.008l-.032.008-.024.016-.08.04-.04-.072.023-.008.838-.467.041.072-.08.04-.025.016-.024.025a.128.128 0 00-.04.08.183.183 0 00.024.121l.595 1.07.04-1.432a.191.191 0 00-.08-.08.318.318 0 00-.09-.009l-.031.008-.033.016-.08.04-.033-.063.025-.016.838-.467.04.072-.08.04-.024.016-.024.024a.15.15 0 00-.04.081.178.178 0 00.024.12l.741 1.33a.159.159 0 00.089.088.14.14 0 00.08.008l.033-.008.032-.016.08-.04.033.073-.016.007-.839.467-.04-.072.08-.04.024-.017.025-.024a.183.183 0 00.04-.08.197.197 0 00-.032-.12l-.597-1.08-.04 1.433.008.017a.147.147 0 00.089.072c.03.014.065.017.097.008l.024-.008.016-.016.08-.04.041.072-.024.008-.839.467-.038-.073zm18.447-.66l-.887-.45.033-.074.08.04.025.009.032.008a.113.113 0 00.089-.008.185.185 0 00.088-.089l.686-1.36c.024-.05.04-.09.024-.122a.111.111 0 00-.04-.08l-.025-.016-.024-.016-.08-.04.032-.073.024.008.91.467c.037.023.075.045.114.064.047.035.093.073.137.113.07.072.121.16.153.255a.44.44 0 01-.048.339l-.008.023-.009.017a.579.579 0 01-.33.241c-.153.04-.347.008-.588-.12l-.025-.009c-.032-.016-.056-.032-.088-.048a.503.503 0 01-.089-.056l-.314.62a.18.18 0 00-.025.12.14.14 0 00.049.081l.024.016.024.016.113.057-.04.072-.017-.005zm.25-1.095a.378.378 0 00.057.048l.064.04.024.008.016.008a.382.382 0 00.234 0c.089-.024.17-.113.242-.255a.442.442 0 00.064-.29.299.299 0 00-.105-.161 1.077 1.077 0 00-.12-.072l-.105-.049-.37.723zM12.686 1.917a.263.263 0 01-.186-.137.199.199 0 010-.136.206.206 0 01.097-.09l.024-.007a.191.191 0 01.113-.009c.03.01.056.03.072.057l.009.008v.008c.008.008.008.024.015.033v.04l.009.024.008.016v.008l.008.008a.1.1 0 00.072.024c.039.006.078 0 .113-.016a.361.361 0 00.081-.048.546.546 0 00.032-.056l.008-.025v-.032l-.016-.016-.008-.008v-.016l-.024-.025-.008-.023-.008-.017v-.007c0-.032.008-.062.024-.09a.213.213 0 01.08-.063l.033-.008h.008a.14.14 0 01.113 0 .19.19 0 01.096.097c0 .016.009.032.009.056a.146.146 0 01-.009.08.319.319 0 01-.088.145.9.9 0 01-.274.162l-.025.008a.907.907 0 01-.29.064c-.032 0-.063-.008-.088-.008zm8.48 38.591a.128.128 0 01-.055-.121.172.172 0 01.007-.056.142.142 0 01.033-.073.41.41 0 01.137-.113.872.872 0 01.306-.056h.024c.17-.008.29.016.371.072a.236.236 0 01.137.185.172.172 0 01-.048.128.16.16 0 01-.113.048l-.032.008a.164.164 0 01-.105-.032.15.15 0 01-.057-.072v-.056l.008-.033v-.008l.009-.024v-.032l-.009-.008a.17.17 0 00-.056-.049.458.458 0 00-.113-.016.167.167 0 00-.096.025.078.078 0 00-.049.04l-.016.016-.008.016v.016l.008.016v.016l.008.008.008.032v.057a.192.192 0 01-.048.072.162.162 0 01-.105.032h-.032l-.009.008a.184.184 0 01-.104-.047v.001zm-.652-.598h.088l.033-.007.032-.009a.187.187 0 00.072-.048.246.246 0 00.025-.12l-.057-1.523a.157.157 0 00-.032-.113.191.191 0 00-.073-.048l-.032-.008h-.12l-.009-.08h.024l.957-.033.008.08h-.12l-.033.01a.216.216 0 00-.073.055.166.166 0 00-.032.12l.049 1.233.677-1.256a.178.178 0 00-.025-.104.345.345 0 00-.064-.057c-.015 0-.031-.009-.047-.009h-.122l-.008-.08h.024l.96-.032.008.08h-.096a.083.083 0 00-.033.008.068.068 0 00-.048.017.107.107 0 00-.057.048.23.23 0 00-.024.113l.056 1.522c0 .044.014.086.041.12a.095.095 0 00.072.04l.033.009h.12v.072l-.023.008-.96.032v-.08h.089l.032-.008.024-.008a.117.117 0 00.072-.048.167.167 0 00.033-.121l-.04-1.224-.681 1.256a.116.116 0 00.04.104c.015.023.038.04.064.048a.07.07 0 00.04.009h.12v.08h-.024l-.956.032-.004-.08zm-2 .008l-.91-.177.007-.072.17.032c.016 0 .032 0 .04-.008a.085.085 0 00.032-.04v-.032l-.002-.032-.008-.016v-.008l-.32-.99-.548.772-.008.008-.008.025-.016.023-.008.017v.024a.084.084 0 00.008.064c.016.008.032.024.049.033l.023.008.025.008.153.024-.016.08-.032-.007-.638-.122.016-.08.033.008a.15.15 0 00.104-.008.19.19 0 00.08-.064l.026-.032c.007-.008.016-.025.023-.032l.927-1.289c.016-.016.033-.04.049-.056a.714.714 0 01.214-.202.49.49 0 01.273-.023h.024a.42.42 0 01.234.127c.04.053.06.119.057.185v.024a.208.208 0 01-.191.17h-.025l-.015-.009h-.039l-.016-.007-.024-.009a.15.15 0 01-.081-.063.214.214 0 01-.016-.145l.008-.025v-.024a.064.064 0 00-.015-.04.067.067 0 00-.033-.033.22.22 0 00-.073.009.26.26 0 00-.097.072c-.007.016-.023.025-.04.048a.521.521 0 00-.04.064l.51 1.579.008.024.008.032c.016.027.035.05.057.073a.25.25 0 00.1.038l.016.009-.017.072-.037-.007zm4.652-.16l.09-.017.031-.008.033-.015a.129.129 0 00.056-.057.21.21 0 00.016-.128l-.298-1.49a.141.141 0 00-.057-.113.155.155 0 00-.08-.04h-.024l-.033.008-.089.016-.016-.08h.03l.943-.185.016.08-.089.016-.032.009-.032.007a.23.23 0 00-.056.064.164.164 0 00-.009.128l.29 1.49a.18.18 0 00.049.112.134.134 0 00.089.033h.056l.089-.017.016.073-.024.008-.944.185-.021-.08zm1.7-.33l.087-.015.025-.009.032-.008a.156.156 0 00.064-.064.211.211 0 00.008-.127l-.121-.613-.024.008-.016.009c-.033.007-.056.015-.089.023a.468.468 0 00-.097.017l-.024.007c-.202.033-.355.033-.467-.007a.62.62 0 01-.256-.162.46.46 0 01-.104-.16.816.816 0 00-.033-.105c-.031-.178-.007-.306.064-.403a.805.805 0 01.282-.217.982.982 0 01.201-.073c.064-.016.122-.024.162-.032l.024-.008.87-.17.016.081-.088.017-.032.007-.024.016a.145.145 0 00-.064.057.213.213 0 00-.008.128l.29 1.49c.008.056.024.096.056.112.023.02.051.034.08.04h.033l.033-.008.088-.016.008.08h-.024l-.935.186-.018-.08zm-.256-1.812c-.016.009-.032.009-.048.016l-.048.025a.377.377 0 00-.177.459c.032.16.095.265.19.314a.458.458 0 00.308.056c.016-.008.031-.008.047-.016a.117.117 0 00.049-.016l-.128-.669a.071.071 0 01-.008-.04c-.008-.008-.008-.024-.016-.04a.212.212 0 00-.057-.064.111.111 0 00-.072-.024h-.04zm-6.925-6.25h-.056a.988.988 0 00-.097.154c-.121.226-.145.5 0 .814.073.16.226.266.436.322.265.07.543.084.814.04a1.43 1.43 0 00.823-.444 1.29 1.29 0 00.35-.82.988.988 0 00-.226-.669c-.51.379-1.152.575-2.04.604h-.004zm-.625-.563a2.49 2.49 0 00-.25.32c.248.09.51.136.774.136.15-.167.324-.31.516-.426l.049.088c-.162.09-.308.204-.436.338.557-.024 1.097-.419 1.53-.893a1.885 1.885 0 00-.354-.137 1.53 1.53 0 01-.814.402c-.265.04-.536.033-.798-.024-.076.06-.15.123-.218.191l.001.006zm.313-2.748c-.392.095-.75.299-1.032.587-.277.28-.448.648-.483 1.04a1.471 1.471 0 00.862 1.401 1.95 1.95 0 01.274-.346c.053-.058.11-.112.17-.161-.202-.073-.363-.185-.436-.363-.152-.346-.127-.644 0-.902.128-.258.372-.46.645-.628l.057.08c-.266.161-.492.363-.613.597-.121.233-.145.499 0 .813.064.16.226.266.427.322l.009.008c.244-.185.524-.316.822-.387.158-.04.32-.056.484-.048.103.009.205.025.306.048l.016-.016a1.594 1.594 0 01-.435-.29 2.143 2.143 0 01-.436-.66 1.915 1.915 0 01-.17-.749c-.008-.13 0-.259.026-.386h-.033a.218.218 0 00-.073-.009c-.13 0-.26.017-.387.049zm.726 2.158c-.257.061-.5.168-.719.316.224.039.453.042.677.009.267-.043.516-.16.718-.34a2.091 2.091 0 00-.226-.031h-.073c-.127 0-.255.016-.378.048v-.002zm.869-.062c.118.035.232.083.339.145a.465.465 0 01.056-.072 2.257 2.257 0 01-.322-.064l-.064-.024-.009.015zm1.371-1.85c-.354.04-.758.225-1.148.419.1.17.148.366.137.564a1.35 1.35 0 01-.29.772l.024.009c.12.039.245.063.371.072.22-.274.415-.568.58-.878.128-.282.307-.62.511-.966a1.386 1.386 0 00-.186.008h.001zm.475.926a5.66 5.66 0 01-.446.83.15.15 0 01.04-.017c.185-.057.358-.147.51-.266a.977.977 0 00.307-.37c.062-.128.098-.268.105-.41a.682.682 0 00-.089-.355.452.452 0 00-.137-.161c-.097.25-.185.5-.29.749zm-2.878-.83c.005.248.06.492.161.718.1.233.242.446.42.628.122.121.267.217.427.282.175-.212.277-.475.29-.75a.95.95 0 00-.128-.515c-.201.096-.403.191-.588.266l-.032-.089c.177-.072.37-.161.574-.255a1.144 1.144 0 00-.202-.233 1.761 1.761 0 00-.893-.419 1.45 1.45 0 00-.024.37l-.005-.002zm21.445-2.079l.009-.032a.159.159 0 00.007-.105.273.273 0 00-.063-.08l-.025-.033a.097.097 0 01-.032-.024l-1.225-1.015c-.016-.016-.04-.032-.057-.048a.193.193 0 01-.056-.056.625.625 0 01-.121-.185.37.37 0 01-.008-.266v-.024a.367.367 0 01.145-.226.229.229 0 01.185-.04h.025a.196.196 0 01.127.089.248.248 0 01.024.113v.047l-.007.025-.009.016-.008.024a.204.204 0 01-.073.073.176.176 0 01-.144.007l-.025-.007h-.024a.107.107 0 00-.048.007.252.252 0 00-.032.041.23.23 0 00.008.064.23.23 0 00.063.097.228.228 0 00.041.048c.024.016.04.032.064.048l1.613-.394.024-.008.032-.008a.199.199 0 00.073-.049.274.274 0 00.056-.096v-.017l.08.025-.007.024-.242.902-.08-.016.048-.169a.088.088 0 00-.009-.04.06.06 0 00-.032-.033h-.032l-.032.008-.017.008h-.007l-1.015.25.734.596v.008h.007l.025.016.024.008.016.008.016.008a.075.075 0 00.073-.008.158.158 0 00.032-.04l.008-.025.008-.023.04-.145.082.024-.009.024-.169.628-.08-.024zm-37.593-.186l-.435-1.642.556-.15.008.024.016.08c-.16.065-.255.137-.298.21a.395.395 0 00-.032.234.132.132 0 00.008.056c.008.024.008.04.016.064l.016.056 1.588-.426a.191.191 0 00.113-.064.158.158 0 00.025-.08v-.033l-.009-.032-.024-.105.081-.024v.032l.266.957-.081.024-.032-.112-.008-.024-.016-.033c-.008-.024-.033-.04-.064-.056a.16.16 0 00-.121 0l-1.594.427.016.056c.001.02.007.039.016.056a.377.377 0 00.17.242c.063.049.185.064.362.04l.008.024.024.073-.564.153-.01-.026zm37.68-2.125l.008-.032.008-.073c.202.024.33-.016.404-.12.07-.123.12-.256.144-.396l.025-.144-1.629-.29a.255.255 0 00-.113.008.337.337 0 00-.056.048 1.46 1.46 0 00-.024.049.058.058 0 00-.008.032l-.025.127-.08-.016.008-.024.177-.983.072.017-.014.089v.032a.109.109 0 00.008.049.169.169 0 00.04.072.219.219 0 00.106.04l1.491.266c.037.01.078.008.113-.008a.132.132 0 00.064-.048l.024-.049a.059.059 0 00.008-.032l.016-.088.081.016-.008.024-.266 1.531-.574-.097zM18.998.861a1.09 1.09 0 00-.112.427 1.05 1.05 0 00-.008.161c.006.05.009.102.008.153.008.048.008.096.016.153.007.056.016.105.024.161.031.144.089.28.17.403a.382.382 0 00.354.177.375.375 0 00.33-.226c.064-.13.1-.273.106-.418.006-.057.009-.113.007-.17 0-.048-.007-.104-.007-.153a1.174 1.174 0 00-.016-.153 4.805 4.805 0 01-.024-.16 1.362 1.362 0 00-.162-.403.392.392 0 00-.338-.17h-.025A.355.355 0 0019 .862zm2.75 1.764h-.032a.962.962 0 01-.708-.36 1.07 1.07 0 01-.224-.766 1.15 1.15 0 01.315-.733c.19-.192.446-.282.758-.256h.023c.071.005.141.016.21.033.05.018.099.04.145.064l.016.007.025.009c.032.016.048.032.072.04a.45.45 0 00.056.024.504.504 0 00.064-.032.219.219 0 00.04-.105h.025l.08.008-.049.693h-.024l-.08-.008a.69.69 0 00-.161-.395.478.478 0 00-.339-.185.552.552 0 00-.419.169c-.137.128-.21.354-.234.702-.024.29.016.507.113.676a.53.53 0 00.435.266.594.594 0 00.338-.097c.11-.085.202-.188.275-.306l.032.008.08.056a1.427 1.427 0 01-.191.256.971.971 0 01-.202.144.589.589 0 01-.234.08.893.893 0 01-.145.01l-.06-.002z" fill="#E3A868"/></g><defs><clipPath id="clip0"><path fill="#fff" transform="translate(.884 .503)" d="M0 0h40.052v40.052H0z"/></clipPath></defs></svg>