<svg width="253" height="254" fill="none" xmlns="http://www.w3.org/2000/svg"><path d="M206.376 112.82a31.43 31.43 0 01.199 27.273L187.36 180.75a31.43 31.43 0 01-21.2 17.16l-43.767 10.326a31.431 31.431 0 01-26.634-5.875L60.397 174.58a31.431 31.431 0 01-12.012-24.486l-.328-44.968a31.43 31.43 0 0111.655-24.659l34.953-28.293a31.43 31.43 0 0126.545-6.263l43.913 9.687a31.427 31.427 0 0121.447 16.85l19.806 40.372z" fill="#C29B59"/><path d="M242.725 109.486a38.5 38.5 0 01.243 33.41l-30.34 64.193a38.498 38.498 0 01-25.969 21.021l-69.105 16.304a38.506 38.506 0 01-32.627-7.197l-55.833-43.864a38.501 38.501 0 01-14.715-29.996l-.517-71A38.502 38.502 0 0128.138 62.15l55.188-44.673a38.502 38.502 0 0132.519-7.672L185.18 25.1a38.504 38.504 0 0126.273 20.64l31.272 63.746z" stroke="#E0AC79" stroke-opacity=".3" stroke-width="1.572"/><path opacity=".5" d="M98.922 134.016c-2.12 0-3.873-.7-5.26-2.1-1.387-1.4-2.08-3.114-2.08-5.14 0-2.027.693-3.74 2.08-5.14 1.386-1.4 3.14-2.1 5.26-2.1 1.533 0 2.9.433 4.1 1.3 1.213.853 2.033 1.966 2.46 3.34h-1.52c-.374-.974-1.02-1.76-1.94-2.36-.92-.614-1.954-.92-3.1-.92-1.747 0-3.173.566-4.28 1.7-1.107 1.133-1.66 2.526-1.66 4.18 0 1.653.553 3.046 1.66 4.18 1.107 1.133 2.533 1.7 4.28 1.7 1.146 0 2.18-.3 3.1-.9.92-.614 1.566-1.407 1.94-2.38h1.52c-.427 1.373-1.247 2.493-2.46 3.36-1.2.853-2.567 1.28-4.1 1.28zm7.757-.24v-1.26l5.04-5.08c1.44-1.44 2.16-2.674 2.16-3.7 0-.894-.28-1.587-.84-2.08-.546-.507-1.206-.76-1.98-.76-.866 0-1.58.233-2.14.7-.56.466-.84 1.18-.84 2.14h-1.4c0-1.347.427-2.38 1.28-3.1.854-.734 1.887-1.1 3.1-1.1 1.12 0 2.1.38 2.94 1.14.854.746 1.28 1.766 1.28 3.06 0 .813-.226 1.593-.68 2.34-.453.746-1.093 1.533-1.92 2.36l-4 3.98h6.9v1.36h-8.9zm19.708-9.62c0 1.053-.286 1.986-.86 2.8l-4.58 6.82h-1.58l3.44-5.12c-.36.08-.733.12-1.12.12-1.373 0-2.5-.427-3.38-1.28-.88-.867-1.32-1.98-1.32-3.34 0-1.36.44-2.467 1.32-3.32.88-.867 2.007-1.3 3.38-1.3 1.374 0 2.5.433 3.38 1.3.88.853 1.32 1.96 1.32 3.32zm-7.1-2.36c-.6.6-.9 1.386-.9 2.36 0 .973.3 1.76.9 2.36.614.6 1.414.9 2.4.9.987 0 1.78-.3 2.38-.9.614-.6.92-1.387.92-2.36 0-.974-.306-1.76-.92-2.36-.6-.6-1.393-.9-2.38-.9-.986 0-1.786.3-2.4.9zm18.026 3.12c.813.346 1.46.906 1.94 1.68.493.76.74 1.62.74 2.58 0 1.28-.427 2.366-1.28 3.26-.84.893-1.887 1.34-3.14 1.34h-6.98v-14h5.58c1.08 0 1.953.333 2.62 1 .666.653 1 1.46 1 2.42 0 .613-.16 1.186-.48 1.72zm-3.14-3.82h-4.18v3.48h5.9c.333-.374.5-.834.5-1.38 0-.6-.2-1.1-.6-1.5-.387-.4-.927-.6-1.62-.6zm1.2 11.36c.96 0 1.733-.314 2.32-.94.6-.64.9-1.42.9-2.34 0-.934-.294-1.714-.88-2.34-.587-.627-1.36-.94-2.32-.94h-5.4v6.56h5.38zm10.811-7.04c1.307 0 2.413.386 3.32 1.16.92.76 1.38 1.806 1.38 3.14 0 1.333-.46 2.386-1.38 3.16-.907.76-2.013 1.14-3.32 1.14s-2.42-.38-3.34-1.14c-.907-.774-1.36-1.827-1.36-3.16h1.4c0 .933.307 1.66.92 2.18.627.506 1.42.76 2.38.76s1.747-.254 2.36-.76c.627-.52.94-1.247.94-2.18 0-.934-.313-1.654-.94-2.16-.613-.52-1.4-.78-2.36-.78h-4l.5-7h7.7v1.32h-6.42l-.3 4.32h2.52zm15.106-1.26c0 1.053-.287 1.986-.86 2.8l-4.58 6.82h-1.58l3.44-5.12c-.36.08-.734.12-1.12.12-1.374 0-2.5-.427-3.38-1.28-.88-.867-1.32-1.98-1.32-3.34 0-1.36.44-2.467 1.32-3.32.88-.867 2.006-1.3 3.38-1.3 1.373 0 2.5.433 3.38 1.3.88.853 1.32 1.96 1.32 3.32zm-7.1-2.36c-.6.6-.9 1.386-.9 2.36 0 .973.3 1.76.9 2.36.613.6 1.413.9 2.4.9.986 0 1.78-.3 2.38-.9.613-.6.92-1.387.92-2.36 0-.974-.307-1.76-.92-2.36-.6-.6-1.394-.9-2.38-.9-.987 0-1.787.3-2.4.9z" fill="#fff"/></svg>