<svg width="126" height="126" fill="none" xmlns="http://www.w3.org/2000/svg"><path d="M120.728 53.814a19.998 19.998 0 01.127 17.355l-14.768 31.245a19.995 19.995 0 01-13.49 10.919l-33.635 7.936a20.003 20.003 0 01-16.948-3.739L14.838 96.18A20 20 0 017.194 80.6l-.252-34.56a20 20 0 017.416-15.69L41.22 8.605A20 20 0 0158.112 4.62l33.748 7.444a19.998 19.998 0 0113.647 10.722l15.221 31.027z" fill="#FFF6EE"/><path d="M120.023 54.16a19.214 19.214 0 01.121 16.673l-14.767 31.245a19.216 19.216 0 01-12.96 10.491l-33.636 7.935a19.211 19.211 0 01-16.282-3.592l-27.176-21.35A19.214 19.214 0 017.98 80.593l-.252-34.558a19.214 19.214 0 017.125-15.075L41.715 9.217a19.214 19.214 0 0116.228-3.829l33.748 7.444a19.216 19.216 0 0113.111 10.301l15.221 31.027z" stroke="#E0AC79" stroke-opacity=".3" stroke-width="1.572"/><path opacity=".5" d="M29.989 69.648v-1.26l5.04-5.08c1.44-1.44 2.16-2.673 2.16-3.7 0-.893-.28-1.587-.84-2.08-.547-.507-1.207-.76-1.98-.76-.867 0-1.58.233-2.14.7-.56.467-.84 1.18-.84 2.14h-1.4c0-1.347.426-2.38 1.28-3.1.853-.733 1.886-1.1 3.1-1.1 1.12 0 2.1.38 2.94 1.14.853.747 1.28 1.767 1.28 3.06 0 .813-.227 1.593-.68 2.34-.454.747-1.094 1.533-1.92 2.36l-4 3.98h6.9v1.36h-8.9zm15.207-8.36c1.307 0 2.414.387 3.32 1.16.92.76 1.38 1.807 1.38 3.14 0 1.333-.46 2.387-1.38 3.16-.906.76-2.013 1.14-3.32 1.14-1.306 0-2.42-.38-3.34-1.14-.906-.773-1.36-1.827-1.36-3.16h1.4c0 .933.307 1.66.92 2.18.627.507 1.42.76 2.38.76s1.747-.253 2.36-.76c.627-.52.94-1.247.94-2.18s-.313-1.653-.94-2.16c-.613-.52-1.4-.78-2.36-.78h-4l.5-7h7.7v1.32h-6.42l-.3 4.32h2.52zm11.437.18c1.12.147 2.04.58 2.76 1.3.733.707 1.1 1.647 1.1 2.82 0 1.333-.46 2.387-1.38 3.16-.907.76-2.014 1.14-3.32 1.14-1.307 0-2.42-.38-3.34-1.14-.907-.773-1.36-1.827-1.36-3.16h1.4c0 .933.306 1.66.92 2.18.626.507 1.42.76 2.38.76s1.746-.253 2.36-.76c.626-.52.94-1.247.94-2.18s-.314-1.653-.94-2.16c-.614-.52-1.4-.78-2.36-.78v-.02l-.02.02h-.98v-.92l3.48-4.76h-6.58v-1.32h8.2v1.32l-3.26 4.5zm14.865 6.46c-.92 1.307-2.22 1.96-3.9 1.96-1.68 0-2.987-.653-3.92-1.96-.92-1.32-1.38-3.08-1.38-5.28s.46-3.953 1.38-5.26c.933-1.32 2.24-1.98 3.92-1.98 1.68 0 2.98.66 3.9 1.98.933 1.307 1.4 3.06 1.4 5.26 0 2.2-.467 3.96-1.4 5.28zm-6.78-.94c.693 1.027 1.653 1.54 2.88 1.54 1.227 0 2.18-.513 2.86-1.54.693-1.027 1.04-2.473 1.04-4.34s-.347-3.313-1.04-4.34c-.68-1.027-1.633-1.54-2.86-1.54-1.227 0-2.187.513-2.88 1.54-.68 1.027-1.02 2.473-1.02 4.34s.34 3.313 1.02 4.34zm14.922-5.52c1.12.147 2.04.58 2.76 1.3.734.707 1.1 1.647 1.1 2.82 0 1.333-.46 2.387-1.38 3.16-.906.76-2.013 1.14-3.32 1.14-1.306 0-2.42-.38-3.34-1.14-.906-.773-1.36-1.827-1.36-3.16h1.4c0 .933.307 1.66.92 2.18.627.507 1.42.76 2.38.76s1.747-.253 2.36-.76c.627-.52.94-1.247.94-2.18s-.313-1.653-.94-2.16c-.613-.52-1.4-.78-2.36-.78v-.02l-.02.02h-.98v-.92l3.48-4.76H74.7v-1.32h8.2v1.32l-3.26 4.5zm15.39 8.18l-1.3-3.44h-6.64l-1.3 3.44h-1.48l5.38-14h1.44l5.38 14h-1.48zm-7.44-4.76h5.64l-2.82-7.5-2.82 7.5z" fill="#000"/></svg>