<svg width="205" height="205" fill="none" xmlns="http://www.w3.org/2000/svg"><path d="M194.922 84.874a38.504 38.504 0 01.244 33.41l-21.338 45.147a38.5 38.5 0 01-25.97 21.021l-48.6 11.466a38.5 38.5 0 01-32.627-7.197l-39.267-30.849a38.502 38.502 0 01-14.715-29.996l-.364-49.934a38.502 38.502 0 0114.277-30.207l38.813-31.417a38.502 38.502 0 0132.518-7.672l48.763 10.756a38.503 38.503 0 0126.273 20.641l21.993 44.831z" stroke="#E0AC79" stroke-opacity=".3" stroke-width="1.572"/><path opacity=".5" d="M69.853 103.029v-1.26l5.04-5.08c1.44-1.44 2.16-2.674 2.16-3.7 0-.894-.28-1.587-.84-2.08-.547-.507-1.207-.76-1.98-.76-.867 0-1.58.233-2.14.7-.56.466-.84 1.18-.84 2.14h-1.4c0-1.347.426-2.38 1.28-3.1.853-.734 1.886-1.1 3.1-1.1 1.12 0 2.1.38 2.94 1.14.853.746 1.28 1.766 1.28 3.06 0 .813-.227 1.593-.68 2.34-.454.746-1.094 1.533-1.92 2.36l-4 3.98h6.9v1.36h-8.9zm15.208-8.36c1.306 0 2.413.386 3.32 1.16.92.76 1.38 1.806 1.38 3.14 0 1.333-.46 2.386-1.38 3.16-.907.76-2.014 1.14-3.32 1.14-1.307 0-2.42-.38-3.34-1.14-.907-.774-1.36-1.827-1.36-3.16h1.4c0 .933.306 1.66.92 2.18.626.506 1.42.76 2.38.76s1.746-.254 2.36-.76c.626-.52.94-1.247.94-2.18 0-.934-.314-1.654-.94-2.16-.614-.52-1.4-.78-2.36-.78h-4l.5-7h7.7v1.32h-6.42l-.3 4.32h2.52zm11.436.18c1.12.146 2.04.58 2.76 1.3.733.706 1.1 1.646 1.1 2.82 0 1.333-.46 2.386-1.38 3.16-.907.76-2.014 1.14-3.32 1.14-1.307 0-2.42-.38-3.34-1.14-.907-.774-1.36-1.827-1.36-3.16h1.4c0 .933.306 1.66.92 2.18.626.506 1.42.76 2.38.76s1.746-.254 2.36-.76c.626-.52.94-1.247.94-2.18 0-.934-.314-1.654-.94-2.16-.614-.52-1.4-.78-2.36-.78v-.02l-.02.02h-.98v-.92l3.48-4.76h-6.58v-1.32h8.2v1.32l-3.26 4.5zm14.865 6.46c-.92 1.306-2.22 1.96-3.9 1.96-1.68 0-2.987-.654-3.92-1.96-.92-1.32-1.38-3.08-1.38-5.28s.46-3.954 1.38-5.26c.933-1.32 2.24-1.98 3.92-1.98 1.68 0 2.98.66 3.9 1.98.933 1.306 1.4 3.06 1.4 5.26 0 2.2-.467 3.96-1.4 5.28zm-6.78-.94c.693 1.026 1.653 1.54 2.88 1.54 1.227 0 2.18-.514 2.86-1.54.693-1.027 1.04-2.474 1.04-4.34 0-1.867-.347-3.314-1.04-4.34-.68-1.027-1.633-1.54-2.86-1.54-1.227 0-2.187.513-2.88 1.54-.68 1.026-1.02 2.473-1.02 4.34 0 1.866.34 3.313 1.02 4.34zm14.922-5.52c1.12.146 2.04.58 2.76 1.3.734.706 1.1 1.646 1.1 2.82 0 1.333-.46 2.386-1.38 3.16-.906.76-2.013 1.14-3.32 1.14-1.306 0-2.42-.38-3.34-1.14-.906-.774-1.36-1.827-1.36-3.16h1.4c0 .933.307 1.66.92 2.18.627.506 1.42.76 2.38.76s1.747-.254 2.36-.76c.627-.52.94-1.247.94-2.18 0-.934-.313-1.654-.94-2.16-.613-.52-1.4-.78-2.36-.78v-.02l-.02.02h-.98v-.92l3.48-4.76h-6.58v-1.32h8.2v1.32l-3.26 4.5zm15.391 8.18l-1.3-3.44h-6.64l-1.3 3.44h-1.48l5.38-14h1.44l5.38 14h-1.48zm-7.44-4.76h5.64l-2.82-7.5-2.82 7.5z" fill="#000"/></svg>