<svg width="299" height="300" fill="none" xmlns="http://www.w3.org/2000/svg"><g filter="url(#filter0_d)"><circle cx="149.5" cy="146" r="124.5" fill="#EB5757"/><circle cx="149.5" cy="146" r="124.5" fill="url(#paint0_radial)"/><path opacity=".25" d="M135.09 200.506v-11.36h1.488v4.848h6.224v-4.848h1.488v11.36h-1.488v-5.12h-6.224v5.12h-1.488zm12.203 0v-11.36h6.624v1.408h-5.136v3.44h4.176v1.408h-4.176v3.696h5.136v1.408h-6.624zm9.29 0h-1.824l4.384-5.744-4.208-5.616h1.776l3.344 4.432 3.344-4.432h1.776l-4.192 5.616 4.368 5.744h-1.808l-3.488-4.544-3.472 4.544zM111.099 86.531c-.736 0-1.381-.155-1.936-.464a2.751 2.751 0 01-1.2-1.392l1.12-.624c.15.395.411.704.784.928.374.224.79.336 1.248.336.395 0 .726-.096.992-.288a.915.915 0 00.4-.784.926.926 0 00-.32-.72c-.202-.192-.56-.368-1.072-.528l-.8-.256c-1.333-.384-2-1.163-2-2.336 0-.661.262-1.19.784-1.584.534-.405 1.19-.608 1.968-.608 1.216 0 2.096.464 2.64 1.392l-1.024.704c-.437-.608-.992-.912-1.664-.912-.362 0-.677.09-.944.272-.256.17-.384.4-.384.688 0 .267.08.496.24.688.171.181.47.336.896.464l.88.272c1.451.448 2.176 1.232 2.176 2.352 0 .747-.261 1.333-.784 1.76-.512.427-1.178.64-2 .64zm8.339 0c-1.205 0-2.208-.4-3.008-1.2-.789-.81-1.184-1.797-1.184-2.96s.395-2.144 1.184-2.944c.8-.81 1.803-1.216 3.008-1.216 1.195 0 2.187.405 2.976 1.216.8.8 1.2 1.781 1.2 2.944s-.4 2.15-1.2 2.96c-.789.8-1.781 1.2-2.976 1.2zm-2.016-2.112c.523.555 1.195.832 2.016.832.822 0 1.488-.277 2-.832.512-.555.768-1.237.768-2.048 0-.81-.256-1.493-.768-2.048-.512-.555-1.178-.832-2-.832-.821 0-1.493.277-2.016.832-.512.555-.768 1.237-.768 2.048 0 .81.256 1.493.768 2.048zm8.167 1.952v-12h1.376v12h-1.376zm5.377-10.416a.934.934 0 01-.688.272.986.986 0 01-.704-.272.958.958 0 01-.288-.704c0-.267.096-.496.288-.688a.957.957 0 01.704-.288c.277 0 .506.096.688.288a.969.969 0 01.272.688.989.989 0 01-.272.704zm-1.392 10.416v-8h1.376v8h-1.376zm7.28.16c-1.109 0-2.042-.405-2.8-1.216-.746-.81-1.12-1.792-1.12-2.944s.374-2.133 1.12-2.944c.758-.81 1.691-1.216 2.8-1.216a3.42 3.42 0 011.632.4c.512.256.907.587 1.184.992v-5.232h1.376v12h-1.376V85.14c-.277.405-.672.741-1.184 1.008a3.535 3.535 0 01-1.632.384zm.208-1.264c.79 0 1.44-.277 1.952-.832.512-.555.768-1.243.768-2.064s-.256-1.51-.768-2.064c-.512-.555-1.162-.832-1.952-.832-.8 0-1.456.277-1.968.832-.512.555-.768 1.243-.768 2.064s.256 1.51.768 2.064c.512.555 1.168.832 1.968.832zm5.886-2.912v-1.232h2.768v-2.752h1.248v2.752h2.752v1.232h-2.752v2.752h-1.248v-2.752h-2.768zm8.688 4.016v-12h1.376v12h-1.376zm5.377-10.416a.934.934 0 01-.688.272.986.986 0 01-.704-.272.958.958 0 01-.288-.704c0-.267.096-.496.288-.688a.957.957 0 01.704-.288c.277 0 .506.096.688.288a.969.969 0 01.272.688.989.989 0 01-.272.704zm-1.392 10.416v-8h1.376v8h-1.376zm3.984 0v-8h1.376v1.232c.544-.928 1.392-1.392 2.544-1.392.907 0 1.637.293 2.192.88.555.587.832 1.37.832 2.352v4.928h-1.36v-4.72c0-.672-.171-1.2-.512-1.584-.341-.395-.8-.592-1.376-.592-.661 0-1.216.261-1.664.784-.437.523-.656 1.237-.656 2.144v3.968h-1.376zm12.942.16c-1.227 0-2.224-.395-2.992-1.184-.768-.79-1.152-1.781-1.152-2.976 0-1.184.389-2.17 1.168-2.96.779-.8 1.776-1.2 2.992-1.2 1.077 0 1.979.363 2.704 1.088.736.715 1.104 1.69 1.104 2.928 0 .16-.005.299-.016.416h-6.56c.021.747.288 1.37.8 1.872.523.501 1.179.752 1.968.752 1.12 0 1.952-.464 2.496-1.392l1.088.752c-.779 1.27-1.979 1.904-3.6 1.904zm-2.656-5.008h5.072c-.107-.64-.389-1.147-.848-1.52-.448-.384-.981-.576-1.6-.576-.629 0-1.195.192-1.696.576-.491.373-.8.88-.928 1.52zm11.729 5.008c-1.11 0-2.043-.405-2.8-1.216-.747-.81-1.12-1.792-1.12-2.944s.373-2.133 1.12-2.944c.757-.81 1.69-1.216 2.8-1.216.586 0 1.13.133 1.632.4.512.256.906.587 1.184.992v-1.232h1.376v8h-1.376V85.14c-.278.405-.672.741-1.184 1.008a3.54 3.54 0 01-1.632.384zm.208-1.264c.789 0 1.44-.277 1.952-.832.512-.555.768-1.243.768-2.064s-.256-1.51-.768-2.064c-.512-.555-1.163-.832-1.952-.832-.8 0-1.456.277-1.968.832-.512.555-.768 1.243-.768 2.064s.256 1.51.768 2.064c.512.555 1.168.832 1.968.832zm6.574 1.104v-8h1.376v1.552c.149-.49.437-.885.864-1.184.437-.299.896-.448 1.376-.448.235 0 .443.021.624.064v1.424c-.192-.085-.443-.128-.752-.128-.555 0-1.045.24-1.472.72-.427.48-.64 1.157-.64 2.032v3.968h-1.376z" fill="#333"/><path d="M116.782 146.029l1.24-4h-3.62l-1.22 4h-1.6l1.24-4h-2.32v-1.46h2.78l1.08-3.42h-2.4v-1.46h2.86l1.2-3.86h1.58l-1.2 3.86h3.6l1.22-3.86h1.56l-1.2 3.86h2.32v1.46h-2.78l-1.06 3.42h2.4v1.46h-2.88l-1.22 4h-1.58zm-.84-8.88l-1.06 3.42h3.6l1.06-3.42h-3.6zm10.526 8.88v-14.2h8.28v1.76h-6.42v4.3h5.22v1.76h-5.22v4.62h6.42v1.76h-8.28zm11.133 0v-14.2h4.66c1.28 0 2.306.367 3.08 1.1.773.733 1.16 1.62 1.16 2.66 0 1.307-.507 2.273-1.52 2.9 1.64.6 2.46 1.733 2.46 3.4 0 1.2-.44 2.193-1.32 2.98-.867.773-2.014 1.16-3.44 1.16h-5.08zm1.86-1.68h3.3c.933 0 1.64-.213 2.12-.64.493-.44.74-1.027.74-1.76 0-.72-.247-1.3-.74-1.74-.48-.453-1.18-.68-2.1-.68h-3.32v4.82zm0-6.42h2.8c.746 0 1.333-.2 1.76-.6.44-.413.66-.947.66-1.6 0-.627-.22-1.153-.66-1.58-.44-.427-1.027-.64-1.76-.64h-2.8v4.42zm14.318 8.3c-1.28 0-2.387-.4-3.32-1.2-.933-.8-1.413-1.747-1.44-2.84h1.76a2.98 2.98 0 001.06 1.7c.547.44 1.193.66 1.94.66.867 0 1.593-.293 2.18-.88.587-.587.88-1.307.88-2.16 0-.867-.28-1.593-.84-2.18-.56-.587-1.273-.88-2.14-.88-1.187 0-2.08.48-2.68 1.44l-1.64-.48 1.46-7.58h6.64v1.68h-5.26l-.78 4.06c.693-.493 1.52-.74 2.48-.74 1.32 0 2.4.467 3.24 1.4.853.92 1.28 2.087 1.28 3.5 0 1.253-.46 2.32-1.38 3.2-.92.867-2.067 1.3-3.44 1.3zm8.754-.2h-1.92l6.62-12.52h-7.26v-1.68h9.32v1.44l-6.76 12.76zm12.301.2c-1.28 0-2.387-.4-3.32-1.2-.934-.8-1.414-1.747-1.44-2.84h1.76a2.98 2.98 0 001.06 1.7c.546.44 1.193.66 1.94.66.866 0 1.593-.293 2.18-.88.586-.587.88-1.307.88-2.16 0-.867-.28-1.593-.84-2.18-.56-.587-1.274-.88-2.14-.88-1.187 0-2.08.48-2.68 1.44l-1.64-.48 1.46-7.58h6.64v1.68h-5.26l-.78 4.06c.693-.493 1.52-.74 2.48-.74 1.32 0 2.4.467 3.24 1.4.853.92 1.28 2.087 1.28 3.5 0 1.253-.46 2.32-1.38 3.2-.92.867-2.067 1.3-3.44 1.3zm8.753-.2h-1.92l6.62-12.52h-7.26v-1.68h9.32v1.44l-6.76 12.76z" fill="#333"/><circle opacity=".4" cx="149.5" cy="146" r="104.959" stroke="#333"/></g><defs><radialGradient id="paint0_radial" cx="0" cy="0" r="1" gradientUnits="userSpaceOnUse" gradientTransform="rotate(-140.538 210.599 77.397) scale(305.387)"><stop stop-color="#FFEA00"/><stop offset="1" stop-color="#EB5757"/></radialGradient><filter id="filter0_d" x="0" y=".5" width="299" height="299" filterUnits="userSpaceOnUse" color-interpolation-filters="sRGB"><feFlood flood-opacity="0" result="BackgroundImageFix"/><feColorMatrix in="SourceAlpha" values="0 0 0 0 0 0 0 0 0 0 0 0 0 0 0 0 0 0 127 0" result="hardAlpha"/><feOffset dy="4"/><feGaussianBlur stdDeviation="12.5"/><feComposite in2="hardAlpha" operator="out"/><feColorMatrix values="0 0 0 0 0 0 0 0 0 0 0 0 0 0 0 0 0 0 0.18 0"/><feBlend in2="BackgroundImageFix" result="effect1_dropShadow"/><feBlend in="SourceGraphic" in2="effect1_dropShadow" result="shape"/></filter></defs></svg>