<svg width="220" height="220" fill="none" xmlns="http://www.w3.org/2000/svg"><g filter="url(#filter0_d)"><circle cx="110" cy="106" r="85" fill="#63CCAE"/><path opacity=".25" d="M95.59 148.924v-11.36h1.488v4.848h6.224v-4.848h1.488v11.36h-1.488v-5.12h-6.224v5.12H95.59zm12.203 0v-11.36h6.624v1.408h-5.136v3.44h4.176v1.408h-4.176v3.696h5.136v1.408h-6.624zm9.29 0h-1.824l4.384-5.744-4.208-5.616h1.776l3.344 4.432 3.344-4.432h1.776l-4.192 5.616 4.368 5.744h-1.808l-3.488-4.544-3.472 4.544zM97.735 71.16c-.736 0-1.38-.155-1.936-.464a2.746 2.746 0 01-1.2-1.392l1.12-.624c.15.395.411.704.784.928.374.224.79.336 1.248.336.395 0 .726-.096.992-.288a.915.915 0 00.4-.784.928.928 0 00-.32-.72c-.202-.192-.56-.368-1.072-.528l-.8-.256c-1.333-.384-2-1.163-2-2.336 0-.661.262-1.19.784-1.584.534-.405 1.19-.608 1.968-.608 1.216 0 2.096.464 2.64 1.392l-1.024.704c-.437-.608-.992-.912-1.664-.912-.362 0-.677.09-.944.272-.256.17-.384.4-.384.688 0 .267.08.496.24.688.171.181.47.336.896.464l.88.272c1.451.448 2.176 1.232 2.176 2.352 0 .747-.261 1.333-.784 1.76-.512.427-1.178.64-2 .64zm8.34 0c-1.206 0-2.208-.4-3.008-1.2-.79-.81-1.184-1.797-1.184-2.96s.394-2.144 1.184-2.944c.8-.81 1.802-1.216 3.008-1.216 1.194 0 2.186.405 2.976 1.216.8.8 1.2 1.781 1.2 2.944s-.4 2.15-1.2 2.96c-.79.8-1.782 1.2-2.976 1.2zm-2.016-2.112c.522.555 1.194.832 2.016.832.821 0 1.488-.277 2-.832.512-.555.768-1.237.768-2.048 0-.81-.256-1.493-.768-2.048-.512-.555-1.179-.832-2-.832-.822 0-1.494.277-2.016.832-.512.555-.768 1.237-.768 2.048 0 .81.256 1.493.768 2.048zM112.226 71V59h1.376v12h-1.376zm5.376-10.416a.933.933 0 01-.688.272.988.988 0 01-.704-.272.958.958 0 01-.288-.704c0-.267.096-.496.288-.688a.958.958 0 01.704-.288c.277 0 .507.096.688.288a.969.969 0 01.272.688.989.989 0 01-.272.704zM116.21 71v-8h1.376v8h-1.376zm7.28.16c-1.109 0-2.042-.405-2.8-1.216-.746-.81-1.12-1.792-1.12-2.944s.374-2.133 1.12-2.944c.758-.81 1.691-1.216 2.8-1.216a3.42 3.42 0 011.632.4c.512.256.907.587 1.184.992V59h1.376v12h-1.376v-1.232c-.277.405-.672.741-1.184 1.008a3.535 3.535 0 01-1.632.384zm.208-1.264c.79 0 1.44-.277 1.952-.832.512-.555.768-1.243.768-2.064s-.256-1.51-.768-2.064c-.512-.555-1.162-.832-1.952-.832-.8 0-1.456.277-1.968.832-.512.555-.768 1.243-.768 2.064s.256 1.51.768 2.064c.512.555 1.168.832 1.968.832z" fill="#333"/><path d="M70.436 113l1.24-4h-3.62l-1.22 4h-1.6l1.24-4h-2.32v-1.46h2.78l1.08-3.42h-2.4v-1.46h2.86l1.2-3.86h1.58l-1.2 3.86h3.6l1.22-3.86h1.56l-1.2 3.86h2.32v1.46h-2.78l-1.06 3.42h2.4V109h-2.88l-1.22 4h-1.58zm-.84-8.88l-1.06 3.42h3.6l1.06-3.42h-3.6zm17.606 7.72c-.906.907-2.046 1.36-3.42 1.36-1.373 0-2.52-.453-3.44-1.36-.92-.907-1.38-2.013-1.38-3.32 0-.693.133-1.313.4-1.86.28-.56.68-1.147 1.2-1.76l5.18-6.1h2.18l-4.34 5.14c.24-.027.427-.04.56-.04 1.187 0 2.22.453 3.1 1.36.893.907 1.34 1.98 1.34 3.22 0 1.32-.46 2.44-1.38 3.36zm-3.42-.3c.853 0 1.574-.3 2.16-.9.587-.6.88-1.32.88-2.16 0-.84-.293-1.56-.88-2.16-.586-.6-1.306-.9-2.16-.9-.867 0-1.593.3-2.18.9-.587.587-.88 1.307-.88 2.16 0 .853.294 1.58.88 2.18.587.587 1.313.88 2.18.88zm11.572 1.66c-1.413 0-2.613-.427-3.6-1.28-.973-.867-1.46-1.947-1.46-3.24h1.74c.053.84.393 1.527 1.02 2.06.627.52 1.393.78 2.3.78.827 0 1.513-.227 2.06-.68.547-.453.82-1.08.82-1.88 0-.853-.28-1.493-.84-1.92-.547-.427-1.3-.64-2.26-.64h-1.06v-1.58h1.14c.76 0 1.38-.213 1.86-.64.493-.427.747-.98.76-1.66 0-.667-.247-1.213-.74-1.64-.48-.427-1.087-.64-1.82-.64-.84 0-1.547.247-2.12.74-.573.493-.86 1.18-.86 2.06h-1.76c0-1.36.453-2.447 1.36-3.26.907-.813 2.033-1.22 3.38-1.22 1.24 0 2.267.36 3.08 1.08.827.707 1.24 1.647 1.24 2.82-.013.68-.2 1.293-.56 1.84a3.52 3.52 0 01-1.36 1.26 3.66 3.66 0 011.7 1.36c.413.6.62 1.3.62 2.1 0 1.24-.433 2.247-1.3 3.02-.867.773-1.98 1.16-3.34 1.16zm13.902.04c-2.04 0-3.774-.707-5.2-2.12-1.427-1.427-2.14-3.167-2.14-5.22s.713-3.787 2.14-5.2c1.426-1.427 3.16-2.14 5.2-2.14 1.346 0 2.566.307 3.66.92a7.093 7.093 0 012.62 2.52l-1.56.94a5.582 5.582 0 00-1.98-1.92c-.814-.467-1.727-.7-2.74-.7-1.547 0-2.847.54-3.9 1.62-1.04 1.08-1.56 2.4-1.56 3.96s.52 2.88 1.56 3.96c1.053 1.08 2.353 1.62 3.9 1.62 1.013 0 1.926-.233 2.74-.7a5.582 5.582 0 001.98-1.92l1.56.94a7.093 7.093 0 01-2.62 2.52c-1.094.613-2.314.92-3.66.92zm15.097 0c-2.04 0-3.773-.707-5.2-2.12-1.426-1.427-2.14-3.167-2.14-5.22s.714-3.787 2.14-5.2c1.427-1.427 3.16-2.14 5.2-2.14 1.347 0 2.567.307 3.66.92a7.078 7.078 0 012.62 2.52l-1.56.94a5.565 5.565 0 00-1.98-1.92c-.813-.467-1.726-.7-2.74-.7-1.546 0-2.846.54-3.9 1.62-1.04 1.08-1.56 2.4-1.56 3.96s.52 2.88 1.56 3.96c1.054 1.08 2.354 1.62 3.9 1.62 1.014 0 1.927-.233 2.74-.7a5.565 5.565 0 001.98-1.92l1.56.94a7.078 7.078 0 01-2.62 2.52c-1.093.613-2.313.92-3.66.92zm6.783-.24l6.28-14.2h1.54l6.3 14.2h-1.94l-1.84-4.14h-6.62l-1.8 4.14h-1.92zm7.02-11.68l-2.56 5.86h5.14l-2.58-5.86zm9.095 11.68V98.8h8.28v1.76h-6.42v4.3h5.22v1.76h-5.22v4.62h6.42V113h-8.28z" fill="#333"/><circle opacity=".4" cx="110" cy="106" r="71.5" stroke="#333"/></g><defs><filter id="filter0_d" x="0" y="0" width="220" height="220" filterUnits="userSpaceOnUse" color-interpolation-filters="sRGB"><feFlood flood-opacity="0" result="BackgroundImageFix"/><feColorMatrix in="SourceAlpha" values="0 0 0 0 0 0 0 0 0 0 0 0 0 0 0 0 0 0 127 0" result="hardAlpha"/><feOffset dy="4"/><feGaussianBlur stdDeviation="12.5"/><feComposite in2="hardAlpha" operator="out"/><feColorMatrix values="0 0 0 0 0 0 0 0 0 0 0 0 0 0 0 0 0 0 0.18 0"/><feBlend in2="BackgroundImageFix" result="effect1_dropShadow"/><feBlend in="SourceGraphic" in2="effect1_dropShadow" result="shape"/></filter></defs></svg>