<svg width="2221" height="95" fill="none" xmlns="http://www.w3.org/2000/svg"><path opacity=".15" d="M.988 93h65.998c55.269 0 66.871-24.079 66.871-45.163v-3.743C133.857 22.261 120.383.18 66.862.18H.988V93zM36.42 24.507h26.325c30.94 0 34.308 13.35 34.308 21.459v.748c0 8.11-3.368 21.708-34.308 21.708H36.42V24.507zm141.33-1.747h40.672c7.985 0 10.729 3.494 10.729 7.86v.125c0 4.491-2.869 7.985-10.729 7.985H177.75V22.76zm0 38.426h33.935c13.973 0 18.839 5.49 18.839 16.094v10.854c0 2.62.249 3.868 1.123 4.866h36.18v-.624c-.873-1.622-1.747-3.992-1.747-10.48V68.173c0-11.977-7.61-19.463-19.088-22.083 6.987-1.622 18.714-7.236 18.714-20.71v-1.372c0-15.096-11.977-23.83-39.05-23.83h-84.337V93h35.431V61.186zm96.859-16.718c0 17.966 7.61 50.03 61.631 50.03h4.99c52.524 0 61.133-32.064 61.133-50.03V.178H366.93v41.546c0 11.353-5.24 24.952-28.321 24.952-23.454 0-28.445-13.6-28.445-24.952V.179h-35.556v44.29zM448.712 93V51.455L494 93h46.161l-55.768-50.652L538.414.178h-44.04l-45.662 36.68V.178H413.28V93h35.432zm204.806 0l18.714-58.637L691.57 93h41.046L768.796.179h-36.305l-20.46 60.259L693.192.178h-39.923L634.68 61.437 613.595.179h-39.424L610.352 93h43.166zM808.489.179h-35.307V93h35.307V.179zM820.454 93h65.998c55.269 0 66.871-24.079 66.871-45.163v-3.743c0-21.833-13.474-43.915-66.995-43.915h-65.874V93zm35.432-68.493h26.324c30.941 0 34.309 13.35 34.309 21.459v.748c0 8.11-3.368 21.708-34.309 21.708h-26.324V24.507zM961.784.179V93h103.676V69.795h-68.744V57.069h66.374V34.488h-66.374V22.885h67.744V.18H961.784zm146.976 68.493h-35.18V93h35.18V68.672zM1156.48 93h65.99c55.27 0 66.88-24.079 66.88-45.163v-3.743c0-21.833-13.48-43.915-67-43.915h-65.87V93zm35.43-68.493h26.32c30.94 0 34.31 13.35 34.31 21.459v.748c0 8.11-3.37 21.708-34.31 21.708h-26.32V24.507zm141.33-1.747h40.67c7.98 0 10.73 3.494 10.73 7.86v.125c0 4.491-2.87 7.985-10.73 7.985h-40.67V22.76zm0 38.426h33.93c13.98 0 18.84 5.49 18.84 16.094v10.854c0 2.62.25 3.868 1.12 4.866h36.18v-.624c-.87-1.622-1.74-3.992-1.74-10.48V68.173c0-11.977-7.61-19.463-19.09-22.083 6.99-1.622 18.71-7.236 18.71-20.71v-1.372c0-15.096-11.97-23.83-39.05-23.83h-84.33V93h35.43V61.186zm96.86-16.718c0 17.966 7.61 50.03 61.63 50.03h4.99c52.52 0 61.13-32.064 61.13-50.03V.178h-35.43v41.546c0 11.353-5.24 24.952-28.32 24.952-23.46 0-28.45-13.6-28.45-24.952V.179h-35.55v44.29zM1604.2 93V51.455L1649.49 93h46.16l-55.77-50.652L1693.9.178h-44.04l-45.66 36.68V.178h-35.43V93h35.43zm204.81 0l18.71-58.637L1847.06 93h41.04L1924.28.179h-36.3l-20.46 60.259-18.84-60.26h-39.92l-18.59 61.258L1769.08.179h-39.42L1765.84 93h43.17zM1963.98.179h-35.31V93h35.31V.179zM1975.94 93h66c55.27 0 66.87-24.079 66.87-45.163v-3.743c0-21.833-13.47-43.915-66.99-43.915h-65.88V93zm35.43-68.493h26.33c30.94 0 34.31 13.35 34.31 21.459v.748c0 8.11-3.37 21.708-34.31 21.708h-26.33V24.507zM2117.27.179V93h103.68V69.795h-68.75V57.069h66.38V34.488h-66.38V22.885h67.75V.18h-102.68z" fill="#fff"/></svg>