<svg width="768" height="9" fill="none" xmlns="http://www.w3.org/2000/svg"><path d="M39.35.5h15.42l-12.073 8h-15.42l12.074-8zM12.074.5h15.419l-12.074 8H0l12.074-8zm54.769 0h15.42l-12.074 8h-15.42l12.074-8zm27.494 0h15.42l-12.074 8h-15.42l12.074-8zm27.492 0h15.42l-12.074 8h-15.419l12.073-8zm27.494 0h15.419l-12.074 8h-15.419l12.074-8zm27.493 0h15.419l-12.074 8h-15.419l12.074-8zm27.492 0h15.419l-12.073 8h-15.42l12.074-8zm27.493 0h15.419l-12.073 8h-15.419l12.073-8zm27.493 0h15.42l-12.074 8h-15.419l12.073-8zm27.492 0h15.42l-12.074 8h-15.419l12.073-8zm27.385 0h15.42l-12.074 8h-15.419l12.073-8zm27.705 0h15.42l-12.074 8h-15.419l12.073-8zm27.704 0H385l-12.074 8h-15.419l12.073-8zm52.771 0h15.419l-12.073 8h-15.42l12.074-8zm-27.277 0h15.419l-12.074 8H383l12.074-8zm54.769 0h15.419l-12.073 8H437.77l12.073-8zm27.494 0h15.42l-12.074 8h-15.419l12.073-8zm27.492 0h15.42l-12.074 8h-15.419l12.073-8zm27.494 0h15.419l-12.074 8h-15.419l12.074-8zm27.493 0h15.419l-12.074 8h-15.419l12.074-8zm27.492 0h15.419l-12.073 8h-15.42l12.074-8zm27.493 0h15.419l-12.073 8h-15.419l12.073-8zm27.493 0h15.42l-12.074 8h-15.419l12.073-8zm27.492 0h15.42l-12.074 8h-15.419l12.073-8zm27.385 0h15.42l-12.074 8h-15.419l12.073-8zm27.705 0h15.42l-12.074 8h-15.419l12.073-8zm27.704 0H768l-12.074 8h-15.419l12.073-8z" fill="#C29B59" fill-opacity=".2"/></svg>