<svg width="187" height="47" fill="none" xmlns="http://www.w3.org/2000/svg"><path d="M77.78 12.143c0-1.475.491-2.713 1.475-3.716 1.002-1.003 2.265-1.504 3.789-1.504 1.523 0 2.781.482 3.774 1.446 1.003.974 1.504 2.232 1.504 3.774 0 1.514-.501 2.763-1.504 3.746-1.002.983-2.26 1.475-3.774 1.475-1.524 0-2.782-.482-3.775-1.446-.993-.964-1.49-2.222-1.49-3.774zm1.88 0c0 1.022.323 1.87.969 2.546.645.675 1.45 1.012 2.415 1.012 1.04 0 1.865-.337 2.473-1.012.617-.675.925-1.524.925-2.546 0-1.031-.328-1.884-.983-2.56-.656-.664-1.46-.997-2.415-.997-.974 0-1.784.333-2.43.998-.636.665-.954 1.518-.954 2.56zm12.21 5.062h-1.779V7.082h1.78v4.801l3.99-4.801h2.14l-4.164 4.715 4.425 5.408h-2.256l-4.136-5.22v5.22zm15.819 0h-1.764v-4.324h-4.628v4.324h-1.779V7.082h1.779v4.136h4.628V7.082h1.764v10.123zm3.005 0h-1.793l4.281-10.152h1.561l4.281 10.152h-1.894l-1.056-2.588h-4.324l-1.056 2.588zm4.7-4.252l-1.475-3.6-1.489 3.6h2.964zM83.412 25.695h-6.018v-3.049h15.298v3.05h-6.018v15.51h-3.262v-15.51zm9.345 6.23c0-2.704.901-4.975 2.704-6.813 1.838-1.838 4.154-2.757 6.947-2.757 2.792 0 5.099.883 6.919 2.65 1.839 1.786 2.758 4.093 2.758 6.92 0 2.776-.919 5.064-2.758 6.867-1.838 1.803-4.144 2.705-6.919 2.705-2.793 0-5.1-.884-6.92-2.652-1.82-1.767-2.731-4.074-2.731-6.92zm3.447 0c0 1.874.592 3.43 1.776 4.667 1.184 1.237 2.66 1.856 4.428 1.856 1.909 0 3.42-.619 4.533-1.856 1.132-1.237 1.697-2.793 1.697-4.666 0-1.892-.601-3.456-1.803-4.693-1.202-1.22-2.678-1.83-4.427-1.83-1.786 0-3.27.61-4.454 1.83-1.167 1.22-1.75 2.784-1.75 4.693zm22.385 9.28h-3.261V22.646h3.261v8.802l7.318-8.802h3.924l-7.636 8.643 8.113 9.916h-4.136l-7.583-9.571v9.571zm14.768 0h-3.287l7.848-18.612h2.863l7.848 18.612h-3.473l-1.936-4.746h-7.927l-1.936 4.746zm8.617-7.795l-2.704-6.601-2.731 6.601h5.435zm9.275 7.795h-.371V22.646h.345c.778 0 1.6-.009 2.466-.026a870.17 870.17 0 012.651-.053c3.606 0 6.275.919 8.007 2.757 1.608 1.714 2.412 3.853 2.412 6.416 0 2.757-.928 5.037-2.783 6.84-1.839 1.785-4.455 2.678-7.848 2.678-.707 0-1.45-.009-2.227-.026-.76-.018-1.644-.027-2.652-.027zm5.038-15.59c-.689 0-1.405.027-2.148.08v12.461c.813.035 1.512.053 2.095.053 2.209 0 3.941-.583 5.196-1.75 1.255-1.166 1.883-2.74 1.883-4.719 0-1.891-.628-3.385-1.883-4.48-1.237-1.097-2.951-1.645-5.143-1.645zm14.614 15.59h-3.288l7.848-18.612h2.864l7.847 18.612h-3.473l-1.935-4.746h-7.928l-1.935 4.746zm8.617-7.795l-2.705-6.601-2.73 6.601h5.435z" fill="#000"/><path stroke="#000" stroke-width="1.205" d="M.603 4.218h40.974v40.974H.603z"/><path fill="#33C5F3" d="M25.309 0h20.487v20.487H25.309z"/></svg>