<svg width="295" height="295" fill="none" xmlns="http://www.w3.org/2000/svg"><path d="M245.833 221.25c0-6.658-2.432-12.42-7.298-17.285-4.865-4.866-10.627-7.298-17.285-7.298-6.658 0-12.42 2.432-17.285 7.298-4.866 4.865-7.298 10.627-7.298 17.285 0 6.658 2.432 12.42 7.298 17.285 4.865 4.866 10.627 7.298 17.285 7.298 6.658 0 12.42-2.432 17.285-7.298 4.866-4.865 7.298-10.627 7.298-17.285zm-147.5-147.5c0-6.658-2.432-12.42-7.298-17.285-4.865-4.866-10.627-7.298-17.285-7.298-6.658 0-12.42 2.432-17.285 7.298-4.866 4.865-7.298 10.627-7.298 17.285 0 6.658 2.432 12.42 7.298 17.285 4.865 4.866 10.627 7.298 17.285 7.298 6.658 0 12.42-2.432 17.285-7.298 4.866-4.865 7.298-10.627 7.298-17.285zM295 221.25c0 20.358-7.202 37.739-21.606 52.144C258.989 287.798 241.608 295 221.25 295c-20.358 0-37.739-7.202-52.144-21.606-14.404-14.405-21.606-31.786-21.606-52.144 0-20.358 7.202-37.739 21.606-52.144 14.405-14.404 31.786-21.606 52.144-21.606 20.358 0 37.739 7.202 52.144 21.606C287.798 183.511 295 200.892 295 221.25zM276.562 12.292c0 2.56-.832 4.993-2.496 7.298L71.253 290.007C68.82 293.336 65.556 295 61.458 295H30.73c-3.329 0-6.21-1.216-8.642-3.649-2.433-2.433-3.65-5.314-3.65-8.643 0-2.56.833-4.993 2.497-7.298L223.747 4.993C226.179 1.664 229.444 0 233.542 0h30.729c3.329 0 6.21 1.216 8.642 3.65 2.433 2.432 3.649 5.313 3.649 8.642zM147.5 73.75c0 20.358-7.202 37.739-21.606 52.144C111.489 140.298 94.108 147.5 73.75 147.5c-20.358 0-37.74-7.202-52.144-21.606C7.202 111.489 0 94.108 0 73.75c0-20.358 7.202-37.74 21.606-52.144C36.011 7.202 53.392 0 73.75 0c20.358 0 37.739 7.202 52.144 21.606C140.298 36.011 147.5 53.392 147.5 73.75z" fill="#FBFAFE"/></svg>