<svg width="464" height="352" fill="none" xmlns="http://www.w3.org/2000/svg"><g opacity=".08"><path d="M246.271 304.22c-24.599 31.628-59.421 47.441-104.466 47.441-45.045 0-79.867-15.813-104.466-47.441C12.74 271.954.44 229.305.44 176.274c0-53.032 12.3-95.521 36.899-127.468C61.619 16.859 96.441.886 141.805.886s80.186 15.973 104.466 47.92c24.599 31.947 36.898 74.436 36.898 127.468 0 53.031-12.299 95.68-36.898 127.946zM141.805 93.85c-30.349 0-45.524 27.475-45.524 82.424 0 54.948 15.175 82.422 45.524 82.422s45.524-27.474 45.524-82.422c0-54.949-15.175-82.423-45.524-82.423zm146.213-51.274L382.42 8.553h81.465v335.441h-95.841V108.706l-57.983 13.897-22.043-80.027z" fill="#F3F3F3"/><path d="M246.271 304.22c-24.599 31.628-59.421 47.441-104.466 47.441-45.045 0-79.867-15.813-104.466-47.441C12.74 271.954.44 229.305.44 176.274c0-53.032 12.3-95.521 36.899-127.468C61.619 16.859 96.441.886 141.805.886s80.186 15.973 104.466 47.92c24.599 31.947 36.898 74.436 36.898 127.468 0 53.031-12.299 95.68-36.898 127.946zM141.805 93.85c-30.349 0-45.524 27.475-45.524 82.424 0 54.948 15.175 82.422 45.524 82.422s45.524-27.474 45.524-82.422c0-54.949-15.175-82.423-45.524-82.423zm146.213-51.274L382.42 8.553h81.465v335.441h-95.841V108.706l-57.983 13.897-22.043-80.027z" fill="#C29B59"/></g></svg>