<svg width="675" height="443" fill="none" xmlns="http://www.w3.org/2000/svg"><path d="M696.694-4.994a191.142 191.142 0 011.208 165.861l-64.846 137.204a191.139 191.139 0 01-128.922 104.357l-147.702 34.846a191.14 191.14 0 01-161.971-35.729L75.127 307.793A191.14 191.14 0 012.074 158.882L.864-7.252A191.14 191.14 0 0154.106-141.01l49.621-51.692a191.083 191.083 0 0138.362-30.817l53.585-32.683a191.142 191.142 0 01140.703-23.471l163.048 35.967a191.141 191.141 0 01130.429 102.468l66.84 136.244z" stroke="#FCF4EC" stroke-opacity=".15"/></svg>