<svg width="150" height="150" fill="none" xmlns="http://www.w3.org/2000/svg"><path d="M145.312 75H4.687M75 4.687v140.625V4.687z" stroke="url(#paint0_linear)" stroke-opacity=".2" stroke-width="5.325" stroke-miterlimit="10" stroke-linecap="round" stroke-linejoin="round"/><path d="M75 131.25c31.066 0 56.25-25.184 56.25-56.25S106.066 18.75 75 18.75 18.75 43.934 18.75 75 43.934 131.25 75 131.25z" stroke="url(#paint1_linear)" stroke-opacity=".2" stroke-width="5.325" stroke-miterlimit="10" stroke-linecap="round" stroke-linejoin="round"/><path d="M75 100.781c14.239 0 25.781-11.542 25.781-25.781 0-14.239-11.542-25.781-25.781-25.781-14.239 0-25.781 11.542-25.781 25.781 0 14.239 11.542 25.781 25.781 25.781z" stroke="url(#paint2_linear)" stroke-opacity=".2" stroke-width="5.325" stroke-miterlimit="10" stroke-linecap="round" stroke-linejoin="round"/><defs><linearGradient id="paint0_linear" x1="145.312" y1="4.687" x2="-.287" y2="10.042" gradientUnits="userSpaceOnUse"><stop stop-color="#33C5F3"/><stop offset=".854" stop-color="#C7B8F5"/></linearGradient><linearGradient id="paint1_linear" x1="131.25" y1="18.75" x2="14.771" y2="23.033" gradientUnits="userSpaceOnUse"><stop stop-color="#33C5F3"/><stop offset=".854" stop-color="#C7B8F5"/></linearGradient><linearGradient id="paint2_linear" x1="100.781" y1="49.219" x2="47.395" y2="51.182" gradientUnits="userSpaceOnUse"><stop stop-color="#33C5F3"/><stop offset=".854" stop-color="#C7B8F5"/></linearGradient></defs></svg>