<svg width="80" height="80" fill="none" xmlns="http://www.w3.org/2000/svg"><path d="M34.921 8.456c2.302-3.832 7.856-3.832 10.158 0a5.924 5.924 0 007.702 2.262c4.008-1.98 8.681 1.023 8.546 5.491a5.924 5.924 0 005.256 6.067c4.442.502 6.75 5.555 4.22 9.24a5.925 5.925 0 001.142 7.946c3.466 2.823 2.676 8.321-1.445 10.054a5.925 5.925 0 00-3.335 7.302c1.39 4.25-2.248 8.447-6.652 7.677a5.925 5.925 0 00-6.753 4.34c-1.129 4.326-6.458 5.89-9.746 2.862a5.925 5.925 0 00-8.028 0c-3.288 3.028-8.617 1.463-9.746-2.862a5.925 5.925 0 00-6.753-4.34c-4.404.77-8.041-3.428-6.652-7.677A5.925 5.925 0 009.5 49.516c-4.12-1.733-4.911-7.23-1.445-10.054a5.925 5.925 0 001.142-7.946c-2.53-3.685-.222-8.738 4.22-9.24a5.924 5.924 0 005.257-6.067c-.136-4.468 4.537-7.47 8.545-5.491a5.924 5.924 0 007.702-2.262z" fill="#E5F1FC"/><path d="M50.667 32L36.001 46.667 29.334 40" stroke="#33C5F4" stroke-width="4" stroke-linecap="round" stroke-linejoin="round"/></svg>