<svg width="16" height="16" fill="none" xmlns="http://www.w3.org/2000/svg"><path d="M12.773 10.652l-1.06-1.062 1.06-1.06a3.747 3.747 0 00.012-5.315 3.75 3.75 0 00-5.315.011L6.41 4.287l-1.062-1.06 1.062-1.06a5.25 5.25 0 117.425 7.424l-1.061 1.061h-.001zm-2.121 2.121l-1.061 1.06a5.25 5.25 0 01-7.425-7.425l1.061-1.06 1.06 1.062-1.06 1.06a3.75 3.75 0 105.303 5.304l1.06-1.06 1.062 1.06v-.001zm-.531-7.955l1.061 1.061-5.303 5.303-1.061-1.061 5.303-5.303z" fill="#444"/><path d="M12.773 10.652l-1.06-1.062 1.06-1.06a3.747 3.747 0 00.012-5.315 3.75 3.75 0 00-5.315.011L6.41 4.287l-1.062-1.06 1.062-1.06a5.25 5.25 0 117.425 7.424l-1.061 1.061h-.001zm-2.121 2.121l-1.061 1.06a5.25 5.25 0 01-7.425-7.425l1.061-1.06 1.06 1.062-1.06 1.06a3.75 3.75 0 105.303 5.304l1.06-1.06 1.062 1.06v-.001zm-.531-7.955l1.061 1.061-5.303 5.303-1.061-1.061 5.303-5.303z" fill="#486D92" fill-opacity=".2"/></svg>