<svg width="72" height="73" viewBox="0 0 72 73" fill="none" xmlns="http://www.w3.org/2000/svg">
<circle cx="36" cy="36.0024" r="34.75" stroke="#D6AD68" stroke-width="2.5"/>
<path d="M31.1121 24.6936L32.3214 25.0099V25.0099L31.1121 24.6936ZM28.648 26.1162L28.3172 27.3217L28.648 26.1162ZM23.7601 34.5822L22.8816 35.4714L22.8816 35.4714L23.7601 34.5822ZM23.7601 37.4275L22.8816 36.5384H22.8816L23.7601 37.4275ZM28.648 45.8935L28.3172 44.6881H28.3172L28.648 45.8935ZM31.1121 47.3162L32.3214 46.9999L31.1121 47.3162ZM40.8878 47.3162L42.0971 47.6325L40.8878 47.3162ZM43.3519 45.8935L43.6826 44.6881L43.3519 45.8935ZM48.2397 37.4275L47.3612 38.3167V38.3167L48.2397 37.4275ZM48.2397 34.5822L49.1183 35.4714L49.1183 35.4714L48.2397 34.5822ZM43.3519 26.1162L43.6826 27.3217L43.3519 26.1162ZM40.8878 24.6936L42.0971 24.3773V24.3773L40.8878 24.6936ZM48.1848 25.8909L47.2233 26.6897L48.1848 25.8909ZM46.2491 25.3213L45.9184 24.1159L46.2491 25.3213ZM50.3797 32.4677L51.2583 33.3569L50.3797 32.4677ZM50.854 30.5078L52.0263 30.074L50.854 30.5078ZM50.8524 41.5011L49.6802 41.067L50.8524 41.5011ZM50.3783 39.5407L49.4997 40.4298L50.3783 39.5407ZM46.2456 46.6875L46.5763 45.4821L46.2456 46.6875ZM48.1808 46.1184L47.2196 45.3193L48.1808 46.1184ZM38.6653 51.6122L38.4564 50.3798L38.6653 51.6122ZM40.1281 50.221L38.9187 49.9047L40.1281 50.221ZM23.8192 46.1184L24.7804 45.3192L23.8192 46.1184ZM21.6217 39.5405L22.5003 40.4297L21.6217 39.5405ZM25.7509 25.3213L25.4202 26.5268L25.7509 25.3213ZM23.8152 25.891L22.8537 25.0922L23.8152 25.891ZM31.8718 50.2209L30.6625 50.5372L31.8718 50.2209ZM33.3345 51.6122L33.1256 52.8446L33.3345 51.6122ZM33.3361 20.3921L33.1273 19.1596L33.3361 20.3921ZM40.1266 21.7834L41.336 21.4671L40.1266 21.7834ZM36 21.4189C36.8375 21.4189 37.6576 21.4894 38.4549 21.6245L38.8725 19.1596C37.9378 19.0013 36.978 18.9189 36 18.9189V21.4189ZM33.5449 21.6245C34.3423 21.4894 35.1624 21.4189 36 21.4189V18.9189C35.0219 18.9189 34.0621 19.0013 33.1273 19.1596L33.5449 21.6245ZM30.6639 21.4671L29.9028 24.3773L32.3214 25.0099L33.0825 22.0997L30.6639 21.4671ZM29.9028 24.3773C29.7971 24.7814 29.3816 25.0213 28.9787 24.9108L28.3172 27.3217C30.0629 27.8007 31.8634 26.7611 32.3214 25.0099L29.9028 24.3773ZM28.9787 24.9108L26.0817 24.1159L25.4202 26.5268L28.3172 27.3217L28.9787 24.9108ZM22.3183 30.9417C22.8954 29.382 23.7322 27.9471 24.7767 26.6897L22.8537 25.0922C21.6313 26.5638 20.6506 28.2447 19.9737 30.0741L22.3183 30.9417ZM20.7417 33.357L22.8816 35.4714L24.6387 33.6931L22.4988 31.5787L20.7417 33.357ZM22.8816 35.4714C23.1787 35.765 23.1787 36.2448 22.8816 36.5384L24.6387 38.3167C25.9263 37.0444 25.9263 34.9653 24.6387 33.6931L22.8816 35.4714ZM22.8816 36.5384L20.7431 38.6514L22.5003 40.4297L24.6387 38.3167L22.8816 36.5384ZM24.7804 45.3192C23.735 44.0618 22.8975 42.6268 22.3198 41.0668L19.9754 41.9351C20.653 43.7648 21.6346 45.446 22.858 46.9175L24.7804 45.3192ZM26.0852 47.8929L28.9787 47.099L28.3172 44.6881L25.4237 45.482L26.0852 47.8929ZM28.9787 47.099C29.3816 46.9885 29.7971 47.2283 29.9028 47.6325L32.3214 46.9999C31.8634 45.2487 30.0629 44.2091 28.3172 44.6881L28.9787 47.099ZM29.9028 47.6325L30.6625 50.5372L33.0811 49.9046L32.3214 46.9999L29.9028 47.6325ZM36 50.5856C35.1619 50.5856 34.3413 50.515 33.5434 50.3798L33.1256 52.8446C34.0609 53.0032 35.0213 53.0856 36 53.0856V50.5856ZM38.4564 50.3798C37.6586 50.5151 36.8381 50.5856 36 50.5856V53.0856C36.9786 53.0856 37.939 53.0032 38.8742 52.8447L38.4564 50.3798ZM41.3374 50.5372L42.0971 47.6325L39.6784 46.9999L38.9187 49.9047L41.3374 50.5372ZM42.0971 47.6325C42.2028 47.2283 42.6183 46.9885 43.0211 47.099L43.6826 44.6881C41.937 44.2091 40.1365 45.2487 39.6784 46.9999L42.0971 47.6325ZM43.0211 47.099L45.9148 47.893L46.5763 45.4821L43.6826 44.6881L43.0211 47.099ZM49.6802 41.067C49.1025 42.6269 48.265 44.0619 47.2196 45.3193L49.142 46.9176C50.3654 45.4461 51.3469 43.7649 52.0246 41.9353L49.6802 41.067ZM51.2569 38.6515L49.1183 36.5384L47.3612 38.3167L49.4997 40.4298L51.2569 38.6515ZM49.1183 36.5384C48.8212 36.2448 48.8212 35.765 49.1183 35.4714L47.3612 33.6931C46.0735 34.9654 46.0736 37.0444 47.3612 38.3167L49.1183 36.5384ZM49.1183 35.4714L51.2583 33.3569L49.5012 31.5785L47.3612 33.6931L49.1183 35.4714ZM47.2233 26.6897C48.2678 27.9471 49.1046 29.3819 49.6817 30.9416L52.0263 30.074C51.3494 28.2446 50.3687 26.5637 49.1463 25.0922L47.2233 26.6897ZM45.9184 24.1159L43.0211 24.9108L43.6826 27.3217L46.5799 26.5268L45.9184 24.1159ZM43.0211 24.9108C42.6183 25.0213 42.2028 24.7814 42.0971 24.3773L39.6785 25.0099C40.1365 26.7611 41.937 27.8006 43.6826 27.3217L43.0211 24.9108ZM42.0971 24.3773L41.336 21.4671L38.9173 22.0996L39.6785 25.0099L42.0971 24.3773ZM36 43.0856C39.912 43.0856 43.0833 39.9143 43.0833 36.0023H40.5833C40.5833 38.5336 38.5313 40.5856 36 40.5856V43.0856ZM28.9167 36.0023C28.9167 39.9143 32.088 43.0856 36 43.0856V40.5856C33.4687 40.5856 31.4167 38.5336 31.4167 36.0023H28.9167ZM36 28.9189C32.088 28.9189 28.9167 32.0902 28.9167 36.0023H31.4167C31.4167 33.471 33.4687 31.4189 36 31.4189V28.9189ZM43.0833 36.0023C43.0833 32.0902 39.912 28.9189 36 28.9189V31.4189C38.5313 31.4189 40.5833 33.471 40.5833 36.0023H43.0833ZM49.1463 25.0922C48.3319 24.1119 47.0445 23.8069 45.9184 24.1159L46.5799 26.5268C46.8645 26.4486 47.1028 26.5447 47.2233 26.6897L49.1463 25.0922ZM51.2583 33.3569C52.0883 32.5367 52.4687 31.2696 52.0263 30.074L49.6817 30.9416C49.7467 31.1172 49.7112 31.371 49.5012 31.5785L51.2583 33.3569ZM52.0246 41.9353C52.4675 40.7394 52.0871 39.4719 51.2569 38.6515L49.4997 40.4298C49.7098 40.6374 49.7453 40.8913 49.6802 41.067L52.0246 41.9353ZM45.9148 47.893C47.0406 48.2018 48.3275 47.8972 49.142 46.9176L47.2196 45.3193C47.0991 45.4642 46.8609 45.5601 46.5763 45.4821L45.9148 47.893ZM38.8742 52.8447C40.1326 52.6313 41.0417 51.6677 41.3374 50.5372L38.9187 49.9047C38.8439 50.1907 38.6415 50.3484 38.4564 50.3798L38.8742 52.8447ZM22.858 46.9175C23.6725 47.8971 24.9594 48.2018 26.0852 47.8929L25.4237 45.482C25.1391 45.5601 24.9009 45.4642 24.7804 45.3192L22.858 46.9175ZM20.7431 38.6514C19.9129 39.4717 19.5325 40.7393 19.9754 41.9351L22.3198 41.0668C22.2547 40.8911 22.2902 40.6373 22.5003 40.4297L20.7431 38.6514ZM26.0817 24.1159C24.9555 23.8069 23.6681 24.1119 22.8537 25.0922L24.7767 26.6897C24.8972 26.5447 25.1355 26.4487 25.4202 26.5268L26.0817 24.1159ZM30.6625 50.5372C30.9581 51.6676 31.8672 52.6313 33.1256 52.8446L33.5434 50.3798C33.3584 50.3484 33.1559 50.1907 33.0811 49.9046L30.6625 50.5372ZM33.1273 19.1596C31.8688 19.3729 30.9596 20.3366 30.6639 21.4671L33.0825 22.0997C33.1574 21.8136 33.3598 21.6559 33.5449 21.6245L33.1273 19.1596ZM19.9737 30.0741C19.5313 31.2697 19.9117 32.5369 20.7417 33.357L22.4988 31.5787C22.2888 31.3711 22.2533 31.1174 22.3183 30.9417L19.9737 30.0741ZM38.4549 21.6245C38.64 21.6558 38.8425 21.8136 38.9173 22.0996L41.336 21.4671C41.0403 20.3366 40.131 19.3728 38.8725 19.1596L38.4549 21.6245Z" fill="#0E0F0F"/>
</svg>
