<svg xmlns="http://www.w3.org/2000/svg" xmlns:xlink="http://www.w3.org/1999/xlink"><symbol id="icon-contrast" viewBox="-35.422 -7.96 31.92 31.92">
    <path d="M-19.462-3.96c6.595 0 11.96 5.365 11.96 11.96s-5.365 11.96-11.96 11.96-11.96-5.365-11.96-11.96 5.365-11.96 11.96-11.96m0-4c-8.814 0-15.96 7.145-15.96 15.96 0 8.813 7.146 15.96 15.96 15.96S-3.502 16.813-3.502 8c0-8.815-7.146-15.96-15.96-15.96z"/>
    <path d="M-19.462 16.331a8.519 8.519 0 0 0 8.52-8.52 8.518 8.518 0 0 0-8.52-8.519"/>
</symbol><symbol id="icon-copy" viewBox="0 0 48 48">
    <path fill="none" d="M0 0h48v48H0V0z"/>
    <path d="M34 30h4V14c0-2.21-1.79-4-4-4H18v4h16v16zm-20 4V2h-4v8H2v4h8v20c0 2.21 1.79 4 4 4h20v8h4v-8h8v-4H14z"/>
</symbol><symbol id="icon-cross" viewBox="0 0 23.867 23.867">
    <path fill="#FFF" d="M15.087 11.933l8.56-8.559a.75.75 0 0 0 0-1.061L21.554.22a.747.747 0 0 0-1.06 0l-8.561 8.56L3.373.22a.771.771 0 0 0-1.061 0L.22 2.313a.75.75 0 0 0 0 1.061l8.56 8.559-8.56 8.559a.751.751 0 0 0 0 1.062l2.093 2.094a.744.744 0 0 0 1.06 0l8.561-8.56 8.56 8.56a.746.746 0 0 0 1.06 0l2.093-2.094a.751.751 0 0 0 0-1.062l-8.56-8.559z"/>
</symbol><symbol id="icon-editor-fill" viewBox="0 0 48 48">
  <path fill="none" d="M0,0h48v48H0V0z"/>
  <path d="M33.12,17.88L15.24,0l-2.83,2.83l4.76,4.76L6.88,17.88c-1.17,1.17-1.17,3.07,0,4.24l11,11C18.46,33.71,19.23,34,20,34 s1.54-0.29,2.12-0.88l11-11C34.29,20.95,34.29,19.05,33.12,17.88z M10.41,20L20,10.42L29.59,20H10.41z M38,23c0,0-4,4.33-4,7 c0,2.21,1.79,4,4,4s4-1.79,4-4C42,27.33,38,23,38,23z"/>
  <rect y="40" width="48" height="3"/>
</symbol><symbol id="icon-facebook" viewBox="0 0 8.673 18.944">
  <path fill="#d22856" d="M6.275,3.357c0.799,0,1.599,0,2.398,0c0-1.119,0-2.238,0-3.357c-0.959,0-1.92,0-2.878,0C2.656,0.181,1.54,2.387,1.948,6.115 H0v3.517h1.958c0,3.104,0,6.208,0,9.312c1.279,0,2.558,0,3.837,0c0-3.104,0-6.208,0-9.312h2.857V6.115H5.786 C5.765,5.07,5.75,3.709,6.275,3.357z"/>
</symbol><symbol id="icon-heart-svg" viewBox="521.939 473.064 12.545 11.99">
  <g>
    <path fill="#d22856" d="M528.174,485.055c-0.212,0-0.412-0.091-0.552-0.249c-3.798-4.324-4.644-5.298-4.858-5.572l-0.004,0.0 c-0.529-0.675-0.821-1.518-0.821-2.373c0-2.095,1.704-3.799,3.799-3.799c0.934,0,1.804,0.32,2.484,0.898 c0.696-0.578,1.56-0.898,2.463-0.898c2.095,0,3.799,1.704,3.799,3.799c0,0.909-0.318,1.754-0.896,2.381l-4.86,5.561 C528.587,484.964,528.386,485.055,528.174,485.055L528.174,485.055z M523.929,478.349c0.208,0.255,2.471,2.839,4.243,4.858 l4.323-4.944c0.34-0.369,0.52-0.86,0.52-1.399c0-1.285-1.045-2.331-2.33-2.331c-0.729,0-1.421,0.344-1.9,0.943 c-0.142,0.178-0.353,0.267-0.585,0.275c-0.227-0.003-0.439-0.111-0.575-0.294c-0.441-0.587-1.129-0.925-1.887-0.925 c-1.285,0-2.33,1.046-2.33,2.331c0,0.678,0.275,1.171,0.507,1.467C523.919,478.336,523.925,478.342,523.929,478.349z"/>
  </g>
</symbol><symbol id="icon-htmlacademy" viewBox="0 0 26.943 34.09">
    <path d="M13.62.017L13.472 0 0 1.412v24.661l13.472 8.017 13.43-7.99.042-.026V1.412L13.62.017zm11.399 12.11L13.495 5.334l-.001-.104-.087.05-.088-.056v.109L1.925 12.118V3.147l11.547-1.212 11.547 1.212v8.98zm-11.614-5.34L24.923 13.5l-4.479 2.64-7.093-4.221-.013 1.415 5.904 3.513-.86.507-5.031-2.992-.013 1.415 3.827 2.275-.782.523-3.032-1.787-.013 1.413 1.852 1.091-1.8 1.081-11.356-6.751 11.371-6.835zm-11.48 8.34l11.411 6.791.015 1.044-7.941-4.728-.015 1.416 7.979 4.796.017 1.076-7.972-4.741-.013 1.415 8.021 4.821.045.026 8.143-4.872v-1.268l-.011-.148v-3.761l3.415-2.036v10.02L13.472 31.85 1.925 24.979v-9.852z"/>
</symbol><symbol id="icon-left-arrow-svg"><path d="M2.045 20.859L21.458 1.446A.847.847 0 0020.261.248L.248 20.261a.846.846 0 000 1.197l20.013 20.013a.843.843 0 001.198 0 .847.847 0 000-1.198L2.045 20.859z"/></symbol><symbol id="icon-mail" viewBox="0 0 17.988 13.966">
  <g>
    <g>
      <g>
        <path fill="#d22856" d="M14.914,1.814C16.111,0.816,15.816,0,14.257,0H3.731c-1.56,0-1.854,0.816-0.657,1.814l3.742,3.118 c1.197,0.998,3.158,0.998,4.355,0L14.914,1.814z"/>
      </g>
      <g>
        <path fill="#d22856" d="M11.913,7.044C10.715,8.042,9.718,8.869,9.695,8.88c0,0,0,0-0.02,0.013 C9.601,8.949,9.523,8.995,9.44,9.029C9.407,9.044,9.374,9.063,9.34,9.077c-0.11,0.034-0.223,0.058-0.335,0.059 c-0.003,0-0.007,0.001-0.01,0.001c0,0,0,0-0.001,0s-0.001,0-0.001,0c-0.003,0-0.007-0.001-0.01-0.001 C8.87,9.134,8.759,9.111,8.648,9.077C8.614,9.063,8.58,9.044,8.548,9.029c-0.083-0.034-0.16-0.08-0.235-0.136C8.293,8.88,8.293,8.88,8.293,8.88c-0.022-0.012-1.02-0.838-2.218-1.836L2.178,3.796C0.979,2.798,0,3.257,0,4.816v6.315 c0,1.56,1.275,2.835,2.835,2.835h12.318c1.56,0,2.835-1.275,2.835-2.835V4.816c0-1.559-0.979-2.018-2.178-1.02L11.913,7.044z"/>
      </g>
    </g>
  </g>
</symbol><symbol id="icon-map-marker" viewBox="0 0 35.983 35.983">
  <circle fill="#FFFFFF" cx="17.991" cy="17.991" r="17.991"/>
  <circle fill="#D22856" cx="17.991" cy="17.991" r="7.866"/>
</symbol><symbol id="icon-menu-burger" viewBox="0 0 49.945 24.007">
  <g id="miu">
    <g id="editor_list_view_hambuger_menu_glyph">
      <g>
        <path id="path-1" fill="#FFFFFF" d="M1.137,0C0.51,0,0,0.428,0,1.01v1.981c0,0.558,0.494,1.01,1.139,1.01h47.671 c0.628,0,1.138-0.428,1.138-1.01V1.01c0-0.558-0.494-1.01-1.138-1.01H1.137z M1.137,10.003C0.51,10.003,0,10.431,0,11.013v1.98 c0,0.557,0.494,1.01,1.139,1.01h47.671c0.628,0,1.138-0.428,1.138-1.01v-1.98c0-0.558-0.494-1.01-1.138-1.01H1.137z M1.137,20.005C0.51,20.005,0,20.434,0,21.016v1.981c0,0.557,0.494,1.01,1.139,1.01h47.671c0.628,0,1.138-0.428,1.138-1.01 v-1.981c0-0.558-0.494-1.011-1.138-1.011H1.137z"/>
      </g>
      <g>
        <path id="path-1_1_" fill="#FFFFFF" d="M1.137,0C0.51,0,0,0.428,0,1.01v1.981c0,0.558,0.494,1.01,1.139,1.01h47.671 c0.628,0,1.138-0.428,1.138-1.01V1.01c0-0.558-0.494-1.01-1.138-1.01H1.137z M1.137,10.003C0.51,10.003,0,10.431,0,11.013v1.98 c0,0.557,0.494,1.01,1.139,1.01h47.671c0.628,0,1.138-0.428,1.138-1.01v-1.98c0-0.558-0.494-1.01-1.138-1.01H1.137z M1.137,20.005C0.51,20.005,0,20.434,0,21.016v1.981c0,0.557,0.494,1.01,1.139,1.01h47.671c0.628,0,1.138-0.428,1.138-1.01 v-1.981c0-0.558-0.494-1.011-1.138-1.011H1.137z"/>
      </g>
    </g>
  </g>
</symbol><symbol id="icon-menu-cross" viewBox="0 0 23.867 23.867">
  <path fill="#FFFFFF" d="M15.087,11.933l8.56-8.559c0.293-0.293,0.293-0.768,0-1.061L21.554,0.22C21.414,0.079,21.223,0,21.023,0 c-0.199,0-0.391,0.079-0.529,0.22l-8.561,8.56l-8.56-8.56c-0.282-0.282-0.78-0.282-1.061,0L0.22,2.313 c-0.293,0.293-0.293,0.768,0,1.061l8.56,8.559l-8.56,8.559c-0.293,0.293-0.293,0.768,0,1.062l2.093,2.094 c0.141,0.142,0.331,0.22,0.53,0.22c0.199,0,0.39-0.078,0.53-0.22l8.561-8.56l8.56,8.56c0.141,0.142,0.332,0.22,0.53,0.22 c0.199,0,0.39-0.078,0.53-0.22l2.093-2.094c0.293-0.294,0.293-0.769,0-1.062L15.087,11.933z"/>
</symbol><symbol id="icon-quotes" viewBox="0 0 78.672 63.789">
  <g>
    <path fill="#efefef" d="M34.967,7.063L30.713,0C28.272,1.495,0,12.207,0,39.617c0,7.231,0.336,24.172,18.9,24.172 c11.187,0,13.94-10.279,13.94-13.584c0-21.977-21.382-14.177-21.382-14.177C11.458,17.957,31.263,9.184,34.967,7.063z"/>
  </g>
  <g>
    <path fill="#efefef" d="M78.672,7.063L74.418,0c-2.44,1.495-30.713,12.207-30.713,39.617c0,7.231,0.337,24.172,18.9,24.172 c11.187,0,13.939-10.279,13.939-13.584c0-21.977-21.381-14.177-21.381-14.177C55.165,17.957,74.969,9.184,78.672,7.063z"/>
  </g>
</symbol><symbol id="icon-right-arrow-svg"><path d="M2.045 20.859L21.458 1.446A.847.847 0 0020.261.248L.248 20.261a.846.846 0 000 1.197l20.013 20.013a.843.843 0 001.198 0 .847.847 0 000-1.198L2.045 20.859z"/></symbol><symbol id="icon-timer" viewBox="0 0 298 345.097">
  <path fill="#dedede" d="M264.568,102.055l5.355-5.355c7.717-7.717,9.124-18.938,3.126-24.935c-5.997-5.997-17.217-4.59-24.934,3.127l-5.386,5.385 C221.768,63.292,196.11,51.875,168,48.297v-9.583h7.658c10.914,0,19.843-8.711,19.843-19.357S186.573,0,175.659,0h-53.317  c-10.913,0-19.842,8.711-19.842,19.357s8.929,19.357,19.842,19.357H130v9.583C56.681,57.629,0,120.244,0,196.097  c0,82.291,66.709,149,149,149c82.29,0,149-66.709,149-149C298,160.434,285.465,127.703,264.568,102.055z M149,306.264 c-60.844,0-110.167-49.323-110.167-110.167S88.156,85.93,149,85.93c60.843,0,110.167,49.323,110.167,110.167  S209.843,306.264,149,306.264z"/>
</symbol><symbol id="icon-twitter" viewBox="0 0 17.5 14.663">
  <g id="W6EeEF_1_">
    <g>
      <path fill="#d22856" fill-rule="evenodd" clip-rule="evenodd" d="M11.283,0.153c1.736-0.485,3.074,0.263,3.685,1.151 c0.694-0.226,1.372-0.47,2.072-0.691c-0.004,0.841-0.538,1.478-0.883,1.727C16.861,2.506,17.5,1.86,17.5,1.86 c-0.175,0.976-1.035,1.746-1.611,1.977C15.65,10.429,12.617,14.793,5.507,14.66c-0.538,0,0.077,0-0.46,0 c-0.422,0-4.29-0.45-5.047-1.843c2.341,0.192,4.011-0.412,4.835-1.15c-0.989-0.293-2.761-0.464-3.07-2.881 c0.362,0.105,0.583,0.223,1.228,0.117C1.757,8.067,0.385,7.366,0.461,5.218c0.294,0.32,1.1,0.523,1.381,0.461 c-0.725-0.235-2.03-3.281-0.921-4.836C2.794,2.654,4.769,4.364,8.29,4.528C8.506,2.288,9.461,0.787,11.283,0.153z"/>
    </g>
  </g>
</symbol><symbol id="icon-youtube" viewBox="0 0 14.64 13.96">
  <path fill="#d22856" d="M1.775,13.78C0.799,14.257,0,13.758,0,12.671V1.29c0-1.088,0.799-1.585,1.775-1.109l12.133,5.932 c0.975,0.478,0.975,1.258,0,1.736L1.775,13.78z"/>
</symbol></svg>
