<svg width="24" height="24" viewBox="0 0 24 24" fill="none" xmlns="http://www.w3.org/2000/svg">
<path fill-rule="evenodd" clip-rule="evenodd" d="M2.23912 4.27968C2.58181 3.71118 4.47104 1.64745 5.81732 1.70975C6.22009 1.74424 6.57613 1.98677 6.86541 2.26935H6.86652C7.52965 2.91907 9.43223 5.37106 9.53905 5.88727C9.80274 7.15332 8.29291 7.88314 8.75465 9.1592C9.9318 12.0395 11.9601 14.0676 14.8418 15.2436C16.1169 15.7064 16.8468 14.1978 18.1129 14.4604C18.6292 14.5683 21.0825 16.4696 21.7312 17.1338V17.1338C22.0127 17.4219 22.2575 17.779 22.2908 18.1818C22.3409 19.6002 20.149 21.5149 19.7218 21.7596C18.7137 22.4816 17.3986 22.4683 15.7953 21.7229C11.3215 19.8617 4.17175 12.8472 2.27583 8.20466C1.5504 6.61041 1.50145 5.28651 2.23912 4.27968Z" stroke="#D6AD68" stroke-width="2" stroke-linecap="round" stroke-linejoin="round"/>
<path d="M14.7792 1.97925C18.7897 2.4245 21.9563 5.58783 22.4069 9.59725" stroke="#D6AD68" stroke-width="2" stroke-linecap="round" stroke-linejoin="round"/>
<path d="M14.7792 5.8175C16.6967 6.19125 18.1949 7.6895 18.5687 9.607" stroke="#D6AD68" stroke-width="2" stroke-linecap="round" stroke-linejoin="round"/>
</svg>
