<svg width="26" height="26" viewBox="0 0 26 26" fill="none" xmlns="http://www.w3.org/2000/svg">
<path fill-rule="evenodd" clip-rule="evenodd" d="M3.23903 5.27968C3.58171 4.71118 5.47095 2.64745 6.81723 2.70975C7.22 2.74424 7.57604 2.98677 7.86532 3.26935H7.86643C8.52955 3.91907 10.4321 6.37106 10.539 6.88727C10.8026 8.15332 9.29281 8.88314 9.75455 10.1592C10.9317 13.0395 12.96 15.0676 15.8417 16.2436C17.1168 16.7064 17.8467 15.1978 19.1128 15.4604C19.6291 15.5683 22.0824 17.4696 22.7311 18.1338V18.1338C23.0126 18.4219 23.2574 18.779 23.2907 19.1818C23.3408 20.6002 21.1489 22.5149 20.7217 22.7596C19.7137 23.4816 18.3985 23.4683 16.7952 22.7229C12.3214 20.8617 5.17165 13.8472 3.27574 9.20466C2.55031 7.61041 2.50136 6.28651 3.23903 5.27968Z" stroke="white" stroke-width="1.5" stroke-linecap="round" stroke-linejoin="round"/>
<path d="M15.7791 2.97925C19.7896 3.4245 22.9561 6.58783 23.4068 10.5972" stroke="white" stroke-width="1.5" stroke-linecap="round" stroke-linejoin="round"/>
<path d="M15.7791 6.8175C17.6966 7.19125 19.1948 8.6895 19.5686 10.607" stroke="white" stroke-width="1.5" stroke-linecap="round" stroke-linejoin="round"/>
</svg>
