<svg width="1399" height="373" fill="none" xmlns="http://www.w3.org/2000/svg"><g opacity=".8"><mask id="mask0" maskUnits="userSpaceOnUse" x="0" y="0" width="1399" height="373"><path fill="url(#paint0_linear)" d="M0 0h1399v373H0z"/></mask><g mask="url(#mask0)" fill="#0C73FE"><path d="M639.589 338h-4.506l3.187-3.187a10.78 10.78 0 003.079-6.377c-4.483-2.942-7.762-6.813-9.517-11.253-1.754-4.436-1.974-9.319-.637-14.122 1.604-5.763 5.366-11.016 10.593-14.791 5.681-4.102 12.752-6.27 20.45-6.27 9.698 0 17.872 2.786 23.638 8.057 5.195 4.749 8.056 11.154 8.056 18.036a24.02 24.02 0 01-2.023 9.67c-1.39 3.18-3.424 6.011-6.047 8.415-5.775 5.292-13.943 8.089-23.624 8.089-3.593 0-7.343-.48-10.691-1.36-3.169 3.25-7.463 5.093-11.958 5.093zm22.649-52.267c-15.436 0-24.907 9.206-27.447 18.329-2.4 8.622 1.138 16.768 9.463 21.792l.931.562-.029 1.086a14.704 14.704 0 01-1.486 6.091 13.211 13.211 0 005.847-4.001l.789-.932 1.171.35c3.284.982 7.106 1.523 10.761 1.523 19.211 0 27.961-11.632 27.961-22.44 0-5.821-2.43-11.248-6.842-15.28-5.066-4.632-12.369-7.08-21.119-7.08zM1027.69 156h4.51l-3.19-3.187a10.782 10.782 0 01-3.08-6.377c4.48-2.942 7.76-6.813 9.52-11.253 1.75-4.436 1.97-9.319.63-14.122-1.6-5.763-5.36-11.016-10.59-14.791-5.68-4.102-12.75-6.27-20.45-6.27-9.697 0-17.871 2.786-23.638 8.057-5.194 4.749-8.055 11.154-8.055 18.036 0 3.344.681 6.597 2.023 9.67 1.39 3.18 3.424 6.011 6.047 8.415 5.774 5.292 13.943 8.089 23.623 8.089 3.59 0 7.34-.48 10.69-1.36 3.17 3.25 7.47 5.093 11.96 5.093zm-22.65-52.267c15.44 0 24.91 9.206 27.45 18.329 2.4 8.622-1.14 16.768-9.47 21.792l-.93.562.03 1.086c.06 2.149.57 4.22 1.49 6.091a13.254 13.254 0 01-5.85-4.001l-.79-.932-1.17.35c-3.28.982-7.1 1.523-10.76 1.523-19.21 0-27.96-11.632-27.96-22.44 0-5.821 2.43-11.248 6.841-15.28 5.067-4.632 12.37-7.08 21.119-7.08zM71.69 156h4.506l-3.187-3.187a10.783 10.783 0 01-3.08-6.377c4.484-2.942 7.763-6.813 9.518-11.253 1.754-4.436 1.974-9.319.637-14.122-1.604-5.763-5.366-11.016-10.594-14.791-5.68-4.102-12.751-6.27-20.45-6.27-9.697 0-17.871 2.786-23.637 8.057-5.195 4.749-8.056 11.154-8.056 18.036 0 3.344.68 6.597 2.023 9.67 1.39 3.18 3.424 6.011 6.047 8.415 5.774 5.292 13.943 8.089 23.624 8.089 3.593 0 7.343-.48 10.691-1.36 3.169 3.25 7.463 5.093 11.957 5.093zm-22.65-52.267c15.436 0 24.908 9.206 27.447 18.329 2.4 8.622-1.137 16.768-9.463 21.792l-.93.562.029 1.086c.056 2.149.569 4.22 1.486 6.091a13.21 13.21 0 01-5.847-4.001l-.79-.932-1.17.35c-3.284.982-7.106 1.523-10.762 1.523-19.21 0-27.96-11.632-27.96-22.44 0-5.821 2.43-11.248 6.842-15.28 5.066-4.632 12.369-7.08 21.118-7.08zM1354.83 338h-4.51l3.19-3.187a10.84 10.84 0 003.08-6.377c-4.49-2.942-7.77-6.813-9.52-11.253-1.76-4.436-1.98-9.319-.64-14.122 1.6-5.763 5.37-11.016 10.59-14.791 5.68-4.102 12.76-6.27 20.45-6.27 9.7 0 17.88 2.786 23.64 8.057 5.2 4.749 8.06 11.154 8.06 18.036 0 3.344-.68 6.597-2.03 9.67-1.38 3.18-3.42 6.011-6.04 8.415-5.78 5.292-13.95 8.089-23.63 8.089-3.59 0-7.34-.48-10.69-1.36-3.17 3.25-7.46 5.093-11.95 5.093zm22.64-52.267c-15.43 0-24.9 9.206-27.44 18.329-2.4 8.622 1.13 16.768 9.46 21.792l.93.562-.03 1.086c-.05 2.149-.57 4.22-1.48 6.091a13.169 13.169 0 005.84-4.001l.79-.932 1.17.35c3.29.982 7.11 1.523 10.76 1.523 19.21 0 27.96-11.632 27.96-22.44 0-5.821-2.43-11.248-6.84-15.28-5.06-4.632-12.37-7.08-21.12-7.08zM398.825 338h-4.506l3.186-3.187a10.776 10.776 0 003.08-6.377c-4.484-2.942-7.762-6.813-9.517-11.253-1.754-4.436-1.974-9.319-.637-14.122 1.604-5.763 5.366-11.016 10.593-14.791 5.681-4.102 12.752-6.27 20.45-6.27 9.698 0 17.872 2.786 23.638 8.057 5.195 4.749 8.056 11.154 8.056 18.036a24.02 24.02 0 01-2.023 9.67c-1.39 3.18-3.424 6.011-6.048 8.415-5.774 5.292-13.943 8.089-23.623 8.089-3.593 0-7.343-.48-10.691-1.36-3.169 3.25-7.463 5.093-11.958 5.093zm22.649-52.267c-15.436 0-24.907 9.206-27.447 18.329-2.4 8.622 1.138 16.768 9.463 21.792l.93.562-.028 1.086a14.69 14.69 0 01-1.487 6.091 13.209 13.209 0 005.848-4.001l.789-.932 1.171.35c3.284.982 7.106 1.523 10.761 1.523 19.211 0 27.961-11.632 27.961-22.44 0-5.821-2.43-11.248-6.842-15.28-5.066-4.632-12.369-7.08-21.119-7.08zM1268.45 156h4.51l-3.19-3.187a10.84 10.84 0 01-3.08-6.377c4.49-2.942 7.77-6.813 9.52-11.253 1.75-4.436 1.98-9.319.64-14.122-1.61-5.763-5.37-11.016-10.6-14.791-5.68-4.102-12.75-6.27-20.45-6.27-9.69 0-17.87 2.786-23.63 8.057-5.2 4.749-8.06 11.154-8.06 18.036 0 3.344.68 6.597 2.02 9.67 1.39 3.18 3.43 6.011 6.05 8.415 5.78 5.292 13.94 8.089 23.62 8.089 3.6 0 7.35-.48 10.7-1.36 3.17 3.25 7.46 5.093 11.95 5.093zm-22.65-52.267c15.44 0 24.91 9.206 27.45 18.329 2.4 8.622-1.14 16.768-9.46 21.792l-.93.562.03 1.086c.05 2.149.57 4.22 1.48 6.091a13.169 13.169 0 01-5.84-4.001l-.79-.932-1.17.35c-3.29.982-7.11 1.523-10.77 1.523-19.21 0-27.96-11.632-27.96-22.44 0-5.821 2.43-11.248 6.85-15.28 5.06-4.632 12.37-7.08 21.11-7.08zM312.453 156h4.507l-3.187-3.187a10.78 10.78 0 01-3.079-6.377c4.483-2.942 7.762-6.813 9.517-11.253 1.754-4.436 1.974-9.319.637-14.122-1.604-5.763-5.366-11.016-10.593-14.791-5.681-4.102-12.752-6.27-20.45-6.27-9.698 0-17.872 2.786-23.638 8.057-5.195 4.749-8.056 11.154-8.056 18.036 0 3.344.681 6.597 2.023 9.67 1.39 3.18 3.424 6.011 6.047 8.415 5.775 5.292 13.943 8.089 23.624 8.089 3.593 0 7.343-.48 10.691-1.36 3.169 3.25 7.463 5.093 11.957 5.093zm-22.648-52.267c15.436 0 24.907 9.206 27.447 18.329 2.399 8.622-1.138 16.768-9.463 21.792l-.931.562.029 1.086c.057 2.149.569 4.22 1.486 6.091a13.211 13.211 0 01-5.847-4.001l-.789-.932-1.171.35c-3.284.982-7.106 1.523-10.761 1.523-19.211 0-27.961-11.632-27.961-22.44 0-5.821 2.43-11.248 6.842-15.28 5.066-4.632 12.369-7.08 21.119-7.08zM1104.83 338h-4.51l3.19-3.187a10.84 10.84 0 003.08-6.377c-4.49-2.942-7.77-6.813-9.52-11.253-1.76-4.436-1.98-9.319-.64-14.122 1.6-5.763 5.37-11.016 10.59-14.791 5.68-4.102 12.76-6.27 20.45-6.27 9.7 0 17.88 2.786 23.64 8.057 5.2 4.749 8.06 11.154 8.06 18.036 0 3.344-.68 6.597-2.03 9.67-1.38 3.18-3.42 6.011-6.04 8.415-5.78 5.292-13.95 8.089-23.63 8.089-3.59 0-7.34-.48-10.69-1.36-3.17 3.25-7.46 5.093-11.95 5.093zm22.64-52.267c-15.43 0-24.9 9.206-27.44 18.329-2.4 8.622 1.13 16.768 9.46 21.792l.93.562-.03 1.086c-.05 2.149-.57 4.22-1.48 6.091a13.169 13.169 0 005.84-4.001l.79-.932 1.17.35c3.29.982 7.11 1.523 10.76 1.523 19.21 0 27.96-11.632 27.96-22.44 0-5.821-2.43-11.248-6.84-15.28-5.06-4.632-12.37-7.08-21.12-7.08zM148.825 338h-4.506l3.186-3.187a10.776 10.776 0 003.08-6.377c-4.484-2.942-7.762-6.813-9.517-11.253-1.754-4.436-1.974-9.319-.637-14.122 1.604-5.763 5.366-11.016 10.593-14.791 5.681-4.102 12.752-6.27 20.45-6.27 9.698 0 17.872 2.786 23.638 8.057 5.195 4.749 8.056 11.154 8.056 18.036a24.02 24.02 0 01-2.023 9.67c-1.39 3.18-3.424 6.011-6.048 8.415-5.774 5.292-13.943 8.089-23.623 8.089-3.593 0-7.343-.48-10.691-1.36-3.169 3.25-7.463 5.093-11.958 5.093zm22.649-52.267c-15.436 0-24.907 9.206-27.447 18.329-2.4 8.622 1.138 16.768 9.463 21.792l.93.562-.028 1.086a14.69 14.69 0 01-1.487 6.091 13.209 13.209 0 005.848-4.001l.789-.932 1.171.35c3.284.982 7.106 1.523 10.761 1.523 19.211 0 27.961-11.632 27.961-22.44 0-5.821-2.43-11.248-6.842-15.28-5.066-4.632-12.369-7.08-21.119-7.08zM562.453 156h4.507l-3.187-3.187a10.78 10.78 0 01-3.079-6.377c4.483-2.942 7.762-6.813 9.517-11.253 1.754-4.436 1.974-9.319.637-14.122-1.604-5.763-5.366-11.016-10.593-14.791-5.681-4.102-12.752-6.27-20.45-6.27-9.698 0-17.872 2.786-23.638 8.057-5.195 4.749-8.056 11.154-8.056 18.036 0 3.344.681 6.597 2.023 9.67 1.39 3.18 3.424 6.011 6.047 8.415 5.775 5.292 13.943 8.089 23.624 8.089 3.593 0 7.343-.48 10.691-1.36 3.169 3.25 7.463 5.093 11.957 5.093zm-22.648-52.267c15.436 0 24.907 9.206 27.447 18.329 2.399 8.622-1.138 16.768-9.463 21.792l-.931.562.029 1.086c.057 2.149.569 4.22 1.486 6.091a13.211 13.211 0 01-5.847-4.001l-.789-.932-1.171.35c-3.284.982-7.106 1.523-10.761 1.523-19.211 0-27.961-11.632-27.961-22.44 0-5.821 2.43-11.248 6.842-15.28 5.066-4.632 12.369-7.08 21.119-7.08zM855.825 338h-4.506l3.186-3.187a10.776 10.776 0 003.08-6.377c-4.484-2.942-7.762-6.813-9.517-11.253-1.754-4.436-1.974-9.319-.637-14.122 1.604-5.763 5.366-11.016 10.593-14.791 5.681-4.102 12.752-6.27 20.45-6.27 9.698 0 17.872 2.786 23.638 8.057 5.195 4.749 8.056 11.154 8.056 18.036a24.02 24.02 0 01-2.023 9.67c-1.39 3.18-3.424 6.011-6.048 8.415-5.774 5.292-13.943 8.089-23.623 8.089-3.593 0-7.343-.48-10.691-1.36-3.169 3.25-7.463 5.093-11.958 5.093zm22.649-52.267c-15.436 0-24.907 9.206-27.447 18.329-2.4 8.622 1.138 16.768 9.463 21.792l.93.562-.028 1.086a14.69 14.69 0 01-1.487 6.091 13.209 13.209 0 005.848-4.001l.789-.932 1.171.35c3.284.982 7.106 1.523 10.761 1.523 19.211 0 27.961-11.632 27.961-22.44 0-5.821-2.43-11.248-6.842-15.28-5.066-4.632-12.369-7.08-21.119-7.08zM811.453 156h4.507l-3.187-3.187a10.78 10.78 0 01-3.079-6.377c4.483-2.942 7.762-6.813 9.517-11.253 1.754-4.436 1.974-9.319.637-14.122-1.604-5.763-5.366-11.016-10.593-14.791-5.681-4.102-12.752-6.27-20.45-6.27-9.698 0-17.872 2.786-23.638 8.057-5.195 4.749-8.056 11.154-8.056 18.036 0 3.344.681 6.597 2.023 9.67 1.39 3.18 3.424 6.011 6.047 8.415 5.775 5.292 13.943 8.089 23.624 8.089 3.593 0 7.343-.48 10.691-1.36 3.169 3.25 7.463 5.093 11.957 5.093zm-22.648-52.267c15.436 0 24.907 9.206 27.447 18.329 2.399 8.622-1.138 16.768-9.463 21.792l-.931.562.029 1.086c.057 2.149.569 4.22 1.486 6.091a13.211 13.211 0 01-5.847-4.001l-.789-.932-1.171.35c-3.284.982-7.106 1.523-10.761 1.523-19.211 0-27.961-11.632-27.961-22.44 0-5.821 2.43-11.248 6.842-15.28 5.066-4.632 12.369-7.08 21.119-7.08zM639.187 92H634.6l3.243-3.244a10.972 10.972 0 003.135-6.49c-4.564-2.996-7.901-6.936-9.687-11.455-1.785-4.515-2.01-9.485-.649-14.374 1.633-5.866 5.462-11.212 10.783-15.055C647.207 37.207 654.405 35 662.24 35c9.871 0 18.191 2.836 24.06 8.201 5.288 4.834 8.2 11.353 8.2 18.358 0 3.404-.693 6.715-2.06 9.843-1.414 3.236-3.485 6.118-6.155 8.565-5.877 5.386-14.192 8.233-24.045 8.233-3.658 0-7.474-.488-10.882-1.384-3.226 3.309-7.597 5.184-12.171 5.184zm23.053-53.2c-15.711 0-25.352 9.37-27.937 18.656-2.443 8.776 1.158 17.067 9.632 22.181l.947.572-.029 1.105a14.976 14.976 0 01-1.513 6.2 13.465 13.465 0 005.952-4.072l.803-.949 1.192.357c3.343 1 7.233 1.55 10.953 1.55 19.554 0 28.46-11.84 28.46-22.84 0-5.926-2.473-11.45-6.964-15.554-5.157-4.714-12.59-7.206-21.496-7.206zM1028.09 282h4.59l-3.24-3.244a10.952 10.952 0 01-3.14-6.491c4.56-2.995 7.9-6.935 9.69-11.454 1.78-4.515 2.01-9.485.65-14.374-1.64-5.866-5.47-11.212-10.79-15.055-5.78-4.175-12.98-6.382-20.81-6.382-9.872 0-18.192 2.836-24.062 8.201-5.287 4.834-8.199 11.353-8.199 18.358 0 3.403.693 6.715 2.059 9.843 1.415 3.236 3.486 6.118 6.156 8.565 5.877 5.386 14.192 8.233 24.046 8.233 3.66 0 7.47-.488 10.88-1.384 3.23 3.309 7.6 5.184 12.17 5.184zm-23.05-53.2c15.71 0 25.35 9.37 27.94 18.656 2.44 8.776-1.16 17.068-9.64 22.181l-.94.572.03 1.105c.05 2.188.58 4.296 1.51 6.201a13.447 13.447 0 01-5.95-4.073l-.81-.949-1.19.356c-3.34 1-7.23 1.551-10.95 1.551-19.555 0-28.461-11.84-28.461-22.841 0-5.925 2.473-11.448 6.963-15.553 5.157-4.714 12.591-7.206 21.498-7.206zM72.092 282h4.587l-3.244-3.244a10.972 10.972 0 01-3.134-6.491c4.563-2.995 7.9-6.935 9.687-11.454 1.785-4.515 2.01-9.485.649-14.374-1.633-5.866-5.463-11.212-10.783-15.055-5.782-4.175-12.98-6.382-20.816-6.382-9.87 0-18.19 2.836-24.06 8.201-5.287 4.834-8.2 11.353-8.2 18.358 0 3.403.694 6.715 2.06 9.843 1.415 3.236 3.485 6.118 6.155 8.565 5.878 5.386 14.192 8.233 24.046 8.233 3.657 0 7.474-.488 10.882-1.384 3.226 3.309 7.596 5.184 12.17 5.184zm-23.053-53.2c15.711 0 25.352 9.37 27.937 18.656 2.442 8.776-1.158 17.068-9.632 22.181l-.947.572.029 1.105c.058 2.188.58 4.296 1.513 6.201a13.464 13.464 0 01-5.952-4.073l-.803-.949-1.192.356c-3.343 1-7.233 1.551-10.953 1.551-19.554 0-28.46-11.84-28.46-22.841 0-5.925 2.473-11.448 6.963-15.553 5.157-4.714 12.59-7.206 21.496-7.206zM1354.42 92h-4.58l3.24-3.244a10.943 10.943 0 003.13-6.49c-4.56-2.996-7.9-6.936-9.68-11.455-1.79-4.515-2.01-9.485-.65-14.374 1.63-5.866 5.46-11.212 10.78-15.055 5.78-4.175 12.98-6.382 20.82-6.382 9.87 0 18.19 2.836 24.06 8.201 5.28 4.834 8.2 11.353 8.2 18.358 0 3.404-.7 6.715-2.06 9.843-1.42 3.236-3.49 6.118-6.16 8.565-5.88 5.386-14.19 8.233-24.04 8.233-3.66 0-7.48-.488-10.89-1.384-3.22 3.309-7.59 5.184-12.17 5.184zm23.06-53.2c-15.72 0-25.36 9.37-27.94 18.656-2.44 8.776 1.16 17.067 9.63 22.181l.95.572-.03 1.105a15.051 15.051 0 01-1.51 6.2 13.484 13.484 0 005.95-4.072l.8-.949 1.19.357c3.35 1 7.24 1.55 10.96 1.55 19.55 0 28.46-11.84 28.46-22.84 0-5.926-2.48-11.45-6.97-15.554-5.15-4.714-12.59-7.206-21.49-7.206zM398.423 92h-4.587l3.243-3.244a10.978 10.978 0 003.135-6.49c-4.564-2.996-7.901-6.936-9.687-11.455-1.785-4.515-2.01-9.485-.649-14.374 1.633-5.866 5.462-11.212 10.783-15.055C406.443 37.207 413.64 35 421.476 35c9.871 0 18.191 2.836 24.06 8.201 5.288 4.834 8.2 11.353 8.2 18.358 0 3.404-.693 6.715-2.06 9.843-1.414 3.236-3.485 6.118-6.155 8.565-5.877 5.386-14.192 8.233-24.045 8.233-3.658 0-7.475-.488-10.882-1.384-3.226 3.309-7.597 5.184-12.171 5.184zm23.053-53.2c-15.712 0-25.352 9.37-27.937 18.656-2.443 8.776 1.158 17.067 9.632 22.181l.947.572-.029 1.105a14.976 14.976 0 01-1.513 6.2 13.465 13.465 0 005.952-4.072l.803-.949 1.191.357c3.343 1 7.234 1.55 10.954 1.55 19.554 0 28.46-11.84 28.46-22.84 0-5.926-2.473-11.45-6.964-15.554-5.157-4.714-12.59-7.206-21.496-7.206zM1268.86 282h4.58l-3.24-3.244a11.01 11.01 0 01-3.14-6.491c4.57-2.995 7.91-6.935 9.69-11.454 1.79-4.515 2.01-9.485.65-14.374-1.63-5.866-5.46-11.212-10.78-15.055-5.78-4.175-12.98-6.382-20.82-6.382-9.87 0-18.19 2.836-24.06 8.201-5.28 4.834-8.2 11.353-8.2 18.358 0 3.403.7 6.715 2.06 9.843 1.42 3.236 3.49 6.118 6.16 8.565 5.87 5.386 14.19 8.233 24.04 8.233 3.66 0 7.48-.488 10.89-1.384 3.22 3.309 7.59 5.184 12.17 5.184zm-23.06-53.2c15.71 0 25.36 9.37 27.94 18.656 2.44 8.776-1.16 17.068-9.63 22.181l-.95.572.03 1.105c.06 2.188.58 4.296 1.51 6.201a13.503 13.503 0 01-5.95-4.073l-.8-.949-1.19.356c-3.35 1-7.24 1.551-10.96 1.551-19.55 0-28.46-11.84-28.46-22.841 0-5.925 2.48-11.448 6.97-15.553 5.15-4.714 12.59-7.206 21.49-7.206zM312.856 282h4.587l-3.244-3.244a10.973 10.973 0 01-3.134-6.491c4.564-2.995 7.901-6.935 9.687-11.454 1.785-4.515 2.01-9.485.649-14.374-1.633-5.866-5.463-11.212-10.783-15.055-5.782-4.175-12.98-6.382-20.815-6.382-9.871 0-18.191 2.836-24.06 8.201-5.288 4.834-8.2 11.353-8.2 18.358 0 3.403.693 6.715 2.06 9.843 1.414 3.236 3.485 6.118 6.155 8.565 5.877 5.386 14.192 8.233 24.045 8.233 3.658 0 7.474-.488 10.882-1.384 3.226 3.309 7.597 5.184 12.171 5.184zm-23.053-53.2c15.711 0 25.352 9.37 27.937 18.656 2.443 8.776-1.158 17.068-9.632 22.181l-.947.572.029 1.105a14.963 14.963 0 001.513 6.201 13.47 13.47 0 01-5.952-4.073l-.803-.949-1.192.356c-3.343 1-7.233 1.551-10.953 1.551-19.554 0-28.46-11.84-28.46-22.841 0-5.925 2.473-11.448 6.964-15.553 5.157-4.714 12.59-7.206 21.496-7.206zM1104.42 92h-4.58l3.24-3.244a10.943 10.943 0 003.13-6.49c-4.56-2.996-7.9-6.936-9.68-11.455-1.79-4.515-2.01-9.485-.65-14.374 1.63-5.866 5.46-11.212 10.78-15.055 5.78-4.175 12.98-6.382 20.82-6.382 9.87 0 18.19 2.836 24.06 8.201 5.28 4.834 8.2 11.353 8.2 18.358 0 3.404-.7 6.715-2.06 9.843-1.42 3.236-3.49 6.118-6.16 8.565-5.88 5.386-14.19 8.233-24.04 8.233-3.66 0-7.48-.488-10.89-1.384-3.22 3.309-7.59 5.184-12.17 5.184zm23.06-53.2c-15.72 0-25.36 9.37-27.94 18.656-2.44 8.776 1.16 17.067 9.63 22.181l.95.572-.03 1.105a15.051 15.051 0 01-1.51 6.2 13.484 13.484 0 005.95-4.072l.8-.949 1.19.357c3.35 1 7.24 1.55 10.96 1.55 19.55 0 28.46-11.84 28.46-22.84 0-5.926-2.48-11.45-6.97-15.554-5.15-4.714-12.59-7.206-21.49-7.206zM148.423 92h-4.587l3.243-3.244a10.978 10.978 0 003.135-6.49c-4.564-2.996-7.901-6.936-9.687-11.455-1.785-4.515-2.01-9.485-.649-14.374 1.633-5.866 5.462-11.212 10.783-15.055C156.443 37.207 163.64 35 171.476 35c9.871 0 18.191 2.836 24.06 8.201 5.288 4.834 8.2 11.353 8.2 18.358 0 3.404-.693 6.715-2.06 9.843-1.414 3.236-3.485 6.118-6.155 8.565-5.877 5.386-14.192 8.233-24.045 8.233-3.658 0-7.475-.488-10.882-1.384-3.226 3.309-7.597 5.184-12.171 5.184zm23.053-53.2c-15.712 0-25.352 9.37-27.937 18.656-2.443 8.776 1.158 17.067 9.632 22.181l.947.572-.029 1.105a14.976 14.976 0 01-1.513 6.2 13.465 13.465 0 005.952-4.072l.803-.949 1.191.357c3.343 1 7.234 1.55 10.954 1.55 19.554 0 28.46-11.84 28.46-22.84 0-5.926-2.473-11.45-6.964-15.554-5.157-4.714-12.59-7.206-21.496-7.206zM562.856 282h4.587l-3.244-3.244a10.973 10.973 0 01-3.134-6.491c4.564-2.995 7.901-6.935 9.687-11.454 1.785-4.515 2.01-9.485.649-14.374-1.633-5.866-5.463-11.212-10.783-15.055-5.782-4.175-12.98-6.382-20.815-6.382-9.871 0-18.191 2.836-24.06 8.201-5.288 4.834-8.2 11.353-8.2 18.358 0 3.403.693 6.715 2.06 9.843 1.414 3.236 3.485 6.118 6.155 8.565 5.877 5.386 14.192 8.233 24.045 8.233 3.658 0 7.474-.488 10.882-1.384 3.226 3.309 7.597 5.184 12.171 5.184zm-23.053-53.2c15.711 0 25.352 9.37 27.937 18.656 2.443 8.776-1.158 17.068-9.632 22.181l-.947.572.029 1.105a14.963 14.963 0 001.513 6.201 13.47 13.47 0 01-5.952-4.073l-.803-.949-1.192.356c-3.343 1-7.233 1.551-10.953 1.551-19.554 0-28.46-11.84-28.46-22.841 0-5.925 2.473-11.448 6.964-15.553 5.157-4.714 12.59-7.206 21.496-7.206zM855.423 92h-4.587l3.243-3.244a10.978 10.978 0 003.135-6.49c-4.564-2.996-7.901-6.936-9.687-11.455-1.785-4.515-2.01-9.485-.649-14.374 1.633-5.866 5.462-11.212 10.783-15.055C863.443 37.207 870.64 35 878.476 35c9.871 0 18.191 2.836 24.06 8.201 5.288 4.834 8.2 11.353 8.2 18.358 0 3.404-.693 6.715-2.06 9.843-1.414 3.236-3.485 6.118-6.155 8.565-5.877 5.386-14.192 8.233-24.045 8.233-3.658 0-7.475-.488-10.882-1.384-3.226 3.309-7.597 5.184-12.171 5.184zm23.053-53.2c-15.712 0-25.352 9.37-27.937 18.656-2.443 8.776 1.158 17.067 9.632 22.181l.947.572-.029 1.105a14.976 14.976 0 01-1.513 6.2 13.465 13.465 0 005.952-4.072l.803-.949 1.191.357c3.343 1 7.234 1.55 10.954 1.55 19.554 0 28.46-11.84 28.46-22.84 0-5.926-2.473-11.45-6.964-15.554-5.157-4.714-12.59-7.206-21.496-7.206zM811.856 282h4.587l-3.244-3.244a10.973 10.973 0 01-3.134-6.491c4.564-2.995 7.901-6.935 9.687-11.454 1.785-4.515 2.01-9.485.649-14.374-1.633-5.866-5.463-11.212-10.783-15.055-5.782-4.175-12.98-6.382-20.815-6.382-9.871 0-18.191 2.836-24.06 8.201-5.288 4.834-8.2 11.353-8.2 18.358 0 3.403.693 6.715 2.06 9.843 1.414 3.236 3.485 6.118 6.155 8.565 5.877 5.386 14.192 8.233 24.045 8.233 3.658 0 7.474-.488 10.882-1.384 3.226 3.309 7.597 5.184 12.171 5.184zm-23.053-53.2c15.711 0 25.352 9.37 27.937 18.656 2.443 8.776-1.158 17.068-9.632 22.181l-.947.572.029 1.105a14.963 14.963 0 001.513 6.201 13.47 13.47 0 01-5.952-4.073l-.803-.949-1.192.356c-3.343 1-7.233 1.551-10.953 1.551-19.554 0-28.46-11.84-28.46-22.841 0-5.925 2.473-11.448 6.964-15.553 5.157-4.714 12.59-7.206 21.496-7.206zM762.084 27h-4.909l3.471-3.471a11.743 11.743 0 003.355-6.947c-4.884-3.205-8.455-7.422-10.367-12.257-1.911-4.833-2.151-10.152-.694-15.384 1.747-6.277 5.845-11.999 11.539-16.11C770.667-31.64 778.37-34 786.755-34c10.564 0 19.467 3.035 25.749 8.776 5.658 5.173 8.775 12.15 8.775 19.647 0 3.642-.742 7.186-2.204 10.533-1.514 3.464-3.73 6.548-6.588 9.166-6.289 5.764-15.187 8.811-25.732 8.811-3.914 0-7.999-.522-11.646-1.481-3.452 3.541-8.13 5.548-13.025 5.548zm24.671-56.933c-16.814 0-27.131 10.027-29.898 19.965-2.614 9.391 1.24 18.265 10.308 23.738l1.014.611-.031 1.183a16.004 16.004 0 01-1.62 6.636 14.407 14.407 0 006.37-4.358l.86-1.016 1.275.381c3.577 1.07 7.74 1.66 11.722 1.66 20.926 0 30.457-12.671 30.457-24.444 0-6.34-2.647-12.252-7.452-16.645-5.519-5.045-13.474-7.711-23.005-7.711zM762.084 399h-4.909l3.471-3.471a11.745 11.745 0 003.355-6.947c-4.884-3.205-8.455-7.422-10.367-12.257-1.911-4.833-2.151-10.152-.694-15.384 1.747-6.277 5.845-11.999 11.539-16.111 6.188-4.468 13.891-6.83 22.276-6.83 10.564 0 19.467 3.035 25.749 8.777 5.658 5.172 8.775 12.149 8.775 19.646 0 3.642-.742 7.186-2.204 10.533-1.514 3.464-3.73 6.548-6.588 9.166-6.289 5.764-15.187 8.811-25.732 8.811-3.914 0-7.999-.522-11.646-1.481-3.452 3.541-8.13 5.548-13.025 5.548zm24.671-56.933c-16.814 0-27.131 10.027-29.898 19.965-2.614 9.391 1.24 18.265 10.308 23.738l1.014.611-.031 1.183a16.004 16.004 0 01-1.62 6.636 14.409 14.409 0 006.37-4.358l.86-1.016 1.275.381c3.577 1.07 7.74 1.66 11.722 1.66 20.926 0 30.457-12.671 30.457-24.444 0-6.341-2.647-12.252-7.452-16.645-5.519-5.045-13.474-7.711-23.005-7.711zM905.195 217h4.909l-3.471-3.471a11.745 11.745 0 01-3.355-6.947c4.884-3.205 8.455-7.422 10.367-12.257 1.91-4.833 2.15-10.152.694-15.384-1.747-6.277-5.845-11.999-11.539-16.111-6.188-4.468-13.891-6.83-22.276-6.83-10.564 0-19.468 3.035-25.749 8.777-5.658 5.172-8.775 12.149-8.775 19.646 0 3.642.742 7.186 2.204 10.533 1.514 3.464 3.73 6.548 6.587 9.166 6.29 5.764 15.188 8.811 25.733 8.811 3.914 0 7.999-.522 11.646-1.481 3.452 3.541 8.129 5.548 13.025 5.548zm-24.671-56.933c16.814 0 27.131 10.027 29.897 19.965 2.614 9.391-1.239 18.265-10.308 23.738l-1.013.611.031 1.183c.062 2.342.62 4.597 1.619 6.636a14.406 14.406 0 01-6.369-4.358l-.86-1.016-1.275.381c-3.578 1.07-7.741 1.66-11.722 1.66-20.926 0-30.457-12.671-30.457-24.444 0-6.341 2.646-12.252 7.452-16.645 5.519-5.045 13.474-7.711 23.005-7.711zM521.32 27h-4.909l3.471-3.471a11.743 11.743 0 003.355-6.947c-4.884-3.205-8.456-7.422-10.367-12.257-1.911-4.833-2.151-10.152-.694-15.384 1.747-6.277 5.845-11.999 11.539-16.11 6.188-4.47 13.89-6.831 22.276-6.831 10.563 0 19.467 3.035 25.748 8.776 5.659 5.173 8.776 12.15 8.776 19.647 0 3.642-.742 7.186-2.205 10.533-1.513 3.464-3.729 6.548-6.587 9.166-6.289 5.764-15.188 8.811-25.732 8.811-3.915 0-7.999-.522-11.646-1.481-3.452 3.541-8.13 5.548-13.025 5.548zm24.671-56.933c-16.814 0-27.131 10.027-29.898 19.965-2.614 9.391 1.24 18.265 10.308 23.738l1.014.611-.032 1.183a16.003 16.003 0 01-1.619 6.636 14.407 14.407 0 006.37-4.358l.86-1.016 1.275.381c3.577 1.07 7.74 1.66 11.722 1.66 20.926 0 30.457-12.671 30.457-24.444 0-6.34-2.647-12.252-7.452-16.645-5.519-5.045-13.474-7.711-23.005-7.711zM521.32 399h-4.909l3.471-3.471a11.745 11.745 0 003.355-6.947c-4.884-3.205-8.456-7.422-10.367-12.257-1.911-4.833-2.151-10.152-.694-15.384 1.747-6.277 5.845-11.999 11.539-16.111 6.188-4.468 13.89-6.83 22.276-6.83 10.563 0 19.467 3.035 25.748 8.777 5.659 5.172 8.776 12.149 8.776 19.646 0 3.642-.742 7.186-2.205 10.533-1.513 3.464-3.729 6.548-6.587 9.166-6.289 5.764-15.188 8.811-25.732 8.811-3.915 0-7.999-.522-11.646-1.481-3.452 3.541-8.13 5.548-13.025 5.548zm24.671-56.933c-16.814 0-27.131 10.027-29.898 19.965-2.614 9.391 1.24 18.265 10.308 23.738l1.014.611-.032 1.183a16.003 16.003 0 01-1.619 6.636 14.409 14.409 0 006.37-4.358l.86-1.016 1.275.381c3.577 1.07 7.74 1.66 11.722 1.66 20.926 0 30.457-12.671 30.457-24.444 0-6.341-2.647-12.252-7.452-16.645-5.519-5.045-13.474-7.711-23.005-7.711zM1145.96 217h4.91l-3.47-3.471a11.797 11.797 0 01-3.36-6.947c4.89-3.205 8.46-7.422 10.37-12.257 1.91-4.833 2.15-10.152.69-15.384-1.74-6.277-5.84-11.999-11.54-16.111-6.18-4.468-13.89-6.83-22.27-6.83-10.57 0-19.47 3.035-25.75 8.777-5.66 5.172-8.78 12.149-8.78 19.646a26.2 26.2 0 002.21 10.533c1.51 3.464 3.73 6.548 6.59 9.166 6.29 5.764 15.18 8.811 25.73 8.811 3.91 0 8-.522 11.64-1.481 3.46 3.541 8.13 5.548 13.03 5.548zm-24.67-56.933c16.81 0 27.13 10.027 29.9 19.965 2.61 9.391-1.24 18.265-10.31 23.738l-1.02.611.04 1.183a16.12 16.12 0 001.61 6.636 14.43 14.43 0 01-6.37-4.358l-.85-1.016-1.28.381c-3.58 1.07-7.74 1.66-11.72 1.66-20.93 0-30.46-12.671-30.46-24.444 0-6.341 2.65-12.252 7.45-16.645 5.52-5.045 13.48-7.711 23.01-7.711zM189.959 217h4.909l-3.471-3.471a11.745 11.745 0 01-3.355-6.947c4.884-3.205 8.455-7.422 10.367-12.257 1.91-4.833 2.151-10.152.694-15.384-1.747-6.277-5.845-11.999-11.539-16.111-6.188-4.468-13.891-6.83-22.276-6.83-10.564 0-19.467 3.035-25.749 8.777-5.658 5.172-8.775 12.149-8.775 19.646 0 3.642.742 7.186 2.204 10.533 1.514 3.464 3.73 6.548 6.587 9.166 6.29 5.764 15.188 8.811 25.733 8.811 3.914 0 7.999-.522 11.646-1.481 3.452 3.541 8.13 5.548 13.025 5.548zm-24.671-56.933c16.814 0 27.131 10.027 29.898 19.965 2.614 9.391-1.24 18.265-10.308 23.738l-1.014.611.031 1.183c.062 2.342.62 4.597 1.62 6.636a14.409 14.409 0 01-6.37-4.358l-.86-1.016-1.275.381c-3.577 1.07-7.74 1.66-11.722 1.66-20.926 0-30.457-12.671-30.457-24.444 0-6.341 2.647-12.252 7.452-16.645 5.519-5.045 13.474-7.711 23.005-7.711zM1227.32 27h-4.91l3.47-3.471a11.796 11.796 0 003.36-6.947c-4.89-3.205-8.46-7.422-10.37-12.257-1.91-4.833-2.15-10.152-.69-15.384 1.74-6.277 5.84-11.999 11.54-16.11 6.18-4.47 13.89-6.831 22.27-6.831 10.56 0 19.47 3.035 25.75 8.776 5.66 5.173 8.77 12.15 8.77 19.647 0 3.642-.74 7.186-2.2 10.533-1.51 3.464-3.73 6.548-6.59 9.166-6.29 5.764-15.18 8.811-25.73 8.811-3.91 0-8-.522-11.65-1.481-3.45 3.541-8.12 5.548-13.02 5.548zm24.67-56.933c-16.81 0-27.13 10.027-29.9 19.965-2.61 9.391 1.24 18.265 10.31 23.738l1.01.611-.03 1.183a15.973 15.973 0 01-1.62 6.636 14.318 14.318 0 006.37-4.358l.86-1.016 1.28.381c3.58 1.07 7.74 1.66 11.72 1.66 20.93 0 30.46-12.671 30.46-24.444 0-6.34-2.65-12.252-7.45-16.645-5.52-5.045-13.48-7.711-23.01-7.711zM271.32 27h-4.909l3.471-3.471a11.743 11.743 0 003.355-6.947c-4.884-3.205-8.456-7.422-10.367-12.257-1.911-4.833-2.151-10.152-.694-15.384 1.747-6.277 5.845-11.999 11.539-16.11 6.188-4.47 13.89-6.831 22.276-6.831 10.563 0 19.467 3.035 25.748 8.776 5.659 5.173 8.776 12.15 8.776 19.647 0 3.642-.742 7.186-2.205 10.533-1.513 3.464-3.729 6.548-6.587 9.166-6.289 5.764-15.188 8.811-25.732 8.811-3.915 0-7.999-.522-11.646-1.481-3.452 3.541-8.13 5.548-13.025 5.548zm24.671-56.933c-16.814 0-27.131 10.027-29.898 19.965-2.614 9.391 1.24 18.265 10.308 23.738l1.014.611-.032 1.183a16.003 16.003 0 01-1.619 6.636 14.407 14.407 0 006.37-4.358l.86-1.016 1.275.381c3.577 1.07 7.74 1.66 11.722 1.66 20.926 0 30.457-12.671 30.457-24.444 0-6.34-2.647-12.252-7.452-16.645-5.519-5.045-13.474-7.711-23.005-7.711zM1227.32 399h-4.91l3.47-3.471a11.797 11.797 0 003.36-6.947c-4.89-3.205-8.46-7.422-10.37-12.257-1.91-4.833-2.15-10.152-.69-15.384 1.74-6.277 5.84-11.999 11.54-16.111 6.18-4.468 13.89-6.83 22.27-6.83 10.56 0 19.47 3.035 25.75 8.777 5.66 5.172 8.77 12.149 8.77 19.646 0 3.642-.74 7.186-2.2 10.533-1.51 3.464-3.73 6.548-6.59 9.166-6.29 5.764-15.18 8.811-25.73 8.811-3.91 0-8-.522-11.65-1.481-3.45 3.541-8.12 5.548-13.02 5.548zm24.67-56.933c-16.81 0-27.13 10.027-29.9 19.965-2.61 9.391 1.24 18.265 10.31 23.738l1.01.611-.03 1.183a15.974 15.974 0 01-1.62 6.636 14.32 14.32 0 006.37-4.358l.86-1.016 1.28.381c3.58 1.07 7.74 1.66 11.72 1.66 20.93 0 30.46-12.671 30.46-24.444 0-6.341-2.65-12.252-7.45-16.645-5.52-5.045-13.48-7.711-23.01-7.711zM271.32 399h-4.909l3.471-3.471a11.745 11.745 0 003.355-6.947c-4.884-3.205-8.456-7.422-10.367-12.257-1.911-4.833-2.151-10.152-.694-15.384 1.747-6.277 5.845-11.999 11.539-16.111 6.188-4.468 13.89-6.83 22.276-6.83 10.563 0 19.467 3.035 25.748 8.777 5.659 5.172 8.776 12.149 8.776 19.646 0 3.642-.742 7.186-2.205 10.533-1.513 3.464-3.729 6.548-6.587 9.166-6.289 5.764-15.188 8.811-25.732 8.811-3.915 0-7.999-.522-11.646-1.481-3.452 3.541-8.13 5.548-13.025 5.548zm24.671-56.933c-16.814 0-27.131 10.027-29.898 19.965-2.614 9.391 1.24 18.265 10.308 23.738l1.014.611-.032 1.183a16.003 16.003 0 01-1.619 6.636 14.409 14.409 0 006.37-4.358l.86-1.016 1.275.381c3.577 1.07 7.74 1.66 11.722 1.66 20.926 0 30.457-12.671 30.457-24.444 0-6.341-2.647-12.252-7.452-16.645-5.519-5.045-13.474-7.711-23.005-7.711zM1395.96 217h4.91l-3.47-3.471a11.797 11.797 0 01-3.36-6.947c4.89-3.205 8.46-7.422 10.37-12.257 1.91-4.833 2.15-10.152.69-15.384-1.74-6.277-5.84-11.999-11.54-16.111-6.18-4.468-13.89-6.83-22.27-6.83-10.57 0-19.47 3.035-25.75 8.777-5.66 5.172-8.78 12.149-8.78 19.646a26.2 26.2 0 002.21 10.533c1.51 3.464 3.73 6.548 6.59 9.166 6.29 5.764 15.18 8.811 25.73 8.811 3.91 0 8-.522 11.64-1.481 3.46 3.541 8.13 5.548 13.03 5.548zm-24.67-56.933c16.81 0 27.13 10.027 29.9 19.965 2.61 9.391-1.24 18.265-10.31 23.738l-1.02.611.04 1.183a16.12 16.12 0 001.61 6.636 14.43 14.43 0 01-6.37-4.358l-.85-1.016-1.28.381c-3.58 1.07-7.74 1.66-11.72 1.66-20.93 0-30.46-12.671-30.46-24.444 0-6.341 2.65-12.252 7.45-16.645 5.52-5.045 13.48-7.711 23.01-7.711zM439.959 217h4.909l-3.471-3.471a11.745 11.745 0 01-3.355-6.947c4.884-3.205 8.455-7.422 10.367-12.257 1.91-4.833 2.151-10.152.694-15.384-1.747-6.277-5.845-11.999-11.539-16.111-6.188-4.468-13.891-6.83-22.276-6.83-10.564 0-19.467 3.035-25.749 8.777-5.658 5.172-8.775 12.149-8.775 19.646 0 3.642.742 7.186 2.204 10.533 1.514 3.464 3.73 6.548 6.587 9.166 6.29 5.764 15.188 8.811 25.733 8.811 3.914 0 7.999-.522 11.646-1.481 3.452 3.541 8.13 5.548 13.025 5.548zm-24.671-56.933c16.814 0 27.131 10.027 29.898 19.965 2.614 9.391-1.24 18.265-10.308 23.738l-1.014.611.031 1.183c.062 2.342.62 4.597 1.62 6.636a14.409 14.409 0 01-6.37-4.358l-.86-1.016-1.275.381c-3.577 1.07-7.74 1.66-11.722 1.66-20.926 0-30.457-12.671-30.457-24.444 0-6.341 2.647-12.252 7.452-16.645 5.519-5.045 13.474-7.711 23.005-7.711zM978.32 27h-4.909l3.471-3.471a11.743 11.743 0 003.355-6.947c-4.884-3.205-8.456-7.422-10.367-12.257-1.911-4.833-2.151-10.152-.694-15.384 1.747-6.277 5.845-11.999 11.539-16.11 6.188-4.47 13.89-6.831 22.275-6.831 10.56 0 19.47 3.035 25.75 8.776 5.66 5.173 8.77 12.15 8.77 19.647 0 3.642-.74 7.186-2.2 10.533-1.51 3.464-3.73 6.548-6.59 9.166-6.29 5.764-15.18 8.811-25.73 8.811-3.914 0-7.998-.522-11.645-1.481-3.452 3.541-8.13 5.548-13.025 5.548zm24.67-56.933c-16.813 0-27.13 10.027-29.897 19.965-2.614 9.391 1.24 18.265 10.308 23.738l1.014.611-.032 1.183a16.003 16.003 0 01-1.619 6.636 14.407 14.407 0 006.37-4.358l.86-1.016 1.275.381c3.577 1.07 7.74 1.66 11.721 1.66 20.93 0 30.46-12.671 30.46-24.444 0-6.34-2.65-12.252-7.45-16.645-5.52-5.045-13.48-7.711-23.01-7.711zM22.32 27h-4.91l3.471-3.471a11.746 11.746 0 003.355-6.947C19.353 13.377 15.782 9.16 13.87 4.325c-1.91-4.833-2.15-10.152-.694-15.384 1.747-6.277 5.845-11.999 11.54-16.11C30.902-31.64 38.605-34 46.99-34c10.563 0 19.467 3.035 25.749 8.776 5.658 5.173 8.775 12.15 8.775 19.647 0 3.642-.742 7.186-2.205 10.533-1.513 3.464-3.73 6.548-6.587 9.166-6.29 5.764-15.188 8.811-25.732 8.811-3.915 0-8-.522-11.646-1.481C31.893 24.993 27.215 27 22.32 27zm24.67-56.933c-16.814 0-27.131 10.027-29.898 19.965C14.48-.577 18.333 8.297 27.401 13.77l1.014.611-.032 1.183a16.013 16.013 0 01-1.619 6.636 14.404 14.404 0 006.37-4.358l.86-1.016 1.275.381c3.577 1.07 7.74 1.66 11.722 1.66 20.926 0 30.457-12.671 30.457-24.444 0-6.34-2.647-12.252-7.452-16.645-5.52-5.045-13.474-7.711-23.005-7.711zM978.32 399h-4.909l3.471-3.471a11.745 11.745 0 003.355-6.947c-4.884-3.205-8.456-7.422-10.367-12.257-1.911-4.833-2.151-10.152-.694-15.384 1.747-6.277 5.845-11.999 11.539-16.111 6.188-4.468 13.89-6.83 22.275-6.83 10.56 0 19.47 3.035 25.75 8.777 5.66 5.172 8.77 12.149 8.77 19.646 0 3.642-.74 7.186-2.2 10.533-1.51 3.464-3.73 6.548-6.59 9.166-6.29 5.764-15.18 8.811-25.73 8.811-3.914 0-7.998-.522-11.645-1.481-3.452 3.541-8.13 5.548-13.025 5.548zm24.67-56.933c-16.813 0-27.13 10.027-29.897 19.965-2.614 9.391 1.24 18.265 10.308 23.738l1.014.611-.032 1.183a16.003 16.003 0 01-1.619 6.636 14.409 14.409 0 006.37-4.358l.86-1.016 1.275.381c3.577 1.07 7.74 1.66 11.721 1.66 20.93 0 30.46-12.671 30.46-24.444 0-6.341-2.65-12.252-7.45-16.645-5.52-5.045-13.48-7.711-23.01-7.711zM22.32 399h-4.91l3.471-3.471a11.747 11.747 0 003.355-6.947c-4.884-3.205-8.455-7.422-10.367-12.257-1.91-4.833-2.15-10.152-.694-15.384 1.747-6.277 5.845-11.999 11.54-16.111 6.187-4.468 13.89-6.83 22.275-6.83 10.563 0 19.467 3.035 25.749 8.777 5.658 5.172 8.775 12.149 8.775 19.646 0 3.642-.742 7.186-2.205 10.533-1.513 3.464-3.73 6.548-6.587 9.166-6.29 5.764-15.188 8.811-25.732 8.811-3.915 0-8-.522-11.646-1.481-3.452 3.541-8.13 5.548-13.025 5.548zm24.671-56.933c-16.814 0-27.131 10.027-29.898 19.965-2.614 9.391 1.24 18.265 10.308 23.738l1.014.611-.032 1.183a16.013 16.013 0 01-1.619 6.636 14.406 14.406 0 006.37-4.358l.86-1.016 1.275.381c3.577 1.07 7.74 1.66 11.722 1.66 20.926 0 30.457-12.671 30.457-24.444 0-6.341-2.647-12.252-7.452-16.645-5.52-5.045-13.474-7.711-23.005-7.711zM688.959 217h4.909l-3.471-3.471a11.745 11.745 0 01-3.355-6.947c4.884-3.205 8.455-7.422 10.367-12.257 1.91-4.833 2.151-10.152.694-15.384-1.747-6.277-5.845-11.999-11.539-16.111-6.188-4.468-13.891-6.83-22.276-6.83-10.564 0-19.467 3.035-25.749 8.777-5.658 5.172-8.775 12.149-8.775 19.646 0 3.642.742 7.186 2.204 10.533 1.514 3.464 3.73 6.548 6.587 9.166 6.29 5.764 15.188 8.811 25.733 8.811 3.914 0 7.999-.522 11.646-1.481 3.452 3.541 8.13 5.548 13.025 5.548zm-24.671-56.933c16.814 0 27.131 10.027 29.898 19.965 2.614 9.391-1.24 18.265-10.308 23.738l-1.014.611.031 1.183c.062 2.342.62 4.597 1.62 6.636a14.409 14.409 0 01-6.37-4.358l-.86-1.016-1.275.381c-3.577 1.07-7.74 1.66-11.722 1.66-20.926 0-30.457-12.671-30.457-24.444 0-6.341 2.647-12.252 7.452-16.645 5.519-5.045 13.474-7.711 23.005-7.711z"/></g></g><defs><linearGradient id="paint0_linear" x1="-4.908" y1="26.845" x2="1408.92" y2="237.862" gradientUnits="userSpaceOnUse"><stop stop-color="#2768E7" stop-opacity=".08"/><stop offset="1" stop-color="#27E76D" stop-opacity=".12"/></linearGradient></defs></svg>