<svg width="295" height="230" fill="none" xmlns="http://www.w3.org/2000/svg"><path d="M245.833 188.25c0-6.658-2.432-12.42-7.298-17.285-4.865-4.866-10.627-7.298-17.285-7.298-6.658 0-12.42 2.432-17.285 7.298-4.866 4.865-7.298 10.627-7.298 17.285 0 6.658 2.432 12.42 7.298 17.285 4.865 4.866 10.627 7.298 17.285 7.298 6.658 0 12.42-2.432 17.285-7.298 4.866-4.865 7.298-10.627 7.298-17.285zm-147.5-147.5c0-6.658-2.432-12.42-7.298-17.285-4.865-4.866-10.627-7.298-17.285-7.298-6.658 0-12.42 2.432-17.285 7.298-4.866 4.865-7.298 10.627-7.298 17.285 0 6.658 2.432 12.42 7.298 17.285 4.865 4.866 10.627 7.298 17.285 7.298 6.658 0 12.42-2.432 17.285-7.298 4.866-4.865 7.298-10.627 7.298-17.285zM295 188.25c0 20.358-7.202 37.739-21.606 52.144C258.989 254.798 241.608 262 221.25 262c-20.358 0-37.739-7.202-52.144-21.606-14.404-14.405-21.606-31.786-21.606-52.144 0-20.358 7.202-37.739 21.606-52.144 14.405-14.404 31.786-21.606 52.144-21.606 20.358 0 37.739 7.202 52.144 21.606C287.798 150.511 295 167.892 295 188.25zM276.562-20.708c0 2.56-.832 4.993-2.496 7.298L71.253 257.007C68.82 260.336 65.556 262 61.458 262H30.73c-3.329 0-6.21-1.216-8.642-3.649-2.433-2.433-3.65-5.314-3.65-8.643 0-2.56.833-4.993 2.497-7.298L223.747-28.006c2.432-3.33 5.697-4.994 9.795-4.994h30.729c3.329 0 6.21 1.216 8.642 3.65 2.433 2.432 3.649 5.313 3.649 8.642zM147.5 40.75c0 20.358-7.202 37.74-21.606 52.144C111.489 107.298 94.108 114.5 73.75 114.5c-20.358 0-37.74-7.202-52.144-21.606C7.202 78.489 0 61.108 0 40.75 0 20.392 7.202 3.01 21.606-11.394 36.011-25.798 53.392-33 73.75-33c20.358 0 37.739 7.202 52.144 21.606C140.298 3.011 147.5 20.392 147.5 40.75z" fill="#8AE2FE"/></svg>