<svg width="71" height="54" fill="none" xmlns="http://www.w3.org/2000/svg"><path fill-rule="evenodd" clip-rule="evenodd" d="M59.807 1.8A6.682 6.682 0 0164.376 0a6.686 6.686 0 014.579 1.776c1.222 1.142 1.924 2.697 1.953 4.328.03 1.631-.616 3.208-1.797 4.39L34.433 51.807a6.517 6.517 0 01-2.115 1.444 6.797 6.797 0 01-5.097.09 6.55 6.55 0 01-2.17-1.368L2.074 30.066a6.225 6.225 0 01-1.51-2.016 5.954 5.954 0 01-.09-4.853 6.195 6.195 0 011.434-2.065 6.548 6.548 0 012.167-1.367 6.8 6.8 0 015.092.086c.8.34 1.518.829 2.115 1.439l18.19 17.329 30.17-36.637c.054-.064.112-.125.174-.182h-.009z" fill="url(#paint0_linear)"/><defs><linearGradient id="paint0_linear" x1="70.909" y1="0" x2="-2.435" y2="3.555" gradientUnits="userSpaceOnUse"><stop stop-color="#C7B8F5"/><stop offset="1" stop-color="#33C5F3"/></linearGradient></defs></svg>