<svg width="2035" height="420" fill="none" xmlns="http://www.w3.org/2000/svg"><path d="M1122.87 231c28.84 0 52.16 8.772 69.96 26.317 17.9 17.545 26.84 40.084 26.84 67.618 0 18.5-4.08 34.916-12.24 49.247-8.17 14.332-19.46 25.406-33.88 33.223-14.33 7.73-31.66 11.595-51.98 11.595-26.84 0-48.81-7.383-65.92-22.148-20.68-17.806-31.01-41.604-31.01-71.396 0-27.707 9.03-50.377 27.1-68.008 18.15-17.632 41.86-26.448 71.13-26.448zm.52 28.923c-13.81 0-24.79 5.168-32.96 15.504-10.25 13.028-15.37 29.835-15.37 50.42s4.77 36.87 14.33 48.856c8.25 10.249 19.15 15.374 32.7 15.374 13.64 0 24.54-5.125 32.7-15.374 9.64-12.246 14.46-28.619 14.46-49.117 0-14.418-2.08-26.534-6.25-36.349-4.08-9.815-9.64-17.154-16.68-22.018-7.03-4.864-14.68-7.296-22.93-7.296zm115.3-25.796h88.6v25.145h-5.87c-5.64 0-9.12.304-10.42.912-2.08.955-3.6 2.301-4.56 4.038-.87 1.738-1.3 4.995-1.3 9.772v48.335l56.67-52.504c2.52-2.345 4.04-3.909 4.56-4.691.52-.868.78-1.606.78-2.214 0-1.216-.52-2.128-1.56-2.736-.95-.608-3.47-.912-7.56-.912h-7.29v-25.145h82.21v25.145h-2.74c-3.82 0-6.47.217-7.95.651-1.47.348-3.3 1.173-5.47 2.475-2.08 1.303-4.82 3.431-8.21 6.384l-43.9 38.043 52.37 70.745c4.52 6.08 7.82 9.684 9.91 10.813 2.77 1.564 6.77 2.345 11.98 2.345h3.52v25.145h-91.72v-25.145h3.65c6.68 0 10.72-.304 12.11-.912 1.48-.608 2.22-1.389 2.22-2.345 0-1.042-1.35-3.517-4.04-7.426l-31.92-45.469-27.62 23.581v18.37c0 4.517.43 7.644 1.3 9.381.87 1.737 2.09 2.996 3.65 3.778 1.65.695 4.91 1.042 9.77 1.042h7.43v25.145h-88.6v-25.145h6.65c5.12 0 8.55-.391 10.29-1.172 1.74-.869 3-2.215 3.78-4.039.69-1.477 1.04-5.038 1.04-10.683v-99.277c0-5.385-.39-8.989-1.17-10.813-.78-1.824-2.04-3.171-3.78-4.039-1.74-.956-4.86-1.433-9.38-1.433h-7.43v-25.145zm279.46 0h40.78l54.59 140.316c2.95 7.469 5.56 12.073 7.82 13.81 2.34 1.737 6.6 2.562 12.77 2.475v25.145h-85.99v-25.145l5.21-.13c4.78 0 8.12-.608 10.03-1.824 1.91-1.303 2.87-2.866 2.87-4.69 0-1.564-.83-4.777-2.48-9.641l-5.34-16.546h-55.37l-6.77 18.37c-1.39 3.908-2.09 6.471-2.09 7.687 0 1.389.48 2.649 1.43 3.778 1.05 1.129 2.7 1.954 4.96 2.475 1.47.348 5.55.521 12.24.521v25.145h-70.35v-25.145c4.52 0 7.82-.391 9.9-1.172 2.08-.782 3.78-1.954 5.08-3.518 1.39-1.563 2.91-4.473 4.56-8.729l56.15-143.182zm-5.6 97.843h36.35l-17.72-50.029-18.63 50.029zm131.85-97.843h95.24c21.62 0 38.82 3.431 51.59 10.292 12.77 6.862 22.93 17.024 30.49 30.487 7.64 13.462 11.46 29.618 11.46 48.465 0 13.116-1.95 24.841-5.86 35.177-3.82 10.336-9.56 19.673-17.2 28.011-7.64 8.252-15.85 14.462-24.62 18.631-6.6 3.127-15.98 5.689-28.14 7.687-12.08 1.997-21.76 2.996-29.06 2.996h-83.9v-25.145h6.25c5.3 0 8.78-.434 10.43-1.302 1.65-.869 2.99-2.346 4.03-4.43.7-1.65 1.05-5.255 1.05-10.814v-99.276c0-5.559-.39-9.12-1.18-10.684-.69-1.65-1.91-2.866-3.64-3.648-1.65-.868-5.22-1.302-10.69-1.302h-6.25v-25.145zm66.44 29.183v112.957c0 3.821.22 6.167.66 7.035.69 1.303 1.69 2.215 2.99 2.736 1.39.434 4.65.652 9.77.652 14.25 0 25.37-2.172 33.36-6.515 8.07-4.429 14.59-11.465 19.54-21.106 4.95-9.728 7.42-21.279 7.42-34.655 0-13.202-2.34-24.667-7.03-34.395-4.6-9.815-10.34-16.72-17.2-20.715-6.86-3.996-16.67-5.994-29.44-5.994h-20.07zm207.81-29.183h40.78l54.59 140.316c2.95 7.469 5.55 12.073 7.81 13.81 2.35 1.737 6.6 2.562 12.77 2.475v25.145h-85.99v-25.145l5.21-.13c4.78 0 8.13-.608 10.04-1.824 1.91-1.303 2.86-2.866 2.86-4.69 0-1.564-.82-4.777-2.47-9.641l-5.34-16.546h-55.38l-6.77 18.37c-1.39 3.908-2.08 6.471-2.08 7.687 0 1.389.47 2.649 1.43 3.778 1.04 1.129 2.69 1.954 4.95 2.475 1.48.348 5.56.521 12.25.521v25.145h-70.36v-25.145c4.52 0 7.82-.391 9.9-1.172 2.09-.782 3.78-1.954 5.08-3.518 1.39-1.563 2.91-4.473 4.56-8.729l56.16-143.182zm-5.6 97.843h36.34l-17.71-50.029-18.63 50.029zm-909.49-97.843v48.044h-25.148v-6.253c0-5.472-.435-9.285-1.303-10.935-.782-1.737-1.998-3.326-3.648-4.021-1.65-.695-20.249-.648-23.606-.648-2.085 0-3.518.521-4.3 1.563-.782.956-1.172 3.214-1.172 6.775V373.14c0 6.167.217 10.032.651 11.595.434 1.564 1.173 2.823 2.215 3.779 1.042.868 2.475 1.476 4.299 1.823 1.824.261 6.688.391 14.592.391v25.145h-88.593v-25.145h5.341c5.907 0 9.685-.347 11.335-1.042 1.65-.782 2.91-2.084 3.778-3.908.869-1.911 1.303-5.82 1.303-11.726V267.219c0-3.04-.347-4.951-1.042-5.733-.695-.781-2.171-1.172-4.43-1.172-5.558 0-22.173-.307-23.736.475-1.651.695-2.867 2.284-3.648 4.021-.869 1.65-1.303 5.463-1.303 10.935v6.253H840v-47.871h163.56zM914.168 3.8c19.84 0 35.886 6.035 48.137 18.107 12.311 12.071 18.466 27.58 18.466 46.523 0 12.73-2.808 24.024-8.426 33.885-5.618 9.86-13.386 17.48-23.307 22.858-9.86 5.319-21.783 7.978-35.767 7.978-18.466 0-33.585-5.079-45.358-15.239-14.223-12.251-21.335-28.625-21.335-49.123 0-19.064 6.215-34.661 18.646-46.793C877.714 9.865 894.028 3.8 914.168 3.8zm.358 19.9c-9.502 0-17.061 3.555-22.679 10.667-7.052 8.964-10.577 20.528-10.577 34.69 0 14.164 3.286 25.37 9.86 33.616 5.677 7.052 13.177 10.578 22.5 10.578 9.382 0 16.882-3.526 22.5-10.578 6.633-8.426 9.95-19.69 9.95-33.794 0-9.92-1.434-18.257-4.303-25.01-2.808-6.753-6.633-11.803-11.474-15.15-4.84-3.346-10.099-5.02-15.777-5.02zm79.333-17.75h60.951v17.301h-4.03c-3.88 0-6.27.21-7.17.628-1.43.657-2.48 1.583-3.14 2.779-.6 1.195-.89 3.436-.89 6.723v33.257l38.99-36.126c1.73-1.613 2.78-2.689 3.14-3.227.36-.598.54-1.105.54-1.524 0-.836-.36-1.464-1.08-1.882-.66-.419-2.39-.628-5.2-.628h-5.02v-17.3h56.56v17.3h-1.88c-2.63 0-4.45.15-5.47.448-1.01.24-2.27.807-3.76 1.704-1.44.896-3.32 2.36-5.65 4.392l-30.21 26.175 36.04 48.675c3.11 4.184 5.38 6.664 6.81 7.441 1.91 1.075 4.66 1.613 8.25 1.613h2.42V131h-63.11v-17.301h2.51c4.6 0 7.38-.209 8.34-.627 1.01-.419 1.52-.956 1.52-1.614 0-.717-.93-2.42-2.78-5.109l-21.96-31.285-19 16.225v12.639c0 3.108.29 5.259.89 6.455.6 1.195 1.44 2.061 2.51 2.599 1.14.478 3.38.717 6.73.717h5.1V131h-60.951v-17.301h4.572c3.529 0 5.889-.269 7.079-.807 1.2-.597 2.06-1.523 2.6-2.778.48-1.016.72-3.467.72-7.351V34.456c0-3.705-.27-6.185-.81-7.44-.54-1.255-1.4-2.181-2.6-2.779-1.19-.657-3.34-.986-6.452-.986h-5.109v-17.3zm146.561 0h61.05v17.301h-5.65c-3.11 0-5.23.329-6.36.986-1.14.598-1.95 1.494-2.42 2.69-.48 1.135-.72 3.645-.72 7.53v21.782h45.54V32.843c0-2.869-.18-4.81-.54-5.827-.48-1.434-1.29-2.42-2.42-2.958-1.14-.538-3.65-.807-7.53-.807h-4.75v-17.3h61.22v17.3h-5.11c-3.46 0-5.76.3-6.9.897-1.14.538-1.94 1.374-2.42 2.51-.42 1.075-.63 3.675-.63 7.798v67.769c0 4.183.27 6.903.81 8.158.6 1.195 1.46 2.061 2.6 2.599 1.19.478 3.88.717 8.07.717h3.58V131h-61.22v-17.301h4.03c3.77 0 6.31-.299 7.62-.896 1.38-.598 2.3-1.464 2.78-2.6.54-1.135.81-3.795.81-7.978V75.781h-45.54v26.444c0 4.183.18 6.783.54 7.799.59 1.494 1.52 2.48 2.78 2.958 1.25.478 3.79.717 7.61.717h4.22V131h-61.05v-17.301h4.13c3.46 0 5.88-.299 7.26-.896 1.37-.598 2.3-1.434 2.78-2.51.53-1.076.8-3.436.8-7.082V35.263c0-4.243-.27-6.992-.8-8.247-.48-1.315-1.26-2.27-2.34-2.868-1.07-.598-3.16-.897-6.27-.897h-5.56v-17.3zm196.32 0h28.05l37.56 96.544c2.04 5.14 3.83 8.307 5.38 9.502 1.62 1.195 4.54 1.763 8.79 1.703V131h-59.17v-17.301l3.59-.089c3.29 0 5.59-.419 6.9-1.255 1.32-.897 1.97-1.972 1.97-3.227 0-1.076-.56-3.287-1.7-6.634l-3.67-11.384h-38.1l-4.66 12.639c-.96 2.689-1.44 4.452-1.44 5.289 0 .956.33 1.823.99 2.599.72.777 1.85 1.345 3.41 1.704 1.01.239 3.82.358 8.42.358V131h-48.4v-17.301c3.1 0 5.37-.269 6.81-.807 1.43-.537 2.6-1.344 3.49-2.42.96-1.076 2.01-3.078 3.14-6.006l38.64-98.515zm-3.86 67.321h25.01L1345.7 38.85l-12.82 34.422z" fill="#000"/><path d="M140.363 254.857s32.166-65.633 66.914-77.223l27.672-111.341s-45.687 35.399-94.586 188.564zm233.081 150.907L293.357 30.263l-5.144-7.076 77.982 382.577h7.249z" fill="#33C5F3"/><path d="M110.847 405.764c17.45-33.207 42.974-68.78 78.829-90.419l20.597-120.349s-35.399-4.492-88.813 115.835c-16.842 37.96-27.282 69.517-33.685 94.911h23.072v.022zm470.544.001l2.735-.955L418.09 172.49s-69.496 10.939-88.813 26.392l43.018 206.905h209.096v-.022zm-240.459-.001L281.463 23.187C267.312 26.4 240.92 54.724 240.92 54.724l-55.236 351.041h155.248zM658 409.002H0v10.288h658v-10.288z" fill="#33C5F3"/><path d="M289.319 14.658l78.113 132.416 6.837-2.43L291.88 5c-36.028 13.522-66.913 54.065-66.913 54.065l1.454 4.71c9.485-11.243 34.596-38.503 62.898-49.117z" fill="#33C5F3"/><path d="M370.537 178.176l-9.658-27.672-67.522-120.24 34.705 162.715 42.475-14.803z" fill="#33C5F3"/></svg>