<svg width="28" height="28" fill="none" xmlns="http://www.w3.org/2000/svg"><path d="M7 0c-.963 0-1.75.787-1.75 1.75v24.5c0 .962.787 1.75 1.75 1.75h17.5c.962 0 1.75-.788 1.75-1.75V7l-7-7H7z" fill="#E2E5E7"/><path d="M21 7h5.25l-7-7v5.25c0 .963.788 1.75 1.75 1.75z" fill="#B0B7BD"/><path d="M26.25 12.25L21 7h5.25v5.25z" fill="#CAD1D8"/><path d="M22.75 22.75a.878.878 0 01-.875.875H2.625a.878.878 0 01-.875-.875V14c0-.481.394-.875.875-.875h19.25c.481 0 .875.394.875.875v8.75z" fill="#F15642"/><path d="M5.564 16.579c0-.231.182-.483.475-.483h1.616c.91 0 1.73.609 1.73 1.776 0 1.106-.82 1.722-1.73 1.722H6.487v.924c0 .308-.196.482-.448.482a.471.471 0 01-.475-.482v-3.94zm.923.398v1.743h1.168c.47 0 .84-.414.84-.848 0-.49-.37-.895-.84-.895H6.487zM10.755 21c-.231 0-.483-.126-.483-.433v-3.975c0-.25.252-.434.483-.434h1.602c3.197 0 3.127 4.842.063 4.842h-1.665zm.44-3.988v3.135h1.162c1.889 0 1.973-3.135 0-3.135h-1.161zm5.423.057v1.112h1.784c.252 0 .504.252.504.496 0 .23-.252.42-.504.42h-1.784v1.469c0 .245-.174.433-.42.433-.307 0-.495-.188-.495-.433v-3.974c0-.251.189-.434.496-.434h2.456c.308 0 .49.183.49.434a.483.483 0 01-.49.476h-2.037z" fill="#fff"/><path d="M21.875 23.625H5.25v.875h16.625a.878.878 0 00.875-.875v-.875a.878.878 0 01-.875.875z" fill="#CAD1D8"/></svg>