<svg width="336" height="718" fill="none" xmlns="http://www.w3.org/2000/svg"><g opacity=".8"><mask id="mask0" maskUnits="userSpaceOnUse" x="-1143" y="-127" width="2522" height="845"><path fill="url(#paint0_linear)" d="M-1142.74-127h2521.48v845h-2521.48z"/></mask><g mask="url(#mask0)" fill="#0C73FE"><path d="M162.837 21.677h-4.582l3.24-3.225c1.747-1.739 2.837-4 3.131-6.454-4.559-2.978-7.892-6.896-9.676-11.39-1.783-4.489-2.007-9.431-.648-14.292 1.631-5.833 5.456-11.15 10.77-14.97 5.775-4.152 12.964-6.346 20.79-6.346 9.859 0 18.169 2.82 24.031 8.155 5.281 4.806 8.189 11.288 8.189 18.254 0 3.384-.692 6.677-2.057 9.787-1.412 3.218-3.481 6.083-6.147 8.516-5.87 5.356-14.175 8.187-24.016 8.187-3.654 0-7.466-.486-10.869-1.377-3.222 3.29-7.588 5.155-12.156 5.155zm23.025-52.898c-15.693 0-25.322 9.316-27.903 18.55-2.44 8.726 1.156 16.97 9.62 22.056l.946.568-.029 1.099a14.822 14.822 0 01-1.512 6.166 13.442 13.442 0 005.945-4.05l.803-.944 1.189.355c3.34.994 7.225 1.541 10.941 1.541 19.53 0 28.425-11.772 28.425-22.711 0-5.892-2.47-11.384-6.955-15.466-5.151-4.687-12.575-7.165-21.47-7.165zm-23.025 429.399h-4.582l3.24-3.226c1.747-1.739 2.837-4 3.131-6.454-4.559-2.978-7.892-6.896-9.676-11.389-1.783-4.49-2.007-9.432-.648-14.293 1.631-5.833 5.456-11.149 10.77-14.97 5.775-4.151 12.964-6.346 20.79-6.346 9.859 0 18.169 2.82 24.031 8.155 5.281 4.806 8.189 11.289 8.189 18.254 0 3.384-.692 6.677-2.057 9.787-1.412 3.218-3.481 6.083-6.147 8.516-5.87 5.356-14.175 8.187-24.016 8.187-3.654 0-7.466-.485-10.869-1.376-3.222 3.29-7.588 5.155-12.156 5.155zm23.025-52.899c-15.693 0-25.322 9.317-27.903 18.55-2.44 8.726 1.156 16.971 9.62 22.056l.946.568-.029 1.099a14.826 14.826 0 01-1.512 6.166 13.443 13.443 0 005.945-4.05l.803-.943 1.189.354c3.34.994 7.225 1.542 10.941 1.542 19.53 0 28.425-11.773 28.425-22.712 0-5.891-2.47-11.384-6.955-15.465-5.151-4.688-12.575-7.165-21.47-7.165zM84.418 213.976H89l-3.24-3.225a10.895 10.895 0 01-3.13-6.455c4.558-2.978 7.89-6.896 9.675-11.389 1.783-4.49 2.007-9.432.648-14.293-1.631-5.833-5.456-11.149-10.77-14.969-5.775-4.152-12.964-6.347-20.79-6.347-9.859 0-18.169 2.82-24.03 8.155-5.282 4.806-8.19 11.289-8.19 18.254 0 3.384.692 6.677 2.057 9.787 1.412 3.218 3.48 6.084 6.147 8.517 5.87 5.355 14.175 8.186 24.016 8.186 3.653 0 7.466-.485 10.87-1.376 3.221 3.29 7.587 5.155 12.155 5.155zm-23.025-52.899c15.693 0 25.322 9.317 27.903 18.55 2.44 8.726-1.156 16.971-9.62 22.056l-.946.568.03 1.099a14.823 14.823 0 001.51 6.166 13.447 13.447 0 01-5.944-4.05l-.803-.943-1.19.354c-3.338.994-7.224 1.542-10.94 1.542-19.53 0-28.425-11.773-28.425-22.712 0-5.891 2.47-11.384 6.955-15.465 5.15-4.687 12.575-7.165 21.47-7.165zm23.025 429.399H89l-3.24-3.225a10.895 10.895 0 01-3.13-6.455c4.558-2.978 7.89-6.896 9.675-11.389 1.783-4.49 2.007-9.432.648-14.293-1.631-5.833-5.456-11.149-10.77-14.969-5.775-4.152-12.964-6.347-20.79-6.347-9.859 0-18.169 2.82-24.03 8.155-5.282 4.806-8.19 11.289-8.19 18.254 0 3.384.692 6.677 2.057 9.787 1.412 3.218 3.48 6.084 6.147 8.517 5.87 5.355 14.175 8.186 24.016 8.186 3.653 0 7.466-.485 10.87-1.376 3.221 3.29 7.587 5.155 12.155 5.155zm-23.025-52.899c15.693 0 25.322 9.317 27.903 18.55 2.44 8.726-1.156 16.971-9.62 22.056l-.946.568.03 1.099a14.823 14.823 0 001.51 6.166 13.447 13.447 0 01-5.944-4.05l-.803-.943-1.19.354c-3.338.994-7.224 1.542-10.94 1.542-19.53 0-28.425-11.773-28.425-22.712 0-5.891 2.47-11.384 6.955-15.465 5.15-4.687 12.575-7.165 21.47-7.165zm276.164-323.601h4.581l-3.239-3.225a10.893 10.893 0 01-3.131-6.455c4.558-2.978 7.891-6.896 9.675-11.389 1.783-4.49 2.007-9.432.648-14.293-1.631-5.833-5.455-11.149-10.77-14.969-5.774-4.152-12.963-6.347-20.789-6.347-9.859 0-18.169 2.82-24.031 8.155-5.281 4.806-8.19 11.289-8.19 18.254 0 3.384.692 6.677 2.057 9.787 1.413 3.218 3.481 6.084 6.148 8.517 5.87 5.355 14.174 8.186 24.016 8.186 3.653 0 7.465-.485 10.869-1.376 3.221 3.29 7.587 5.155 12.156 5.155zm-23.025-52.899c15.692 0 25.321 9.317 27.903 18.55 2.439 8.726-1.157 16.971-9.621 22.056l-.945.568.029 1.099a14.806 14.806 0 001.511 6.166 13.448 13.448 0 01-5.945-4.05l-.802-.943-1.19.354c-3.339.994-7.224 1.542-10.94 1.542-19.53 0-28.426-11.773-28.426-22.712 0-5.891 2.47-11.384 6.956-15.465 5.15-4.687 12.575-7.165 21.47-7.165zm23.025 429.399h4.581l-3.239-3.225a10.893 10.893 0 01-3.131-6.455c4.558-2.978 7.891-6.896 9.675-11.389 1.783-4.49 2.007-9.432.648-14.293-1.631-5.833-5.455-11.149-10.77-14.969-5.774-4.152-12.963-6.347-20.789-6.347-9.859 0-18.169 2.82-24.031 8.155-5.281 4.806-8.19 11.289-8.19 18.254 0 3.384.692 6.677 2.057 9.787 1.413 3.218 3.481 6.084 6.148 8.517 5.87 5.355 14.174 8.186 24.016 8.186 3.653 0 7.465-.485 10.869-1.376 3.221 3.29 7.587 5.155 12.156 5.155zm-23.025-52.899c15.692 0 25.321 9.317 27.903 18.55 2.439 8.726-1.157 16.971-9.621 22.056l-.945.568.029 1.099a14.806 14.806 0 001.511 6.166 13.448 13.448 0 01-5.945-4.05l-.802-.943-1.19.354c-3.339.994-7.224 1.542-10.94 1.542-19.53 0-28.426-11.773-28.426-22.712 0-5.891 2.47-11.384 6.956-15.465 5.15-4.687 12.575-7.165 21.47-7.165zM162.428 149.202h-4.664l3.298-3.283a11.084 11.084 0 003.186-6.57c-4.639-3.031-8.032-7.019-9.848-11.592-1.815-4.57-2.043-9.601-.659-14.549 1.66-5.936 5.553-11.347 10.962-15.236 5.878-4.226 13.195-6.46 21.161-6.46 10.035 0 18.493 2.87 24.46 8.3 5.375 4.892 8.336 11.491 8.336 18.581 0 3.444-.705 6.796-2.094 9.961-1.438 3.276-3.543 6.192-6.257 8.669-5.975 5.451-14.428 8.333-24.445 8.333-3.719 0-7.599-.495-11.063-1.401-3.279 3.348-7.723 5.247-12.373 5.247zm23.436-53.844c-15.973 0-25.774 9.483-28.402 18.882-2.483 8.881 1.178 17.274 9.793 22.449l.962.579-.029 1.118a15.081 15.081 0 01-1.539 6.276 13.674 13.674 0 006.051-4.122l.817-.96 1.211.36c3.399 1.012 7.354 1.57 11.136 1.57 19.879 0 28.933-11.983 28.933-23.117 0-5.997-2.514-11.588-7.08-15.742-5.242-4.771-12.799-7.293-21.853-7.293zm-23.436 430.343h-4.664l3.298-3.282a11.087 11.087 0 003.186-6.57c-4.639-3.031-8.032-7.019-9.848-11.592-1.815-4.57-2.043-9.601-.659-14.549 1.66-5.936 5.553-11.348 10.962-15.236 5.878-4.226 13.195-6.46 21.161-6.46 10.035 0 18.493 2.87 24.46 8.3 5.375 4.892 8.336 11.491 8.336 18.58 0 3.445-.705 6.796-2.094 9.962-1.438 3.276-3.543 6.192-6.257 8.669-5.975 5.451-14.428 8.333-24.445 8.333-3.719 0-7.599-.495-11.063-1.402-3.279 3.349-7.723 5.247-12.373 5.247zm23.436-53.843c-15.973 0-25.774 9.483-28.402 18.882-2.483 8.881 1.178 17.274 9.793 22.449l.962.579-.029 1.118a15.081 15.081 0 01-1.539 6.276 13.682 13.682 0 006.051-4.122l.817-.96 1.211.36c3.399 1.012 7.354 1.57 11.136 1.57 19.879 0 28.933-11.984 28.933-23.118 0-5.996-2.514-11.587-7.08-15.741-5.242-4.771-12.799-7.293-21.853-7.293zM84.828 341.5h4.663l-3.297-3.283a11.089 11.089 0 01-3.187-6.569c4.64-3.032 8.032-7.019 9.848-11.593 1.815-4.57 2.043-9.6.66-14.548-1.66-5.937-5.553-11.348-10.963-15.237-5.878-4.226-13.195-6.459-21.16-6.459-10.035 0-18.494 2.87-24.46 8.3-5.376 4.892-8.337 11.49-8.337 18.58 0 3.444.705 6.796 2.094 9.961 1.438 3.276 3.543 6.193 6.258 8.669 5.975 5.452 14.428 8.333 24.444 8.333 3.72 0 7.6-.494 11.064-1.401 3.279 3.349 7.722 5.247 12.373 5.247zM61.39 287.657c15.973 0 25.774 9.483 28.402 18.881 2.483 8.882-1.177 17.274-9.792 22.45l-.963.578.03 1.119a15.097 15.097 0 001.538 6.276 13.687 13.687 0 01-6.051-4.122l-.817-.961-1.21.361c-3.4 1.012-7.354 1.569-11.137 1.569-19.878 0-28.932-11.983-28.932-23.117 0-5.997 2.514-11.587 7.079-15.742 5.243-4.771 12.8-7.292 21.853-7.292zM84.828 718h4.663l-3.297-3.282a11.094 11.094 0 01-3.187-6.57c4.64-3.031 8.032-7.019 9.848-11.593 1.815-4.569 2.043-9.6.66-14.548-1.66-5.937-5.553-11.348-10.963-15.237-5.878-4.225-13.195-6.459-21.16-6.459-10.035 0-18.494 2.87-24.46 8.3-5.376 4.892-8.337 11.491-8.337 18.58 0 3.445.705 6.796 2.094 9.962 1.438 3.275 3.543 6.192 6.258 8.668 5.975 5.452 14.428 8.333 24.444 8.333 3.72 0 7.6-.494 11.064-1.401 3.279 3.349 7.722 5.247 12.373 5.247zM61.39 664.157c15.973 0 25.774 9.483 28.402 18.882 2.483 8.881-1.177 17.273-9.792 22.449l-.963.578.03 1.119a15.09 15.09 0 001.538 6.276 13.687 13.687 0 01-6.051-4.122l-.817-.961-1.21.361c-3.4 1.012-7.354 1.569-11.137 1.569-19.878 0-28.932-11.983-28.932-23.117 0-5.996 2.514-11.587 7.079-15.741 5.243-4.771 12.8-7.293 21.853-7.293zM337.966 341.5h4.663l-3.297-3.283a11.092 11.092 0 01-3.187-6.569c4.64-3.032 8.032-7.019 9.848-11.593 1.815-4.57 2.043-9.6.66-14.548-1.66-5.937-5.553-11.348-10.962-15.237-5.878-4.226-13.195-6.459-21.161-6.459-10.035 0-18.493 2.87-24.46 8.3-5.376 4.892-8.336 11.49-8.336 18.58 0 3.444.704 6.796 2.094 9.961 1.437 3.276 3.543 6.193 6.257 8.669 5.975 5.452 14.428 8.333 24.445 8.333 3.718 0 7.599-.494 11.063-1.401 3.279 3.349 7.723 5.247 12.373 5.247zm-23.436-53.843c15.972 0 25.773 9.483 28.401 18.881 2.483 8.882-1.177 17.274-9.792 22.45l-.963.578.03 1.119a15.103 15.103 0 001.538 6.276 13.693 13.693 0 01-6.051-4.122l-.816-.961-1.212.361c-3.398 1.012-7.353 1.569-11.135 1.569-19.879 0-28.933-11.983-28.933-23.117 0-5.997 2.514-11.587 7.079-15.742 5.243-4.771 12.8-7.292 21.854-7.292zM337.966 718h4.663l-3.297-3.282a11.097 11.097 0 01-3.187-6.57c4.64-3.031 8.032-7.019 9.848-11.593 1.815-4.569 2.043-9.6.66-14.548-1.66-5.937-5.553-11.348-10.962-15.237-5.878-4.225-13.195-6.459-21.161-6.459-10.035 0-18.493 2.87-24.46 8.3-5.376 4.892-8.336 11.491-8.336 18.58 0 3.445.704 6.796 2.094 9.962 1.437 3.275 3.543 6.192 6.257 8.668 5.975 5.452 14.428 8.333 24.445 8.333 3.718 0 7.599-.494 11.063-1.401 3.279 3.349 7.723 5.247 12.373 5.247zm-23.436-53.843c15.972 0 25.773 9.483 28.401 18.882 2.483 8.881-1.177 17.273-9.792 22.449l-.963.578.03 1.119a15.096 15.096 0 001.538 6.276 13.693 13.693 0 01-6.051-4.122l-.816-.961-1.212.361c-3.398 1.012-7.353 1.569-11.135 1.569-19.879 0-28.933-11.983-28.933-23.117 0-5.996 2.514-11.587 7.079-15.741 5.243-4.771 12.8-7.293 21.854-7.293zM287.367 83.415h-4.991l3.529-3.513a11.863 11.863 0 003.41-7.03c-4.965-3.244-8.595-7.512-10.539-12.406-1.942-4.891-2.186-10.275-.706-15.57 1.777-6.353 5.943-12.144 11.732-16.306 6.29-4.522 14.121-6.913 22.646-6.913 10.739 0 19.791 3.072 26.176 8.883 5.753 5.235 8.921 12.297 8.921 19.884 0 3.686-.754 7.273-2.241 10.66-1.538 3.506-3.791 6.628-6.696 9.278-6.394 5.834-15.441 8.917-26.16 8.917-3.98 0-8.132-.528-11.84-1.499-3.509 3.584-8.265 5.615-13.241 5.615zm25.081-57.622c-17.094 0-27.583 10.15-30.395 20.207-2.657 9.505 1.26 18.486 10.479 24.025l1.031.619-.032 1.197a16.147 16.147 0 01-1.646 6.716 14.644 14.644 0 006.475-4.41l.874-1.029 1.296.386c3.638 1.083 7.87 1.68 11.918 1.68 21.273 0 30.963-12.824 30.963-24.74 0-6.417-2.691-12.4-7.576-16.846-5.611-5.106-13.698-7.805-23.387-7.805zm-25.081 434.122h-4.991l3.529-3.513a11.862 11.862 0 003.41-7.031c-4.965-3.244-8.595-7.511-10.539-12.406-1.942-4.89-2.186-10.274-.706-15.569 1.777-6.353 5.943-12.144 11.732-16.306 6.29-4.522 14.121-6.913 22.646-6.913 10.739 0 19.791 3.072 26.176 8.883 5.753 5.235 8.921 12.297 8.921 19.884a26.37 26.37 0 01-2.241 10.661c-1.538 3.505-3.791 6.626-6.696 9.277-6.394 5.834-15.441 8.917-26.16 8.917-3.98 0-8.132-.529-11.84-1.499-3.509 3.584-8.265 5.615-13.241 5.615zm25.081-57.622c-17.094 0-27.583 10.149-30.395 20.207-2.657 9.505 1.26 18.486 10.479 24.025l1.031.619-.032 1.197a16.145 16.145 0 01-1.646 6.716 14.645 14.645 0 006.475-4.411l.874-1.028 1.296.386c3.638 1.083 7.87 1.679 11.918 1.679 21.273 0 30.963-12.824 30.963-24.739 0-6.417-2.691-12.4-7.576-16.846-5.611-5.106-13.698-7.805-23.387-7.805zM42.601 83.415h-4.99l3.529-3.513a11.868 11.868 0 003.41-7.03c-4.965-3.244-8.596-7.512-10.54-12.407-1.941-4.89-2.185-10.274-.705-15.569 1.776-6.353 5.943-12.144 11.731-16.306 6.29-4.522 14.121-6.913 22.646-6.913 10.74 0 19.791 3.072 26.177 8.883 5.753 5.235 8.921 12.297 8.921 19.884 0 3.686-.754 7.273-2.241 10.66-1.539 3.506-3.792 6.627-6.697 9.278-6.394 5.834-15.44 8.917-26.16 8.917-3.98 0-8.132-.529-11.84-1.499-3.509 3.584-8.264 5.615-13.24 5.615zm25.081-57.622C50.59 25.793 40.1 35.942 37.288 46c-2.658 9.505 1.26 18.486 10.48 24.025l1.03.619-.032 1.197a16.147 16.147 0 01-1.647 6.716 14.646 14.646 0 006.476-4.41l.874-1.029 1.296.386c3.637 1.083 7.87 1.68 11.917 1.68 21.274 0 30.963-12.825 30.963-24.74 0-6.417-2.69-12.4-7.576-16.846-5.61-5.106-13.698-7.805-23.387-7.805zM42.601 459.915h-4.99l3.529-3.513a11.867 11.867 0 003.41-7.031c-4.965-3.244-8.596-7.511-10.54-12.406-1.941-4.89-2.185-10.274-.705-15.569 1.776-6.353 5.943-12.144 11.731-16.306 6.29-4.522 14.121-6.913 22.646-6.913 10.74 0 19.791 3.072 26.177 8.883 5.753 5.235 8.921 12.297 8.921 19.884a26.37 26.37 0 01-2.241 10.661c-1.539 3.505-3.792 6.626-6.697 9.277-6.394 5.834-15.44 8.917-26.16 8.917-3.98 0-8.132-.529-11.84-1.499-3.509 3.584-8.264 5.615-13.24 5.615zm25.081-57.622c-17.093 0-27.582 10.149-30.394 20.207-2.658 9.505 1.26 18.486 10.48 24.025l1.03.619-.032 1.197a16.145 16.145 0 01-1.647 6.716 14.647 14.647 0 006.476-4.411l.874-1.028 1.296.386c3.637 1.083 7.87 1.679 11.917 1.679 21.274 0 30.963-12.824 30.963-24.739 0-6.417-2.69-12.4-7.576-16.846-5.61-5.106-13.698-7.805-23.387-7.805zm145.344-126.579h4.991l-3.529-3.513a11.865 11.865 0 01-3.41-7.031c4.965-3.244 8.596-7.512 10.539-12.406 1.942-4.891 2.186-10.274.706-15.569-1.777-6.354-5.943-12.144-11.732-16.306-6.29-4.523-14.121-6.913-22.646-6.913-10.739 0-19.79 3.071-26.176 8.883-5.753 5.235-8.921 12.296-8.921 19.884 0 3.686.754 7.273 2.241 10.66 1.538 3.506 3.791 6.627 6.696 9.277 6.394 5.834 15.441 8.918 26.16 8.918 3.98 0 8.133-.529 11.84-1.5 3.509 3.584 8.265 5.616 13.241 5.616zm-25.081-57.622c17.094 0 27.583 10.148 30.395 20.207 2.657 9.504-1.26 18.486-10.479 24.024l-1.031.619.032 1.198a16.15 16.15 0 001.646 6.716 14.653 14.653 0 01-6.475-4.411l-.874-1.028-1.296.386c-3.638 1.083-7.87 1.679-11.918 1.679-21.273 0-30.963-12.824-30.963-24.739 0-6.418 2.691-12.401 7.576-16.847 5.611-5.105 13.698-7.804 23.387-7.804zm25.081 434.122h4.991l-3.529-3.514a11.862 11.862 0 01-3.41-7.03c4.965-3.244 8.596-7.512 10.539-12.406 1.942-4.891 2.186-10.275.706-15.569-1.777-6.354-5.943-12.145-11.732-16.307-6.29-4.522-14.121-6.912-22.646-6.912-10.739 0-19.79 3.071-26.176 8.882-5.753 5.236-8.921 12.297-8.921 19.884 0 3.687.754 7.273 2.241 10.661 1.538 3.505 3.791 6.627 6.696 9.277 6.394 5.834 15.441 8.918 26.16 8.918 3.98 0 8.133-.529 11.84-1.5 3.509 3.584 8.265 5.616 13.241 5.616zm-25.081-57.623c17.094 0 27.583 10.149 30.395 20.207 2.657 9.505-1.26 18.486-10.479 24.025l-1.031.619.032 1.197c.063 2.37.63 4.653 1.646 6.716a14.636 14.636 0 01-6.475-4.411l-.874-1.028-1.296.386c-3.638 1.083-7.87 1.68-11.918 1.68-21.273 0-30.963-12.824-30.963-24.74 0-6.417 2.691-12.4 7.576-16.846 5.611-5.106 13.698-7.805 23.387-7.805z"/></g></g><defs><linearGradient id="paint0_linear" x1="-1151.59" y1="-66.185" x2="1417.16" y2="238.838" gradientUnits="userSpaceOnUse"><stop stop-color="#2768E7" stop-opacity=".08"/><stop offset="1" stop-color="#27E76D" stop-opacity=".12"/></linearGradient></defs></svg>