<svg width="1399" height="583" fill="none" xmlns="http://www.w3.org/2000/svg"><path d="M505.589 360.56h-4.506l3.187-3.569c1.718-1.925 2.791-4.428 3.079-7.143-4.483-3.295-7.762-7.631-9.517-12.603-1.754-4.968-1.974-10.438-.637-15.817 1.604-6.454 5.366-12.337 10.593-16.565 5.681-4.595 12.752-7.023 20.45-7.023 9.698 0 17.872 3.12 23.638 9.024 5.195 5.318 8.056 12.492 8.056 20.2 0 3.745-.681 7.389-2.023 10.83-1.39 3.562-3.424 6.733-6.047 9.425-5.775 5.927-13.943 9.06-23.624 9.06-3.593 0-7.343-.538-10.691-1.524-3.169 3.641-7.463 5.705-11.958 5.705zm22.649-58.539c-15.436 0-24.907 10.31-27.447 20.528-2.4 9.657 1.138 18.781 9.463 24.408l.931.628-.029 1.217a18.093 18.093 0 01-1.486 6.822c2.233-.846 4.26-2.381 5.847-4.481l.789-1.044 1.171.392c3.284 1.1 7.106 1.706 10.761 1.706 19.211 0 27.961-13.028 27.961-25.133 0-6.519-2.43-12.597-6.842-17.114-5.066-5.187-12.369-7.929-21.119-7.929zM893.689 156.72h4.507l-3.187-3.569c-1.718-1.924-2.791-4.427-3.079-7.143 4.483-3.295 7.762-7.631 9.517-12.603 1.754-4.968 1.974-10.438.637-15.817-1.604-6.454-5.366-12.337-10.594-16.565C885.81 96.429 878.739 94 871.04 94c-9.697 0-17.871 3.12-23.638 9.024-5.194 5.319-8.055 12.492-8.055 20.2 0 3.745.681 7.389 2.023 10.831 1.39 3.561 3.424 6.732 6.047 9.424 5.774 5.927 13.943 9.06 23.624 9.06 3.593 0 7.343-.538 10.691-1.524 3.169 3.641 7.463 5.705 11.957 5.705zM871.04 98.181c15.436 0 24.908 10.311 27.448 20.529 2.399 9.656-1.138 18.78-9.464 24.407l-.93.628.029 1.217a18.102 18.102 0 001.486 6.823c-2.233-.847-4.26-2.381-5.847-4.481l-.79-1.045-1.17.392c-3.284 1.1-7.106 1.706-10.762 1.706-19.21 0-27.96-13.028-27.96-25.133 0-6.519 2.43-12.597 6.841-17.114 5.067-5.187 12.37-7.929 21.119-7.929zm22.649 475.179h4.507l-3.187-3.569c-1.718-1.924-2.791-4.427-3.079-7.142 4.483-3.296 7.762-7.632 9.517-12.604 1.754-4.968 1.974-10.437.637-15.817-1.604-6.454-5.366-12.337-10.594-16.565-5.68-4.594-12.751-7.023-20.45-7.023-9.697 0-17.871 3.121-23.638 9.024-5.194 5.319-8.055 12.493-8.055 20.201 0 3.744.681 7.388 2.023 10.83 1.39 3.561 3.424 6.732 6.047 9.424 5.774 5.927 13.943 9.06 23.624 9.06 3.593 0 7.343-.537 10.691-1.523 3.169 3.641 7.463 5.704 11.957 5.704zm-22.649-58.539c15.436 0 24.908 10.311 27.448 20.529 2.399 9.656-1.138 18.78-9.464 24.407l-.93.629.029 1.216a18.093 18.093 0 001.486 6.823c-2.233-.847-4.26-2.381-5.847-4.481l-.79-1.045-1.17.392c-3.284 1.101-7.106 1.706-10.762 1.706-19.21 0-27.96-13.028-27.96-25.132 0-6.52 2.43-12.598 6.841-17.115 5.067-5.187 12.37-7.929 21.119-7.929zm349.79-154.261h-4.51l3.19-3.569c1.71-1.925 2.79-4.428 3.08-7.143-4.49-3.295-7.77-7.631-9.52-12.603-1.76-4.968-1.98-10.438-.64-15.817 1.61-6.454 5.37-12.337 10.59-16.565 5.69-4.595 12.76-7.023 20.45-7.023 9.7 0 17.88 3.12 23.64 9.024 5.2 5.318 8.06 12.492 8.06 20.2 0 3.745-.68 7.389-2.03 10.83a27.883 27.883 0 01-6.04 9.425c-5.78 5.927-13.95 9.06-23.63 9.06-3.59 0-7.34-.538-10.69-1.524-3.17 3.641-7.46 5.705-11.95 5.705zm22.64-58.539c-15.43 0-24.9 10.31-27.44 20.528-2.4 9.657 1.14 18.781 9.46 24.408l.93.628-.03 1.217a18.088 18.088 0 01-1.48 6.822c2.23-.846 4.26-2.381 5.84-4.481l.79-1.044 1.17.392c3.29 1.1 7.11 1.706 10.76 1.706 19.22 0 27.97-13.028 27.97-25.133 0-6.519-2.43-12.597-6.85-17.114-5.06-5.187-12.37-7.929-21.12-7.929zM264.825 360.56h-4.506l3.186-3.569c1.719-1.925 2.792-4.428 3.08-7.143-4.484-3.295-7.762-7.631-9.517-12.603-1.754-4.968-1.974-10.438-.637-15.817 1.604-6.454 5.366-12.337 10.593-16.565 5.681-4.595 12.752-7.023 20.45-7.023 9.698 0 17.872 3.12 23.638 9.024 5.195 5.318 8.056 12.492 8.056 20.2 0 3.745-.681 7.389-2.023 10.83-1.39 3.562-3.424 6.733-6.048 9.425-5.774 5.927-13.943 9.06-23.623 9.06-3.593 0-7.343-.538-10.691-1.524-3.169 3.641-7.463 5.705-11.958 5.705zm22.649-58.539c-15.436 0-24.907 10.31-27.447 20.528-2.4 9.657 1.138 18.781 9.463 24.408l.93.628-.028 1.217a18.074 18.074 0 01-1.487 6.822c2.234-.846 4.261-2.381 5.848-4.481l.789-1.044 1.171.392c3.284 1.1 7.106 1.706 10.761 1.706 19.211 0 27.961-13.028 27.961-25.133 0-6.519-2.43-12.597-6.842-17.114-5.066-5.187-12.369-7.929-21.119-7.929zM1134.45 156.72h4.51l-3.19-3.569c-1.71-1.924-2.79-4.427-3.08-7.143 4.49-3.295 7.77-7.631 9.52-12.603 1.75-4.968 1.98-10.438.64-15.817-1.61-6.454-5.37-12.337-10.6-16.565-5.68-4.594-12.75-7.023-20.45-7.023-9.69 0-17.87 3.12-23.63 9.024-5.2 5.319-8.06 12.492-8.06 20.2 0 3.745.68 7.389 2.02 10.831a28.068 28.068 0 006.05 9.424c5.78 5.927 13.94 9.06 23.62 9.06 3.6 0 7.35-.538 10.7-1.524 3.17 3.641 7.46 5.705 11.95 5.705zm-22.65-58.539c15.44 0 24.91 10.311 27.45 20.529 2.4 9.656-1.14 18.78-9.46 24.407l-.93.628.03 1.217c.05 2.407.57 4.726 1.48 6.823-2.23-.847-4.26-2.381-5.84-4.481l-.79-1.045-1.17.392c-3.29 1.1-7.11 1.706-10.77 1.706-19.21 0-27.96-13.028-27.96-25.133 0-6.519 2.43-12.597 6.85-17.114 5.06-5.187 12.37-7.929 21.11-7.929zM178.453 156.72h4.507l-3.187-3.569c-1.718-1.924-2.791-4.427-3.079-7.143 4.483-3.295 7.762-7.631 9.517-12.603 1.754-4.968 1.974-10.438.637-15.817-1.604-6.454-5.366-12.337-10.593-16.565-5.681-4.594-12.752-7.023-20.45-7.023-9.698 0-17.872 3.12-23.638 9.024-5.195 5.319-8.056 12.492-8.056 20.2 0 3.745.681 7.389 2.023 10.831 1.39 3.561 3.424 6.732 6.047 9.424 5.775 5.927 13.943 9.06 23.624 9.06 3.593 0 7.343-.538 10.691-1.524 3.169 3.641 7.463 5.705 11.957 5.705zm-22.648-58.539c15.436 0 24.907 10.311 27.447 20.529 2.399 9.656-1.138 18.78-9.463 24.407l-.931.628.029 1.217a18.102 18.102 0 001.486 6.823c-2.233-.847-4.26-2.381-5.847-4.481l-.789-1.045-1.171.392c-3.284 1.1-7.106 1.706-10.761 1.706-19.211 0-27.961-13.028-27.961-25.133 0-6.519 2.43-12.597 6.842-17.114 5.066-5.187 12.369-7.929 21.119-7.929zM1134.45 573.36h4.51l-3.19-3.569c-1.71-1.924-2.79-4.427-3.08-7.142 4.49-3.296 7.77-7.632 9.52-12.604 1.75-4.968 1.98-10.437.64-15.817-1.61-6.454-5.37-12.337-10.6-16.565-5.68-4.594-12.75-7.023-20.45-7.023-9.69 0-17.87 3.121-23.63 9.024-5.2 5.319-8.06 12.493-8.06 20.201 0 3.744.68 7.388 2.02 10.83a28.068 28.068 0 006.05 9.424c5.78 5.927 13.94 9.06 23.62 9.06 3.6 0 7.35-.537 10.7-1.523 3.17 3.641 7.46 5.704 11.95 5.704zm-22.65-58.539c15.44 0 24.91 10.311 27.45 20.529 2.4 9.656-1.14 18.78-9.46 24.407l-.93.629.03 1.216c.05 2.408.57 4.727 1.48 6.823-2.23-.847-4.26-2.381-5.84-4.481l-.79-1.045-1.17.392c-3.29 1.101-7.11 1.706-10.77 1.706-19.21 0-27.96-13.028-27.96-25.132 0-6.52 2.43-12.598 6.85-17.115 5.06-5.187 12.37-7.929 21.11-7.929zM178.453 573.36h4.507l-3.187-3.569c-1.718-1.924-2.791-4.427-3.079-7.142 4.483-3.296 7.762-7.632 9.517-12.604 1.754-4.968 1.974-10.437.637-15.817-1.604-6.454-5.366-12.337-10.593-16.565-5.681-4.594-12.752-7.023-20.45-7.023-9.698 0-17.872 3.121-23.638 9.024-5.195 5.319-8.056 12.493-8.056 20.201 0 3.744.681 7.388 2.023 10.83 1.39 3.561 3.424 6.732 6.047 9.424 5.775 5.927 13.943 9.06 23.624 9.06 3.593 0 7.343-.537 10.691-1.523 3.169 3.641 7.463 5.704 11.957 5.704zm-22.648-58.539c15.436 0 24.907 10.311 27.447 20.529 2.399 9.656-1.138 18.78-9.463 24.407l-.931.629.029 1.216a18.093 18.093 0 001.486 6.823c-2.233-.847-4.26-2.381-5.847-4.481l-.789-1.045-1.171.392c-3.284 1.101-7.106 1.706-10.761 1.706-19.211 0-27.961-13.028-27.961-25.132 0-6.52 2.43-12.598 6.842-17.115 5.066-5.187 12.369-7.929 21.119-7.929zm815.02-154.261h-4.506l3.186-3.569c1.719-1.925 2.792-4.428 3.08-7.143-4.484-3.295-7.762-7.631-9.517-12.603-1.754-4.968-1.974-10.438-.637-15.817 1.604-6.454 5.366-12.337 10.593-16.565 5.681-4.595 12.752-7.023 20.45-7.023 9.696 0 17.876 3.12 23.636 9.024 5.2 5.318 8.06 12.492 8.06 20.2 0 3.745-.68 7.389-2.03 10.83a27.883 27.883 0 01-6.04 9.425c-5.78 5.927-13.95 9.06-23.626 9.06-3.593 0-7.343-.538-10.691-1.524-3.169 3.641-7.463 5.705-11.958 5.705zm22.649-58.539c-15.436 0-24.907 10.31-27.447 20.528-2.4 9.657 1.138 18.781 9.463 24.408l.93.628-.028 1.217a18.074 18.074 0 01-1.487 6.822c2.234-.846 4.261-2.381 5.848-4.481l.789-1.044 1.171.392c3.284 1.1 7.106 1.706 10.761 1.706 19.206 0 27.956-13.028 27.956-25.133 0-6.519-2.43-12.597-6.84-17.114-5.06-5.187-12.37-7.929-21.116-7.929zM14.825 360.56H10.32l3.186-3.569c1.719-1.925 2.792-4.428 3.08-7.143-4.484-3.295-7.762-7.631-9.517-12.603-1.754-4.968-1.974-10.438-.637-15.817 1.604-6.454 5.366-12.337 10.593-16.565 5.68-4.595 12.752-7.023 20.45-7.023 9.698 0 17.872 3.12 23.638 9.024 5.195 5.318 8.056 12.492 8.056 20.2 0 3.745-.68 7.389-2.024 10.83a27.998 27.998 0 01-6.047 9.425c-5.774 5.927-13.943 9.06-23.623 9.06-3.593 0-7.343-.538-10.691-1.524-3.17 3.641-7.463 5.705-11.958 5.705zm22.65-58.539c-15.437 0-24.908 10.31-27.448 20.528-2.4 9.657 1.138 18.781 9.463 24.408l.93.628-.028 1.217a18.083 18.083 0 01-1.487 6.822c2.234-.846 4.26-2.381 5.848-4.481l.79-1.044 1.17.392c3.284 1.1 7.106 1.706 10.761 1.706 19.211 0 27.96-13.028 27.96-25.133 0-6.519-2.429-12.597-6.84-17.114-5.067-5.187-12.37-7.929-21.12-7.929zM1384.45 156.72h4.51l-3.19-3.569c-1.71-1.924-2.79-4.427-3.08-7.143 4.49-3.295 7.77-7.631 9.52-12.603 1.75-4.968 1.98-10.438.64-15.817-1.61-6.454-5.37-12.337-10.6-16.565-5.68-4.594-12.75-7.023-20.45-7.023-9.69 0-17.87 3.12-23.63 9.024-5.2 5.319-8.06 12.492-8.06 20.2 0 3.745.68 7.389 2.02 10.831a28.068 28.068 0 006.05 9.424c5.78 5.927 13.94 9.06 23.62 9.06 3.6 0 7.35-.538 10.7-1.524 3.17 3.641 7.46 5.705 11.95 5.705zm-22.65-58.539c15.44 0 24.91 10.311 27.45 20.529 2.4 9.656-1.14 18.78-9.46 24.407l-.93.628.03 1.217c.05 2.407.57 4.726 1.48 6.823-2.23-.847-4.26-2.381-5.84-4.481l-.79-1.045-1.17.392c-3.29 1.1-7.11 1.706-10.77 1.706-19.21 0-27.96-13.028-27.96-25.133 0-6.519 2.43-12.597 6.85-17.114 5.06-5.187 12.37-7.929 21.11-7.929zM428.453 156.72h4.507l-3.187-3.569c-1.718-1.924-2.791-4.427-3.079-7.143 4.483-3.295 7.762-7.631 9.517-12.603 1.754-4.968 1.974-10.438.637-15.817-1.604-6.454-5.366-12.337-10.593-16.565-5.681-4.594-12.752-7.023-20.45-7.023-9.698 0-17.872 3.12-23.638 9.024-5.195 5.319-8.056 12.492-8.056 20.2 0 3.745.681 7.389 2.023 10.831 1.39 3.561 3.424 6.732 6.047 9.424 5.775 5.927 13.943 9.06 23.624 9.06 3.593 0 7.343-.538 10.691-1.524 3.169 3.641 7.463 5.705 11.957 5.705zm-22.648-58.539c15.436 0 24.907 10.311 27.447 20.529 2.399 9.656-1.138 18.78-9.463 24.407l-.931.628.029 1.217a18.102 18.102 0 001.486 6.823c-2.233-.847-4.26-2.381-5.847-4.481l-.789-1.045-1.171.392c-3.284 1.1-7.106 1.706-10.761 1.706-19.211 0-27.961-13.028-27.961-25.133 0-6.519 2.43-12.597 6.842-17.114 5.066-5.187 12.369-7.929 21.119-7.929zM1384.45 573.36h4.51l-3.19-3.569c-1.71-1.924-2.79-4.427-3.08-7.142 4.49-3.296 7.77-7.632 9.52-12.604 1.75-4.968 1.98-10.437.64-15.817-1.61-6.454-5.37-12.337-10.6-16.565-5.68-4.594-12.75-7.023-20.45-7.023-9.69 0-17.87 3.121-23.63 9.024-5.2 5.319-8.06 12.493-8.06 20.201 0 3.744.68 7.388 2.02 10.83a28.068 28.068 0 006.05 9.424c5.78 5.927 13.94 9.06 23.62 9.06 3.6 0 7.35-.537 10.7-1.523 3.17 3.641 7.46 5.704 11.95 5.704zm-22.65-58.539c15.44 0 24.91 10.311 27.45 20.529 2.4 9.656-1.14 18.78-9.46 24.407l-.93.629.03 1.216c.05 2.408.57 4.727 1.48 6.823-2.23-.847-4.26-2.381-5.84-4.481l-.79-1.045-1.17.392c-3.29 1.101-7.11 1.706-10.77 1.706-19.21 0-27.96-13.028-27.96-25.132 0-6.52 2.43-12.598 6.85-17.115 5.06-5.187 12.37-7.929 21.11-7.929zM428.453 573.36h4.507l-3.187-3.569c-1.718-1.924-2.791-4.427-3.079-7.142 4.483-3.296 7.762-7.632 9.517-12.604 1.754-4.968 1.974-10.437.637-15.817-1.604-6.454-5.366-12.337-10.593-16.565-5.681-4.594-12.752-7.023-20.45-7.023-9.698 0-17.872 3.121-23.638 9.024-5.195 5.319-8.056 12.493-8.056 20.201 0 3.744.681 7.388 2.023 10.83 1.39 3.561 3.424 6.732 6.047 9.424 5.775 5.927 13.943 9.06 23.624 9.06 3.593 0 7.343-.537 10.691-1.523 3.169 3.641 7.463 5.704 11.957 5.704zm-22.648-58.539c15.436 0 24.907 10.311 27.447 20.529 2.399 9.656-1.138 18.78-9.463 24.407l-.931.629.029 1.216a18.093 18.093 0 001.486 6.823c-2.233-.847-4.26-2.381-5.847-4.481l-.789-1.045-1.171.392c-3.284 1.101-7.106 1.706-10.761 1.706-19.211 0-27.961-13.028-27.961-25.132 0-6.52 2.43-12.598 6.842-17.115 5.066-5.187 12.369-7.929 21.119-7.929zm316.02-154.261h-4.506l3.186-3.569c1.719-1.925 2.792-4.428 3.08-7.143-4.484-3.295-7.762-7.631-9.517-12.603-1.754-4.968-1.974-10.438-.637-15.817 1.604-6.454 5.366-12.337 10.593-16.565 5.681-4.595 12.752-7.023 20.45-7.023 9.698 0 17.872 3.12 23.638 9.024 5.195 5.318 8.056 12.492 8.056 20.2 0 3.745-.681 7.389-2.023 10.83-1.39 3.562-3.424 6.733-6.048 9.425-5.774 5.927-13.943 9.06-23.623 9.06-3.593 0-7.343-.538-10.691-1.524-3.169 3.641-7.463 5.705-11.958 5.705zm22.649-58.539c-15.436 0-24.907 10.31-27.447 20.528-2.4 9.657 1.138 18.781 9.463 24.408l.93.628-.028 1.217a18.074 18.074 0 01-1.487 6.822c2.234-.846 4.261-2.381 5.848-4.481l.789-1.044 1.171.392c3.284 1.1 7.106 1.706 10.761 1.706 19.211 0 27.961-13.028 27.961-25.133 0-6.519-2.43-12.597-6.842-17.114-5.066-5.187-12.369-7.929-21.119-7.929zM677.453 156.72h4.507l-3.187-3.569c-1.718-1.924-2.791-4.427-3.079-7.143 4.483-3.295 7.762-7.631 9.517-12.603 1.754-4.968 1.974-10.438.637-15.817-1.604-6.454-5.366-12.337-10.593-16.565-5.681-4.594-12.752-7.023-20.45-7.023-9.698 0-17.872 3.12-23.638 9.024-5.195 5.319-8.056 12.492-8.056 20.2 0 3.745.681 7.389 2.023 10.831 1.39 3.561 3.424 6.732 6.047 9.424 5.775 5.927 13.943 9.06 23.624 9.06 3.593 0 7.343-.538 10.691-1.524 3.169 3.641 7.463 5.705 11.957 5.705zm-22.648-58.539c15.436 0 24.907 10.311 27.447 20.529 2.399 9.656-1.138 18.78-9.463 24.407l-.931.628.029 1.217a18.102 18.102 0 001.486 6.823c-2.233-.847-4.26-2.381-5.847-4.481l-.789-1.045-1.171.392c-3.284 1.1-7.106 1.706-10.761 1.706-19.211 0-27.961-13.028-27.961-25.133 0-6.519 2.43-12.597 6.842-17.114 5.066-5.187 12.369-7.929 21.119-7.929zm22.648 475.179h4.507l-3.187-3.569c-1.718-1.924-2.791-4.427-3.079-7.142 4.483-3.296 7.762-7.632 9.517-12.604 1.754-4.968 1.974-10.437.637-15.817-1.604-6.454-5.366-12.337-10.593-16.565-5.681-4.594-12.752-7.023-20.45-7.023-9.698 0-17.872 3.121-23.638 9.024-5.195 5.319-8.056 12.493-8.056 20.201 0 3.744.681 7.388 2.023 10.83 1.39 3.561 3.424 6.732 6.047 9.424 5.775 5.927 13.943 9.06 23.624 9.06 3.593 0 7.343-.537 10.691-1.523 3.169 3.641 7.463 5.704 11.957 5.704zm-22.648-58.539c15.436 0 24.907 10.311 27.447 20.529 2.399 9.656-1.138 18.78-9.463 24.407l-.931.629.029 1.216a18.093 18.093 0 001.486 6.823c-2.233-.847-4.26-2.381-5.847-4.481l-.789-1.045-1.171.392c-3.284 1.101-7.106 1.706-10.761 1.706-19.211 0-27.961-13.028-27.961-25.132 0-6.52 2.43-12.598 6.842-17.115 5.066-5.187 12.369-7.929 21.119-7.929zM505.187 85.04H500.6l3.243-3.633c1.749-1.958 2.842-4.506 3.135-7.27-4.564-3.354-7.901-7.767-9.687-12.828-1.785-5.057-2.01-10.624-.649-16.1 1.633-6.569 5.462-12.557 10.783-16.86 5.782-4.677 12.98-7.149 20.815-7.149 9.871 0 18.191 3.176 24.06 9.185 5.288 5.414 8.2 12.716 8.2 20.561 0 3.812-.693 7.521-2.06 11.024a28.504 28.504 0 01-6.155 9.593c-5.877 6.032-14.192 9.221-24.045 9.221-3.658 0-7.474-.547-10.882-1.55-3.226 3.706-7.597 5.806-12.171 5.806zm23.053-59.584c-15.711 0-25.352 10.494-27.937 20.895-2.443 9.829 1.158 19.116 9.632 24.843l.947.64-.029 1.238a18.426 18.426 0 01-1.513 6.945c2.273-.862 4.336-2.424 5.952-4.561l.803-1.064 1.192.4c3.343 1.12 7.233 1.736 10.953 1.736 19.554 0 28.46-13.26 28.46-25.582 0-6.635-2.473-12.822-6.964-17.42-5.157-5.279-12.59-8.07-21.496-8.07zM505.187 501.68H500.6l3.243-3.633c1.749-1.959 2.842-4.506 3.135-7.27-4.564-3.354-7.901-7.767-9.687-12.828-1.785-5.057-2.01-10.624-.649-16.1 1.633-6.569 5.462-12.557 10.783-16.861 5.782-4.676 12.98-7.148 20.815-7.148 9.871 0 18.191 3.176 24.06 9.185 5.288 5.413 8.2 12.716 8.2 20.561 0 3.812-.693 7.521-2.06 11.024a28.517 28.517 0 01-6.155 9.593c-5.877 6.032-14.192 9.221-24.045 9.221-3.658 0-7.474-.547-10.882-1.551-3.226 3.706-7.597 5.807-12.171 5.807zm23.053-59.584c-15.711 0-25.352 10.494-27.937 20.895-2.443 9.828 1.158 19.115 9.632 24.843l.947.64-.029 1.238a18.422 18.422 0 01-1.513 6.944c2.273-.861 4.336-2.423 5.952-4.561l.803-1.063 1.192.399c3.343 1.12 7.233 1.737 10.953 1.737 19.554 0 28.46-13.261 28.46-25.582 0-6.636-2.473-12.822-6.964-17.42-5.157-5.279-12.59-8.07-21.496-8.07zM894.092 297.84h4.587l-3.244-3.633c-1.749-1.959-2.841-4.506-3.134-7.27 4.563-3.354 7.901-7.767 9.687-12.828 1.785-5.057 2.009-10.624.649-16.099-1.633-6.57-5.463-12.558-10.783-16.862-5.782-4.676-12.98-7.148-20.815-7.148-9.871 0-18.191 3.176-24.061 9.185-5.287 5.414-8.199 12.716-8.199 20.561 0 3.812.693 7.521 2.059 11.024a28.525 28.525 0 006.156 9.593c5.877 6.032 14.192 9.221 24.045 9.221 3.657 0 7.474-.547 10.882-1.55 3.226 3.706 7.596 5.806 12.171 5.806zm-23.053-59.584c15.711 0 25.352 10.494 27.937 20.895 2.442 9.828-1.158 19.115-9.632 24.843l-.947.64.029 1.238c.058 2.45.579 4.811 1.513 6.945-2.274-.862-4.337-2.424-5.952-4.562l-.803-1.063-1.192.399c-3.343 1.12-7.233 1.737-10.953 1.737-19.554 0-28.46-13.261-28.46-25.582 0-6.636 2.473-12.822 6.963-17.419 5.157-5.28 12.591-8.071 21.497-8.071zM1220.42 85.04h-4.58l3.24-3.633c1.75-1.958 2.84-4.506 3.13-7.27-4.56-3.354-7.9-7.767-9.68-12.828-1.79-5.057-2.01-10.624-.65-16.1 1.63-6.569 5.46-12.557 10.78-16.86 5.78-4.677 12.98-7.149 20.82-7.149 9.87 0 18.19 3.176 24.06 9.185 5.28 5.414 8.2 12.716 8.2 20.561 0 3.812-.7 7.521-2.06 11.024-1.42 3.625-3.49 6.852-6.16 9.593-5.88 6.032-14.19 9.221-24.04 9.221-3.66 0-7.48-.547-10.89-1.55-3.22 3.706-7.59 5.806-12.17 5.806zm23.06-59.584c-15.72 0-25.36 10.494-27.94 20.895-2.44 9.829 1.16 19.116 9.63 24.843l.95.64-.03 1.238a18.52 18.52 0 01-1.51 6.945c2.27-.862 4.33-2.424 5.95-4.561l.8-1.064 1.19.4c3.35 1.12 7.24 1.736 10.96 1.736 19.55 0 28.46-13.26 28.46-25.582 0-6.635-2.48-12.822-6.97-17.42-5.15-5.279-12.59-8.07-21.49-8.07zM264.423 85.04h-4.587l3.243-3.633c1.749-1.958 2.841-4.506 3.135-7.27-4.564-3.354-7.901-7.767-9.687-12.828-1.785-5.057-2.01-10.624-.649-16.1 1.633-6.569 5.462-12.557 10.783-16.86 5.782-4.677 12.979-7.149 20.815-7.149 9.871 0 18.191 3.176 24.06 9.185 5.288 5.414 8.2 12.716 8.2 20.561 0 3.812-.693 7.521-2.06 11.024a28.504 28.504 0 01-6.155 9.593c-5.877 6.032-14.192 9.221-24.045 9.221-3.658 0-7.475-.547-10.882-1.55-3.226 3.706-7.597 5.806-12.171 5.806zm23.053-59.584c-15.712 0-25.352 10.494-27.937 20.895-2.443 9.829 1.158 19.116 9.632 24.843l.947.64-.029 1.238a18.426 18.426 0 01-1.513 6.945c2.273-.862 4.336-2.424 5.952-4.561l.803-1.064 1.191.4c3.343 1.12 7.234 1.736 10.954 1.736 19.554 0 28.46-13.26 28.46-25.582 0-6.635-2.473-12.822-6.964-17.42-5.157-5.279-12.59-8.07-21.496-8.07zM1220.42 501.68h-4.58l3.24-3.633c1.75-1.959 2.84-4.506 3.13-7.27-4.56-3.354-7.9-7.767-9.68-12.828-1.79-5.057-2.01-10.624-.65-16.1 1.63-6.569 5.46-12.557 10.78-16.861 5.78-4.676 12.98-7.148 20.82-7.148 9.87 0 18.19 3.176 24.06 9.185 5.28 5.413 8.2 12.716 8.2 20.561 0 3.812-.7 7.521-2.06 11.024-1.42 3.624-3.49 6.852-6.16 9.593-5.88 6.032-14.19 9.221-24.04 9.221-3.66 0-7.48-.547-10.89-1.551-3.22 3.706-7.59 5.807-12.17 5.807zm23.06-59.584c-15.72 0-25.36 10.494-27.94 20.895-2.44 9.828 1.16 19.115 9.63 24.843l.95.64-.03 1.238c-.06 2.45-.58 4.811-1.51 6.944 2.27-.861 4.33-2.423 5.95-4.561l.8-1.063 1.19.399c3.35 1.12 7.24 1.737 10.96 1.737 19.55 0 28.46-13.261 28.46-25.582 0-6.636-2.48-12.822-6.97-17.42-5.15-5.279-12.59-8.07-21.49-8.07zM264.423 501.68h-4.587l3.243-3.633c1.749-1.959 2.841-4.506 3.135-7.27-4.564-3.354-7.901-7.767-9.687-12.828-1.785-5.057-2.01-10.624-.649-16.1 1.633-6.569 5.462-12.557 10.783-16.861 5.782-4.676 12.979-7.148 20.815-7.148 9.871 0 18.191 3.176 24.06 9.185 5.288 5.413 8.2 12.716 8.2 20.561 0 3.812-.693 7.521-2.06 11.024a28.517 28.517 0 01-6.155 9.593c-5.877 6.032-14.192 9.221-24.045 9.221-3.658 0-7.475-.547-10.882-1.551-3.226 3.706-7.597 5.807-12.171 5.807zm23.053-59.584c-15.712 0-25.352 10.494-27.937 20.895-2.443 9.828 1.158 19.115 9.632 24.843l.947.64-.029 1.238a18.422 18.422 0 01-1.513 6.944c2.273-.861 4.336-2.423 5.952-4.561l.803-1.063 1.191.399c3.343 1.12 7.234 1.737 10.954 1.737 19.554 0 28.46-13.261 28.46-25.582 0-6.636-2.473-12.822-6.964-17.42-5.157-5.279-12.59-8.07-21.496-8.07zM1134.86 297.84h4.58l-3.24-3.633c-1.75-1.959-2.84-4.506-3.13-7.27 4.56-3.354 7.9-7.767 9.68-12.828 1.79-5.057 2.01-10.624.65-16.099-1.63-6.57-5.46-12.558-10.78-16.862-5.78-4.676-12.98-7.148-20.82-7.148-9.87 0-18.19 3.176-24.06 9.185-5.28 5.414-8.2 12.716-8.2 20.561 0 3.812.7 7.521 2.06 11.024 1.42 3.625 3.49 6.852 6.16 9.593 5.88 6.032 14.19 9.221 24.04 9.221 3.66 0 7.48-.547 10.89-1.55 3.22 3.706 7.59 5.806 12.17 5.806zm-23.06-59.584c15.71 0 25.36 10.494 27.94 20.895 2.44 9.828-1.16 19.115-9.63 24.843l-.95.64.03 1.238c.06 2.45.58 4.811 1.51 6.945-2.27-.862-4.33-2.424-5.95-4.562l-.8-1.063-1.19.399c-3.35 1.12-7.24 1.737-10.96 1.737-19.55 0-28.46-13.261-28.46-25.582 0-6.636 2.48-12.822 6.97-17.419 5.15-5.28 12.59-8.071 21.49-8.071zM178.856 297.84h4.587l-3.244-3.633c-1.748-1.959-2.841-4.506-3.134-7.27 4.564-3.354 7.901-7.767 9.687-12.828 1.785-5.057 2.01-10.624.649-16.099-1.633-6.57-5.463-12.558-10.783-16.862-5.782-4.676-12.98-7.148-20.815-7.148-9.871 0-18.191 3.176-24.06 9.185-5.288 5.414-8.2 12.716-8.2 20.561 0 3.812.693 7.521 2.06 11.024a28.507 28.507 0 006.155 9.593c5.877 6.032 14.192 9.221 24.045 9.221 3.658 0 7.474-.547 10.882-1.55 3.226 3.706 7.597 5.806 12.171 5.806zm-23.053-59.584c15.711 0 25.352 10.494 27.937 20.895 2.443 9.828-1.158 19.115-9.632 24.843l-.947.64.029 1.238c.058 2.45.579 4.811 1.513 6.945-2.273-.862-4.336-2.424-5.952-4.562l-.803-1.063-1.192.399c-3.343 1.12-7.233 1.737-10.953 1.737-19.554 0-28.46-13.261-28.46-25.582 0-6.636 2.473-12.822 6.964-17.419 5.157-5.28 12.59-8.071 21.496-8.071zM970.423 85.04h-4.587l3.243-3.633c1.749-1.958 2.841-4.506 3.135-7.27-4.564-3.354-7.901-7.767-9.687-12.828-1.785-5.057-2.01-10.624-.649-16.1 1.633-6.569 5.462-12.557 10.783-16.86 5.782-4.677 12.979-7.149 20.815-7.149 9.874 0 18.194 3.176 24.064 9.185 5.28 5.414 8.2 12.716 8.2 20.561 0 3.812-.7 7.521-2.06 11.024-1.42 3.625-3.49 6.852-6.16 9.593-5.88 6.032-14.19 9.221-24.044 9.221-3.658 0-7.475-.547-10.882-1.55-3.226 3.706-7.597 5.806-12.171 5.806zm23.053-59.584c-15.712 0-25.352 10.494-27.937 20.895-2.443 9.829 1.158 19.116 9.632 24.843l.947.64-.029 1.238a18.426 18.426 0 01-1.513 6.945c2.273-.862 4.336-2.424 5.952-4.561l.803-1.064 1.191.4c3.343 1.12 7.234 1.736 10.954 1.736 19.554 0 28.464-13.26 28.464-25.582 0-6.635-2.48-12.822-6.97-17.42-5.15-5.279-12.59-8.07-21.494-8.07zM14.423 85.04H9.836l3.243-3.633c1.75-1.958 2.841-4.506 3.135-7.27-4.564-3.354-7.9-7.767-9.687-12.828-1.785-5.057-2.01-10.624-.649-16.1 1.633-6.569 5.462-12.557 10.783-16.86 5.782-4.677 12.98-7.149 20.815-7.149 9.87 0 18.19 3.176 24.06 9.185 5.288 5.414 8.2 12.716 8.2 20.561 0 3.812-.693 7.521-2.06 11.024a28.507 28.507 0 01-6.155 9.593c-5.877 6.032-14.192 9.221-24.045 9.221-3.658 0-7.475-.547-10.882-1.55-3.226 3.706-7.597 5.806-12.171 5.806zm23.053-59.584c-15.711 0-25.352 10.494-27.937 20.895-2.443 9.829 1.158 19.116 9.632 24.843l.947.64-.03 1.238a18.41 18.41 0 01-1.512 6.945c2.273-.862 4.336-2.424 5.952-4.561l.803-1.064 1.191.4c3.344 1.12 7.233 1.736 10.954 1.736 19.554 0 28.46-13.26 28.46-25.582 0-6.635-2.473-12.822-6.964-17.42-5.157-5.279-12.59-8.07-21.496-8.07zM970.423 501.68h-4.587l3.243-3.633c1.749-1.959 2.841-4.506 3.135-7.27-4.564-3.354-7.901-7.767-9.687-12.828-1.785-5.057-2.01-10.624-.649-16.1 1.633-6.569 5.462-12.557 10.783-16.861 5.782-4.676 12.979-7.148 20.815-7.148 9.874 0 18.194 3.176 24.064 9.185 5.28 5.413 8.2 12.716 8.2 20.561 0 3.812-.7 7.521-2.06 11.024-1.42 3.624-3.49 6.852-6.16 9.593-5.88 6.032-14.19 9.221-24.044 9.221-3.658 0-7.475-.547-10.882-1.551-3.226 3.706-7.597 5.807-12.171 5.807zm23.053-59.584c-15.712 0-25.352 10.494-27.937 20.895-2.443 9.828 1.158 19.115 9.632 24.843l.947.64-.029 1.238a18.422 18.422 0 01-1.513 6.944c2.273-.861 4.336-2.423 5.952-4.561l.803-1.063 1.191.399c3.343 1.12 7.234 1.737 10.954 1.737 19.554 0 28.464-13.261 28.464-25.582 0-6.636-2.48-12.822-6.97-17.42-5.15-5.279-12.59-8.07-21.494-8.07zM14.423 501.68H9.836l3.243-3.633c1.75-1.959 2.841-4.506 3.135-7.27-4.564-3.354-7.9-7.767-9.687-12.828-1.785-5.057-2.01-10.624-.649-16.1 1.633-6.569 5.462-12.557 10.783-16.861 5.782-4.676 12.98-7.148 20.815-7.148 9.87 0 18.19 3.176 24.06 9.185 5.288 5.413 8.2 12.716 8.2 20.561 0 3.812-.693 7.521-2.06 11.024a28.52 28.52 0 01-6.155 9.593c-5.877 6.032-14.192 9.221-24.045 9.221-3.658 0-7.475-.547-10.882-1.551-3.226 3.706-7.597 5.807-12.171 5.807zm23.053-59.584c-15.711 0-25.352 10.494-27.937 20.895-2.443 9.828 1.158 19.115 9.632 24.843l.947.64-.03 1.238a18.407 18.407 0 01-1.512 6.944c2.273-.861 4.336-2.423 5.952-4.561l.803-1.063 1.191.399c3.344 1.12 7.233 1.737 10.954 1.737 19.554 0 28.46-13.261 28.46-25.582 0-6.636-2.473-12.822-6.964-17.42-5.157-5.279-12.59-8.07-21.496-8.07zM1384.86 297.84h4.58l-3.24-3.633c-1.75-1.959-2.84-4.506-3.13-7.27 4.56-3.354 7.9-7.767 9.68-12.828 1.79-5.057 2.01-10.624.65-16.099-1.63-6.57-5.46-12.558-10.78-16.862-5.78-4.676-12.98-7.148-20.82-7.148-9.87 0-18.19 3.176-24.06 9.185-5.28 5.414-8.2 12.716-8.2 20.561 0 3.812.7 7.521 2.06 11.024 1.42 3.625 3.49 6.852 6.16 9.593 5.88 6.032 14.19 9.221 24.04 9.221 3.66 0 7.48-.547 10.89-1.55 3.22 3.706 7.59 5.806 12.17 5.806zm-23.06-59.584c15.71 0 25.36 10.494 27.94 20.895 2.44 9.828-1.16 19.115-9.63 24.843l-.95.64.03 1.238c.06 2.45.58 4.811 1.51 6.945-2.27-.862-4.33-2.424-5.95-4.562l-.8-1.063-1.19.399c-3.35 1.12-7.24 1.737-10.96 1.737-19.55 0-28.46-13.261-28.46-25.582 0-6.636 2.48-12.822 6.97-17.419 5.15-5.28 12.59-8.071 21.49-8.071zM428.856 297.84h4.587l-3.244-3.633c-1.748-1.959-2.841-4.506-3.134-7.27 4.564-3.354 7.901-7.767 9.687-12.828 1.785-5.057 2.01-10.624.649-16.099-1.633-6.57-5.463-12.558-10.783-16.862-5.782-4.676-12.98-7.148-20.815-7.148-9.871 0-18.191 3.176-24.06 9.185-5.288 5.414-8.2 12.716-8.2 20.561 0 3.812.693 7.521 2.06 11.024a28.507 28.507 0 006.155 9.593c5.877 6.032 14.192 9.221 24.045 9.221 3.658 0 7.474-.547 10.882-1.55 3.226 3.706 7.597 5.806 12.171 5.806zm-23.053-59.584c15.711 0 25.352 10.494 27.937 20.895 2.443 9.828-1.158 19.115-9.632 24.843l-.947.64.029 1.238c.058 2.45.579 4.811 1.513 6.945-2.273-.862-4.336-2.424-5.952-4.562l-.803-1.063-1.192.399c-3.343 1.12-7.233 1.737-10.953 1.737-19.554 0-28.46-13.261-28.46-25.582 0-6.636 2.473-12.822 6.964-17.419 5.157-5.28 12.59-8.071 21.496-8.071zM721.423 85.04h-4.587l3.243-3.633c1.749-1.958 2.841-4.506 3.135-7.27-4.564-3.354-7.901-7.767-9.687-12.828-1.785-5.057-2.01-10.624-.649-16.1 1.633-6.569 5.462-12.557 10.783-16.86 5.782-4.677 12.979-7.149 20.815-7.149 9.871 0 18.191 3.176 24.06 9.185 5.288 5.414 8.2 12.716 8.2 20.561 0 3.812-.693 7.521-2.06 11.024a28.504 28.504 0 01-6.155 9.593c-5.877 6.032-14.192 9.221-24.045 9.221-3.658 0-7.475-.547-10.882-1.55-3.226 3.706-7.597 5.806-12.171 5.806zm23.053-59.584c-15.712 0-25.352 10.494-27.937 20.895-2.443 9.829 1.158 19.116 9.632 24.843l.947.64-.029 1.238a18.426 18.426 0 01-1.513 6.945c2.273-.862 4.336-2.424 5.952-4.561l.803-1.064 1.191.4c3.343 1.12 7.234 1.736 10.954 1.736 19.554 0 28.46-13.26 28.46-25.582 0-6.635-2.473-12.822-6.964-17.42-5.157-5.279-12.59-8.07-21.496-8.07zM721.423 501.68h-4.587l3.243-3.633c1.749-1.959 2.841-4.506 3.135-7.27-4.564-3.354-7.901-7.767-9.687-12.828-1.785-5.057-2.01-10.624-.649-16.1 1.633-6.569 5.462-12.557 10.783-16.861 5.782-4.676 12.979-7.148 20.815-7.148 9.871 0 18.191 3.176 24.06 9.185 5.288 5.413 8.2 12.716 8.2 20.561 0 3.812-.693 7.521-2.06 11.024a28.517 28.517 0 01-6.155 9.593c-5.877 6.032-14.192 9.221-24.045 9.221-3.658 0-7.475-.547-10.882-1.551-3.226 3.706-7.597 5.807-12.171 5.807zm23.053-59.584c-15.712 0-25.352 10.494-27.937 20.895-2.443 9.828 1.158 19.115 9.632 24.843l.947.64-.029 1.238a18.422 18.422 0 01-1.513 6.944c2.273-.861 4.336-2.423 5.952-4.561l.803-1.063 1.191.399c3.343 1.12 7.234 1.737 10.954 1.737 19.554 0 28.46-13.261 28.46-25.582 0-6.636-2.473-12.822-6.964-17.42-5.157-5.279-12.59-8.07-21.496-8.07zm-66.62-144.256h4.587l-3.244-3.633c-1.748-1.959-2.841-4.506-3.134-7.27 4.564-3.354 7.901-7.767 9.687-12.828 1.785-5.057 2.01-10.624.649-16.099-1.633-6.57-5.463-12.558-10.783-16.862-5.782-4.676-12.98-7.148-20.815-7.148-9.871 0-18.191 3.176-24.06 9.185-5.288 5.414-8.2 12.716-8.2 20.561 0 3.812.693 7.521 2.06 11.024a28.507 28.507 0 006.155 9.593c5.877 6.032 14.192 9.221 24.045 9.221 3.658 0 7.474-.547 10.882-1.55 3.226 3.706 7.597 5.806 12.171 5.806zm-23.053-59.584c15.711 0 25.352 10.494 27.937 20.895 2.443 9.828-1.158 19.115-9.632 24.843l-.947.64.029 1.238c.058 2.45.579 4.811 1.513 6.945-2.273-.862-4.336-2.424-5.952-4.562l-.803-1.063-1.192.399c-3.343 1.12-7.233 1.737-10.953 1.737-19.554 0-28.46-13.261-28.46-25.582 0-6.636 2.473-12.822 6.964-17.419 5.157-5.28 12.59-8.071 21.496-8.071zM628.084 12.24h-4.909l3.471-3.888c1.872-2.096 3.041-4.822 3.355-7.78-4.884-3.59-8.455-8.312-10.367-13.729-1.911-5.412-2.151-11.37-.694-17.229 1.747-7.03 5.845-13.439 11.539-18.044 6.188-5.005 13.891-7.65 22.276-7.65 10.564 0 19.467 3.4 25.749 9.83 5.658 5.793 8.775 13.608 8.775 22.004 0 4.079-.742 8.048-2.204 11.797-1.514 3.879-3.73 7.333-6.588 10.266-6.289 6.456-15.187 9.868-25.732 9.868-3.914 0-7.999-.585-11.646-1.659-3.452 3.966-8.13 6.214-13.025 6.214zm24.671-63.765c-16.814 0-27.131 11.23-29.898 22.36-2.614 10.519 1.24 20.458 10.308 26.587l1.014.685-.031 1.325c-.062 2.622-.62 5.148-1.62 7.432 2.433-.922 4.641-2.594 6.37-4.881l.86-1.138 1.275.427c3.577 1.199 7.74 1.859 11.722 1.859 20.926 0 30.457-14.192 30.457-27.377 0-7.102-2.647-13.723-7.452-18.643-5.519-5.65-13.474-8.636-23.005-8.636zM628.084 428.88h-4.909l3.471-3.888c1.872-2.096 3.041-4.822 3.355-7.78-4.884-3.59-8.455-8.312-10.367-13.728-1.911-5.412-2.151-11.37-.694-17.23 1.747-7.03 5.845-13.439 11.539-18.044 6.188-5.005 13.891-7.65 22.276-7.65 10.564 0 19.467 3.399 25.749 9.83 5.658 5.793 8.775 13.608 8.775 22.004 0 4.079-.742 8.048-2.204 11.797-1.514 3.879-3.73 7.333-6.588 10.266-6.289 6.456-15.187 9.868-25.732 9.868-3.914 0-7.999-.585-11.646-1.659-3.452 3.966-8.13 6.214-13.025 6.214zm24.671-63.765c-16.814 0-27.131 11.23-29.898 22.361-2.614 10.518 1.24 20.457 10.308 26.586l1.014.685-.031 1.325c-.062 2.623-.62 5.149-1.62 7.432 2.433-.922 4.641-2.594 6.37-4.881l.86-1.138 1.275.427c3.577 1.199 7.74 1.859 11.722 1.859 20.926 0 30.457-14.192 30.457-27.377 0-7.102-2.647-13.722-7.452-18.642-5.519-5.651-13.474-8.637-23.005-8.637zm118.44-140.075h4.909l-3.471-3.887c-1.872-2.097-3.041-4.823-3.355-7.781 4.884-3.589 8.455-8.312 10.367-13.728 1.91-5.412 2.15-11.37.694-17.229-1.747-7.031-5.845-13.439-11.539-18.045-6.188-5.004-13.891-7.65-22.276-7.65-10.564 0-19.468 3.399-25.749 9.83-5.658 5.793-8.775 13.608-8.775 22.004 0 4.079.742 8.048 2.204 11.797 1.514 3.879 3.73 7.333 6.587 10.266 6.29 6.456 15.188 9.869 25.733 9.869 3.914 0 7.999-.586 11.646-1.66 3.452 3.966 8.129 6.214 13.025 6.214zm-24.671-63.765c16.814 0 27.131 11.231 29.897 22.361 2.614 10.518-1.239 20.457-10.308 26.586l-1.013.685.031 1.325c.062 2.623.62 5.149 1.619 7.432-2.433-.922-4.64-2.593-6.369-4.881l-.86-1.138-1.275.427c-3.578 1.199-7.741 1.859-11.722 1.859-20.926 0-30.457-14.191-30.457-27.377 0-7.102 2.646-13.722 7.452-18.642 5.519-5.65 13.474-8.637 23.005-8.637zm24.671 480.405h4.909l-3.471-3.888c-1.872-2.096-3.041-4.822-3.355-7.78 4.884-3.59 8.455-8.313 10.367-13.729 1.91-5.412 2.15-11.369.694-17.229-1.747-7.03-5.845-13.439-11.539-18.044-6.188-5.005-13.891-7.65-22.276-7.65-10.564 0-19.468 3.399-25.749 9.83-5.658 5.793-8.775 13.607-8.775 22.004 0 4.079.742 8.048 2.204 11.797 1.514 3.879 3.73 7.333 6.587 10.266 6.29 6.456 15.188 9.868 25.733 9.868 3.914 0 7.999-.585 11.646-1.659 3.452 3.966 8.129 6.214 13.025 6.214zm-24.671-63.765c16.814 0 27.131 11.23 29.897 22.361 2.614 10.518-1.239 20.457-10.308 26.586l-1.013.685.031 1.325c.062 2.622.62 5.148 1.619 7.432-2.433-.922-4.64-2.594-6.369-4.881l-.86-1.138-1.275.427c-3.578 1.199-7.741 1.859-11.722 1.859-20.926 0-30.457-14.192-30.457-27.377 0-7.102 2.646-13.723 7.452-18.643 5.519-5.65 13.474-8.636 23.005-8.636zM1343.32 12.24h-4.91l3.47-3.888c1.87-2.096 3.04-4.822 3.36-7.78-4.89-3.59-8.46-8.312-10.37-13.729-1.91-5.412-2.15-11.37-.69-17.229 1.74-7.03 5.84-13.439 11.54-18.044 6.18-5.005 13.89-7.65 22.27-7.65 10.56 0 19.47 3.4 25.75 9.83 5.66 5.793 8.78 13.608 8.78 22.004 0 4.079-.75 8.048-2.21 11.797a30.421 30.421 0 01-6.59 10.266c-6.29 6.456-15.18 9.868-25.73 9.868-3.91 0-8-.585-11.64-1.659-3.46 3.966-8.13 6.214-13.03 6.214zm24.67-63.765c-16.81 0-27.13 11.23-29.9 22.36-2.61 10.519 1.24 20.458 10.31 26.587l1.02.685-.04 1.325a19.65 19.65 0 01-1.62 7.432c2.44-.922 4.65-2.594 6.37-4.881l.86-1.138 1.28.427c3.58 1.199 7.74 1.859 11.72 1.859 20.93 0 30.46-14.192 30.46-27.377 0-7.102-2.65-13.723-7.45-18.643-5.52-5.65-13.48-8.636-23.01-8.636zM387.32 12.24h-4.909l3.471-3.888c1.872-2.096 3.041-4.822 3.355-7.78-4.884-3.59-8.456-8.312-10.367-13.729-1.911-5.412-2.151-11.37-.694-17.229 1.747-7.03 5.845-13.439 11.539-18.044 6.188-5.005 13.89-7.65 22.276-7.65 10.563 0 19.467 3.4 25.748 9.83 5.659 5.793 8.776 13.608 8.776 22.004 0 4.079-.742 8.048-2.205 11.797-1.513 3.879-3.729 7.333-6.587 10.266-6.289 6.456-15.188 9.868-25.732 9.868-3.915 0-7.999-.585-11.646-1.659-3.452 3.966-8.13 6.214-13.025 6.214zm24.671-63.765c-16.814 0-27.131 11.23-29.898 22.36-2.614 10.519 1.24 20.458 10.308 26.587l1.014.685-.032 1.325a19.688 19.688 0 01-1.619 7.432c2.433-.922 4.641-2.594 6.37-4.881l.86-1.138 1.275.427c3.577 1.199 7.74 1.859 11.722 1.859 20.926 0 30.457-14.192 30.457-27.377 0-7.102-2.647-13.723-7.452-18.643-5.519-5.65-13.474-8.636-23.005-8.636zM1343.32 428.88h-4.91l3.47-3.888c1.87-2.096 3.04-4.822 3.36-7.78-4.89-3.59-8.46-8.312-10.37-13.728-1.91-5.412-2.15-11.37-.69-17.23 1.74-7.03 5.84-13.439 11.54-18.044 6.18-5.005 13.89-7.65 22.27-7.65 10.56 0 19.47 3.399 25.75 9.83 5.66 5.793 8.78 13.608 8.78 22.004 0 4.079-.75 8.048-2.21 11.797a30.426 30.426 0 01-6.59 10.266c-6.29 6.456-15.18 9.868-25.73 9.868-3.91 0-8-.585-11.64-1.659-3.46 3.966-8.13 6.214-13.03 6.214zm24.67-63.765c-16.81 0-27.13 11.23-29.9 22.361-2.61 10.518 1.24 20.457 10.31 26.586l1.02.685-.04 1.325a19.647 19.647 0 01-1.62 7.432c2.44-.922 4.65-2.594 6.37-4.881l.86-1.138 1.28.427c3.58 1.199 7.74 1.859 11.72 1.859 20.93 0 30.46-14.192 30.46-27.377 0-7.102-2.65-13.722-7.45-18.642-5.52-5.651-13.48-8.637-23.01-8.637zM387.32 428.88h-4.909l3.471-3.888c1.872-2.096 3.041-4.822 3.355-7.78-4.884-3.59-8.456-8.312-10.367-13.728-1.911-5.412-2.151-11.37-.694-17.23 1.747-7.03 5.845-13.439 11.539-18.044 6.188-5.005 13.89-7.65 22.276-7.65 10.563 0 19.467 3.399 25.748 9.83 5.659 5.793 8.776 13.608 8.776 22.004 0 4.079-.742 8.048-2.205 11.797-1.513 3.879-3.729 7.333-6.587 10.266-6.289 6.456-15.188 9.868-25.732 9.868-3.915 0-7.999-.585-11.646-1.659-3.452 3.966-8.13 6.214-13.025 6.214zm24.671-63.765c-16.814 0-27.131 11.23-29.898 22.361-2.614 10.518 1.24 20.457 10.308 26.586l1.014.685-.032 1.325a19.684 19.684 0 01-1.619 7.432c2.433-.922 4.641-2.594 6.37-4.881l.86-1.138 1.275.427c3.577 1.199 7.74 1.859 11.722 1.859 20.926 0 30.457-14.192 30.457-27.377 0-7.102-2.647-13.722-7.452-18.642-5.519-5.651-13.474-8.637-23.005-8.637zM1011.96 225.04h4.91l-3.47-3.887c-1.87-2.097-3.04-4.823-3.36-7.781 4.89-3.589 8.46-8.312 10.37-13.728 1.91-5.412 2.15-11.37.69-17.229-1.74-7.031-5.84-13.439-11.54-18.045-6.18-5.004-13.887-7.65-22.272-7.65-10.564 0-19.467 3.399-25.749 9.83-5.658 5.793-8.775 13.608-8.775 22.004 0 4.079.742 8.048 2.204 11.797 1.514 3.879 3.73 7.333 6.587 10.266 6.29 6.456 15.188 9.869 25.733 9.869 3.914 0 7.999-.586 11.646-1.66 3.456 3.966 8.126 6.214 13.026 6.214zm-24.672-63.765c16.812 0 27.132 11.231 29.902 22.361 2.61 10.518-1.24 20.457-10.31 26.586l-1.02.685.04 1.325c.06 2.623.62 5.149 1.61 7.432-2.43-.922-4.64-2.593-6.37-4.881l-.85-1.138-1.28.427c-3.577 1.199-7.74 1.859-11.722 1.859-20.926 0-30.457-14.191-30.457-27.377 0-7.102 2.647-13.722 7.452-18.642 5.519-5.65 13.474-8.637 23.005-8.637zM55.959 225.04h4.909l-3.471-3.887c-1.872-2.097-3.04-4.823-3.355-7.781 4.884-3.589 8.455-8.312 10.367-13.728 1.91-5.412 2.15-11.37.694-17.229-1.747-7.031-5.845-13.439-11.54-18.045-6.187-5.004-13.89-7.65-22.275-7.65-10.564 0-19.467 3.399-25.749 9.83-5.658 5.793-8.775 13.608-8.775 22.004 0 4.079.742 8.048 2.204 11.797 1.514 3.879 3.73 7.333 6.587 10.266 6.29 6.456 15.188 9.869 25.733 9.869 3.914 0 8-.586 11.646-1.66 3.452 3.966 8.13 6.214 13.025 6.214zm-24.671-63.765c16.814 0 27.131 11.231 29.898 22.361 2.614 10.518-1.24 20.457-10.309 26.586l-1.013.685.031 1.325c.062 2.623.62 5.149 1.62 7.432-2.434-.922-4.641-2.593-6.37-4.881l-.86-1.138-1.275.427c-3.577 1.199-7.74 1.859-11.722 1.859C10.362 215.931.83 201.74.83 188.554c0-7.102 2.647-13.722 7.452-18.642 5.52-5.65 13.474-8.637 23.005-8.637zM1011.96 641.68h4.91l-3.47-3.888c-1.87-2.096-3.04-4.822-3.36-7.78 4.89-3.59 8.46-8.313 10.37-13.729 1.91-5.412 2.15-11.369.69-17.229-1.74-7.03-5.84-13.439-11.54-18.044-6.18-5.005-13.887-7.65-22.272-7.65-10.564 0-19.467 3.399-25.749 9.83-5.658 5.793-8.775 13.607-8.775 22.004 0 4.079.742 8.048 2.204 11.797 1.514 3.879 3.73 7.333 6.587 10.266 6.29 6.456 15.188 9.868 25.733 9.868 3.914 0 7.999-.585 11.646-1.659 3.456 3.966 8.126 6.214 13.026 6.214zm-24.672-63.765c16.812 0 27.132 11.23 29.902 22.361 2.61 10.518-1.24 20.457-10.31 26.586l-1.02.685.04 1.325a19.84 19.84 0 001.61 7.432c-2.43-.922-4.64-2.594-6.37-4.881l-.85-1.138-1.28.427c-3.577 1.199-7.74 1.859-11.722 1.859-20.926 0-30.457-14.192-30.457-27.377 0-7.102 2.647-13.723 7.452-18.643 5.519-5.65 13.474-8.636 23.005-8.636zM55.959 641.68h4.909l-3.471-3.888c-1.872-2.096-3.04-4.822-3.355-7.78 4.884-3.59 8.455-8.313 10.367-13.729 1.91-5.412 2.15-11.369.694-17.229-1.747-7.03-5.845-13.439-11.54-18.044-6.187-5.005-13.89-7.65-22.275-7.65-10.564 0-19.467 3.399-25.749 9.83-5.658 5.793-8.775 13.607-8.775 22.004 0 4.079.742 8.048 2.204 11.797 1.514 3.879 3.73 7.333 6.587 10.266 6.29 6.456 15.188 9.868 25.733 9.868 3.914 0 8-.585 11.646-1.659 3.452 3.966 8.13 6.214 13.025 6.214zm-24.671-63.765c16.814 0 27.131 11.23 29.898 22.361 2.614 10.518-1.24 20.457-10.309 26.586l-1.013.685.031 1.325c.062 2.622.62 5.148 1.62 7.432-2.434-.922-4.641-2.594-6.37-4.881l-.86-1.138-1.275.427c-3.577 1.199-7.74 1.859-11.722 1.859-20.926 0-30.457-14.192-30.457-27.377 0-7.102 2.647-13.723 7.452-18.643 5.52-5.65 13.474-8.636 23.005-8.636zM1093.32 12.24h-4.91l3.47-3.888c1.87-2.096 3.04-4.822 3.36-7.78-4.89-3.59-8.46-8.312-10.37-13.729-1.91-5.412-2.15-11.37-.69-17.229 1.74-7.03 5.84-13.439 11.54-18.044 6.18-5.005 13.89-7.65 22.27-7.65 10.56 0 19.47 3.4 25.75 9.83 5.66 5.793 8.78 13.608 8.78 22.004 0 4.079-.75 8.048-2.21 11.797a30.421 30.421 0 01-6.59 10.266c-6.29 6.456-15.18 9.868-25.73 9.868-3.91 0-8-.585-11.64-1.659-3.46 3.966-8.13 6.214-13.03 6.214zm24.67-63.765c-16.81 0-27.13 11.23-29.9 22.36-2.61 10.519 1.24 20.458 10.31 26.587l1.02.685-.04 1.325a19.65 19.65 0 01-1.62 7.432c2.44-.922 4.65-2.594 6.37-4.881l.86-1.138 1.28.427c3.58 1.199 7.74 1.859 11.72 1.859 20.93 0 30.46-14.192 30.46-27.377 0-7.102-2.65-13.723-7.45-18.643-5.52-5.65-13.48-8.636-23.01-8.636zM137.32 12.24h-4.909l3.471-3.888c1.872-2.096 3.041-4.822 3.355-7.78-4.884-3.59-8.456-8.312-10.367-13.729-1.911-5.412-2.151-11.37-.694-17.229 1.747-7.03 5.845-13.439 11.539-18.044 6.188-5.005 13.89-7.65 22.276-7.65 10.563 0 19.467 3.4 25.748 9.83 5.659 5.793 8.776 13.608 8.776 22.004 0 4.079-.742 8.048-2.205 11.797-1.513 3.879-3.729 7.333-6.587 10.266-6.289 6.456-15.188 9.868-25.732 9.868-3.915 0-7.999-.585-11.646-1.659-3.452 3.966-8.13 6.214-13.025 6.214zm24.671-63.765c-16.814 0-27.131 11.23-29.898 22.36-2.614 10.519 1.24 20.458 10.308 26.587l1.014.685-.032 1.325a19.688 19.688 0 01-1.619 7.432c2.433-.922 4.641-2.594 6.37-4.881l.86-1.138 1.275.427c3.577 1.199 7.74 1.859 11.722 1.859 20.926 0 30.457-14.192 30.457-27.377 0-7.102-2.647-13.723-7.452-18.643-5.519-5.65-13.474-8.636-23.005-8.636zM1093.32 428.88h-4.91l3.47-3.888c1.87-2.096 3.04-4.822 3.36-7.78-4.89-3.59-8.46-8.312-10.37-13.728-1.91-5.412-2.15-11.37-.69-17.23 1.74-7.03 5.84-13.439 11.54-18.044 6.18-5.005 13.89-7.65 22.27-7.65 10.56 0 19.47 3.399 25.75 9.83 5.66 5.793 8.78 13.608 8.78 22.004 0 4.079-.75 8.048-2.21 11.797a30.426 30.426 0 01-6.59 10.266c-6.29 6.456-15.18 9.868-25.73 9.868-3.91 0-8-.585-11.64-1.659-3.46 3.966-8.13 6.214-13.03 6.214zm24.67-63.765c-16.81 0-27.13 11.23-29.9 22.361-2.61 10.518 1.24 20.457 10.31 26.586l1.02.685-.04 1.325a19.647 19.647 0 01-1.62 7.432c2.44-.922 4.65-2.594 6.37-4.881l.86-1.138 1.28.427c3.58 1.199 7.74 1.859 11.72 1.859 20.93 0 30.46-14.192 30.46-27.377 0-7.102-2.65-13.722-7.45-18.642-5.52-5.651-13.48-8.637-23.01-8.637zM137.32 428.88h-4.909l3.471-3.888c1.872-2.096 3.041-4.822 3.355-7.78-4.884-3.59-8.456-8.312-10.367-13.728-1.911-5.412-2.151-11.37-.694-17.23 1.747-7.03 5.845-13.439 11.539-18.044 6.188-5.005 13.89-7.65 22.276-7.65 10.563 0 19.467 3.399 25.748 9.83 5.659 5.793 8.776 13.608 8.776 22.004 0 4.079-.742 8.048-2.205 11.797-1.513 3.879-3.729 7.333-6.587 10.266-6.289 6.456-15.188 9.868-25.732 9.868-3.915 0-7.999-.585-11.646-1.659-3.452 3.966-8.13 6.214-13.025 6.214zm24.671-63.765c-16.814 0-27.131 11.23-29.898 22.361-2.614 10.518 1.24 20.457 10.308 26.586l1.014.685-.032 1.325a19.684 19.684 0 01-1.619 7.432c2.433-.922 4.641-2.594 6.37-4.881l.86-1.138 1.275.427c3.577 1.199 7.74 1.859 11.722 1.859 20.926 0 30.457-14.192 30.457-27.377 0-7.102-2.647-13.722-7.452-18.642-5.519-5.651-13.474-8.637-23.005-8.637zM1261.96 225.04h4.91l-3.47-3.887c-1.87-2.097-3.04-4.823-3.36-7.781 4.89-3.589 8.46-8.312 10.37-13.728 1.91-5.412 2.15-11.37.69-17.229-1.74-7.031-5.84-13.439-11.54-18.045-6.18-5.004-13.89-7.65-22.27-7.65-10.57 0-19.47 3.399-25.75 9.83-5.66 5.793-8.78 13.608-8.78 22.004 0 4.079.75 8.048 2.21 11.797a30.426 30.426 0 006.59 10.266c6.29 6.456 15.18 9.869 25.73 9.869 3.91 0 8-.586 11.64-1.66 3.46 3.966 8.13 6.214 13.03 6.214zm-24.67-63.765c16.81 0 27.13 11.231 29.9 22.361 2.61 10.518-1.24 20.457-10.31 26.586l-1.02.685.04 1.325c.06 2.623.62 5.149 1.61 7.432-2.43-.922-4.64-2.593-6.37-4.881l-.85-1.138-1.28.427c-3.58 1.199-7.74 1.859-11.72 1.859-20.93 0-30.46-14.191-30.46-27.377 0-7.102 2.65-13.722 7.45-18.642 5.52-5.65 13.48-8.637 23.01-8.637zM305.959 225.04h4.909l-3.471-3.887c-1.872-2.097-3.041-4.823-3.355-7.781 4.884-3.589 8.455-8.312 10.367-13.728 1.91-5.412 2.151-11.37.694-17.229-1.747-7.031-5.845-13.439-11.539-18.045-6.188-5.004-13.891-7.65-22.276-7.65-10.564 0-19.467 3.399-25.749 9.83-5.658 5.793-8.775 13.608-8.775 22.004 0 4.079.742 8.048 2.204 11.797 1.514 3.879 3.73 7.333 6.587 10.266 6.29 6.456 15.188 9.869 25.733 9.869 3.914 0 7.999-.586 11.646-1.66 3.452 3.966 8.13 6.214 13.025 6.214zm-24.671-63.765c16.814 0 27.131 11.231 29.898 22.361 2.614 10.518-1.24 20.457-10.308 26.586l-1.014.685.031 1.325c.062 2.623.62 5.149 1.62 7.432-2.433-.922-4.641-2.593-6.37-4.881l-.86-1.138-1.275.427c-3.577 1.199-7.74 1.859-11.722 1.859-20.926 0-30.457-14.191-30.457-27.377 0-7.102 2.647-13.722 7.452-18.642 5.519-5.65 13.474-8.637 23.005-8.637zM1261.96 641.68h4.91l-3.47-3.888c-1.87-2.096-3.04-4.822-3.36-7.78 4.89-3.59 8.46-8.313 10.37-13.729 1.91-5.412 2.15-11.369.69-17.229-1.74-7.03-5.84-13.439-11.54-18.044-6.18-5.005-13.89-7.65-22.27-7.65-10.57 0-19.47 3.399-25.75 9.83-5.66 5.793-8.78 13.607-8.78 22.004 0 4.079.75 8.048 2.21 11.797a30.426 30.426 0 006.59 10.266c6.29 6.456 15.18 9.868 25.73 9.868 3.91 0 8-.585 11.64-1.659 3.46 3.966 8.13 6.214 13.03 6.214zm-24.67-63.765c16.81 0 27.13 11.23 29.9 22.361 2.61 10.518-1.24 20.457-10.31 26.586l-1.02.685.04 1.325a19.84 19.84 0 001.61 7.432c-2.43-.922-4.64-2.594-6.37-4.881l-.85-1.138-1.28.427c-3.58 1.199-7.74 1.859-11.72 1.859-20.93 0-30.46-14.192-30.46-27.377 0-7.102 2.65-13.723 7.45-18.643 5.52-5.65 13.48-8.636 23.01-8.636zM305.959 641.68h4.909l-3.471-3.888c-1.872-2.096-3.041-4.822-3.355-7.78 4.884-3.59 8.455-8.313 10.367-13.729 1.91-5.412 2.151-11.369.694-17.229-1.747-7.03-5.845-13.439-11.539-18.044-6.188-5.005-13.891-7.65-22.276-7.65-10.564 0-19.467 3.399-25.749 9.83-5.658 5.793-8.775 13.607-8.775 22.004 0 4.079.742 8.048 2.204 11.797 1.514 3.879 3.73 7.333 6.587 10.266 6.29 6.456 15.188 9.868 25.733 9.868 3.914 0 7.999-.585 11.646-1.659 3.452 3.966 8.13 6.214 13.025 6.214zm-24.671-63.765c16.814 0 27.131 11.23 29.898 22.361 2.614 10.518-1.24 20.457-10.308 26.586l-1.014.685.031 1.325c.062 2.622.62 5.148 1.62 7.432-2.433-.922-4.641-2.594-6.37-4.881l-.86-1.138-1.275.427c-3.577 1.199-7.74 1.859-11.722 1.859-20.926 0-30.457-14.192-30.457-27.377 0-7.102 2.647-13.723 7.452-18.643 5.519-5.65 13.474-8.636 23.005-8.636zM844.32 12.24h-4.909l3.471-3.888c1.872-2.096 3.041-4.822 3.355-7.78-4.884-3.59-8.456-8.312-10.367-13.729-1.911-5.412-2.151-11.37-.694-17.229 1.747-7.03 5.845-13.439 11.539-18.044 6.188-5.005 13.89-7.65 22.276-7.65 10.563 0 19.467 3.4 25.748 9.83 5.659 5.793 8.776 13.608 8.776 22.004 0 4.079-.742 8.048-2.205 11.797-1.513 3.879-3.729 7.333-6.587 10.266-6.289 6.456-15.188 9.868-25.732 9.868-3.915 0-7.999-.585-11.646-1.659-3.452 3.966-8.13 6.214-13.025 6.214zm24.671-63.765c-16.814 0-27.131 11.23-29.898 22.36-2.614 10.519 1.24 20.458 10.308 26.587l1.014.685-.032 1.325a19.688 19.688 0 01-1.619 7.432c2.433-.922 4.641-2.594 6.37-4.881l.86-1.138 1.275.427c3.577 1.199 7.74 1.859 11.722 1.859 20.926 0 30.457-14.192 30.457-27.377 0-7.102-2.647-13.723-7.452-18.643-5.519-5.65-13.474-8.636-23.005-8.636zM844.32 428.88h-4.909l3.471-3.888c1.872-2.096 3.041-4.822 3.355-7.78-4.884-3.59-8.456-8.312-10.367-13.728-1.911-5.412-2.151-11.37-.694-17.23 1.747-7.03 5.845-13.439 11.539-18.044 6.188-5.005 13.89-7.65 22.276-7.65 10.563 0 19.467 3.399 25.748 9.83 5.659 5.793 8.776 13.608 8.776 22.004 0 4.079-.742 8.048-2.205 11.797-1.513 3.879-3.729 7.333-6.587 10.266-6.289 6.456-15.188 9.868-25.732 9.868-3.915 0-7.999-.585-11.646-1.659-3.452 3.966-8.13 6.214-13.025 6.214zm24.671-63.765c-16.814 0-27.131 11.23-29.898 22.361-2.614 10.518 1.24 20.457 10.308 26.586l1.014.685-.032 1.325a19.684 19.684 0 01-1.619 7.432c2.433-.922 4.641-2.594 6.37-4.881l.86-1.138 1.275.427c3.577 1.199 7.74 1.859 11.722 1.859 20.926 0 30.457-14.192 30.457-27.377 0-7.102-2.647-13.722-7.452-18.642-5.519-5.651-13.474-8.637-23.005-8.637zM554.959 225.04h4.909l-3.471-3.887c-1.872-2.097-3.041-4.823-3.355-7.781 4.884-3.589 8.455-8.312 10.367-13.728 1.91-5.412 2.151-11.37.694-17.229-1.747-7.031-5.845-13.439-11.539-18.045-6.188-5.004-13.891-7.65-22.276-7.65-10.564 0-19.467 3.399-25.749 9.83-5.658 5.793-8.775 13.608-8.775 22.004 0 4.079.742 8.048 2.204 11.797 1.514 3.879 3.73 7.333 6.587 10.266 6.29 6.456 15.188 9.869 25.733 9.869 3.914 0 7.999-.586 11.646-1.66 3.452 3.966 8.13 6.214 13.025 6.214zm-24.671-63.765c16.814 0 27.131 11.231 29.898 22.361 2.614 10.518-1.24 20.457-10.308 26.586l-1.014.685.031 1.325c.062 2.623.62 5.149 1.62 7.432-2.433-.922-4.641-2.593-6.37-4.881l-.86-1.138-1.275.427c-3.577 1.199-7.74 1.859-11.722 1.859-20.926 0-30.457-14.191-30.457-27.377 0-7.102 2.647-13.722 7.452-18.642 5.519-5.65 13.474-8.637 23.005-8.637zm24.671 480.405h4.909l-3.471-3.888c-1.872-2.096-3.041-4.822-3.355-7.78 4.884-3.59 8.455-8.313 10.367-13.729 1.91-5.412 2.151-11.369.694-17.229-1.747-7.03-5.845-13.439-11.539-18.044-6.188-5.005-13.891-7.65-22.276-7.65-10.564 0-19.467 3.399-25.749 9.83-5.658 5.793-8.775 13.607-8.775 22.004 0 4.079.742 8.048 2.204 11.797 1.514 3.879 3.73 7.333 6.587 10.266 6.29 6.456 15.188 9.868 25.733 9.868 3.914 0 7.999-.585 11.646-1.659 3.452 3.966 8.13 6.214 13.025 6.214zm-24.671-63.765c16.814 0 27.131 11.23 29.898 22.361 2.614 10.518-1.24 20.457-10.308 26.586l-1.014.685.031 1.325c.062 2.622.62 5.148 1.62 7.432-2.433-.922-4.641-2.594-6.37-4.881l-.86-1.138-1.275.427c-3.577 1.199-7.74 1.859-11.722 1.859-20.926 0-30.457-14.192-30.457-27.377 0-7.102 2.647-13.723 7.452-18.643 5.519-5.65 13.474-8.636 23.005-8.636z" fill="#0C73FE" fill-opacity=".1"/></svg>