<svg width="110" height="62" viewBox="0 0 110 62" fill="none" xmlns="http://www.w3.org/2000/svg">
<path d="M38.2 30.96C38.2 22.9067 36.8667 16.9067 34.2 12.96C31.5333 9.01333 27.9333 7.04 23.4 7.04C18.8133 7.04 15.1867 9.01333 12.52 12.96C9.90667 16.9067 8.6 22.9067 8.6 30.96C8.6 39.0667 9.90667 45.0933 12.52 49.04C15.1867 52.9867 18.8133 54.96 23.4 54.96C27.9867 54.96 31.5867 52.9867 34.2 49.04C36.8667 45.0933 38.2 39.0667 38.2 30.96ZM45.96 30.96C45.96 35.5467 45.5067 39.7067 44.6 43.44C43.6933 47.12 42.3067 50.2667 40.44 52.88C38.6267 55.4933 36.28 57.52 33.4 58.96C30.5733 60.3467 27.24 61.04 23.4 61.04C19.56 61.04 16.2 60.3467 13.32 58.96C10.4933 57.52 8.14667 55.4933 6.28 52.88C4.46667 50.2667 3.10667 47.12 2.2 43.44C1.29333 39.7067 0.84 35.5467 0.84 30.96C0.84 26.3733 1.29333 22.24 2.2 18.56C3.10667 14.8267 4.46667 11.68 6.28 9.12C8.14667 6.50666 10.4933 4.50666 13.32 3.12C16.2 1.68 19.56 0.959997 23.4 0.959997C27.24 0.959997 30.5733 1.68 33.4 3.12C36.28 4.50666 38.6267 6.50666 40.44 9.12C42.3067 11.68 43.6933 14.8267 44.6 18.56C45.5067 22.24 45.96 26.3733 45.96 30.96ZM72.4506 54.96C76.2906 54.96 79.4373 54 81.8906 52.08C84.344 50.16 85.5706 47.3867 85.5706 43.76C85.5706 41.68 85.1173 39.9467 84.2106 38.56C83.3573 37.12 82.184 35.9733 80.6906 35.12C79.1973 34.2667 77.4106 33.6533 75.3306 33.28C73.304 32.9067 71.144 32.72 68.8506 32.72H67.6506V26.08H68.6106C73.6773 26.08 77.5173 25.3333 80.1306 23.84C82.744 22.3467 84.0506 19.8933 84.0506 16.48C84.0506 14.9333 83.7573 13.5733 83.1706 12.4C82.584 11.2267 81.7573 10.24 80.6906 9.44C79.6773 8.64 78.4773 8.05333 77.0906 7.68C75.7573 7.25333 74.3173 7.04 72.7706 7.04C68.8773 7.04 65.864 8.10666 63.7306 10.24C61.6506 12.32 60.4506 15.0133 60.1306 18.32H52.6106C52.824 15.76 53.4373 13.4133 54.4506 11.28C55.464 9.14666 56.824 7.33333 58.5306 5.84C60.2373 4.29333 62.2906 3.09333 64.6906 2.24C67.144 1.38666 69.8906 0.959997 72.9306 0.959997C75.4373 0.959997 77.8106 1.22666 80.0506 1.76C82.344 2.29333 84.344 3.14666 86.0506 4.32C87.8106 5.49333 89.1973 7.01333 90.2106 8.88C91.224 10.7467 91.7306 13.0133 91.7306 15.68C91.7306 18.6667 90.904 21.36 89.2506 23.76C87.6506 26.1067 85.3306 27.8933 82.2906 29.12C84.424 29.8133 86.2106 30.6667 87.6506 31.68C89.0906 32.6933 90.2106 33.84 91.0106 35.12C91.864 36.4 92.4506 37.7867 92.7706 39.28C93.144 40.72 93.3306 42.1867 93.3306 43.68C93.3306 46.6133 92.744 49.1733 91.5706 51.36C90.4506 53.4933 88.9306 55.28 87.0106 56.72C85.0906 58.16 82.8506 59.2533 80.2906 60C77.784 60.6933 75.144 61.04 72.3706 61.04C68.9573 61.04 65.9973 60.56 63.4906 59.6C60.984 58.5867 58.8773 57.2533 57.1706 55.6C55.5173 53.9467 54.2373 52.0267 53.3306 49.84C52.4773 47.6 51.944 45.28 51.7306 42.88H59.2506C59.6773 46.4533 60.9573 49.36 63.0906 51.6C65.224 53.84 68.344 54.96 72.4506 54.96ZM100.481 60V50.8H109.681V60H100.481Z" fill="#202B54"/>
</svg>
