<svg width="112" height="62" viewBox="0 0 112 62" fill="none" xmlns="http://www.w3.org/2000/svg">
<path d="M38.2 30.96C38.2 22.9067 36.8667 16.9067 34.2 12.96C31.5333 9.01333 27.9333 7.04 23.4 7.04C18.8133 7.04 15.1867 9.01333 12.52 12.96C9.90667 16.9067 8.6 22.9067 8.6 30.96C8.6 39.0667 9.90667 45.0933 12.52 49.04C15.1867 52.9867 18.8133 54.96 23.4 54.96C27.9867 54.96 31.5867 52.9867 34.2 49.04C36.8667 45.0933 38.2 39.0667 38.2 30.96ZM45.96 30.96C45.96 35.5467 45.5067 39.7067 44.6 43.44C43.6933 47.12 42.3067 50.2667 40.44 52.88C38.6267 55.4933 36.28 57.52 33.4 58.96C30.5733 60.3467 27.24 61.04 23.4 61.04C19.56 61.04 16.2 60.3467 13.32 58.96C10.4933 57.52 8.14667 55.4933 6.28 52.88C4.46667 50.2667 3.10667 47.12 2.2 43.44C1.29333 39.7067 0.84 35.5467 0.84 30.96C0.84 26.3733 1.29333 22.24 2.2 18.56C3.10667 14.8267 4.46667 11.68 6.28 9.12C8.14667 6.50666 10.4933 4.50666 13.32 3.12C16.2 1.68 19.56 0.959997 23.4 0.959997C27.24 0.959997 30.5733 1.68 33.4 3.12C36.28 4.50666 38.6267 6.50666 40.44 9.12C42.3067 11.68 43.6933 14.8267 44.6 18.56C45.5067 22.24 45.96 26.3733 45.96 30.96ZM74.0506 54.96C75.8106 54.96 77.464 54.6667 79.0106 54.08C80.5573 53.44 81.9173 52.5333 83.0906 51.36C84.3173 50.1333 85.2773 48.6667 85.9706 46.96C86.664 45.2 87.0106 43.2 87.0106 40.96C87.0106 38.56 86.6106 36.5067 85.8106 34.8C85.064 33.04 84.0773 31.6 82.8506 30.48C81.624 29.36 80.2373 28.5333 78.6906 28C77.144 27.4667 75.5706 27.2 73.9706 27.2C72.4773 27.2 71.1173 27.4133 69.8906 27.84C68.664 28.2133 67.5706 28.72 66.6106 29.36C65.6506 29.9467 64.8506 30.64 64.2106 31.44C63.5706 32.1867 63.0906 32.9067 62.7706 33.6L55.4906 33.2L59.2506 2H92.5306V8.8H65.1706L63.1706 25.28C64.7173 23.7867 66.584 22.6933 68.7706 22C70.9573 21.2533 73.2506 20.88 75.6506 20.88C78.2106 20.88 80.6373 21.3333 82.9306 22.24C85.224 23.0933 87.224 24.3733 88.9306 26.08C90.6906 27.7867 92.0773 29.8933 93.0906 32.4C94.1573 34.8533 94.6906 37.68 94.6906 40.88C94.6906 44.1867 94.104 47.12 92.9306 49.68C91.8106 52.1867 90.2906 54.2933 88.3706 56C86.504 57.6533 84.3173 58.9067 81.8106 59.76C79.3573 60.6133 76.7706 61.04 74.0506 61.04C70.6906 61.04 67.784 60.56 65.3306 59.6C62.8773 58.5867 60.7973 57.28 59.0906 55.68C57.4373 54.0267 56.1306 52.1333 55.1706 50C54.264 47.8133 53.6773 45.5467 53.4106 43.2H60.9306C61.5173 46.88 62.824 49.76 64.8506 51.84C66.9306 53.92 69.9973 54.96 74.0506 54.96ZM102.122 60V50.8H111.322V60H102.122Z" fill="#202B54"/>
</svg>
