<svg width="13656" height="824" viewBox="0 0 13656 824" fill="none" xmlns="http://www.w3.org/2000/svg">
<path fill-rule="evenodd" clip-rule="evenodd" d="M461.278 9.99994V0.577148L456.606 8.76061L2.5 804.31V9.99994H-2.5V813.733V823.156L2.17119 814.973L456.278 19.4227V813.733V823.046L460.941 814.985L921.308 19.3127V813.733V823.082L925.974 814.981L1384.25 19.3493V813.733V823.131L1388.92 814.975L1844.42 19.3979V813.733L1849.13 814.91L2273.5 19.251V813.733V823.156L2278.17 814.973L2732.28 19.4227V813.733V823.046L2736.94 814.985L3197.31 19.3127V813.733V823.082L3201.97 814.981L3660.25 19.3493V813.733V823.131L3664.92 814.975L4120.42 19.3979V813.733L4125.13 814.91L4549.5 19.251V813.733V823.156L4554.17 814.973L5008.28 19.4227V813.733V823.046L5012.94 814.985L5473.31 19.3127V813.733V823.082L5477.97 814.981L5936.25 19.3493V813.733V823.131L5940.92 814.975L6396.42 19.3979V813.733L6401.13 814.91L6825.5 19.251V813.733V823.156L6830.17 814.973L7284.28 19.4227V813.733V823.046L7288.94 814.985L7749.31 19.3127V813.733V823.082L7753.97 814.981L8212.25 19.3493V813.733V823.131L8216.92 814.975L8672.42 19.3979V813.733L8677.13 814.91L9101.5 19.251V813.733V823.156L9106.17 814.973L9560.28 19.4227V813.733V823.046L9564.94 814.985L10025.3 19.3127V813.733V823.082L10030 814.981L10488.2 19.3493V813.733V823.131L10492.9 814.975L10948.4 19.3979V813.733L10953.1 814.91L11377.5 19.251V813.733V823.156L11382.2 814.973L11836.3 19.4227V813.733V823.046L11840.9 814.985L12301.3 19.3127V813.733V823.082L12306 814.981L12764.2 19.3493V813.733V823.131L12768.9 814.975L13224.4 19.3979V813.733L13229.1 814.91L13657.8 11.1765L13653.4 8.82343L13229.4 803.734V9.99994V0.601987L13224.8 8.75777L12769.2 804.335V9.99994V0.650681L12764.6 8.75216L12306.3 804.384V9.99994V0.687101L12301.6 8.74793L11841.3 804.42V9.99994V0.577148L11836.6 8.76061L11382.5 804.31V9.99994H11379.6L11377.4 8.82343L10953.4 803.734V9.99994V0.601987L10948.8 8.75777L10493.2 804.335V9.99994V0.650681L10488.6 8.75216L10030.3 804.384V9.99994V0.687101L10025.6 8.74793L9565.28 804.42V9.99994V0.577148L9560.61 8.76061L9106.5 804.31V9.99994H9103.6L9101.39 8.82343L8677.42 803.734V9.99994V0.601987L8672.75 8.75777L8217.25 804.335V9.99994V0.650681L8212.58 8.75216L7754.31 804.384V9.99994V0.687101L7749.64 8.74793L7289.28 804.42V9.99994V0.577148L7284.61 8.76061L6830.5 804.31V9.99994H6827.6L6825.4 8.82343L6401.42 803.734V9.99994V0.601987L6396.75 8.75777L5941.25 804.335V9.99994V0.650681L5936.58 8.75216L5478.31 804.384V9.99994V0.687101L5473.64 8.74793L5013.28 804.42V9.99994V0.577148L5008.61 8.76061L4554.5 804.31V9.99994H4551.6L4549.4 8.82343L4125.42 803.734V9.99994V0.601987L4120.75 8.75777L3665.25 804.335V9.99994V0.650681L3660.58 8.75216L3202.31 804.384V9.99994V0.687101L3197.64 8.74793L2737.28 804.42V9.99994V0.577148L2732.61 8.76061L2278.5 804.31V9.99994H2275.6L2273.4 8.82343L1849.42 803.734V9.99994V0.601987L1844.75 8.75777L1389.25 804.335V9.99994V0.650681L1384.58 8.75216L926.308 804.384V9.99994V0.687101L921.644 8.74793L461.278 804.42V9.99994Z" fill="#202B54"/>
</svg>
