<svg width="50" height="50" viewBox="0 0 50 50" fill="none" xmlns="http://www.w3.org/2000/svg">
<path fill-rule="evenodd" clip-rule="evenodd" d="M3.22672 7.77513C3.99116 6.5094 8.20304 1.9056 11.2087 2.04458C12.1072 2.11904 12.9014 2.66256 13.5467 3.29295C15.0284 4.73985 19.2701 10.2123 19.5108 11.3639C20.0966 14.1882 16.731 15.8163 17.7611 18.6629C20.387 25.0884 24.9116 29.6128 31.3398 32.2361C34.1842 33.266 35.8123 29.9006 38.6368 30.4888C39.7859 30.7296 45.2611 34.971 46.7081 36.4527C47.336 37.0955 47.8821 37.8921 47.9565 38.7906C48.0682 41.9549 43.1788 46.2261 42.2257 46.7721C39.977 48.3804 37.0434 48.3531 33.4669 46.6902C23.4869 42.5381 7.53787 26.8902 3.30862 16.5335C1.69039 12.977 1.5787 10.0237 3.22672 7.77513Z" stroke="#D6AD68" stroke-width="3" stroke-linecap="round" stroke-linejoin="round"/>
</svg>
