<svg width="17" height="14" viewBox="0 0 17 14" fill="none" xmlns="http://www.w3.org/2000/svg">
<path fill-rule="evenodd" clip-rule="evenodd" d="M6.55814 8.98619L6.55776 8.98591L6.55818 8.98552L6.5582 8.98535L6.5583 8.98542L13.3062 2.89596C13.6024 2.63311 13.2415 2.50493 12.8483 2.74335L4.51986 7.99769L0.922412 6.87487C0.145521 6.63699 0.139942 6.10314 1.09683 5.71934L15.1153 0.313885C15.7555 0.0232071 16.3735 0.467664 16.1291 1.44761L13.7417 12.6977C13.575 13.4971 13.092 13.6883 12.4227 13.319L8.78605 10.6322L7.03821 12.3318C7.0327 12.3371 7.02722 12.3425 7.02176 12.3478C6.82625 12.5381 6.6645 12.6956 6.31055 12.6956L6.55814 8.98619Z" fill="url(#paint0_linear_288_3727)"/>
<defs>
<linearGradient id="paint0_linear_288_3727" x1="7.15663" y1="6.91948" x2="8.71162" y2="11.9494" gradientUnits="userSpaceOnUse">
<stop stop-color="#EFF7FC"/>
<stop offset="1" stop-color="white"/>
</linearGradient>
</defs>
</svg>
