<svg width="38" height="38" viewBox="0 0 38 38" fill="none" xmlns="http://www.w3.org/2000/svg">
<path fill-rule="evenodd" clip-rule="evenodd" d="M19 0C23.9875 0 28.7375 1.9 32.3 5.4625C35.8625 9.025 38 13.775 38 18.7625C38 29.2125 29.45 37.7625 19 37.7625C15.9125 37.7625 12.825 36.8125 9.97503 35.3875L0 38L2.61251 28.5C0.950015 25.65 0 22.325 0 19C0 8.55 8.55 0 19 0ZM10.925 32.5375C13.3 33.9625 16.15 34.675 19 34.675C27.7875 34.675 34.675 27.55 34.675 19.2375C34.675 14.9625 33.25 11.1625 30.1625 8.075C27.075 5.225 23.275 3.5625 19 3.5625C10.45 3.5625 3.32499 10.6875 3.32499 19.2375C3.32499 22.0875 4.03749 24.9375 5.69999 27.55L6.17501 28.2625L4.51249 33.9625L10.45 32.3L10.925 32.5375ZM27.55 22.8L27.55 22.8C27.624 22.837 27.6979 22.8682 27.771 22.899C28.1672 23.0663 28.537 23.2224 28.7375 24.225C28.975 24.225 28.975 25.175 28.5 26.3625C28.2625 27.3125 26.3625 28.5 25.4125 28.5C25.2516 28.5 25.0974 28.5136 24.9328 28.5282C24.1256 28.5996 23.0659 28.6933 19.7125 27.3125C15.5504 25.6477 12.6647 21.6123 11.8544 20.4791C11.7399 20.3191 11.6669 20.2169 11.6375 20.1875C11.597 20.1066 11.5153 19.9775 11.4075 19.8073C10.8821 18.9777 9.73751 17.1706 9.73751 15.2C9.73751 12.825 10.925 11.6375 11.4 11.1625C11.875 10.6875 12.35 10.6875 12.5875 10.6875H13.5375C13.775 10.6875 14.25 10.6875 14.4875 11.4C14.9625 12.35 15.9125 14.725 15.9125 14.9625C15.9125 15.0417 15.9389 15.1208 15.9653 15.2C16.0181 15.3583 16.0709 15.5167 15.9125 15.675C15.7938 15.7938 15.7344 15.9125 15.675 16.0312C15.6156 16.15 15.5563 16.2687 15.4375 16.3875L14.725 17.1L14.725 17.1C14.4875 17.3375 14.25 17.575 14.4875 18.05C14.725 18.525 15.675 20.1875 17.1 21.375C18.7034 22.778 19.9685 23.3353 20.6099 23.6178C20.7285 23.6701 20.8258 23.7129 20.9 23.75C21.375 23.75 21.6125 23.75 21.85 23.5125C21.9688 23.275 22.2656 22.9187 22.5625 22.5625C22.8594 22.2063 23.1562 21.85 23.275 21.6125C23.5125 21.1375 23.75 21.1375 24.225 21.375C24.7 21.375 27.075 22.5625 27.55 22.8Z" fill="#D6AD68"/>
</svg>
