<svg width="640" height="323" viewBox="0 0 640 323" fill="none" xmlns="http://www.w3.org/2000/svg">
<mask id="path-1-outside-1_187_62" maskUnits="userSpaceOnUse" x="-3.00006" y="4.99715e-06" width="643" height="323" fill="black">
<rect fill="white" x="-3.00006" y="4.99715e-06" width="643" height="323"/>
<path d="M-1.00003 2.50001C-1.00003 44.326 7.26406 85.7425 23.3205 124.385C39.3769 163.027 62.911 198.138 92.5794 227.714C122.248 257.289 157.469 280.75 196.233 296.756C234.996 312.762 276.543 321 318.5 321C360.457 321 402.004 312.762 440.767 296.756C479.531 280.75 514.752 257.289 544.421 227.714C574.089 198.138 597.623 163.027 613.679 124.385C629.736 85.7425 638 44.326 638 2.50003L318.5 2.50003L-1.00003 2.50001Z"/>
</mask>
<path d="M-1.00003 2.50001C-1.00003 44.326 7.26406 85.7425 23.3205 124.385C39.3769 163.027 62.911 198.138 92.5794 227.714C122.248 257.289 157.469 280.75 196.233 296.756C234.996 312.762 276.543 321 318.5 321C360.457 321 402.004 312.762 440.767 296.756C479.531 280.75 514.752 257.289 544.421 227.714C574.089 198.138 597.623 163.027 613.679 124.385C629.736 85.7425 638 44.326 638 2.50003L318.5 2.50003L-1.00003 2.50001Z" stroke="#202B54" stroke-width="4" mask="url(#path-1-outside-1_187_62)"/>
</svg>
