<svg width="643" height="323" viewBox="0 0 643 323" fill="none" xmlns="http://www.w3.org/2000/svg">
<mask id="path-1-outside-1_18_177" maskUnits="userSpaceOnUse" x="-5.58632e-05" y="-5.6038e-05" width="643" height="323" fill="black">
<rect fill="white" x="-5.58632e-05" y="-5.6038e-05" width="643" height="323"/>
<path d="M1.99997 2.49994C1.99997 44.326 10.2641 85.7424 26.3205 124.385C42.3768 163.027 65.911 198.138 95.5793 227.713C125.248 257.289 160.469 280.749 199.233 296.756C237.996 312.762 279.543 321 321.5 321C363.457 321 405.004 312.762 443.767 296.756C482.531 280.749 517.752 257.289 547.421 227.713C577.089 198.138 600.623 163.027 616.679 124.385C632.736 85.7424 641 44.326 641 2.49997L321.5 2.49997L1.99997 2.49994Z"/>
</mask>
<path d="M1.99997 2.49994C1.99997 44.326 10.2641 85.7424 26.3205 124.385C42.3768 163.027 65.911 198.138 95.5793 227.713C125.248 257.289 160.469 280.749 199.233 296.756C237.996 312.762 279.543 321 321.5 321C363.457 321 405.004 312.762 443.767 296.756C482.531 280.749 517.752 257.289 547.421 227.713C577.089 198.138 600.623 163.027 616.679 124.385C632.736 85.7424 641 44.326 641 2.49997L321.5 2.49997L1.99997 2.49994Z" stroke="#202B54" stroke-width="4" mask="url(#path-1-outside-1_18_177)"/>
</svg>
