<svg width="1920" height="239" viewBox="0 0 1920 239" fill="none" xmlns="http://www.w3.org/2000/svg">
<path d="M-737.685 197.035V18.055H-710.61C-672.42 18.055 -654.465 41.425 -654.465 102.7V112.39C-654.465 173.95 -672.42 197.035 -710.61 197.035H-737.685ZM-755.925 211H-710.895C-665.865 211 -635.655 187.345 -635.655 118.945V96.715C-635.655 28.03 -665.865 4.37499 -710.895 4.37499H-755.925V211ZM-543.655 200.17C-580.135 200.17 -590.68 168.82 -590.68 112.39V102.7C-590.68 46.555 -580.135 14.92 -543.655 14.92C-507.175 14.92 -496.345 46.555 -496.345 102.7V112.39C-496.345 168.82 -507.175 200.17 -543.655 200.17ZM-543.655 214.705C-499.195 214.705 -477.535 185.35 -477.535 119.515V95.86C-477.535 30.025 -499.195 0.66999 -543.655 0.66999C-587.83 0.66999 -609.49 30.025 -609.49 95.86V119.515C-609.49 185.35 -587.83 214.705 -543.655 214.705ZM-443.994 211H-342.534V195.61H-425.754V4.37499H-443.994V211ZM-321.567 211H-304.182V24.325H-303.612L-301.902 33.73L-250.602 211H-233.217L-182.202 33.73L-180.207 24.325H-179.637V211H-162.252V4.37499H-189.612L-241.767 189.91L-293.922 4.37499H-321.567V211ZM-138.628 211H-120.958L-104.428 151.72H-32.608L-16.078 211H2.44701L-57.688 4.37499H-79.063L-138.628 211ZM-68.518 22.33L-36.598 137.185H-100.438L-68.518 22.33ZM11.1685 211H130.868V195.61H30.8335L128.588 18.625V4.37499H16.8685V19.765H108.923L11.1685 196.465V211ZM140.832 211H260.532V195.61H160.497L258.252 18.625V4.37499H146.532V19.765H238.587L140.832 196.465V211ZM285.316 211H303.556V4.37499H285.316V211ZM453.517 214.705C478.027 214.705 492.562 202.165 501.397 181.93L501.682 211H516.217V109.255H445.537V124.075H499.687V133.765C499.687 175.66 487.717 200.17 455.227 200.17C418.747 200.17 409.057 168.82 409.057 112.39V102.7C409.057 46.555 418.747 14.92 455.227 14.92C483.442 14.92 497.977 33.16 497.977 66.79V67.36H515.932V66.79C515.932 26.035 494.557 0.66999 455.227 0.66999C410.767 0.66999 390.247 30.025 390.247 95.86V119.515C390.247 185.065 410.767 214.705 453.517 214.705ZM653.558 211H672.653L633.038 111.82C656.123 105.55 667.808 90.73 667.808 60.235C667.808 15.775 644.153 4.37499 594.278 4.37499H553.238V211H571.478V116.38H593.708C601.973 116.38 609.098 115.81 615.938 114.955L653.558 211ZM571.478 102.985V18.055H595.133C631.043 18.055 648.713 25.465 648.713 60.805C648.713 96.145 631.043 102.985 595.133 102.985H571.478ZM755.21 200.17C718.73 200.17 708.185 168.82 708.185 112.39V102.7C708.185 46.555 718.73 14.92 755.21 14.92C791.69 14.92 802.52 46.555 802.52 102.7V112.39C802.52 168.82 791.69 200.17 755.21 200.17ZM755.21 214.705C799.67 214.705 821.33 185.35 821.33 119.515V95.86C821.33 30.025 799.67 0.66999 755.21 0.66999C711.035 0.66999 689.375 30.025 689.375 95.86V119.515C689.375 185.35 711.035 214.705 755.21 214.705ZM911.301 214.705C957.471 214.705 970.296 194.47 970.296 138.895V4.37499H952.056V143.17C952.056 183.64 942.651 200.17 911.301 200.17C880.236 200.17 871.116 183.64 871.116 143.17V4.37499H852.876V138.895C852.876 194.47 865.416 214.705 911.301 214.705ZM1010.7 211H1028.94V122.935H1051.17C1099.33 122.935 1124.13 111.82 1124.13 63.37C1124.13 14.635 1099.33 4.37499 1051.17 4.37499H1010.7V211ZM1028.94 108.685V18.055H1050.88C1087.08 18.055 1105.03 24.895 1105.03 63.37C1105.03 101.845 1087.08 108.685 1050.88 108.685H1028.94ZM1103.91 211H1121.58V178.51H1103.91V211ZM1239.9 211H1262.42L1298.33 28.03L1333.95 211H1356.47L1396.94 4.37499H1379.55L1344.21 189.34L1307.73 4.37499H1288.92L1252.44 189.34L1216.82 4.37499H1199.72L1239.9 211ZM1421.64 211H1522.25V195.61H1439.88V111.535H1515.41V96.145H1439.88V19.765H1522.25V4.37499H1421.64V211ZM1601.65 211H1619.89V111.535H1701.68V211H1719.92V4.37499H1701.68V96.145H1619.89V4.37499H1601.65V211ZM1743.67 211H1761.34L1777.87 151.72H1849.69L1866.22 211H1884.75L1824.61 4.37499H1803.24L1743.67 211ZM1813.78 22.33L1845.7 137.185H1781.86L1813.78 22.33ZM1908.29 211H1925.68V28.885L2004.05 211H2027.14V4.37499H2009.75V186.49L1931.38 4.37499H1908.29V211ZM2087.92 197.035V18.055H2115C2153.19 18.055 2171.14 41.425 2171.14 102.7V112.39C2171.14 173.95 2153.19 197.035 2115 197.035H2087.92ZM2069.68 211H2114.71C2159.74 211 2189.95 187.345 2189.95 118.945V96.715C2189.95 28.03 2159.74 4.37499 2114.71 4.37499H2069.68V211ZM2222.82 142.03H2287.8V125.5H2222.82V142.03ZM2340.85 197.035V18.055H2367.92C2406.11 18.055 2424.07 41.425 2424.07 102.7V112.39C2424.07 173.95 2406.11 197.035 2367.92 197.035H2340.85ZM2322.61 211H2367.64C2412.67 211 2442.88 187.345 2442.88 118.945V96.715C2442.88 28.03 2412.67 4.37499 2367.64 4.37499H2322.61V211ZM2476.49 211H2577.09V195.61H2494.73V111.535H2570.25V96.145H2494.73V19.765H2577.09V4.37499H2476.49V211ZM2603.37 211H2704.83V195.61H2621.61V4.37499H2603.37V211ZM2725.8 211H2744.04V4.37499H2725.8V211ZM2821.78 211H2843.15L2897.59 4.37499H2879.92L2832.61 190.195L2785.3 4.37499H2766.77L2821.78 211ZM2920.27 211H3020.88V195.61H2938.51V111.535H3014.04V96.145H2938.51V19.765H3020.88V4.37499H2920.27V211ZM3147.48 211H3166.57L3126.96 111.82C3150.04 105.55 3161.73 90.73 3161.73 60.235C3161.73 15.775 3138.07 4.37499 3088.2 4.37499H3047.16V211H3065.4V116.38H3087.63C3095.89 116.38 3103.02 115.81 3109.86 114.955L3147.48 211ZM3065.4 102.985V18.055H3089.05C3124.96 18.055 3142.63 25.465 3142.63 60.805C3142.63 96.145 3124.96 102.985 3089.05 102.985H3065.4ZM3284.81 211H3303.05V131.2L3359.77 4.37499H3341.53L3294.22 113.53L3246.62 4.37499H3228.38L3284.81 130.915V211ZM3434.7 200.17C3398.22 200.17 3387.67 168.82 3387.67 112.39V102.7C3387.67 46.555 3398.22 14.92 3434.7 14.92C3471.18 14.92 3482.01 46.555 3482.01 102.7V112.39C3482.01 168.82 3471.18 200.17 3434.7 200.17ZM3434.7 214.705C3479.16 214.705 3500.82 185.35 3500.82 119.515V95.86C3500.82 30.025 3479.16 0.66999 3434.7 0.66999C3390.52 0.66999 3368.86 30.025 3368.86 95.86V119.515C3368.86 185.35 3390.52 214.705 3434.7 214.705ZM3590.79 214.705C3636.96 214.705 3649.79 194.47 3649.79 138.895V4.37499H3631.55V143.17C3631.55 183.64 3622.14 200.17 3590.79 200.17C3559.73 200.17 3550.61 183.64 3550.61 143.17V4.37499H3532.37V138.895C3532.37 194.47 3544.91 214.705 3590.79 214.705ZM3790.51 211H3809.6L3769.99 111.82C3793.07 105.55 3804.76 90.73 3804.76 60.235C3804.76 15.775 3781.1 4.37499 3731.23 4.37499H3690.19V211H3708.43V116.38H3730.66C3738.92 116.38 3746.05 115.81 3752.89 114.955L3790.51 211ZM3708.43 102.985V18.055H3732.08C3767.99 18.055 3785.66 25.465 3785.66 60.805C3785.66 96.145 3767.99 102.985 3732.08 102.985H3708.43ZM3942.1 214.705C3980.29 214.705 4000.81 194.47 4000.81 160.27C4000.81 124.645 3979.43 112.96 3954.64 101.845L3925.28 88.165C3909.89 81.04 3900.2 73.63 3900.2 50.83C3900.2 30.025 3914.17 15.49 3938.11 15.49C3962.33 15.49 3977.15 32.02 3977.15 57.385V59.095H3994.82V57.385C3994.82 20.335 3971.17 0.66999 3938.11 0.66999C3905.62 0.66999 3882.53 20.335 3882.53 51.97C3882.53 85.03 3901.06 96.715 3920.72 105.55L3949.22 118.945C3971.17 129.205 3982.57 138.61 3982.57 162.835C3982.57 185.92 3969.17 200.455 3941.81 200.455C3914.45 200.455 3897.07 183.07 3897.07 148.585V146.875H3878.83V148.585C3878.83 193.045 3903.62 214.705 3942.1 214.705ZM4089.7 200.17C4053.22 200.17 4042.67 168.82 4042.67 112.39V102.7C4042.67 46.555 4053.22 14.92 4089.7 14.92C4126.18 14.92 4137.01 46.555 4137.01 102.7V112.39C4137.01 168.82 4126.18 200.17 4089.7 200.17ZM4089.7 214.705C4134.16 214.705 4155.82 185.35 4155.82 119.515V95.86C4155.82 30.025 4134.16 0.66999 4089.7 0.66999C4045.52 0.66999 4023.86 30.025 4023.86 95.86V119.515C4023.86 185.35 4045.52 214.705 4089.7 214.705ZM4189.36 211H4290.82V195.61H4207.6V4.37499H4189.36V211ZM4366.83 214.705C4413 214.705 4425.82 194.47 4425.82 138.895V4.37499H4407.58V143.17C4407.58 183.64 4398.18 200.17 4366.83 200.17C4335.76 200.17 4326.64 183.64 4326.64 143.17V4.37499H4308.4V138.895C4308.4 194.47 4320.94 214.705 4366.83 214.705ZM4499 211H4517.24V19.765H4571.39V4.37499H4444.85V19.765H4499V211ZM4592.55 211H4610.79V4.37499H4592.55V211ZM4710.19 200.17C4673.71 200.17 4663.16 168.82 4663.16 112.39V102.7C4663.16 46.555 4673.71 14.92 4710.19 14.92C4746.67 14.92 4757.5 46.555 4757.5 102.7V112.39C4757.5 168.82 4746.67 200.17 4710.19 200.17ZM4710.19 214.705C4754.65 214.705 4776.31 185.35 4776.31 119.515V95.86C4776.31 30.025 4754.65 0.66999 4710.19 0.66999C4666.01 0.66999 4644.35 30.025 4644.35 95.86V119.515C4644.35 185.35 4666.01 214.705 4710.19 214.705ZM4809.85 211H4827.23V28.885L4905.61 211H4928.69V4.37499H4911.31V186.49L4832.93 4.37499H4809.85V211ZM5022.82 214.705C5061.01 214.705 5081.53 194.47 5081.53 160.27C5081.53 124.645 5060.16 112.96 5035.36 101.845L5006.01 88.165C4990.62 81.04 4980.93 73.63 4980.93 50.83C4980.93 30.025 4994.89 15.49 5018.83 15.49C5043.06 15.49 5057.88 32.02 5057.88 57.385V59.095H5075.55V57.385C5075.55 20.335 5051.89 0.66999 5018.83 0.66999C4986.34 0.66999 4963.26 20.335 4963.26 51.97C4963.26 85.03 4981.78 96.715 5001.45 105.55L5029.95 118.945C5051.89 129.205 5063.29 138.61 5063.29 162.835C5063.29 185.92 5049.9 200.455 5022.54 200.455C4995.18 200.455 4977.79 183.07 4977.79 148.585V146.875H4959.55V148.585C4959.55 193.045 4984.35 214.705 5022.82 214.705ZM-711.962 466H-689.447L-653.537 283.03L-617.912 466H-595.397L-554.927 259.375H-572.312L-607.652 444.34L-644.132 259.375H-662.942L-699.422 444.34L-735.047 259.375H-752.147L-711.962 466ZM-530.223 466H-511.983V259.375H-530.223V466ZM-436.808 466H-418.568V274.765H-364.418V259.375H-490.958V274.765H-436.808V466ZM-343.259 466H-325.019V366.535H-243.224V466H-224.984V259.375H-243.224V351.145H-325.019V259.375H-343.259V466ZM-96.5224 466H-78.2824V274.765H-24.1324V259.375H-150.672V274.765H-96.5224V466ZM-2.97339 466H97.6316V450.61H15.2666V366.535H90.7916V351.145H15.2666V274.765H97.6316V259.375H-2.97339V466ZM180.052 469.705C219.097 469.705 240.472 444.34 240.472 402.445V401.59H222.517V402.445C222.517 437.5 207.982 455.17 179.767 455.17C143.572 455.17 133.882 423.82 133.882 367.39V357.7C133.882 301.555 143.572 269.92 179.767 269.92C207.982 269.92 222.517 287.875 222.517 322.645V323.5H240.472V322.645C240.472 280.75 219.097 255.67 180.052 255.67C135.592 255.67 115.072 285.025 115.072 350.86V374.515C115.072 440.35 135.592 469.705 180.052 469.705ZM271.105 466H289.345V366.535H371.14V466H389.38V259.375H371.14V351.145H289.345V259.375H271.105V466ZM431.941 466H449.326V283.885L527.701 466H550.786V259.375H533.401V441.49L455.026 259.375H431.941V466ZM650.333 455.17C613.853 455.17 603.308 423.82 603.308 367.39V357.7C603.308 301.555 613.853 269.92 650.333 269.92C686.813 269.92 697.643 301.555 697.643 357.7V367.39C697.643 423.82 686.813 455.17 650.333 455.17ZM650.333 469.705C694.793 469.705 716.453 440.35 716.453 374.515V350.86C716.453 285.025 694.793 255.67 650.333 255.67C606.158 255.67 584.498 285.025 584.498 350.86V374.515C584.498 440.35 606.158 469.705 650.333 469.705ZM749.994 466H851.454V450.61H768.234V259.375H749.994V466ZM922.186 455.17C885.706 455.17 875.161 423.82 875.161 367.39V357.7C875.161 301.555 885.706 269.92 922.186 269.92C958.666 269.92 969.496 301.555 969.496 357.7V367.39C969.496 423.82 958.666 455.17 922.186 455.17ZM922.186 469.705C966.646 469.705 988.306 440.35 988.306 374.515V350.86C988.306 285.025 966.646 255.67 922.186 255.67C878.011 255.67 856.351 285.025 856.351 350.86V374.515C856.351 440.35 878.011 469.705 922.186 469.705ZM1077.67 469.705C1102.18 469.705 1116.72 457.165 1125.55 436.93L1125.84 466H1140.37V364.255H1069.69V379.075H1123.84V388.765C1123.84 430.66 1111.87 455.17 1079.38 455.17C1042.9 455.17 1033.21 423.82 1033.21 367.39V357.7C1033.21 301.555 1042.9 269.92 1079.38 269.92C1107.6 269.92 1122.13 288.16 1122.13 321.79V322.36H1140.09V321.79C1140.09 281.035 1118.71 255.67 1079.38 255.67C1034.92 255.67 1014.4 285.025 1014.4 350.86V374.515C1014.4 440.065 1034.92 469.705 1077.67 469.705ZM1204.71 466H1222.95V386.2L1279.66 259.375H1261.42L1214.11 368.53L1166.52 259.375H1148.28L1204.71 385.915V466ZM1262.81 433.51V463.435C1262.81 484.24 1262.81 489.655 1252.55 491.935V509.605C1278.77 506.185 1280.48 487.945 1280.48 463.15V433.51H1262.81ZM1432.44 469.705C1471.48 469.705 1492.86 444.34 1492.86 402.445V401.59H1474.9V402.445C1474.9 437.5 1460.37 455.17 1432.15 455.17C1395.96 455.17 1386.27 423.82 1386.27 367.39V357.7C1386.27 301.555 1395.96 269.92 1432.15 269.92C1460.37 269.92 1474.9 287.875 1474.9 322.645V323.5H1492.86V322.645C1492.86 280.75 1471.48 255.67 1432.44 255.67C1387.98 255.67 1367.46 285.025 1367.46 350.86V374.515C1367.46 440.35 1387.98 469.705 1432.44 469.705ZM1580.49 455.17C1544.01 455.17 1533.47 423.82 1533.47 367.39V357.7C1533.47 301.555 1544.01 269.92 1580.49 269.92C1616.97 269.92 1627.8 301.555 1627.8 357.7V367.39C1627.8 423.82 1616.97 455.17 1580.49 455.17ZM1580.49 469.705C1624.95 469.705 1646.61 440.35 1646.61 374.515V350.86C1646.61 285.025 1624.95 255.67 1580.49 255.67C1536.32 255.67 1514.66 285.025 1514.66 350.86V374.515C1514.66 440.35 1536.32 469.705 1580.49 469.705ZM1680.15 466H1697.54V279.325H1698.11L1699.82 288.73L1751.12 466H1768.5L1819.52 288.73L1821.51 279.325H1822.08V466H1839.47V259.375H1812.11L1759.95 444.91L1707.8 259.375H1680.15V466ZM1881.9 466H1899.29V279.325H1899.86L1901.57 288.73L1952.87 466H1970.25L2021.27 288.73L2023.26 279.325H2023.83V466H2041.22V259.375H2013.86L1961.7 444.91L1909.55 259.375H1881.9V466ZM2140.08 469.705C2186.25 469.705 2199.07 449.47 2199.07 393.895V259.375H2180.83V398.17C2180.83 438.64 2171.43 455.17 2140.08 455.17C2109.01 455.17 2099.89 438.64 2099.89 398.17V259.375H2081.65V393.895C2081.65 449.47 2094.19 469.705 2140.08 469.705ZM2239.48 466H2256.86V283.885L2335.24 466H2358.32V259.375H2340.94V441.49L2262.56 259.375H2239.48V466ZM2400.87 466H2419.11V259.375H2400.87V466ZM2517.65 469.705C2556.7 469.705 2578.07 444.34 2578.07 402.445V401.59H2560.12V402.445C2560.12 437.5 2545.58 455.17 2517.37 455.17C2481.17 455.17 2471.48 423.82 2471.48 367.39V357.7C2471.48 301.555 2481.17 269.92 2517.37 269.92C2545.58 269.92 2560.12 287.875 2560.12 322.645V323.5H2578.07V322.645C2578.07 280.75 2556.7 255.67 2517.65 255.67C2473.19 255.67 2452.67 285.025 2452.67 350.86V374.515C2452.67 440.35 2473.19 469.705 2517.65 469.705ZM2587.11 466H2604.78L2621.31 406.72H2693.13L2709.66 466H2728.19L2668.05 259.375H2646.68L2587.11 466ZM2657.22 277.33L2689.14 392.185H2625.3L2657.22 277.33ZM2767.53 466H2785.77V274.765H2839.92V259.375H2713.38V274.765H2767.53V466ZM2861.08 466H2879.32V259.375H2861.08V466ZM2978.72 455.17C2942.24 455.17 2931.69 423.82 2931.69 367.39V357.7C2931.69 301.555 2942.24 269.92 2978.72 269.92C3015.2 269.92 3026.03 301.555 3026.03 357.7V367.39C3026.03 423.82 3015.2 455.17 2978.72 455.17ZM2978.72 469.705C3023.18 469.705 3044.84 440.35 3044.84 374.515V350.86C3044.84 285.025 3023.18 255.67 2978.72 255.67C2934.54 255.67 2912.88 285.025 2912.88 350.86V374.515C2912.88 440.35 2934.54 469.705 2978.72 469.705ZM3078.38 466H3095.76V283.885L3174.14 466H3197.22V259.375H3179.84V441.49L3101.46 259.375H3078.38V466ZM3240.05 433.51V463.435C3240.05 484.24 3240.05 489.655 3229.79 491.935V509.605C3256.01 506.185 3257.72 487.945 3257.72 463.15V433.51H3240.05ZM3334.73 466H3352.4L3368.93 406.72H3440.75L3457.28 466H3475.8L3415.67 259.375H3394.29L3334.73 466ZM3404.84 277.33L3436.76 392.185H3372.92L3404.84 277.33ZM3499.34 466H3516.73V283.885L3595.1 466H3618.19V259.375H3600.8V441.49L3522.43 259.375H3499.34V466ZM3678.98 452.035V273.055H3706.05C3744.24 273.055 3762.2 296.425 3762.2 357.7V367.39C3762.2 428.95 3744.24 452.035 3706.05 452.035H3678.98ZM3660.74 466H3705.77C3750.8 466 3781.01 442.345 3781.01 373.945V351.715C3781.01 283.03 3750.8 259.375 3705.77 259.375H3660.74V466ZM3867.74 466H3968.34V450.61H3885.98V366.535H3961.5V351.145H3885.98V274.765H3968.34V259.375H3867.74V466ZM3994.62 466H4012.86V366.535H4082.68V351.145H4012.86V274.765H4089.52V259.375H3994.62V466ZM4114.26 466H4132.5V366.535H4202.33V351.145H4132.5V274.765H4209.17V259.375H4114.26V466ZM4233.91 466H4252.15V259.375H4233.91V466ZM4350.69 469.705C4389.74 469.705 4411.11 444.34 4411.11 402.445V401.59H4393.16V402.445C4393.16 437.5 4378.62 455.17 4350.41 455.17C4314.21 455.17 4304.52 423.82 4304.52 367.39V357.7C4304.52 301.555 4314.21 269.92 4350.41 269.92C4378.62 269.92 4393.16 287.875 4393.16 322.645V323.5H4411.11V322.645C4411.11 280.75 4389.74 255.67 4350.69 255.67C4306.23 255.67 4285.71 285.025 4285.71 350.86V374.515C4285.71 440.35 4306.23 469.705 4350.69 469.705ZM4441.75 466H4459.99V259.375H4441.75V466ZM4502.39 466H4602.99V450.61H4520.63V366.535H4596.15V351.145H4520.63V274.765H4602.99V259.375H4502.39V466ZM4629.27 466H4646.65V283.885L4725.03 466H4748.11V259.375H4730.73V441.49L4652.35 259.375H4629.27V466ZM4846.8 469.705C4885.85 469.705 4907.22 444.34 4907.22 402.445V401.59H4889.27V402.445C4889.27 437.5 4874.73 455.17 4846.52 455.17C4810.32 455.17 4800.63 423.82 4800.63 367.39V357.7C4800.63 301.555 4810.32 269.92 4846.52 269.92C4874.73 269.92 4889.27 287.875 4889.27 322.645V323.5H4907.22V322.645C4907.22 280.75 4885.85 255.67 4846.8 255.67C4802.34 255.67 4781.82 285.025 4781.82 350.86V374.515C4781.82 440.35 4802.34 469.705 4846.8 469.705ZM4972.41 466H4990.65V386.2L5047.36 259.375H5029.12L4981.81 368.53L4934.22 259.375H4915.98L4972.41 385.915V466ZM5030.51 466H5048.18V433.51H5030.51V466ZM29.2493 721H51.7643L87.6743 538.03L123.299 721H145.814L186.284 514.375H168.899L133.559 699.34L97.0793 514.375H78.2693L41.7893 699.34L6.16431 514.375H-10.9357L29.2493 721ZM210.988 721H311.593V705.61H229.228V621.535H304.753V606.145H229.228V529.765H311.593V514.375H210.988V721ZM442.579 724.705C480.769 724.705 501.289 704.47 501.289 670.27C501.289 634.645 479.914 622.96 455.119 611.845L425.764 598.165C410.374 591.04 400.684 583.63 400.684 560.83C400.684 540.025 414.649 525.49 438.589 525.49C462.814 525.49 477.634 542.02 477.634 567.385V569.095H495.304V567.385C495.304 530.335 471.649 510.67 438.589 510.67C406.099 510.67 383.014 530.335 383.014 561.97C383.014 595.03 401.539 606.715 421.204 615.55L449.704 628.945C471.649 639.205 483.049 648.61 483.049 672.835C483.049 695.92 469.654 710.455 442.294 710.455C414.934 710.455 397.549 693.07 397.549 658.585V656.875H379.309V658.585C379.309 703.045 404.104 724.705 442.579 724.705ZM532.07 721H549.455V534.325H550.025L551.735 543.73L603.035 721H620.42L671.435 543.73L673.43 534.325H674V721H691.385V514.375H664.025L611.87 699.91L559.715 514.375H532.07V721ZM790.818 710.17C754.338 710.17 743.793 678.82 743.793 622.39V612.7C743.793 556.555 754.338 524.92 790.818 524.92C827.298 524.92 838.128 556.555 838.128 612.7V622.39C838.128 678.82 827.298 710.17 790.818 710.17ZM790.818 724.705C835.278 724.705 856.938 695.35 856.938 629.515V605.86C856.938 540.025 835.278 510.67 790.818 510.67C746.643 510.67 724.983 540.025 724.983 605.86V629.515C724.983 695.35 746.643 724.705 790.818 724.705ZM948.871 710.17C912.391 710.17 901.846 678.82 901.846 622.39V612.7C901.846 556.555 912.391 524.92 948.871 524.92C985.351 524.92 996.181 556.555 996.181 612.7V622.39C996.181 678.82 985.351 710.17 948.871 710.17ZM948.871 724.705C993.331 724.705 1014.99 695.35 1014.99 629.515V605.86C1014.99 540.025 993.331 510.67 948.871 510.67C904.696 510.67 883.036 540.025 883.036 605.86V629.515C883.036 695.35 904.696 724.705 948.871 724.705ZM1074.07 721H1092.31V529.765H1146.46V514.375H1019.92V529.765H1074.07V721ZM1167.62 721H1185.86V621.535H1267.65V721H1285.89V514.375H1267.65V606.145H1185.86V514.375H1167.62V721ZM1438.58 710.17C1402.1 710.17 1391.56 678.82 1391.56 622.39V612.7C1391.56 556.555 1402.1 524.92 1438.58 524.92C1475.06 524.92 1485.89 556.555 1485.89 612.7V622.39C1485.89 678.82 1475.06 710.17 1438.58 710.17ZM1438.58 724.705C1483.04 724.705 1504.7 695.35 1504.7 629.515V605.86C1504.7 540.025 1483.04 510.67 1438.58 510.67C1394.41 510.67 1372.75 540.025 1372.75 605.86V629.515C1372.75 695.35 1394.41 724.705 1438.58 724.705ZM1594.67 724.705C1640.84 724.705 1653.67 704.47 1653.67 648.895V514.375H1635.43V653.17C1635.43 693.64 1626.02 710.17 1594.67 710.17C1563.61 710.17 1554.49 693.64 1554.49 653.17V514.375H1536.25V648.895C1536.25 704.47 1548.79 724.705 1594.67 724.705ZM1726.84 721H1745.08V529.765H1799.23V514.375H1672.69V529.765H1726.84V721ZM1906.29 721H1924.53V529.765H1978.68V514.375H1852.14V529.765H1906.29V721ZM1999.84 721H2018.08V621.535H2099.88V721H2118.12V514.375H2099.88V606.145H2018.08V514.375H1999.84V721ZM2160.68 721H2261.28V705.61H2178.92V621.535H2254.44V606.145H2178.92V529.765H2261.28V514.375H2160.68V721ZM2441 721H2460.1L2420.48 621.82C2443.57 615.55 2455.25 600.73 2455.25 570.235C2455.25 525.775 2431.6 514.375 2381.72 514.375H2340.68V721H2358.92V626.38H2381.15C2389.42 626.38 2396.54 625.81 2403.38 624.955L2441 721ZM2358.92 612.985V528.055H2382.58C2418.49 528.055 2436.16 535.465 2436.16 570.805C2436.16 606.145 2418.49 612.985 2382.58 612.985H2358.92ZM2542.66 710.17C2506.18 710.17 2495.63 678.82 2495.63 622.39V612.7C2495.63 556.555 2506.18 524.92 2542.66 524.92C2579.14 524.92 2589.97 556.555 2589.97 612.7V622.39C2589.97 678.82 2579.14 710.17 2542.66 710.17ZM2542.66 724.705C2587.12 724.705 2608.78 695.35 2608.78 629.515V605.86C2608.78 540.025 2587.12 510.67 2542.66 510.67C2498.48 510.67 2476.82 540.025 2476.82 605.86V629.515C2476.82 695.35 2498.48 724.705 2542.66 724.705ZM2698.75 724.705C2744.92 724.705 2757.74 704.47 2757.74 648.895V514.375H2739.5V653.17C2739.5 693.64 2730.1 710.17 2698.75 710.17C2667.68 710.17 2658.56 693.64 2658.56 653.17V514.375H2640.32V648.895C2640.32 704.47 2652.86 724.705 2698.75 724.705ZM2852.58 724.705C2877.09 724.705 2891.62 712.165 2900.46 691.93L2900.74 721H2915.28V619.255H2844.6V634.075H2898.75V643.765C2898.75 685.66 2886.78 710.17 2854.29 710.17C2817.81 710.17 2808.12 678.82 2808.12 622.39V612.7C2808.12 556.555 2817.81 524.92 2854.29 524.92C2882.5 524.92 2897.04 543.16 2897.04 576.79V577.36H2914.99V576.79C2914.99 536.035 2893.62 510.67 2854.29 510.67C2809.83 510.67 2789.31 540.025 2789.31 605.86V629.515C2789.31 695.065 2809.83 724.705 2852.58 724.705ZM2952.3 721H2970.54V621.535H3052.33V721H3070.57V514.375H3052.33V606.145H2970.54V514.375H2952.3V721ZM3147.45 721H3165.12L3181.65 661.72H3253.47L3270 721H3288.52L3228.39 514.375H3207.01L3147.45 721ZM3217.56 532.33L3249.48 647.185H3185.64L3217.56 532.33ZM3312.07 721H3329.45V538.885L3407.83 721H3430.91V514.375H3413.53V696.49L3335.15 514.375H3312.07V721ZM3491.7 707.035V528.055H3518.77C3556.96 528.055 3574.92 551.425 3574.92 612.7V622.39C3574.92 683.95 3556.96 707.035 3518.77 707.035H3491.7ZM3473.46 721H3518.49C3563.52 721 3593.73 697.345 3593.73 628.945V606.715C3593.73 538.03 3563.52 514.375 3518.49 514.375H3473.46V721ZM3713.24 721H3731.48V529.765H3785.63V514.375H3659.09V529.765H3713.24V721ZM3859.61 710.17C3823.13 710.17 3812.59 678.82 3812.59 622.39V612.7C3812.59 556.555 3823.13 524.92 3859.61 524.92C3896.09 524.92 3906.92 556.555 3906.92 612.7V622.39C3906.92 678.82 3896.09 710.17 3859.61 710.17ZM3859.61 724.705C3904.07 724.705 3925.73 695.35 3925.73 629.515V605.86C3925.73 540.025 3904.07 510.67 3859.61 510.67C3815.44 510.67 3793.78 540.025 3793.78 605.86V629.515C3793.78 695.35 3815.44 724.705 3859.61 724.705ZM4015.7 724.705C4061.87 724.705 4074.7 704.47 4074.7 648.895V514.375H4056.46V653.17C4056.46 693.64 4047.05 710.17 4015.7 710.17C3984.64 710.17 3975.52 693.64 3975.52 653.17V514.375H3957.28V648.895C3957.28 704.47 3969.82 724.705 4015.7 724.705ZM4169.53 724.705C4194.04 724.705 4208.58 712.165 4217.41 691.93L4217.7 721H4232.23V619.255H4161.55V634.075H4215.7V643.765C4215.7 685.66 4203.73 710.17 4171.24 710.17C4134.76 710.17 4125.07 678.82 4125.07 622.39V612.7C4125.07 556.555 4134.76 524.92 4171.24 524.92C4199.46 524.92 4213.99 543.16 4213.99 576.79V577.36H4231.95V576.79C4231.95 536.035 4210.57 510.67 4171.24 510.67C4126.78 510.67 4106.26 540.025 4106.26 605.86V629.515C4106.26 695.065 4126.78 724.705 4169.53 724.705ZM4269.25 721H4287.49V621.535H4369.29V721H4387.53V514.375H4369.29V606.145H4287.49V514.375H4269.25V721ZM4430.38 721H4448.05V688.51H4430.38V721Z" fill="#202B54"/>
</svg>
