<svg width="5838" height="725" viewBox="0 0 5838 725" fill="none" xmlns="http://www.w3.org/2000/svg">
<path d="M18.3154 197.035V18.055H45.3904C83.5804 18.055 101.535 41.425 101.535 102.7V112.39C101.535 173.95 83.5804 197.035 45.3904 197.035H18.3154ZM0.0753731 211H45.1054C90.1354 211 120.345 187.345 120.345 118.945V96.715C120.345 28.03 90.1354 4.37499 45.1054 4.37499H0.0753731V211ZM212.345 200.17C175.865 200.17 165.32 168.82 165.32 112.39V102.7C165.32 46.555 175.865 14.92 212.345 14.92C248.825 14.92 259.655 46.555 259.655 102.7V112.39C259.655 168.82 248.825 200.17 212.345 200.17ZM212.345 214.705C256.805 214.705 278.465 185.35 278.465 119.515V95.86C278.465 30.025 256.805 0.66999 212.345 0.66999C168.17 0.66999 146.51 30.025 146.51 95.86V119.515C146.51 185.35 168.17 214.705 212.345 214.705ZM312.006 211H413.466V195.61H330.246V4.37499H312.006V211ZM434.433 211H451.818V24.325H452.388L454.098 33.73L505.398 211H522.783L573.798 33.73L575.793 24.325H576.363V211H593.748V4.37499H566.388L514.233 189.91L462.078 4.37499H434.433V211ZM617.372 211H635.042L651.572 151.72H723.392L739.922 211H758.447L698.312 4.37499H676.937L617.372 211ZM687.482 22.33L719.402 137.185H655.562L687.482 22.33ZM767.168 211H886.868V195.61H786.833L884.588 18.625V4.37499H772.868V19.765H864.923L767.168 196.465V211ZM896.832 211H1016.53V195.61H916.497L1014.25 18.625V4.37499H902.532V19.765H994.587L896.832 196.465V211ZM1041.32 211H1059.56V4.37499H1041.32V211ZM1209.52 214.705C1234.03 214.705 1248.56 202.165 1257.4 181.93L1257.68 211H1272.22V109.255H1201.54V124.075H1255.69V133.765C1255.69 175.66 1243.72 200.17 1211.23 200.17C1174.75 200.17 1165.06 168.82 1165.06 112.39V102.7C1165.06 46.555 1174.75 14.92 1211.23 14.92C1239.44 14.92 1253.98 33.16 1253.98 66.79V67.36H1271.93V66.79C1271.93 26.035 1250.56 0.66999 1211.23 0.66999C1166.77 0.66999 1146.25 30.025 1146.25 95.86V119.515C1146.25 185.065 1166.77 214.705 1209.52 214.705ZM1409.56 211H1428.65L1389.04 111.82C1412.12 105.55 1423.81 90.73 1423.81 60.235C1423.81 15.775 1400.15 4.37499 1350.28 4.37499H1309.24V211H1327.48V116.38H1349.71C1357.97 116.38 1365.1 115.81 1371.94 114.955L1409.56 211ZM1327.48 102.985V18.055H1351.13C1387.04 18.055 1404.71 25.465 1404.71 60.805C1404.71 96.145 1387.04 102.985 1351.13 102.985H1327.48ZM1511.21 200.17C1474.73 200.17 1464.18 168.82 1464.18 112.39V102.7C1464.18 46.555 1474.73 14.92 1511.21 14.92C1547.69 14.92 1558.52 46.555 1558.52 102.7V112.39C1558.52 168.82 1547.69 200.17 1511.21 200.17ZM1511.21 214.705C1555.67 214.705 1577.33 185.35 1577.33 119.515V95.86C1577.33 30.025 1555.67 0.66999 1511.21 0.66999C1467.03 0.66999 1445.37 30.025 1445.37 95.86V119.515C1445.37 185.35 1467.03 214.705 1511.21 214.705ZM1667.3 214.705C1713.47 214.705 1726.3 194.47 1726.3 138.895V4.37499H1708.06V143.17C1708.06 183.64 1698.65 200.17 1667.3 200.17C1636.24 200.17 1627.12 183.64 1627.12 143.17V4.37499H1608.88V138.895C1608.88 194.47 1621.42 214.705 1667.3 214.705ZM1766.7 211H1784.94V122.935H1807.17C1855.33 122.935 1880.13 111.82 1880.13 63.37C1880.13 14.635 1855.33 4.37499 1807.17 4.37499H1766.7V211ZM1784.94 108.685V18.055H1806.88C1843.08 18.055 1861.03 24.895 1861.03 63.37C1861.03 101.845 1843.08 108.685 1806.88 108.685H1784.94ZM1859.91 211H1877.58V178.51H1859.91V211ZM1995.9 211H2018.42L2054.33 28.03L2089.95 211H2112.47L2152.94 4.37499H2135.55L2100.21 189.34L2063.73 4.37499H2044.92L2008.44 189.34L1972.82 4.37499H1955.72L1995.9 211ZM2177.64 211H2278.25V195.61H2195.88V111.535H2271.41V96.145H2195.88V19.765H2278.25V4.37499H2177.64V211ZM2357.65 211H2375.89V111.535H2457.68V211H2475.92V4.37499H2457.68V96.145H2375.89V4.37499H2357.65V211ZM2499.67 211H2517.34L2533.87 151.72H2605.69L2622.22 211H2640.75L2580.61 4.37499H2559.24L2499.67 211ZM2569.78 22.33L2601.7 137.185H2537.86L2569.78 22.33ZM2664.29 211H2681.68V28.885L2760.05 211H2783.14V4.37499H2765.75V186.49L2687.38 4.37499H2664.29V211ZM2843.92 197.035V18.055H2871C2909.19 18.055 2927.14 41.425 2927.14 102.7V112.39C2927.14 173.95 2909.19 197.035 2871 197.035H2843.92ZM2825.68 211H2870.71C2915.74 211 2945.95 187.345 2945.95 118.945V96.715C2945.95 28.03 2915.74 4.37499 2870.71 4.37499H2825.68V211ZM2978.82 142.03H3043.8V125.5H2978.82V142.03ZM3096.85 197.035V18.055H3123.92C3162.11 18.055 3180.07 41.425 3180.07 102.7V112.39C3180.07 173.95 3162.11 197.035 3123.92 197.035H3096.85ZM3078.61 211H3123.64C3168.67 211 3198.88 187.345 3198.88 118.945V96.715C3198.88 28.03 3168.67 4.37499 3123.64 4.37499H3078.61V211ZM3232.49 211H3333.09V195.61H3250.73V111.535H3326.25V96.145H3250.73V19.765H3333.09V4.37499H3232.49V211ZM3359.37 211H3460.83V195.61H3377.61V4.37499H3359.37V211ZM3481.8 211H3500.04V4.37499H3481.8V211ZM3577.78 211H3599.15L3653.59 4.37499H3635.92L3588.61 190.195L3541.3 4.37499H3522.77L3577.78 211ZM3676.27 211H3776.88V195.61H3694.51V111.535H3770.04V96.145H3694.51V19.765H3776.88V4.37499H3676.27V211ZM3903.48 211H3922.57L3882.96 111.82C3906.04 105.55 3917.73 90.73 3917.73 60.235C3917.73 15.775 3894.07 4.37499 3844.2 4.37499H3803.16V211H3821.4V116.38H3843.63C3851.89 116.38 3859.02 115.81 3865.86 114.955L3903.48 211ZM3821.4 102.985V18.055H3845.05C3880.96 18.055 3898.63 25.465 3898.63 60.805C3898.63 96.145 3880.96 102.985 3845.05 102.985H3821.4ZM4040.81 211H4059.05V131.2L4115.77 4.37499H4097.53L4050.22 113.53L4002.62 4.37499H3984.38L4040.81 130.915V211ZM4190.7 200.17C4154.22 200.17 4143.67 168.82 4143.67 112.39V102.7C4143.67 46.555 4154.22 14.92 4190.7 14.92C4227.18 14.92 4238.01 46.555 4238.01 102.7V112.39C4238.01 168.82 4227.18 200.17 4190.7 200.17ZM4190.7 214.705C4235.16 214.705 4256.82 185.35 4256.82 119.515V95.86C4256.82 30.025 4235.16 0.66999 4190.7 0.66999C4146.52 0.66999 4124.86 30.025 4124.86 95.86V119.515C4124.86 185.35 4146.52 214.705 4190.7 214.705ZM4346.79 214.705C4392.96 214.705 4405.79 194.47 4405.79 138.895V4.37499H4387.55V143.17C4387.55 183.64 4378.14 200.17 4346.79 200.17C4315.73 200.17 4306.61 183.64 4306.61 143.17V4.37499H4288.37V138.895C4288.37 194.47 4300.91 214.705 4346.79 214.705ZM4546.51 211H4565.6L4525.99 111.82C4549.07 105.55 4560.76 90.73 4560.76 60.235C4560.76 15.775 4537.1 4.37499 4487.23 4.37499H4446.19V211H4464.43V116.38H4486.66C4494.92 116.38 4502.05 115.81 4508.89 114.955L4546.51 211ZM4464.43 102.985V18.055H4488.08C4523.99 18.055 4541.66 25.465 4541.66 60.805C4541.66 96.145 4523.99 102.985 4488.08 102.985H4464.43ZM4698.1 214.705C4736.29 214.705 4756.81 194.47 4756.81 160.27C4756.81 124.645 4735.43 112.96 4710.64 101.845L4681.28 88.165C4665.89 81.04 4656.2 73.63 4656.2 50.83C4656.2 30.025 4670.17 15.49 4694.11 15.49C4718.33 15.49 4733.15 32.02 4733.15 57.385V59.095H4750.82V57.385C4750.82 20.335 4727.17 0.66999 4694.11 0.66999C4661.62 0.66999 4638.53 20.335 4638.53 51.97C4638.53 85.03 4657.06 96.715 4676.72 105.55L4705.22 118.945C4727.17 129.205 4738.57 138.61 4738.57 162.835C4738.57 185.92 4725.17 200.455 4697.81 200.455C4670.45 200.455 4653.07 183.07 4653.07 148.585V146.875H4634.83V148.585C4634.83 193.045 4659.62 214.705 4698.1 214.705ZM4845.7 200.17C4809.22 200.17 4798.67 168.82 4798.67 112.39V102.7C4798.67 46.555 4809.22 14.92 4845.7 14.92C4882.18 14.92 4893.01 46.555 4893.01 102.7V112.39C4893.01 168.82 4882.18 200.17 4845.7 200.17ZM4845.7 214.705C4890.16 214.705 4911.82 185.35 4911.82 119.515V95.86C4911.82 30.025 4890.16 0.66999 4845.7 0.66999C4801.52 0.66999 4779.86 30.025 4779.86 95.86V119.515C4779.86 185.35 4801.52 214.705 4845.7 214.705ZM4945.36 211H5046.82V195.61H4963.6V4.37499H4945.36V211ZM5122.83 214.705C5169 214.705 5181.82 194.47 5181.82 138.895V4.37499H5163.58V143.17C5163.58 183.64 5154.18 200.17 5122.83 200.17C5091.76 200.17 5082.64 183.64 5082.64 143.17V4.37499H5064.4V138.895C5064.4 194.47 5076.94 214.705 5122.83 214.705ZM5255 211H5273.24V19.765H5327.39V4.37499H5200.85V19.765H5255V211ZM5348.55 211H5366.79V4.37499H5348.55V211ZM5466.19 200.17C5429.71 200.17 5419.16 168.82 5419.16 112.39V102.7C5419.16 46.555 5429.71 14.92 5466.19 14.92C5502.67 14.92 5513.5 46.555 5513.5 102.7V112.39C5513.5 168.82 5502.67 200.17 5466.19 200.17ZM5466.19 214.705C5510.65 214.705 5532.31 185.35 5532.31 119.515V95.86C5532.31 30.025 5510.65 0.66999 5466.19 0.66999C5422.01 0.66999 5400.35 30.025 5400.35 95.86V119.515C5400.35 185.35 5422.01 214.705 5466.19 214.705ZM5565.85 211H5583.23V28.885L5661.61 211H5684.69V4.37499H5667.31V186.49L5588.93 4.37499H5565.85V211ZM5778.82 214.705C5817.01 214.705 5837.53 194.47 5837.53 160.27C5837.53 124.645 5816.16 112.96 5791.36 101.845L5762.01 88.165C5746.62 81.04 5736.93 73.63 5736.93 50.83C5736.93 30.025 5750.89 15.49 5774.83 15.49C5799.06 15.49 5813.88 32.02 5813.88 57.385V59.095H5831.55V57.385C5831.55 20.335 5807.89 0.66999 5774.83 0.66999C5742.34 0.66999 5719.26 20.335 5719.26 51.97C5719.26 85.03 5737.78 96.715 5757.45 105.55L5785.95 118.945C5807.89 129.205 5819.29 138.61 5819.29 162.835C5819.29 185.92 5805.9 200.455 5778.54 200.455C5751.18 200.455 5733.79 183.07 5733.79 148.585V146.875H5715.55V148.585C5715.55 193.045 5740.35 214.705 5778.82 214.705ZM44.0379 466H66.5529L102.463 283.03L138.088 466H160.603L201.073 259.375H183.688L148.348 444.34L111.868 259.375H93.0579L56.5779 444.34L20.9529 259.375H3.85288L44.0379 466ZM225.777 466H244.017V259.375H225.777V466ZM319.192 466H337.432V274.765H391.582V259.375H265.042V274.765H319.192V466ZM412.741 466H430.981V366.535H512.776V466H531.016V259.375H512.776V351.145H430.981V259.375H412.741V466ZM659.478 466H677.718V274.765H731.868V259.375H605.328V274.765H659.478V466ZM753.027 466H853.632V450.61H771.267V366.535H846.792V351.145H771.267V274.765H853.632V259.375H753.027V466ZM936.052 469.705C975.097 469.705 996.472 444.34 996.472 402.445V401.59H978.517V402.445C978.517 437.5 963.982 455.17 935.767 455.17C899.572 455.17 889.882 423.82 889.882 367.39V357.7C889.882 301.555 899.572 269.92 935.767 269.92C963.982 269.92 978.517 287.875 978.517 322.645V323.5H996.472V322.645C996.472 280.75 975.097 255.67 936.052 255.67C891.592 255.67 871.072 285.025 871.072 350.86V374.515C871.072 440.35 891.592 469.705 936.052 469.705ZM1027.11 466H1045.35V366.535H1127.14V466H1145.38V259.375H1127.14V351.145H1045.35V259.375H1027.11V466ZM1187.94 466H1205.33V283.885L1283.7 466H1306.79V259.375H1289.4V441.49L1211.03 259.375H1187.94V466ZM1406.33 455.17C1369.85 455.17 1359.31 423.82 1359.31 367.39V357.7C1359.31 301.555 1369.85 269.92 1406.33 269.92C1442.81 269.92 1453.64 301.555 1453.64 357.7V367.39C1453.64 423.82 1442.81 455.17 1406.33 455.17ZM1406.33 469.705C1450.79 469.705 1472.45 440.35 1472.45 374.515V350.86C1472.45 285.025 1450.79 255.67 1406.33 255.67C1362.16 255.67 1340.5 285.025 1340.5 350.86V374.515C1340.5 440.35 1362.16 469.705 1406.33 469.705ZM1505.99 466H1607.45V450.61H1524.23V259.375H1505.99V466ZM1678.19 455.17C1641.71 455.17 1631.16 423.82 1631.16 367.39V357.7C1631.16 301.555 1641.71 269.92 1678.19 269.92C1714.67 269.92 1725.5 301.555 1725.5 357.7V367.39C1725.5 423.82 1714.67 455.17 1678.19 455.17ZM1678.19 469.705C1722.65 469.705 1744.31 440.35 1744.31 374.515V350.86C1744.31 285.025 1722.65 255.67 1678.19 255.67C1634.01 255.67 1612.35 285.025 1612.35 350.86V374.515C1612.35 440.35 1634.01 469.705 1678.19 469.705ZM1833.67 469.705C1858.18 469.705 1872.72 457.165 1881.55 436.93L1881.84 466H1896.37V364.255H1825.69V379.075H1879.84V388.765C1879.84 430.66 1867.87 455.17 1835.38 455.17C1798.9 455.17 1789.21 423.82 1789.21 367.39V357.7C1789.21 301.555 1798.9 269.92 1835.38 269.92C1863.6 269.92 1878.13 288.16 1878.13 321.79V322.36H1896.09V321.79C1896.09 281.035 1874.71 255.67 1835.38 255.67C1790.92 255.67 1770.4 285.025 1770.4 350.86V374.515C1770.4 440.065 1790.92 469.705 1833.67 469.705ZM1960.71 466H1978.95V386.2L2035.66 259.375H2017.42L1970.11 368.53L1922.52 259.375H1904.28L1960.71 385.915V466ZM2018.81 433.51V463.435C2018.81 484.24 2018.81 489.655 2008.55 491.935V509.605C2034.77 506.185 2036.48 487.945 2036.48 463.15V433.51H2018.81ZM2188.44 469.705C2227.48 469.705 2248.86 444.34 2248.86 402.445V401.59H2230.9V402.445C2230.9 437.5 2216.37 455.17 2188.15 455.17C2151.96 455.17 2142.27 423.82 2142.27 367.39V357.7C2142.27 301.555 2151.96 269.92 2188.15 269.92C2216.37 269.92 2230.9 287.875 2230.9 322.645V323.5H2248.86V322.645C2248.86 280.75 2227.48 255.67 2188.44 255.67C2143.98 255.67 2123.46 285.025 2123.46 350.86V374.515C2123.46 440.35 2143.98 469.705 2188.44 469.705ZM2336.49 455.17C2300.01 455.17 2289.47 423.82 2289.47 367.39V357.7C2289.47 301.555 2300.01 269.92 2336.49 269.92C2372.97 269.92 2383.8 301.555 2383.8 357.7V367.39C2383.8 423.82 2372.97 455.17 2336.49 455.17ZM2336.49 469.705C2380.95 469.705 2402.61 440.35 2402.61 374.515V350.86C2402.61 285.025 2380.95 255.67 2336.49 255.67C2292.32 255.67 2270.66 285.025 2270.66 350.86V374.515C2270.66 440.35 2292.32 469.705 2336.49 469.705ZM2436.15 466H2453.54V279.325H2454.11L2455.82 288.73L2507.12 466H2524.5L2575.52 288.73L2577.51 279.325H2578.08V466H2595.47V259.375H2568.11L2515.95 444.91L2463.8 259.375H2436.15V466ZM2637.9 466H2655.29V279.325H2655.86L2657.57 288.73L2708.87 466H2726.25L2777.27 288.73L2779.26 279.325H2779.83V466H2797.22V259.375H2769.86L2717.7 444.91L2665.55 259.375H2637.9V466ZM2896.08 469.705C2942.25 469.705 2955.07 449.47 2955.07 393.895V259.375H2936.83V398.17C2936.83 438.64 2927.43 455.17 2896.08 455.17C2865.01 455.17 2855.89 438.64 2855.89 398.17V259.375H2837.65V393.895C2837.65 449.47 2850.19 469.705 2896.08 469.705ZM2995.48 466H3012.86V283.885L3091.24 466H3114.32V259.375H3096.94V441.49L3018.56 259.375H2995.48V466ZM3156.87 466H3175.11V259.375H3156.87V466ZM3273.65 469.705C3312.7 469.705 3334.07 444.34 3334.07 402.445V401.59H3316.12V402.445C3316.12 437.5 3301.58 455.17 3273.37 455.17C3237.17 455.17 3227.48 423.82 3227.48 367.39V357.7C3227.48 301.555 3237.17 269.92 3273.37 269.92C3301.58 269.92 3316.12 287.875 3316.12 322.645V323.5H3334.07V322.645C3334.07 280.75 3312.7 255.67 3273.65 255.67C3229.19 255.67 3208.67 285.025 3208.67 350.86V374.515C3208.67 440.35 3229.19 469.705 3273.65 469.705ZM3343.11 466H3360.78L3377.31 406.72H3449.13L3465.66 466H3484.19L3424.05 259.375H3402.68L3343.11 466ZM3413.22 277.33L3445.14 392.185H3381.3L3413.22 277.33ZM3523.53 466H3541.77V274.765H3595.92V259.375H3469.38V274.765H3523.53V466ZM3617.08 466H3635.32V259.375H3617.08V466ZM3734.72 455.17C3698.24 455.17 3687.69 423.82 3687.69 367.39V357.7C3687.69 301.555 3698.24 269.92 3734.72 269.92C3771.2 269.92 3782.03 301.555 3782.03 357.7V367.39C3782.03 423.82 3771.2 455.17 3734.72 455.17ZM3734.72 469.705C3779.18 469.705 3800.84 440.35 3800.84 374.515V350.86C3800.84 285.025 3779.18 255.67 3734.72 255.67C3690.54 255.67 3668.88 285.025 3668.88 350.86V374.515C3668.88 440.35 3690.54 469.705 3734.72 469.705ZM3834.38 466H3851.76V283.885L3930.14 466H3953.22V259.375H3935.84V441.49L3857.46 259.375H3834.38V466ZM3996.05 433.51V463.435C3996.05 484.24 3996.05 489.655 3985.79 491.935V509.605C4012.01 506.185 4013.72 487.945 4013.72 463.15V433.51H3996.05ZM4090.73 466H4108.4L4124.93 406.72H4196.75L4213.28 466H4231.8L4171.67 259.375H4150.29L4090.73 466ZM4160.84 277.33L4192.76 392.185H4128.92L4160.84 277.33ZM4255.34 466H4272.73V283.885L4351.1 466H4374.19V259.375H4356.8V441.49L4278.43 259.375H4255.34V466ZM4434.98 452.035V273.055H4462.05C4500.24 273.055 4518.2 296.425 4518.2 357.7V367.39C4518.2 428.95 4500.24 452.035 4462.05 452.035H4434.98ZM4416.74 466H4461.77C4506.8 466 4537.01 442.345 4537.01 373.945V351.715C4537.01 283.03 4506.8 259.375 4461.77 259.375H4416.74V466ZM4623.74 466H4724.34V450.61H4641.98V366.535H4717.5V351.145H4641.98V274.765H4724.34V259.375H4623.74V466ZM4750.62 466H4768.86V366.535H4838.68V351.145H4768.86V274.765H4845.52V259.375H4750.62V466ZM4870.26 466H4888.5V366.535H4958.33V351.145H4888.5V274.765H4965.17V259.375H4870.26V466ZM4989.91 466H5008.15V259.375H4989.91V466ZM5106.69 469.705C5145.74 469.705 5167.11 444.34 5167.11 402.445V401.59H5149.16V402.445C5149.16 437.5 5134.62 455.17 5106.41 455.17C5070.21 455.17 5060.52 423.82 5060.52 367.39V357.7C5060.52 301.555 5070.21 269.92 5106.41 269.92C5134.62 269.92 5149.16 287.875 5149.16 322.645V323.5H5167.11V322.645C5167.11 280.75 5145.74 255.67 5106.69 255.67C5062.23 255.67 5041.71 285.025 5041.71 350.86V374.515C5041.71 440.35 5062.23 469.705 5106.69 469.705ZM5197.75 466H5215.99V259.375H5197.75V466ZM5258.39 466H5358.99V450.61H5276.63V366.535H5352.15V351.145H5276.63V274.765H5358.99V259.375H5258.39V466ZM5385.27 466H5402.65V283.885L5481.03 466H5504.11V259.375H5486.73V441.49L5408.35 259.375H5385.27V466ZM5602.8 469.705C5641.85 469.705 5663.22 444.34 5663.22 402.445V401.59H5645.27V402.445C5645.27 437.5 5630.73 455.17 5602.52 455.17C5566.32 455.17 5556.63 423.82 5556.63 367.39V357.7C5556.63 301.555 5566.32 269.92 5602.52 269.92C5630.73 269.92 5645.27 287.875 5645.27 322.645V323.5H5663.22V322.645C5663.22 280.75 5641.85 255.67 5602.8 255.67C5558.34 255.67 5537.82 285.025 5537.82 350.86V374.515C5537.82 440.35 5558.34 469.705 5602.8 469.705ZM5728.41 466H5746.65V386.2L5803.36 259.375H5785.12L5737.81 368.53L5690.22 259.375H5671.98L5728.41 385.915V466ZM5786.51 466H5804.18V433.51H5786.51V466ZM785.249 721H807.764L843.674 538.03L879.299 721H901.814L942.284 514.375H924.899L889.559 699.34L853.079 514.375H834.269L797.789 699.34L762.164 514.375H745.064L785.249 721ZM966.988 721H1067.59V705.61H985.228V621.535H1060.75V606.145H985.228V529.765H1067.59V514.375H966.988V721ZM1198.58 724.705C1236.77 724.705 1257.29 704.47 1257.29 670.27C1257.29 634.645 1235.91 622.96 1211.12 611.845L1181.76 598.165C1166.37 591.04 1156.68 583.63 1156.68 560.83C1156.68 540.025 1170.65 525.49 1194.59 525.49C1218.81 525.49 1233.63 542.02 1233.63 567.385V569.095H1251.3V567.385C1251.3 530.335 1227.65 510.67 1194.59 510.67C1162.1 510.67 1139.01 530.335 1139.01 561.97C1139.01 595.03 1157.54 606.715 1177.2 615.55L1205.7 628.945C1227.65 639.205 1239.05 648.61 1239.05 672.835C1239.05 695.92 1225.65 710.455 1198.29 710.455C1170.93 710.455 1153.55 693.07 1153.55 658.585V656.875H1135.31V658.585C1135.31 703.045 1160.1 724.705 1198.58 724.705ZM1288.07 721H1305.45V534.325H1306.02L1307.73 543.73L1359.03 721H1376.42L1427.43 543.73L1429.43 534.325H1430V721H1447.38V514.375H1420.02L1367.87 699.91L1315.71 514.375H1288.07V721ZM1546.82 710.17C1510.34 710.17 1499.79 678.82 1499.79 622.39V612.7C1499.79 556.555 1510.34 524.92 1546.82 524.92C1583.3 524.92 1594.13 556.555 1594.13 612.7V622.39C1594.13 678.82 1583.3 710.17 1546.82 710.17ZM1546.82 724.705C1591.28 724.705 1612.94 695.35 1612.94 629.515V605.86C1612.94 540.025 1591.28 510.67 1546.82 510.67C1502.64 510.67 1480.98 540.025 1480.98 605.86V629.515C1480.98 695.35 1502.64 724.705 1546.82 724.705ZM1704.87 710.17C1668.39 710.17 1657.85 678.82 1657.85 622.39V612.7C1657.85 556.555 1668.39 524.92 1704.87 524.92C1741.35 524.92 1752.18 556.555 1752.18 612.7V622.39C1752.18 678.82 1741.35 710.17 1704.87 710.17ZM1704.87 724.705C1749.33 724.705 1770.99 695.35 1770.99 629.515V605.86C1770.99 540.025 1749.33 510.67 1704.87 510.67C1660.7 510.67 1639.04 540.025 1639.04 605.86V629.515C1639.04 695.35 1660.7 724.705 1704.87 724.705ZM1830.07 721H1848.31V529.765H1902.46V514.375H1775.92V529.765H1830.07V721ZM1923.62 721H1941.86V621.535H2023.65V721H2041.89V514.375H2023.65V606.145H1941.86V514.375H1923.62V721ZM2194.58 710.17C2158.1 710.17 2147.56 678.82 2147.56 622.39V612.7C2147.56 556.555 2158.1 524.92 2194.58 524.92C2231.06 524.92 2241.89 556.555 2241.89 612.7V622.39C2241.89 678.82 2231.06 710.17 2194.58 710.17ZM2194.58 724.705C2239.04 724.705 2260.7 695.35 2260.7 629.515V605.86C2260.7 540.025 2239.04 510.67 2194.58 510.67C2150.41 510.67 2128.75 540.025 2128.75 605.86V629.515C2128.75 695.35 2150.41 724.705 2194.58 724.705ZM2350.67 724.705C2396.84 724.705 2409.67 704.47 2409.67 648.895V514.375H2391.43V653.17C2391.43 693.64 2382.02 710.17 2350.67 710.17C2319.61 710.17 2310.49 693.64 2310.49 653.17V514.375H2292.25V648.895C2292.25 704.47 2304.79 724.705 2350.67 724.705ZM2482.84 721H2501.08V529.765H2555.23V514.375H2428.69V529.765H2482.84V721ZM2662.29 721H2680.53V529.765H2734.68V514.375H2608.14V529.765H2662.29V721ZM2755.84 721H2774.08V621.535H2855.88V721H2874.12V514.375H2855.88V606.145H2774.08V514.375H2755.84V721ZM2916.68 721H3017.28V705.61H2934.92V621.535H3010.44V606.145H2934.92V529.765H3017.28V514.375H2916.68V721ZM3197 721H3216.1L3176.48 621.82C3199.57 615.55 3211.25 600.73 3211.25 570.235C3211.25 525.775 3187.6 514.375 3137.72 514.375H3096.68V721H3114.92V626.38H3137.15C3145.42 626.38 3152.54 625.81 3159.38 624.955L3197 721ZM3114.92 612.985V528.055H3138.58C3174.49 528.055 3192.16 535.465 3192.16 570.805C3192.16 606.145 3174.49 612.985 3138.58 612.985H3114.92ZM3298.66 710.17C3262.18 710.17 3251.63 678.82 3251.63 622.39V612.7C3251.63 556.555 3262.18 524.92 3298.66 524.92C3335.14 524.92 3345.97 556.555 3345.97 612.7V622.39C3345.97 678.82 3335.14 710.17 3298.66 710.17ZM3298.66 724.705C3343.12 724.705 3364.78 695.35 3364.78 629.515V605.86C3364.78 540.025 3343.12 510.67 3298.66 510.67C3254.48 510.67 3232.82 540.025 3232.82 605.86V629.515C3232.82 695.35 3254.48 724.705 3298.66 724.705ZM3454.75 724.705C3500.92 724.705 3513.74 704.47 3513.74 648.895V514.375H3495.5V653.17C3495.5 693.64 3486.1 710.17 3454.75 710.17C3423.68 710.17 3414.56 693.64 3414.56 653.17V514.375H3396.32V648.895C3396.32 704.47 3408.86 724.705 3454.75 724.705ZM3608.58 724.705C3633.09 724.705 3647.62 712.165 3656.46 691.93L3656.74 721H3671.28V619.255H3600.6V634.075H3654.75V643.765C3654.75 685.66 3642.78 710.17 3610.29 710.17C3573.81 710.17 3564.12 678.82 3564.12 622.39V612.7C3564.12 556.555 3573.81 524.92 3610.29 524.92C3638.5 524.92 3653.04 543.16 3653.04 576.79V577.36H3670.99V576.79C3670.99 536.035 3649.62 510.67 3610.29 510.67C3565.83 510.67 3545.31 540.025 3545.31 605.86V629.515C3545.31 695.065 3565.83 724.705 3608.58 724.705ZM3708.3 721H3726.54V621.535H3808.33V721H3826.57V514.375H3808.33V606.145H3726.54V514.375H3708.3V721ZM3903.45 721H3921.12L3937.65 661.72H4009.47L4026 721H4044.52L3984.39 514.375H3963.01L3903.45 721ZM3973.56 532.33L4005.48 647.185H3941.64L3973.56 532.33ZM4068.07 721H4085.45V538.885L4163.83 721H4186.91V514.375H4169.53V696.49L4091.15 514.375H4068.07V721ZM4247.7 707.035V528.055H4274.77C4312.96 528.055 4330.92 551.425 4330.92 612.7V622.39C4330.92 683.95 4312.96 707.035 4274.77 707.035H4247.7ZM4229.46 721H4274.49C4319.52 721 4349.73 697.345 4349.73 628.945V606.715C4349.73 538.03 4319.52 514.375 4274.49 514.375H4229.46V721ZM4469.24 721H4487.48V529.765H4541.63V514.375H4415.09V529.765H4469.24V721ZM4615.61 710.17C4579.13 710.17 4568.59 678.82 4568.59 622.39V612.7C4568.59 556.555 4579.13 524.92 4615.61 524.92C4652.09 524.92 4662.92 556.555 4662.92 612.7V622.39C4662.92 678.82 4652.09 710.17 4615.61 710.17ZM4615.61 724.705C4660.07 724.705 4681.73 695.35 4681.73 629.515V605.86C4681.73 540.025 4660.07 510.67 4615.61 510.67C4571.44 510.67 4549.78 540.025 4549.78 605.86V629.515C4549.78 695.35 4571.44 724.705 4615.61 724.705ZM4771.7 724.705C4817.87 724.705 4830.7 704.47 4830.7 648.895V514.375H4812.46V653.17C4812.46 693.64 4803.05 710.17 4771.7 710.17C4740.64 710.17 4731.52 693.64 4731.52 653.17V514.375H4713.28V648.895C4713.28 704.47 4725.82 724.705 4771.7 724.705ZM4925.53 724.705C4950.04 724.705 4964.58 712.165 4973.41 691.93L4973.7 721H4988.23V619.255H4917.55V634.075H4971.7V643.765C4971.7 685.66 4959.73 710.17 4927.24 710.17C4890.76 710.17 4881.07 678.82 4881.07 622.39V612.7C4881.07 556.555 4890.76 524.92 4927.24 524.92C4955.46 524.92 4969.99 543.16 4969.99 576.79V577.36H4987.95V576.79C4987.95 536.035 4966.57 510.67 4927.24 510.67C4882.78 510.67 4862.26 540.025 4862.26 605.86V629.515C4862.26 695.065 4882.78 724.705 4925.53 724.705ZM5025.25 721H5043.49V621.535H5125.29V721H5143.53V514.375H5125.29V606.145H5043.49V514.375H5025.25V721ZM5186.38 721H5204.05V688.51H5186.38V721Z" fill="#202B54"/>
</svg>
