<svg width="140" height="59" fill="none" xmlns="http://www.w3.org/2000/svg"><path d="M33.829 0L20.233 31.59 6.595 0H0v.606l1.638 1.776v33.03L0 37.19v.605h4.46v-.605l-1.647-1.786V2.92l15.022 34.875h1.051L33.87 2.741v32.885l-1.442 1.564v.605h7.612v-.605l-1.494-1.621V2.226L40.04.606V0h-6.21zM140 0h-25.92v4.806h.647l2.715-3.899h17.251l-21.348 36.024v.864h26.602V32.76h-.647l-2.508 4.132h-18.196L140 .864V0zm-39.121 0v.606l1.6 1.804v21.292c0 7.831-3.683 12.905-10.903 12.905-7.22 0-11.335-5.074-11.335-12.905v-21.4L81.745.606V0h-7.318v.606l1.322 1.49v20.742c0 9.344 5.677 15.496 14.716 15.496 8.735 0 13.204-5.775 13.204-14.576V2.364l1.559-1.757V0h-4.349zM59.787 2.096L61.11.606V0h-7.465v.606l1.442 1.563v33.457l-1.442 1.564v.605h7.612v-.605l-1.495-1.621.026-33.473zM41.028 50.115v.125l.298.322v6.907l-.298.322v.125h1.571v-.124l-.308-.335v-6.883l.308-.334v-.125h-1.571zm21.938 0l-2.642 6.21-2.668-6.21h-1.609v.125l.306.331v6.888l-.306.332v.125h1.168v-.125l-.34-.369v-6.704l3.1 7.198h.217l3.093-7.235v6.787l-.298.323v.125h1.572v-.125l-.309-.335v-6.882l.309-.334v-.125h-1.593zm9.048 7.526c-1.76 0-2.925-1.436-2.925-3.62 0-2.183 1.165-3.62 2.925-3.62 1.76 0 2.926 1.437 2.926 3.62 0 2.184-1.166 3.62-2.926 3.62zm0-7.616c-2.284 0-3.993 1.72-3.993 3.995 0 2.278 1.71 3.998 3.993 3.998 2.273 0 3.994-1.72 3.994-3.998 0-2.275-1.72-3.995-3.994-3.995zm13.758.09v.125l.322.35v5.498l-4.981-5.973h-1.435v.125l.306.331v6.888l-.306.332v.125h1.169v-.125l-.34-.369v-6.435l5.587 6.929h.522V50.59l.324-.35v-.125h-1.168zm7.838 7.416h-1.474v-7.03h1.474c1.825 0 3.038 1.394 3.038 3.513 0 2.122-1.213 3.517-3.038 3.517zm.113-7.416h-2.85v.125l.298.323v6.905l-.298.323v.125h2.85c2.286 0 4.02-1.682 4.02-3.902 0-2.217-1.734-3.899-4.02-3.899zm-60.429 7.416H31.82v-7.03h1.474c1.825 0 3.038 1.394 3.038 3.513 0 2.122-1.213 3.517-3.038 3.517zm.113-7.416h-2.85v.125l.298.323v6.905l-.298.323v.125h2.85c2.287 0 4.02-1.682 4.02-3.902 0-2.217-1.733-3.899-4.02-3.899zm14.213 4.873l1.413-3.681 1.544 3.68H47.62zm1.967-4.873h-.977l.004.192.168.4-2.607 6.71-.345.374v.125h1.087v-.125l-.245-.337.8-2.081h3.267l.875 2.085-.243.333v.125h1.575v-.125l-.348-.378-3.011-7.298zm54.001 3.453c-1.037-.41-2.063-.934-2.063-1.855 0-.812.724-1.322 1.858-1.322 1.16 0 1.665.836 1.882 1.348h.109v-1.054c-.454-.398-1.295-.66-2.055-.66-1.555 0-2.536.889-2.536 2.189 0 1.398 1.23 1.94 2.343 2.408 1.08.443 1.943.864 1.943 1.743 0 .8-.663 1.274-1.895 1.274-1.015 0-1.831-.82-2.081-1.513h-.168l.001 1.323c.48.244 1.324.57 2.35.57 1.575 0 2.666-.8 2.666-2.122 0-1.307-1.122-1.851-2.354-2.33z" fill="#B3C0D1"/></svg>