<svg width="92" height="102" fill="none" xmlns="http://www.w3.org/2000/svg"><path d="M.753 17.872h81.022v9.434H44.54v65.258h37.234v9.434H0v-9.434h37.234V27.306H0v-9.434h.753zm79.53 1.492H1.506V25.8H38.74v68.255H1.507v6.437h78.775v-6.437H43.048V25.8h37.234v-6.436z" fill="#000" fill-opacity=".5"/><path d="M38.314 76.026L1.081 93.987.427 92.65 37.66 74.69l.654 1.337zm80.268 0l-37.234 17.96-.654-1.336 37.234-17.96.654 1.337zm0 7.944l-37.234 17.945-.654-1.335 37.234-17.96.654 1.35zm-37.233-7.944l-37.234 17.96-.654-1.336 37.234-17.96.654 1.337zM118.582 1.35L81.348 19.309l-.654-1.35L117.928 0l.654 1.35zm-80.268 0L1.081 19.309l-.654-1.35L37.66 0l.654 1.35zm80.681 8L81.761 27.307l-.654-1.35L118.34 8l.654 1.35z" fill="#000" fill-opacity=".5"/></svg>