<?xml version="1.0" encoding="utf-8"?><svg xmlns="http://www.w3.org/2000/svg" xmlns:xlink="http://www.w3.org/1999/xlink"><symbol viewBox="0 0 46 46" id="arrow__rev" xmlns="http://www.w3.org/2000/svg"><circle cx="23" cy="23" r="23"/><path d="M27.172 22l-5.364-5.364 1.414-1.414L31 23l-7.778 7.778-1.414-1.414L27.172 24H15v-2h12.172z"/></symbol><symbol viewBox="0 0 15 18" id="avatar" xmlns="http://www.w3.org/2000/svg"><path d="M6 10.5V12a4.5 4.5 0 00-4.5 4.5H0a6 6 0 016-6zm0-.75a4.499 4.499 0 01-4.5-4.5C1.5 2.764 3.514.75 6 .75s4.5 2.014 4.5 4.5-2.014 4.5-4.5 4.5zm0-1.5a3 3 0 100-6 3 3 0 100 6zm4.5 7.875l-2.204 1.159.42-2.454-1.782-1.739 2.464-.358L10.5 10.5l1.102 2.233 2.464.358-1.783 1.739.42 2.454-2.203-1.159z"/></symbol><symbol viewBox="0 0 64 80" id="calc__img1" xmlns="http://www.w3.org/2000/svg"><path d="M12 10h52v70H12z"/><path d="M1 1h54v72H1zM9.5 22.5l7.5-5M38 56l7.5-5M19 17l11.5-7.5m-6.5 56L35.5 58M9 15.5L22 7m11 59.5L46 58"/></symbol><symbol viewBox="0 0 14 14" id="calendar" xmlns="http://www.w3.org/2000/svg"><path d="M12.36 1.094h-.657V0H10.61v1.094H3.391V0H2.297v1.094H1.64C.736 1.094 0 1.83 0 2.734v9.625C0 13.264.736 14 1.64 14h10.72c.904 0 1.64-.736 1.64-1.64V2.733c0-.904-.736-1.64-1.64-1.64zm.546 11.265a.547.547 0 01-.547.547H1.641a.547.547 0 01-.547-.547V5.141h11.812v7.218zm0-8.312H1.094V2.734c0-.301.245-.546.547-.546h.656V3.28H3.39V2.187h7.218v1.094h1.094V2.187h.656c.302 0 .547.246.547.547v1.313z"/><path d="M3.172 6.29H2.078v1.093h1.094V6.289zm2.188 0H4.265v1.093h1.093V6.289zm2.187 0H6.453v1.093h1.094V6.289zm2.187 0H8.641v1.093h1.093V6.289zm2.188 0h-1.094v1.093h1.094V6.289zm-8.75 2.187H2.078V9.57h1.094V8.477zm2.188 0H4.265V9.57h1.093V8.477zm2.187 0H6.453V9.57h1.094V8.477zm2.187 0H8.641V9.57h1.093V8.477zm-6.562 2.187H2.078v1.094h1.094v-1.094zm2.188 0H4.265v1.094h1.093v-1.094zm2.187 0H6.453v1.094h1.094v-1.094zm2.187 0H8.641v1.094h1.093v-1.094zm2.188-2.187h-1.094V9.57h1.094V8.477z"/></symbol><symbol viewBox="0 0 18 18" id="circle" xmlns="http://www.w3.org/2000/svg"><path d="M9 15.666A6.667 6.667 0 109 2.333a6.667 6.667 0 000 13.333zm0 1.667A8.333 8.333 0 119 .667a8.333 8.333 0 010 16.666zm0-6.666a1.667 1.667 0 100-3.334 1.667 1.667 0 000 3.333zm0 1.666a3.333 3.333 0 110-6.667 3.333 3.333 0 010 6.667z"/></symbol><symbol viewBox="0 0 18 17" id="door" xmlns="http://www.w3.org/2000/svg"><path d="M.667 16.5v-1.667h1.666V3.03c0-.403.289-.748.684-.82L10.911.774a.499.499 0 01.589.492v1.066l3.333.001c.46 0 .834.373.834.833v11.667h1.666V16.5H14V4h-2.5v12.5H.667zM9.833 2.663L4 3.725v11.108h5.833V2.663zM9 8.166v1.667H7.333V8.166H9z"/></symbol><symbol viewBox="0 0 17 17" id="inst" xmlns="http://www.w3.org/2000/svg"><path d="M14.827 11.74a3.114 3.114 0 01-.913 2.21 3.133 3.133 0 01-2.214.92H4.633a3.14 3.14 0 01-2.89-1.934 3.122 3.122 0 01-.237-1.196V4.675a3.124 3.124 0 01.913-2.213 3.144 3.144 0 012.214-.923H11.7a3.144 3.144 0 012.89 1.939c.158.38.238.787.237 1.197v7.065zM11.65 0H4.716A4.735 4.735 0 001.38 1.383 4.706 4.706 0 000 4.713v6.907a4.694 4.694 0 001.379 3.33 4.724 4.724 0 003.336 1.383h6.903a4.734 4.734 0 003.337-1.383 4.703 4.703 0 001.378-3.33V4.714a4.693 4.693 0 00-1.378-3.33A4.724 4.724 0 0011.618 0h.032zM8.167 10.955a2.765 2.765 0 01-2.557-1.69 2.742 2.742 0 01.59-3 2.76 2.76 0 014.7 1.668 2.744 2.744 0 01-1.681 2.81c-.333.14-.69.21-1.052.212zm0-6.97a4.268 4.268 0 00-2.372.707A4.248 4.248 0 003.97 9.05a4.262 4.262 0 007.72 1.536c.469-.7.718-1.521.717-2.362a4.232 4.232 0 00-2.612-3.93 4.253 4.253 0 00-1.627-.328v.02zm4.379-1.166a.994.994 0 00-.998 1.034.984.984 0 00.796.924.994.994 0 001.183-.871.985.985 0 00-.432-.92.98.98 0 00-.55-.167z"/></symbol><symbol viewBox="0 0 18 18" id="key" xmlns="http://www.w3.org/2000/svg"><path d="M9 17.333A8.333 8.333 0 119 .667a8.333 8.333 0 010 16.666zm0-1.666A6.667 6.667 0 109 2.332a6.667 6.667 0 000 13.333zM8.167 9.66a2.083 2.083 0 111.666 0v2.673H8.167V9.66z"/></symbol><symbol viewBox="0 0 19 18" id="mail" xmlns="http://www.w3.org/2000/svg"><path d="M12.417 2.5a4.183 4.183 0 000 1.667H2.759l6.292 5.552 4.207-3.767a4.18 4.18 0 001.303 1.07L9.06 11.949 2.333 6.013v9.82h13.334V7.418c.55.112 1.116.112 1.666 0v9.25a.834.834 0 01-.833.833h-15a.833.833 0 01-.833-.833V3.333A.833.833 0 011.5 2.5h10.917zM16.5 5.833a2.5 2.5 0 110-5 2.5 2.5 0 010 5z"/></symbol><symbol viewBox="0 0 14 17" id="mark" xmlns="http://www.w3.org/2000/svg"><path d="M7 14.675l3.713-3.713a5.25 5.25 0 10-7.425 0L7 14.675zm0 2.12l-4.773-4.772a6.75 6.75 0 119.546 0L7 16.796zM7 8.75a1.5 1.5 0 100-3 1.5 1.5 0 000 3zm0 1.5a3 3 0 110-6 3 3 0 010 6z"/></symbol><symbol viewBox="0 0 12 15" id="marker" xmlns="http://www.w3.org/2000/svg"><path d="M10.243 10.576L6 14.82l-4.243-4.243a6 6 0 118.486 0zM6 7.666A1.333 1.333 0 106 5a1.333 1.333 0 000 2.667z"/></symbol><symbol viewBox="0 0 44 28" id="mastercard" xmlns="http://www.w3.org/2000/svg"><g clip-path="url(#lclip0)"><path d="M27.948 2.86H16.05v21.03h11.898V2.86z"/><path d="M16.806 13.376a13.168 13.168 0 011.364-5.847c.9-1.822 2.21-3.419 3.83-4.67A13.724 13.724 0 0015.047.077a13.797 13.797 0 00-7.394 1.269A13.522 13.522 0 002.07 6.279 13.21 13.21 0 000 13.374c0 2.509.718 4.967 2.071 7.094a13.522 13.522 0 005.583 4.933 13.798 13.798 0 007.394 1.269 13.725 13.725 0 006.951-2.782 13.395 13.395 0 01-3.828-4.668 13.168 13.168 0 01-1.365-5.844z"/><path d="M44 13.376c0 2.51-.718 4.968-2.072 7.095a13.522 13.522 0 01-5.583 4.933 13.798 13.798 0 01-7.394 1.268 13.724 13.724 0 01-6.952-2.784 13.419 13.419 0 003.828-4.669 13.189 13.189 0 000-11.69 13.418 13.418 0 00-3.828-4.669A13.723 13.723 0 0128.95.076a13.804 13.804 0 017.394 1.268 13.522 13.522 0 015.583 4.933A13.21 13.21 0 0144 13.372v.004z"/></g><defs><clipPath id="lclip0"><path d="M0 0h44v28H0z"/></clipPath></defs></symbol><symbol viewBox="0 0 28 28" id="pdf" xmlns="http://www.w3.org/2000/svg"><path d="M7 0c-.963 0-1.75.787-1.75 1.75v24.5c0 .962.787 1.75 1.75 1.75h17.5c.962 0 1.75-.788 1.75-1.75V7l-7-7H7z"/><path d="M21 7h5.25l-7-7v5.25c0 .963.788 1.75 1.75 1.75zM26.25 12.25L21 7h5.25v5.25zM22.75 22.75a.878.878 0 01-.875.875H2.625a.878.878 0 01-.875-.875V14c0-.481.394-.875.875-.875h19.25c.481 0 .875.394.875.875v8.75z"/><path d="M5.564 16.579c0-.231.182-.483.475-.483h1.616c.91 0 1.73.609 1.73 1.776 0 1.106-.82 1.722-1.73 1.722H6.487v.924c0 .308-.196.482-.448.482a.471.471 0 01-.475-.482v-3.94zm.923.398v1.743h1.168c.47 0 .84-.414.84-.848 0-.49-.37-.895-.84-.895H6.487zM10.755 21c-.231 0-.483-.126-.483-.433v-3.975c0-.25.252-.434.483-.434h1.602c3.197 0 3.127 4.842.063 4.842h-1.665zm.44-3.988v3.135h1.162c1.889 0 1.973-3.135 0-3.135h-1.161zm5.423.057v1.112h1.784c.252 0 .504.252.504.496 0 .23-.252.42-.504.42h-1.784v1.469c0 .245-.174.433-.42.433-.307 0-.495-.188-.495-.433v-3.974c0-.251.189-.434.496-.434h2.456c.308 0 .49.183.49.434a.483.483 0 01-.49.476h-2.037zM21.875 23.625H5.25v.875h16.625a.878.878 0 00.875-.875v-.875a.878.878 0 01-.875.875z"/></symbol><symbol viewBox="0 0 12 18" id="phone" xmlns="http://www.w3.org/2000/svg"><path d="M4.348 7.534a7.917 7.917 0 002.095 3.63l.881-.725a.75.75 0 01.995.037 8.566 8.566 0 003.055 1.877.75.75 0 01.474.901l-.866 3.233a.75.75 0 01-.844.546 11.632 11.632 0 01-1.176-.251C2.76 15.12-.92 8.745.742 2.544c.104-.39.227-.771.37-1.145a.75.75 0 01.895-.457l3.233.866a.75.75 0 01.543.86 8.566 8.566 0 00.099 3.586.75.75 0 01-.466.88l-1.068.4zm-1.7-.966l1.64-.614a10.058 10.058 0 01-.083-2.87l-1.91-.512c-.037.12-.071.24-.104.36C.743 8.334 3.95 13.886 9.35 15.332c.121.033.243.063.364.09l.512-1.91a10.055 10.055 0 01-2.444-1.507L6.43 13.118a9.335 9.335 0 01-1.005-.851l-.036-.035a9.417 9.417 0 01-2.493-4.32l-.013-.048a9.332 9.332 0 01-.235-1.296z"/></symbol><symbol viewBox="0 0 14 14" id="plus" xmlns="http://www.w3.org/2000/svg"><path d="M6 6V0h2v6h6v2H8v6H6V8H0V6h6z"/></symbol><symbol viewBox="0 0 22 20" id="star" xmlns="http://www.w3.org/2000/svg"><path d="M11 0l2.47 7.6h7.992l-6.466 4.698 2.47 7.601L11 15.202l-6.466 4.697 2.47-7.6L.538 7.6H8.53L11 0z"/></symbol><symbol viewBox="0 0 17 17" id="tg" xmlns="http://www.w3.org/2000/svg"><path d="M15.458.002c-.211.01-.41.079-.587.155h-.002c-.18.08-1.031.478-2.325 1.082L7.905 3.415c-3.328 1.56-6.6 3.096-6.6 3.096l.04-.017s-.226.082-.462.263c-.12.087-.253.207-.368.396a1.266 1.266 0 00-.174.776c.056.505.35.809.562.975.213.17.417.249.417.249h.005l3.068 1.15c.137.492.935 3.41 1.126 4.083.113.402.224.653.361.844.067.099.145.18.238.246a.672.672 0 00.155.074l-.032-.008c.01.003.017.01.025.014.024.008.041.01.073.016.486.164.877-.172.877-.172l.022-.02 1.811-1.836 3.036 2.594.069.032c.633.31 1.274.137 1.613-.166.34-.306.473-.697.473-.697l.022-.063L16.61 1.862c.066-.33.083-.639.01-.94-.074-.3-.263-.582-.491-.732-.231-.153-.46-.2-.67-.188zm-.064 1.434c-.003.044.005.038-.012.123v.008L13.057 14.81c-.01.019-.027.06-.074.1-.049.044-.088.072-.292-.018l-3.713-3.17-2.244 2.276.472-3.35 6.067-6.296c.25-.26.167-.314.167-.314.017-.317-.378-.093-.378-.093L5.412 9.22l-.003-.013-3.667-1.375V7.83l-.01-.002c.003 0 .02-.008.02-.008l.02-.011.02-.009 6.602-3.096c1.666-.781 3.345-1.568 4.636-2.175a629.666 629.666 0 012.3-1.071c.052-.022.027-.022.064-.022z"/></symbol><symbol viewBox="0 0 16 16" id="time" xmlns="http://www.w3.org/2000/svg"><path d="M8 15.32c-4.142 0-7.5-3.402-7.5-7.598C.5 3.527 3.858.125 8 .125c4.142 0 7.5 3.402 7.5 7.597 0 4.196-3.358 7.597-7.5 7.597zm0-1.52c1.591 0 3.117-.64 4.243-1.78A6.117 6.117 0 0014 7.722a6.117 6.117 0 00-1.757-4.297A5.961 5.961 0 008 1.645c-1.591 0-3.117.64-4.243 1.78A6.117 6.117 0 002 7.722a6.12 6.12 0 001.757 4.298A5.962 5.962 0 008 13.8zm.75-6.078h3v1.52h-4.5V3.924h1.5v3.798z"/></symbol><symbol viewBox="0 0 17 17" id="viber" xmlns="http://www.w3.org/2000/svg"><g clip-path="url(#sclip0)"><path d="M4.64 14.535c-.02.997-.138 2.137.73 2.412.85.277 1.344-.407 2.453-1.796 4.136.283 7.788-.88 8.276-5.05.438-3.707-.128-6.48-1.583-7.8-2.135-2.046-9.084-2.332-11.628.1C1.84 3.49 1.33 5.088 1.282 7.43c-.039 1.914-.117 5.828 3.359 7.104zM2.304 7.453c.042-2.071.462-3.452 1.305-4.33 2.124-2.03 8.418-1.795 10.211-.074 1.198 1.084 1.66 3.61 1.267 6.933-.357 3.046-2.318 3.566-3.056 3.761a12.7 12.7 0 01-4.386.37c-.368-.04-.513.31-.647.436-.666.8-1.147 1.38-1.271 1.457-.092-.137-.078-.784-.067-1.304-.033-.234.176-.881-.37-1.028-3.093-.913-3.023-4.365-2.986-6.221z"/><path d="M4.255 6.098c.545 1.086 1.077 3.007 3.118 4.678.708.584 2.829 1.932 3.66 1.932 1.186 0 2.54-1.866 1.548-2.699-.446-.436-1.074-.865-1.477-1.101l-.002-.001c-1.046-.605-1.619.508-1.687.552-1.532 1.372-3.42-1.011-2.097-2.164.163-.202 1.133-.67.557-1.735-.51-.924-.847-1.241-1.038-1.505-1.005-1.255-3.18.83-2.582 2.043zM10.5 9.754c.07.044.674.309 1.396 1.011.092.077-.52.968-.91.916-.077-.034-.633-.167-1.828-.897 1.134-.385 1.125-.989 1.342-1.03zM5.962 4.701c.042-.022.064-.024.062-.03.196.274.489.534.956 1.378.123.23-.182.319-.38.52-.28.25-.487.546-.613.873-.418-.788-.605-1.357-.796-1.754-.076-.362.447-.802.771-.987z"/><path d="M9.054 6.485c.007.001.748.096.88.893.113.676 1.117.494 1.007-.168-.206-1.238-1.248-1.679-1.772-1.739-.67-.075-.785.937-.115 1.014z"/><path d="M8.521 4.285c.012 0 1.619-.029 2.665 1.09 1.033 1.105.805 2.712.803 2.726-.104.663.902.838 1.008.159.013-.085.313-2.107-1.065-3.582-1.369-1.465-3.36-1.42-3.442-1.414-.697.023-.613 1.074.031 1.02z"/></g><defs><clipPath id="sclip0"><path transform="translate(.334 .667)" d="M0 0h16.333v16.333H0z"/></clipPath></defs></symbol><symbol viewBox="0 0 16 16" id="whatsapp" xmlns="http://www.w3.org/2000/svg"><path fill-rule="evenodd" clip-rule="evenodd" d="M13.589 2.394A7.55 7.55 0 008.216.17C4.03.169.623 3.573.621 7.756c0 1.337.349 2.643 1.014 3.794L.557 15.48l4.026-1.055a7.593 7.593 0 003.63.924h.003c4.186 0 7.594-3.404 7.595-7.588a7.538 7.538 0 00-2.222-5.368zM8.216 14.068h-.003A6.309 6.309 0 015 13.19l-.23-.136-2.39.626.638-2.328-.15-.238a6.286 6.286 0 01-.965-3.356C1.905 4.279 4.737 1.45 8.22 1.45a6.278 6.278 0 014.463 1.85 6.266 6.266 0 011.847 4.462 6.319 6.319 0 01-6.313 6.306zm3.463-4.723c-.19-.095-1.123-.553-1.297-.617-.174-.063-.3-.095-.427.095-.126.19-.49.617-.6.743-.112.127-.222.143-.412.048-.19-.095-.801-.295-1.526-.941A5.72 5.72 0 016.36 7.36c-.11-.19 0-.283.083-.387.206-.255.411-.522.475-.649.063-.126.031-.237-.016-.332-.048-.095-.427-1.028-.585-1.408-.154-.37-.31-.32-.427-.325a7.584 7.584 0 00-.364-.007.697.697 0 00-.506.237c-.174.19-.664.649-.664 1.582s.68 1.835.775 1.961c.095.127 1.338 2.042 3.242 2.863.452.196.806.312 1.082.4.454.144.868.123 1.195.075.364-.055 1.123-.46 1.28-.902.159-.443.159-.822.111-.902-.047-.079-.174-.126-.363-.221z"/></symbol><symbol viewBox="0 0 16 16" id="window" xmlns="http://www.w3.org/2000/svg"><path d="M7.167 2.167h-5v5h5v-5zm1.666 0v5h5v-5h-5zm5 6.666h-5v5h5v-5zm-6.666 5v-5h-5v5h5zM.5.5h15v15H.5V.5z"/></symbol><symbol viewBox="0 0 56 74" id="window-calc" xmlns="http://www.w3.org/2000/svg"><path d="M1 1h54v72H1z"/></symbol></svg>