<svg version="1.0" xmlns="http://www.w3.org/2000/svg" width="1350.667" height="1706.667" viewBox="0 0 1013 1280"><path d="M913.7 13.4c-52.6 7.3-96.1 13.6-96.6 14.2-.4.5-100.8 173.7-223.1 384.9S353.2 828.4 330.7 867.3c-22.6 38.9-41.4 70.4-41.8 70-.4-.4-18.1-56.6-39.4-124.8-21.3-68.2-38.9-124.2-39.1-124.4-.2-.2-.9.1-1.6.6-.7.6-47.9 26.8-104.8 58.3C47.1 778.5.4 804.4.3 804.4c-.1.1 8.2 16.8 18.4 37.1 36.9 73.4 58.3 120.5 100 221 43.6 105 49.7 119.2 61.8 143.9 14.9 30.5 26.8 48.8 39.1 60.5 9.9 9.5 16.6 12.6 27 12.6 7.3 0 8.8-.4 15.5-3.7 17.3-8.6 35.9-29.7 58.7-66.8 15.7-25.5 22.7-38.7 70.5-133.5 75.1-149 118-231.6 178-343C718.6 455.1 870.6 204 1007.7 7.7c4.2-6 5-7.7 3.6-7.6-1 .1-44.9 6.1-97.6 13.3z" fill="orange"/></svg>