<svg xmlns="http://www.w3.org/2000/svg" xmlns:xlink="http://www.w3.org/1999/xlink"><symbol id="icon-bag" viewBox="0 0 32 25"><path d="M9 1.9C8.3 3.2 6.7 4 4.2 4.2l-3.7.3-.3 9.1C0 20.5.3 23 1.4 23.9c.9.8 5.8 1.1 15.7.9l14.4-.3v-20l-3.7-.3c-2.5-.2-4.1-1-4.8-2.3C22.1.4 20.8 0 16 0S9.9.4 9 1.9zM21 3c0 .5-2.2 1-5 1-2.7 0-5-.5-5-1 0-.6 2.3-1 5-1 2.8 0 5 .4 5 1zm8.8 4.2c-1.4 4.3-18.1 6-24.5 2.5C3.5 8.7 2 7.5 2 7c0-.6 5.6-1 14.1-1 10.8 0 14 .3 13.7 1.2zm-21 5.9c2.3.6 4.2 1.7 4.2 2.5 0 1.8 5.6 1.9 6.7.1.4-.8 2.2-1.9 3.8-2.4 1.7-.6 3.8-1.4 4.8-1.8 1.5-.6 1.7 0 1.7 5.4v6.2l-13.7-.3-13.8-.3-.3-5.9c-.2-4.5 0-5.7 1-5.3.7.3 3.2 1.1 5.6 1.8z"/></symbol><symbol id="icon-elem" viewBox="0 0 23 25"><path d="M0 7c0 5.7 2.3 9.6 7.1 12 3.8 2 4.5 4 1.3 4-.8 0-1.4.4-1.4 1 0 1.3 7.7 1.3 8.5 0 .3-.5-.3-1-1.4-1-3.5 0-2.3-2.4 1.9-4.2 2.9-1.2 4.5-2.7 5.5-5.2 1.7-4 2-10.6.5-10.6-.5 0-1 2.1-1 4.6 0 3.7-.5 5.1-2.9 7.5-2.7 2.7-7 4.2-5.6 1.9.3-.6 1.2-1 2-1 2.3 0 4.5-4.2 4.5-8.8 0-2.4-.4-4.1-.8-3.8-.5.3-.7 1.8-.4 3.4.3 2-.3 3.7-2.1 5.8-1.4 1.6-2.9 2.6-3.3 2.1-.4-.4.2-1.4 1.4-2.3 1.6-1.1 2.2-2.5 2.2-5.5 0-2.1-.4-3.9-1-3.9-.5 0-1 1.8-1 4s-.4 4-1 4c-.5 0-1-1.8-1-4.1 0-2.7-.4-3.8-1.1-3.3-.7.4-.9 2.1-.6 4 .3 1.9.2 3.4-.4 3.4-.5 0-.9-1.8-.9-4s-.4-4-1-4c-1.6 0-1.1 7.2.7 9.2 2.3 2.6.9 3.4-1.6.9C5.6 11.6 5 9.7 5 6.8c0-2.3-.3-3.8-.7-3.4-.4.4-.6 2.6-.4 4.9.3 4.3 2.4 7.7 4.7 7.7.7 0 1.6.5 1.9 1 1.4 2.3-2.9.8-5.6-1.9C2.5 12.7 2 11.3 2 7.6 2 5.1 1.6 3 1 3 .5 3 0 4.8 0 7z"/></symbol><symbol id="icon-facebook"><path d="M8.538 4.187H10.4V.943A24.401 24.401 0 007.687.8C5.002.8 3.163 2.489 3.163 5.593V8.45H.2v3.626h2.963V21.2h3.632v-9.123h2.843l.452-3.626H6.795V5.953c0-1.049.283-1.766 1.743-1.766z"/></symbol><symbol id="icon-heand" viewBox="0 0 32 29"><path d="M17.1 1.3c-1.8 1.8-1.3 3.9 1.6 6.9 3.4 3.6 5.5 3.5 8.7-.3 2.9-3.4 3-3.8 1.7-5.8-1.1-1.8-10.4-2.4-12-.8zm4.7 1.9c.8.8 1.5.8 2.7-.2 1.2-1 1.9-1 2.8-.1.9.9.5 1.8-1.6 3.8L23 9.5l-2.6-2.7c-1.5-1.4-2.3-3.1-2-3.7.9-1.4 1.9-1.4 3.4.1zM.4 15.4c-.3.7-.4 4-.2 7.2.3 5.4.5 5.9 2.7 6.2 1.5.2 3-.3 3.7-1.3 1-1.4 1.8-1.5 5.5-.5 6.3 1.7 16.7-.6 19.1-4.3 1.4-2.3-.4-3.9-4-3.3-2.6.4-3.8.1-5.1-1.4-1.1-1.3-4-2.1-10-2.9C1.4 13.7 1 13.7.4 15.4zM6 17.7C6 22.3 4.6 27 3.4 27c-1 0-1.4-1.5-1.4-5.5 0-4.8.2-5.5 2-5.5 1.2 0 2 .7 2 1.7zm10.4-.1c5.1.7 6.3 2.4 1.6 2.4-1.6 0-3 .5-3 1.1 0 .8 2.3 1 7.5.7 4.1-.3 7.2-.1 7 .3-1.2 1.8-10.8 4.1-14.7 3.5-6.3-1-7.5-2-7-5.5.5-3.4.9-3.5 8.6-2.5z"/></symbol><symbol id="icon-inst"><path d="M12 8.4A3.604 3.604 0 008.4 12c0 1.985 1.615 3.6 3.6 3.6s3.6-1.615 3.6-3.6-1.615-3.6-3.6-3.6z"/><path clip-rule="evenodd" d="M2.4 17.61V6.39A3.99 3.99 0 016.39 2.4h11.22a3.99 3.99 0 013.99 3.99v11.22a3.99 3.99 0 01-3.99 3.99H6.39a3.99 3.99 0 01-3.99-3.99zm4.16-7.644a5.823 5.823 0 007.474 7.474 5.508 5.508 0 003.406-3.406A5.823 5.823 0 009.966 6.56 5.508 5.508 0 006.56 9.966zM18 6.6a1.2 1.2 0 100-2.4 1.2 1.2 0 000 2.4z"/></symbol><symbol id="icon-since" viewBox="0 0 36 35"><path d="M8.7 5.5l-8.9 5.2 3.1 2.2c2.3 1.7 3.1 3 3.1 5.3 0 1.6.8 4.3 1.7 5.9 1.4 2.4 1.5 3.3.5 4.9-2.1 3.4-1.5 6 1.3 6s3.4-2.5 1.4-6.1c-1-1.9-.8-2 3.4-1.4 9 1.4 15.7-2.4 15.7-8.9 0-2.7.7-3.9 3.1-5.7l3.1-2.1L27 5.4c-5.1-3-9.3-5.4-9.4-5.3 0 0-4.1 2.5-8.9 5.4zm16.8 1.2c3.6 2.1 6.5 4 6.5 4.3 0 .7-13 8-14.4 8-.6 0-2.2-.9-3.6-1.9l-2.4-1.9 3.7-1.8c2-1 3.7-2.1 3.7-2.6 0-1.2-.6-1-5.1 1.3-3.5 1.7-4.5 1.9-7 .9-1.6-.7-2.9-1.5-2.9-1.9 0-.9 12.2-8 13.8-8.1.7 0 4.2 1.7 7.7 3.7zM9 19.2c0 2.5-.3 2.9-1 1.8-1.3-2-1.3-5 0-5 .6 0 1 1.5 1 3.2zm20-1.3c0 5.3-7.1 9.1-14.4 7.7-3-.6-3.4-1.1-3.8-4.1-.5-4-.1-4.2 4.1-1.8 3 1.8 3.2 1.8 7.8-.9 5.7-3.3 6.3-3.4 6.3-.9zM10.5 32c.3.5.1 1-.4 1-.6 0-1.1-.5-1.1-1 0-.6.2-1 .4-1 .3 0 .8.4 1.1 1z"/></symbol><symbol id="icon-star" viewBox="0 0 28 33"><path d="M11.5 3.8C9.8 6.9 8.9 7.5 6 7.7c-1.9.1-4.1.2-4.7.2-.9.1-.6 1.4.8 4.4l2.1 4.3-2.1 4.2L0 24.9l4.8.3c4.3.3 4.9.6 6.7 4 1.1 2.1 2.2 3.8 2.5 3.8.3 0 1.4-1.7 2.5-3.8 1.8-3.4 2.4-3.7 6.7-4l4.8-.3-2.1-4.1-2.1-4.2 2.1-4.3c1.4-3 1.7-4.3.8-4.4-.6 0-2.8-.1-4.7-.2-2.9-.2-3.8-.8-5.5-3.9C15.4 1.7 14.3 0 14 0c-.3 0-1.4 1.7-2.5 3.8zm3.9 1.8c.9 2.3.8 2.4-1.4 2.4-1.1 0-2-.2-2-.4C12 6.4 13.3 4 14 4c.4 0 1.1.7 1.4 1.6zm-8.5 6.5c-.9 1.7-1.3 1.9-2 .8C3.5 10.7 3.8 10 6 10c1.8 0 1.9.3.9 2.1zm12.4 1.1c1.7 3 1.7 3.3 0 6.5C17.8 22.5 17 23 14 23c-2.9 0-3.8-.6-5.3-3.2-1.7-3-1.7-3.3 0-6.5C10.2 10.5 11 10 14 10c2.9 0 3.8.6 5.3 3.2zm4.7-2.5c0 .5-.4 1.4-.9 2.2-.7 1.1-1.1.9-2-.8-1-1.8-.9-2.1.9-2.1 1.1 0 2 .3 2 .7zM7 21c.9 1.8.8 2-1.5 2s-2.4-.2-1.3-2c.7-1.1 1.4-2 1.5-2 .1 0 .7.9 1.3 2zm16.9.2c1.2 1.6 1.1 1.8-1.3 1.8-2.4 0-2.6-.2-1.6-2.1.7-1.1 1.3-1.9 1.4-1.7.1.1.8 1.1 1.5 2zM16 25.7c0 .5-.5 1.5-1 2.3-.9 1.3-1.1 1.3-2 0-1.5-2.2-1.2-3 1-3 1.1 0 2 .3 2 .7z"/></symbol><symbol id="icon-telegram"><path d="M8.633 11.863l-.364 5.026c.52 0 .746-.22 1.016-.483l2.441-2.291 5.059 3.637c.927.508 1.581.24 1.831-.838l3.32-15.275h.001c.295-1.347-.495-1.874-1.4-1.543L1.022 7.432C-.31 7.939-.29 8.668.795 8.999l4.99 1.523 11.59-7.12c.545-.354 1.04-.158.633.197l-9.375 8.264z"/></symbol><symbol id="icon-twitter"><path d="M23.077 2.13a9.47 9.47 0 01-2.617.718 4.516 4.516 0 001.998-2.51 9.076 9.076 0 01-2.88 1.1 4.54 4.54 0 00-7.856 3.106c0 .359.03.705.105 1.035C8.05 5.394 4.71 3.585 2.466.828a4.573 4.573 0 00-.622 2.296c0 1.573.81 2.967 2.017 3.774a4.485 4.485 0 01-2.052-.56v.05a4.563 4.563 0 003.639 4.463c-.37.101-.773.15-1.19.15-.291 0-.585-.017-.86-.078.588 1.799 2.258 3.121 4.243 3.164a9.125 9.125 0 01-5.63 1.937c-.373 0-.73-.017-1.088-.062A12.787 12.787 0 007.89 18c8.358 0 12.927-6.923 12.927-12.924 0-.2-.007-.395-.017-.587a9.061 9.061 0 002.277-2.358z"/></symbol><symbol id="icon-whatsapp"><path d="M10.002 0h-.005C4.485 0 0 4.485 0 10c0 2.188.705 4.215 1.904 5.861L.658 19.576 4.5 18.347A9.913 9.913 0 0010.002 20C15.517 20 20 15.514 20 10S15.516 0 10.002 0zm5.82 14.121c-.242.681-1.2 1.246-1.963 1.412-.523.11-1.205.2-3.503-.753-2.938-1.217-4.831-4.204-4.978-4.397C5.236 10.188 4.19 8.8 4.19 7.366c0-1.435.729-2.133 1.022-2.433.242-.247.64-.36 1.023-.36.124 0 .235.007.335.012.294.013.441.03.635.494.241.581.829 2.016.899 2.163.071.148.142.348.042.542-.094.2-.176.288-.324.458-.147.17-.287.3-.434.483-.135.159-.288.329-.118.623.17.287.758 1.246 1.623 2.016 1.116.993 2.02 1.311 2.345 1.446.24.1.528.076.705-.111.223-.242.5-.642.78-1.035.2-.283.453-.318.718-.218.27.094 1.699.8 1.993.947.293.147.487.217.559.34.07.124.07.706-.172 1.388z"/></symbol></svg>