<svg width="323" height="643" viewBox="0 0 323 643" fill="none" xmlns="http://www.w3.org/2000/svg">
<mask id="path-1-outside-1_187_60" maskUnits="userSpaceOnUse" x="-8.74228e-08" y="-2.79316e-05" width="323" height="643" fill="black">
<rect fill="white" x="-8.74228e-08" y="-2.79316e-05" width="323" height="643"/>
<path d="M2.50003 641C44.326 641 85.7425 632.736 124.385 616.679C163.027 600.623 198.138 577.089 227.714 547.421C257.289 517.752 280.75 482.531 296.756 443.767C312.762 405.004 321 363.457 321 321.5C321 279.543 312.762 237.996 296.756 199.233C280.75 160.469 257.289 125.248 227.714 95.5793C198.138 65.911 163.027 42.3768 124.385 26.3205C85.7425 10.2641 44.326 1.99998 2.49997 1.99999L2.50001 321.5L2.50003 641Z"/>
</mask>
<path d="M2.50003 641C44.326 641 85.7425 632.736 124.385 616.679C163.027 600.623 198.138 577.089 227.714 547.421C257.289 517.752 280.75 482.531 296.756 443.767C312.762 405.004 321 363.457 321 321.5C321 279.543 312.762 237.996 296.756 199.233C280.75 160.469 257.289 125.248 227.714 95.5793C198.138 65.911 163.027 42.3768 124.385 26.3205C85.7425 10.2641 44.326 1.99998 2.49997 1.99999L2.50001 321.5L2.50003 641Z" stroke="#202B54" stroke-width="4" mask="url(#path-1-outside-1_187_60)"/>
</svg>
