<svg version="1.1" id="Слой_1" xmlns="http://www.w3.org/2000/svg" x="0" y="0" viewBox="0 0 39 39" xml:space="preserve"><style>.st1{fill:#33c5f3}</style><path d="M19.7 11.5C22 9.9 25.1 9 28.5 9c3.4 0 6.5.9 8.8 2.5V37c-2.3-1.5-5.4-2.5-8.8-2.5-3.4 0-6.5.9-8.8 2.5m0-25.5V37 11.5zm0 0C17.4 9.9 14.3 9 10.8 9c-3.4 0-6.5.9-8.8 2.5V37c2.3-1.5 5.4-2.5 8.8-2.5 3.4 0 6.5.9 8.8 2.5V11.5z" fill="none" stroke="#33c5f3" stroke-width="3" stroke-linecap="round" stroke-linejoin="round"/><path class="st1" d="M24 16.8c0-.2.1-.4.3-.6.5-.4 2-1.3 4.2-1.3s3.7.9 4.2 1.3c.2.1.3.3.3.6 0 .7-.8 1.1-1.4.8-.8-.4-1.9-.7-3.1-.7s-2.3.3-3.1.7c-.6.4-1.4-.1-1.4-.8zm0 4c0-.2.1-.4.3-.6.5-.4 2-1.3 4.2-1.3s3.7.9 4.2 1.3c.2.1.3.3.3.6 0 .7-.8 1.1-1.4.8-.8-.4-1.9-.7-3.1-.7s-2.3.3-3.1.7c-.6.4-1.4-.1-1.4-.8z"/><circle class="st1" cx="29" cy="2" r="2"/></svg>