<svg width="658" height="413" fill="none" xmlns="http://www.w3.org/2000/svg"><path d="M150.364 249.857s32.166-65.633 66.914-77.223L244.95 61.293s-45.687 35.399-94.586 188.564zm233.08 150.907L303.356 25.263l-5.144-7.076 77.983 382.577h7.249z" fill="#33C5F3"/><path d="M120.847 400.763c17.45-33.207 42.974-68.78 78.829-90.419l20.597-120.348s-35.399-4.493-88.813 115.834c-16.842 37.96-27.282 69.518-33.685 94.912h23.072v.021zm470.543.001l2.735-.955L428.089 167.49s-69.496 10.939-88.813 26.392l43.018 206.904H591.39v-.022zm-240.458 0L291.463 18.187C277.312 21.4 250.92 49.724 250.92 49.724l-55.236 351.041h155.248zM658 402.002H0v10.288h658v-10.288z" fill="#33C5F3"/><path d="M299.32 9.658l78.112 132.416 6.837-2.43L301.881 0c-36.029 13.522-66.914 54.065-66.914 54.065l1.454 4.71c9.485-11.243 34.597-38.503 62.899-49.117z" fill="#33C5F3"/><path d="M380.536 173.176l-9.658-27.672-67.521-120.24 34.705 162.715 42.474-14.803zm-230.172 76.681s32.166-65.633 66.914-77.223L244.95 61.293s-45.687 35.399-94.586 188.564zm233.08 150.907L303.356 25.263l-5.144-7.076 77.983 382.577h7.249z" fill="#33C5F3"/><path d="M120.847 400.763c17.45-33.207 42.974-68.78 78.829-90.419l20.597-120.348s-35.399-4.493-88.813 115.834c-16.842 37.96-27.282 69.518-33.685 94.912h23.072v.021zm470.543.001l2.735-.955L428.089 167.49s-69.496 10.939-88.813 26.392l43.018 206.904H591.39v-.022zm-240.458 0L291.463 18.187C277.312 21.4 250.92 49.724 250.92 49.724l-55.236 351.041h155.248z" fill="#33C5F3"/><path d="M299.32 9.658l78.112 132.416 6.837-2.43L301.881 0c-36.029 13.522-66.914 54.065-66.914 54.065l1.454 4.71c9.485-11.243 34.597-38.503 62.899-49.117z" fill="#33C5F3"/><path d="M380.536 173.176l-9.658-27.672-67.521-120.24 34.705 162.715 42.474-14.803z" fill="#33C5F3"/></svg>