<svg version="1.1" id="Слой_1" xmlns="http://www.w3.org/2000/svg" x="0" y="0" viewBox="0 0 32 35" xml:space="preserve"><circle cx="8" cy="2" r="2" fill="#33c5f3"/><path d="M21.5 24.1c0-1.5-4.3-2.7-9.5-2.7m9.5 2.7c0 1.5-4.3 2.7-9.5 2.7-5.3 0-9.5-1.2-9.5-2.7m19 0v6.7c0 1.6-4.3 2.8-9.5 2.8-5.3 0-9.5-1.3-9.5-2.8v-6.7m19 0H2.4m19.1 0c5.2 0 9.5-1.3 9.5-2.7V7.7M11.9 21.4c-5.3 0-9.5 1.2-9.5 2.7m9.5-2.7C5.9 21.4 1 20 1 18.6v-6.8m0 0c0-1.5 4.9-2.7 10.9-2.7v5.5M1 11.8c0 1.5 4.9 2.7 10.9 2.7m0 0c0 1.4 4.4 2.7 9.7 2.7 5.2 0 9.4-1.3 9.4-2.7m0-6.8C31 6.2 26.8 5 21.6 5s-9.4 1.2-9.4 2.7m18.8 0c0 1.5-4.2 2.7-9.4 2.7s-9.4-1.2-9.4-2.7m-.1 0v13.9" fill="none" stroke="#33c5f3" stroke-width="2"/></svg>