<svg width="112" height="62" viewBox="0 0 112 62" fill="none" xmlns="http://www.w3.org/2000/svg">
<path d="M38.2 30.96C38.2 22.9067 36.8667 16.9067 34.2 12.96C31.5333 9.01333 27.9333 7.04 23.4 7.04C18.8133 7.04 15.1867 9.01333 12.52 12.96C9.90667 16.9067 8.6 22.9067 8.6 30.96C8.6 39.0667 9.90667 45.0933 12.52 49.04C15.1867 52.9867 18.8133 54.96 23.4 54.96C27.9867 54.96 31.5867 52.9867 34.2 49.04C36.8667 45.0933 38.2 39.0667 38.2 30.96ZM45.96 30.96C45.96 35.5467 45.5067 39.7067 44.6 43.44C43.6933 47.12 42.3067 50.2667 40.44 52.88C38.6267 55.4933 36.28 57.52 33.4 58.96C30.5733 60.3467 27.24 61.04 23.4 61.04C19.56 61.04 16.2 60.3467 13.32 58.96C10.4933 57.52 8.14667 55.4933 6.28 52.88C4.46667 50.2667 3.10667 47.12 2.2 43.44C1.29333 39.7067 0.84 35.5467 0.84 30.96C0.84 26.3733 1.29333 22.24 2.2 18.56C3.10667 14.8267 4.46667 11.68 6.28 9.12C8.14667 6.50666 10.4933 4.50666 13.32 3.12C16.2 1.68 19.56 0.959997 23.4 0.959997C27.24 0.959997 30.5733 1.68 33.4 3.12C36.28 4.50666 38.6267 6.50666 40.44 9.12C42.3067 11.68 43.6933 14.8267 44.6 18.56C45.5067 22.24 45.96 26.3733 45.96 30.96ZM74.0506 0.959997C76.7173 0.959997 79.1706 1.30666 81.4106 2C83.704 2.64 85.6506 3.6 87.2506 4.88C88.904 6.16 90.184 7.76 91.0906 9.68C91.9973 11.5467 92.4506 13.7067 92.4506 16.16C92.4506 19.52 91.624 22.8 89.9706 26C88.3706 29.1467 86.184 32.2667 83.4106 35.36C80.6373 38.4 77.4106 41.4133 73.7306 44.4C70.104 47.3333 66.264 50.2667 62.2106 53.2H94.0506V60H52.2906V53.44C57.4106 49.6533 61.9706 46.1333 65.9706 42.88C70.024 39.5733 73.4373 36.4533 76.2106 33.52C78.984 30.5333 81.0906 27.7067 82.5306 25.04C84.024 22.32 84.7706 19.68 84.7706 17.12C84.7706 14.08 83.8106 11.6533 81.8906 9.84C80.024 7.97333 77.3573 7.04 73.8906 7.04C72.344 7.04 70.824 7.28 69.3306 7.76C67.8373 8.18666 66.504 8.93333 65.3306 10C64.2106 11.0133 63.2773 12.3467 62.5306 14C61.8373 15.6533 61.464 17.68 61.4106 20.08H53.8906C53.8373 17.2 54.264 14.5867 55.1706 12.24C56.1306 9.89333 57.4906 7.89333 59.2506 6.24C61.0106 4.53333 63.144 3.22666 65.6506 2.32C68.1573 1.41333 70.9573 0.959997 74.0506 0.959997ZM102.278 60V50.8H111.478V60H102.278Z" fill="#202B54"/>
</svg>
