<svg width="114" height="62" viewBox="0 0 114 62" fill="none" xmlns="http://www.w3.org/2000/svg">
<path d="M38.2 30.96C38.2 22.9067 36.8667 16.9067 34.2 12.96C31.5333 9.01333 27.9333 7.04 23.4 7.04C18.8133 7.04 15.1867 9.01333 12.52 12.96C9.90667 16.9067 8.6 22.9067 8.6 30.96C8.6 39.0667 9.90667 45.0933 12.52 49.04C15.1867 52.9867 18.8133 54.96 23.4 54.96C27.9867 54.96 31.5867 52.9867 34.2 49.04C36.8667 45.0933 38.2 39.0667 38.2 30.96ZM45.96 30.96C45.96 35.5467 45.5067 39.7067 44.6 43.44C43.6933 47.12 42.3067 50.2667 40.44 52.88C38.6267 55.4933 36.28 57.52 33.4 58.96C30.5733 60.3467 27.24 61.04 23.4 61.04C19.56 61.04 16.2 60.3467 13.32 58.96C10.4933 57.52 8.14667 55.4933 6.28 52.88C4.46667 50.2667 3.10667 47.12 2.2 43.44C1.29333 39.7067 0.84 35.5467 0.84 30.96C0.84 26.3733 1.29333 22.24 2.2 18.56C3.10667 14.8267 4.46667 11.68 6.28 9.12C8.14667 6.50666 10.4933 4.50666 13.32 3.12C16.2 1.68 19.56 0.959997 23.4 0.959997C27.24 0.959997 30.5733 1.68 33.4 3.12C36.28 4.50666 38.6267 6.50666 40.44 9.12C42.3067 11.68 43.6933 14.8267 44.6 18.56C45.5067 22.24 45.96 26.3733 45.96 30.96ZM59.3306 38.8H80.0506V12L59.3306 38.8ZM98.0506 45.68H87.4106V60H80.0506V45.68H51.2506V38.8L79.9706 2H87.4106V38.8H98.0506V45.68ZM104.231 60V50.8H113.431V60H104.231Z" fill="#202B54"/>
</svg>
