<?xml version="1.0" encoding="utf-8"?><svg xmlns="http://www.w3.org/2000/svg" xmlns:xlink="http://www.w3.org/1999/xlink"><symbol viewBox="0 0 30 30" id="loc" xmlns="http://www.w3.org/2000/svg"><g clip-path="url(#aclip0)"><path d="M23.881 5.137c-1.82-3.142-5.054-5.062-8.65-5.135a11.225 11.225 0 00-.462 0c-3.596.073-6.83 1.993-8.65 5.135-1.862 3.212-1.913 7.07-.137 10.32l7.44 13.616.01.018c.327.569.913.909 1.568.909s1.241-.34 1.569-.909l.01-.018 7.439-13.616c1.776-3.25 1.725-7.109-.137-10.32zM15 13.593a4.223 4.223 0 01-4.219-4.218A4.224 4.224 0 0115 5.155a4.224 4.224 0 014.219 4.22 4.224 4.224 0 01-4.22 4.218z"/></g><defs><clipPath id="aclip0"><path d="M0 0h30v30H0z"/></clipPath></defs></symbol><symbol viewBox="0 0 26 20" id="mail" xmlns="http://www.w3.org/2000/svg"><path d="M24.227 0H1.773C.768 0 0 .765 0 1.765v16.47C0 19.235.768 20 1.773 20h22.454C25.232 20 26 19.235 26 18.235V1.765C26 .765 25.232 0 24.227 0zm0 17l-4.668-4.647a.86.86 0 00-1.24 0 .85.85 0 000 1.235l4.667 4.647H3.014l4.668-4.647a.85.85 0 000-1.235.86.86 0 00-1.241 0L1.773 17V5.706l10.636 8a.955.955 0 00.532.176.955.955 0 00.532-.176l10.754-8V17zm0-15.235V3.47l-11.286 8.352L1.773 3.471V1.765h22.454z"/></symbol><symbol viewBox="0 0 30 30" id="phone" xmlns="http://www.w3.org/2000/svg"><g clip-path="url(#cclip0)"><path d="M12.422 17.577c-2.863-2.863-3.51-5.727-3.655-6.874a1.026 1.026 0 01.295-.86l2.317-2.317c.341-.34.402-.871.146-1.28L7.835.517A1.034 1.034 0 006.495.14L.572 2.93c-.385.19-.612.6-.569 1.027.31 2.949 1.596 10.196 8.719 17.32 7.122 7.122 14.368 8.407 17.318 8.717.428.044.838-.183 1.028-.569l2.79-5.923a1.035 1.035 0 00-.375-1.338l-5.73-3.688a1.035 1.035 0 00-1.28.145l-2.316 2.317a1.029 1.029 0 01-.86.295c-1.148-.146-4.011-.792-6.875-3.656z"/><path d="M23.792 16.035A1.035 1.035 0 0122.758 15a7.767 7.767 0 00-7.759-7.759 1.035 1.035 0 010-2.069c5.425.006 9.822 4.403 9.828 9.828 0 .571-.463 1.035-1.035 1.035z"/><path d="M28.965 16.035A1.034 1.034 0 0127.93 15C27.922 7.862 22.138 2.077 15 2.069A1.035 1.035 0 0115 0c8.28.01 14.99 6.72 15 15a1.034 1.034 0 01-1.035 1.035z"/></g><defs><clipPath id="cclip0"><path d="M0 0h30v30H0z"/></clipPath></defs></symbol><symbol viewBox="0 0 58 58" id="phone-call" xmlns="http://www.w3.org/2000/svg"><path d="M24.017 33.983c-5.536-5.536-6.786-11.072-7.068-13.29a1.988 1.988 0 01.571-1.664L22 14.551a2 2 0 00.282-2.475L15.149 1a2 2 0 00-2.591-.729L1.107 5.664a1.989 1.989 0 00-1.1 1.987c.6 5.7 3.085 19.712 16.855 33.483s27.78 16.255 33.483 16.855a1.989 1.989 0 001.987-1.1l5.393-11.451A2 2 0 0057 42.851L45.924 35.72a2 2 0 00-2.475.28l-4.478 4.48c-.436.439-1.05.65-1.664.571-2.218-.282-7.754-1.532-13.29-7.068z"/><path d="M46 31a2 2 0 01-2-2c-.01-8.28-6.72-14.99-15-15a2 2 0 110-4c10.489.012 18.988 8.511 19 19a2 2 0 01-2 2z"/><path d="M56 31a2 2 0 01-2-2C53.985 15.2 42.8 4.015 29 4a2 2 0 110-4c16.009.018 28.982 12.991 29 29a2 2 0 01-2 2z"/></symbol><symbol viewBox="0 0 80 80" id="tick" xmlns="http://www.w3.org/2000/svg"><path d="M77.712 10.937a3.014 3.014 0 00-4.263-.005L37.28 47.007 24.227 32.833a3.016 3.016 0 00-4.436 4.085l15.176 16.481a3.011 3.011 0 002.153.972h.065c.797 0 1.564-.316 2.128-.879l38.393-38.29a3.015 3.015 0 00.005-4.265z"/><path d="M76.985 36.985A3.015 3.015 0 0073.97 40c0 18.732-15.238 33.97-33.97 33.97C21.27 73.97 6.03 58.732 6.03 40 6.03 21.27 21.27 6.03 40 6.03A3.015 3.015 0 1040 0C17.944 0 0 17.944 0 40c0 22.055 17.944 40 40 40 22.055 0 40-17.945 40-40a3.015 3.015 0 00-3.015-3.015z"/></symbol><symbol viewBox="0 0 30 30" id="vibe" xmlns="http://www.w3.org/2000/svg"><path d="M15 30c8.284 0 15-6.716 15-15 0-8.284-6.716-15-15-15C6.716 0 0 6.716 0 15c0 8.284 6.716 15 15 15z"/><path d="M21.507 8.23c-3.651-.883-7.309-1.914-11.053-.604-2.424.91-2.424 3.536-2.323 5.758 0 .606-.707 1.414-.404 2.121.606 2.02 1.111 4.04 3.232 5.05.303.203 0 .607.202.91-.1 0-.303.1-.303.202 0 .484.217 1.224.073 1.702l6.446 6.443c6.626-1.056 11.805-6.45 12.534-13.18L21.507 8.23z"/><path d="M22.935 10.542l-.005-.02c-.4-1.62-2.207-3.358-3.867-3.72l-.018-.004a21.49 21.49 0 00-8.09 0l-.018.004c-1.66.362-3.466 2.1-3.868 3.72l-.004.02a15.833 15.833 0 000 6.82l.004.02c.385 1.551 2.057 3.21 3.654 3.666v1.81c0 .654.798.975 1.252.503l1.832-1.905a21.56 21.56 0 005.237-.35l.02-.003c1.659-.362 3.465-2.1 3.866-3.72l.005-.02a15.835 15.835 0 000-6.82zm-1.45 6.493c-.268 1.057-1.64 2.37-2.73 2.614a20.029 20.029 0 01-4.302.347.102.102 0 00-.076.031l-1.338 1.374-1.423 1.46a.167.167 0 01-.287-.115V19.75a.103.103 0 00-.084-.101c-1.09-.243-2.462-1.557-2.73-2.614a14.366 14.366 0 010-6.164c.268-1.058 1.64-2.372 2.73-2.614a20.014 20.014 0 017.51 0c1.091.242 2.462 1.556 2.73 2.614a14.35 14.35 0 010 6.164z"/><path d="M17.37 18.418c-.167-.051-.326-.085-.475-.147-1.537-.638-2.951-1.46-4.072-2.721-.637-.717-1.135-1.527-1.557-2.384-.2-.406-.368-.828-.54-1.248-.157-.382.074-.777.317-1.066.228-.27.521-.477.839-.63.247-.119.492-.05.673.16.391.454.75.932 1.042 1.458.179.324.13.72-.195.94-.079.054-.15.117-.224.177a.737.737 0 00-.17.178.489.489 0 00-.032.43c.4 1.099 1.074 1.954 2.181 2.414.177.074.355.16.559.136.342-.04.452-.415.691-.61a.652.652 0 01.785-.035c.253.16.497.33.74.504.238.17.476.336.696.53.211.186.284.43.165.683-.218.463-.535.848-.993 1.094-.13.07-.283.092-.43.137-.167-.051.147-.045 0 0zm-2.366-8.725c2.01.056 3.661 1.39 4.015 3.378.06.339.082.685.109 1.029.011.144-.07.281-.227.283-.16.002-.233-.133-.244-.277-.02-.286-.035-.573-.074-.857-.208-1.498-1.403-2.737-2.893-3.003-.225-.04-.454-.05-.681-.074-.144-.015-.332-.024-.364-.202-.027-.15.1-.269.242-.277.039-.002.078 0 .117 0 2.01.056-.039 0 0 0z"/><path d="M18.059 13.653c-.003.026-.005.085-.02.14-.053.202-.36.227-.43.024a.606.606 0 01-.024-.195c0-.425-.093-.85-.308-1.221a2.273 2.273 0 00-.953-.895 2.74 2.74 0 00-.76-.233c-.115-.019-.23-.03-.345-.046-.14-.02-.214-.109-.208-.246a.216.216 0 01.24-.214 3.16 3.16 0 011.318.343c.834.442 1.31 1.14 1.45 2.07.006.043.016.084.02.127l.02.346c-.003.025-.008-.138 0 0z"/><path d="M16.809 13.605c-.168.003-.258-.09-.276-.245-.012-.107-.021-.216-.047-.32a.904.904 0 00-.333-.524.873.873 0 00-.272-.13c-.123-.037-.252-.027-.374-.057-.134-.033-.208-.14-.187-.266a.242.242 0 01.255-.194c.78.056 1.336.459 1.416 1.376.005.065.012.134-.002.196-.025.105-.104.159-.18.164-.168.003.076-.005 0 0z"/><path d="M22.936 10.542l-.006-.02c-.224-.908-.89-1.853-1.726-2.572l-1.128 1c.671.534 1.246 1.275 1.41 1.92a14.35 14.35 0 010 6.165c-.268 1.057-1.64 2.37-2.73 2.614a20.028 20.028 0 01-4.303.347.101.101 0 00-.076.031L13.04 21.4l-1.423 1.461a.167.167 0 01-.287-.115V19.75a.103.103 0 00-.084-.101c-.62-.138-1.33-.623-1.877-1.209l-1.115.988c.696.758 1.595 1.37 2.47 1.62v1.81c0 .654.798.975 1.252.503l1.833-1.905a21.56 21.56 0 005.237-.35l.018-.003c1.66-.362 3.467-2.1 3.867-3.72l.005-.02a15.835 15.835 0 000-6.82z"/><path d="M17.371 18.418c.146-.045-.168-.051 0 0z"/><path d="M18.628 16.504c-.22-.194-.457-.36-.695-.53a16.283 16.283 0 00-.74-.504.652.652 0 00-.785.034c-.24.196-.35.57-.691.61-.204.024-.382-.061-.56-.135a3.616 3.616 0 01-1.587-1.263l-.83.735.084.099c1.12 1.26 2.535 2.083 4.072 2.72.148.063.308.097.475.148-.167-.051.146-.045 0 0 .146-.045.3-.068.43-.137.457-.246.775-.631.993-1.094.119-.253.046-.497-.166-.683zM15.01 9.693h-.001zm-.006 0h.005a50.82 50.82 0 00-.005 0zM17.888 10.889l-.354.313a3.55 3.55 0 011.049 2.047c.04.284.054.57.075.857.01.144.082.28.244.277.156-.002.238-.139.226-.283-.027-.344-.048-.69-.108-1.03a4.036 4.036 0 00-1.132-2.181zm.13 2.291c-.1-.678-.382-1.232-.85-1.654l-.353.313c.183.162.34.352.462.562.215.37.307.796.308 1.221 0 .065.003.134.024.195.07.203.377.178.43-.024.015-.055.016-.114.02-.14-.004.026-.008-.137 0 0-.008-.137-.013-.242-.021-.347-.003-.042-.013-.084-.02-.126z"/><path d="M18.06 13.653c-.009-.138-.004.025 0 0zm-1.251-.048l.007-.002h-.029l.022.002zm-.001 0l-.021-.002a.31.31 0 00.021.002z"/><path d="M16.816 13.603l-.007.002c.02-.002.018-.002.007-.002zM16.455 12.16l-.36.318c.02.012.04.024.059.038a.904.904 0 01.333.523c.026.105.035.214.047.322.017.147.1.237.254.242h.03a.2.2 0 00.172-.163c.014-.061.007-.13.002-.195-.045-.513-.239-.865-.537-1.085z"/></symbol><symbol viewBox="0 0 30 30" id="viber" xmlns="http://www.w3.org/2000/svg"><g clip-path="url(#gclip0)"><path d="M28.944 17.366c.895-7.534-.43-12.29-2.82-14.441v-.001C22.268-.75 9.24-1.294 4.625 3.089c-2.072 2.143-2.802 5.29-2.882 9.185-.08 3.896-.175 11.195 6.627 13.175h.006l-.006 3.023s-.047 1.225.736 1.472c.895.29 1.3-.28 4.084-3.604 4.655.404 8.23-.521 8.636-.656.94-.315 6.259-1.02 7.119-8.318zm-15.297 6.846s-2.946 3.674-3.862 4.628c-.3.31-.629.281-.624-.334 0-.404.023-5.02.023-5.02-5.767-1.652-5.427-7.867-5.364-11.119.062-3.252.657-5.916 2.412-7.71 4.05-3.796 15.47-2.947 18.38-.212 3.558 3.154 2.292 12.064 2.3 12.367-.732 6.093-5.042 6.48-5.835 6.743-.338.112-3.482.921-7.43.657z"/><path d="M15.277 5.371c-.48 0-.48.75 0 .756 3.734.03 6.81 2.632 6.843 7.405 0 .504.737.498.731-.006h-.001c-.04-5.144-3.398-8.126-7.573-8.155z"/><path d="M20.189 12.741c-.012.498.725.522.73.018.062-2.836-1.687-5.173-4.973-5.419-.481-.035-.531.721-.051.756 2.85.217 4.351 2.162 4.294 4.645zm-.788 3.227c-.617-.358-1.246-.135-1.506.216l-.544.704c-.276.357-.792.31-.792.31-3.768-.997-4.775-4.94-4.775-4.94s-.046-.533.298-.82l.68-.562c.34-.27.556-.92.21-1.558-.926-1.672-1.547-2.248-1.863-2.69-.333-.417-.833-.51-1.353-.23h-.011c-1.081.633-2.265 1.817-1.886 3.036.646 1.285 1.834 5.381 5.618 8.476 1.78 1.464 4.594 2.964 5.79 3.31l.01.018c1.178.392 2.323-.838 2.934-1.952v-.008c.272-.54.181-1.05-.215-1.383-.702-.685-1.762-1.441-2.595-1.927z"/><path d="M16.461 10.13c1.201.07 1.784.698 1.846 1.986.023.504.754.47.732-.035-.08-1.682-.958-2.62-2.538-2.707-.481-.029-.526.727-.04.756z"/></g><defs><clipPath id="gclip0"><path d="M0 0h30v30H0z"/></clipPath></defs></symbol><symbol viewBox="0 0 30 30" id="whats" xmlns="http://www.w3.org/2000/svg"><path d="M15.004 0h-.008C6.726 0 0 6.728 0 15a14.89 14.89 0 002.856 8.792l-1.87 5.572 5.766-1.843A14.87 14.87 0 0015.004 30C23.274 30 30 23.27 30 15S23.274 0 15.004 0zm8.728 21.182c-.362 1.022-1.798 1.87-2.944 2.117-.784.167-1.807.3-5.254-1.129-4.408-1.826-7.247-6.306-7.468-6.596-.212-.29-1.781-2.372-1.781-4.525 0-2.152 1.093-3.2 1.534-3.65.362-.37.96-.538 1.533-.538.186 0 .353.009.503.017.44.018.662.045.952.74.362.872 1.244 3.024 1.349 3.246.106.221.213.521.063.812-.14.3-.264.433-.485.688-.222.255-.431.45-.653.723-.202.239-.431.494-.176.934.255.431 1.136 1.87 2.434 3.025 1.674 1.49 3.032 1.966 3.517 2.169.362.15.793.114 1.058-.167.335-.362.75-.962 1.172-1.552.3-.424.678-.477 1.076-.327.405.141 2.548 1.2 2.989 1.42.44.221.73.326.838.512.105.185.105 1.057-.257 2.08z"/></symbol><symbol viewBox="0 0 30 30" id="whatsApp" xmlns="http://www.w3.org/2000/svg"><path d="M15.004 0h-.008C6.726 0 0 6.728 0 15a14.89 14.89 0 002.856 8.792l-1.87 5.572 5.766-1.843A14.87 14.87 0 0015.004 30C23.274 30 30 23.27 30 15S23.274 0 15.004 0z"/><path d="M23.732 21.182c-.362 1.022-1.798 1.87-2.944 2.117-.784.167-1.807.3-5.254-1.129-4.408-1.826-7.246-6.306-7.468-6.596-.211-.29-1.78-2.372-1.78-4.525 0-2.152 1.092-3.2 1.533-3.65.362-.37.96-.538 1.534-.538.185 0 .352.009.502.016.44.02.662.045.953.741.361.872 1.243 3.024 1.348 3.246.107.221.213.521.063.812-.14.3-.264.433-.485.688-.221.255-.431.45-.653.723-.202.239-.43.494-.176.934.255.431 1.136 1.87 2.434 3.025 1.674 1.49 3.032 1.966 3.517 2.169.362.15.793.114 1.058-.167.335-.362.75-.962 1.172-1.552.3-.424.679-.477 1.076-.327.405.141 2.548 1.2 2.989 1.42.44.221.731.326.838.512.105.185.105 1.057-.257 2.08z"/></symbol></svg>