<svg width="16" height="9" viewBox="0 0 16 9" fill="none" xmlns="http://www.w3.org/2000/svg">
<path fill-rule="evenodd" clip-rule="evenodd" d="M8.73562 8.65223C8.73562 8.65223 9.00634 8.62258 9.145 8.47573C9.27192 8.34119 9.26752 8.08729 9.26752 8.08729C9.26752 8.08729 9.25065 6.90169 9.80895 6.72664C10.3592 6.55448 11.0657 7.87317 11.8155 8.38025C12.3819 8.76363 12.8118 8.67972 12.8118 8.67972L14.8154 8.65223C14.8154 8.65223 15.863 8.58858 15.3664 7.77624C15.3253 7.70969 15.0766 7.17513 13.877 6.07706C12.6203 4.92763 12.789 5.11354 14.3018 3.12501C15.2233 1.9141 15.5916 1.17482 15.4764 0.858712C15.3671 0.556346 14.6892 0.636639 14.6892 0.636639L12.434 0.650383C12.434 0.650383 12.2667 0.627959 12.1427 0.701019C12.0216 0.772632 11.9431 0.939729 11.9431 0.939729C11.9431 0.939729 11.5866 1.87648 11.1104 2.67363C10.1061 4.35473 9.70477 4.4437 9.54044 4.33954C9.15821 4.09577 9.25358 3.36155 9.25358 2.84001C9.25358 1.21027 9.50449 0.531028 8.7657 0.355251C8.52066 0.296658 8.34019 0.25832 7.71291 0.25181C6.9081 0.243853 6.22727 0.254703 5.84137 0.440608C5.58459 0.564303 5.38651 0.840628 5.50756 0.856542C5.65649 0.876073 5.99397 0.946239 6.17298 1.1864C6.40408 1.49672 6.39601 2.1926 6.39601 2.1926C6.39601 2.1926 6.5288 4.11096 6.08568 4.34894C5.78195 4.51242 5.36523 4.17895 4.46944 2.65338C4.01091 1.87214 3.66463 1.00845 3.66463 1.00845C3.66463 1.00845 3.59787 0.847138 3.47828 0.760335C3.33375 0.655447 3.132 0.622896 3.132 0.622896L0.989006 0.636639C0.989006 0.636639 0.666934 0.64532 0.548816 0.783482C0.443904 0.905731 0.540746 1.15963 0.540746 1.15963C0.540746 1.15963 2.2186 5.03035 4.11876 6.98126C5.86118 8.76942 7.8391 8.65223 7.8391 8.65223H8.73562Z" fill="white"/>
</svg>
