<svg width="56" height="55" fill="none" xmlns="http://www.w3.org/2000/svg"><path opacity=".5" d="M49 55H33c-2.2 0-4-1.8-4-4V35c0-2.2 1.8-4 4-4h16c2.2 0 4 1.8 4 4v16c0 2.2-1.8 4-4 4z" fill="#C3A99C" fill-opacity=".85"/><path d="M37.9 52c-2.8 0-5.2-1.9-5.8-4.6l-2.2-8.8c-.3-1.1-1.2-1.5-1.9-1.5s-1.7.4-1.9 1.5l-2.2 8.8c-.7 2.7-3.1 4.6-5.8 4.6-2.8 0-5.3-2-5.9-4.8L9.7 34.9c-.7-3.5-2.1-6.4-4-8.8-2.7-3.3-4-7.4-3.6-11.6C2.7 7 9 .7 16.6.1c2.3-.2 4.5.1 6.6.8C26.3 2 29.7 2 32.8.9c2.1-.7 4.4-1 6.6-.8C47 .7 53.3 7 53.9 14.6c.4 4.2-.9 8.3-3.6 11.6-2 2.4-3.3 5.3-4 8.8l-2.5 12.3c-.6 2.7-3 4.7-5.9 4.7zM28 35.1c1.9 0 3.4 1.2 3.9 3.1L34 47c.4 1.8 2 3.1 3.9 3.1s3.5-1.3 3.9-3.2l2.5-12.3c.8-3.8 2.3-7 4.4-9.7 2.3-2.8 3.5-6.4 3.1-10.1-.6-6.6-6-12.1-12.7-12.7-2-.2-3.9.1-5.8.7-3.4 1.2-7.2 1.2-10.8 0-1.9-.6-3.8-.9-5.8-.7-6.6.6-12.1 6-12.7 12.7-.3 3.6.8 7.2 3.2 10.1 2.2 2.6 3.7 5.9 4.4 9.7l2.5 12.3c.4 1.8 2 3.2 3.9 3.2 1.8 0 3.4-1.3 3.9-3.1l2.2-8.8c.5-1.9 2-3.1 3.9-3.1z" fill="#4D545D"/><path d="M28 10c-6.3 0-11.3-3-11.5-3.1-.5-.3-.6-.9-.4-1.4.3-.5.9-.6 1.4-.4 0 0 4.8 2.9 10.5 2.9s10.4-2.8 10.5-2.9c.5-.2 1.1-.1 1.4.4.2.5.1 1.1-.4 1.4C39.3 7 34.3 10 28 10zm6 17H22c-2.2 0-4-1.8-4-4v-6c0-2.2 1.8-4 4-4h12c2.2 0 4 1.8 4 4v6c0 2.2-1.8 4-4 4zM22 15c-1.1 0-2 .9-2 2v6c0 1.1.9 2 2 2h12c1.1 0 2-.9 2-2v-6c0-1.1-.9-2-2-2H22z" fill="#4D545D"/><path d="M55 21H37c-.6 0-1-.4-1-1s.4-1 1-1h18c.6 0 1 .4 1 1s-.4 1-1 1zm-36 0H1c-.6 0-1-.4-1-1s.4-1 1-1h18c.6 0 1 .4 1 1s-.4 1-1 1zm14 0H23c-.6 0-1-.4-1-1s.4-1 1-1h10c.6 0 1 .4 1 1s-.4 1-1 1z" fill="#4D545D"/><path d="M25 23c-.6 0-1-.4-1-1v-4c0-.6.4-1 1-1s1 .4 1 1v4c0 .6-.4 1-1 1zm6 0c-.6 0-1-.4-1-1v-4c0-.6.4-1 1-1s1 .4 1 1v4c0 .6-.4 1-1 1z" fill="#4D545D"/></svg>