<svg width="52" height="55" fill="none" xmlns="http://www.w3.org/2000/svg"><path opacity=".5" d="M48 55H32c-2.2 0-4-1.8-4-4V35c0-2.2 1.8-4 4-4h16c2.2 0 4 1.8 4 4v16c0 2.2-1.8 4-4 4z" fill="#C3A99C" fill-opacity=".85"/><path d="M38 14H14c-2.2 0-4-1.8-4-4V4c0-2.2 1.8-4 4-4h24c2.2 0 4 1.8 4 4v6c0 2.2-1.8 4-4 4zM14 2c-1.1 0-2 .9-2 2v6c0 1.1.9 2 2 2h24c1.1 0 2-.9 2-2V4c0-1.1-.9-2-2-2H14z" fill="#4D545D"/><path d="M29 5.6c-.1-.9-.8-1.6-1.6-1.6-.3 0-.5 0-.7.1-.4.1-.8.1-1.2 0-.3-.1-.6-.1-.9-.1-.9.1-1.6.8-1.6 1.6 0 .5.1 1 .4 1.3.3.3.4.7.5 1.1.1.5.2 1.1.3 1.5.1.3.3.5.6.5s.5-.2.6-.5l.3-1.1c.1-.4.6-.4.7 0l.3 1.1c.1.3.3.5.6.5s.5-.2.6-.5c.1-.4.2-1 .3-1.5.1-.4.2-.8.5-1.1.2-.3.3-.8.3-1.3zM48 52H4c-.6 0-1-.4-1-1V22c0-.6.4-1 1-1h44c.6 0 1 .4 1 1v29c0 .6-.4 1-1 1zM5 50h42V23H5v27zM20 8h-5c-.6 0-1-.4-1-1s.4-1 1-1h5c.6 0 1 .4 1 1s-.4 1-1 1zm17 0h-5c-.6 0-1-.4-1-1s.4-1 1-1h5c.6 0 1 .4 1 1s-.4 1-1 1zm-3 10H18c-.6 0-1-.4-1-1v-4c0-.6.4-1 1-1h16c.6 0 1 .4 1 1v4c0 .6-.4 1-1 1zm-15-2h14v-2H19v2z" fill="#4D545D"/><path d="M51 23H1c-.6 0-1-.4-1-1v-5c0-.6.4-1 1-1h50c.6 0 1 .4 1 1v5c0 .6-.4 1-1 1zM2 21h48v-3H2v3zm22 31H10c-.6 0-1-.4-1-1V32c0-.6.4-1 1-1h14c.6 0 1 .4 1 1v19c0 .6-.4 1-1 1zm-13-2h12V33H11v17zm31-6H29c-.6 0-1-.4-1-1V32c0-.6.4-1 1-1h13c.6 0 1 .4 1 1v11c0 .6-.4 1-1 1zm-12-2h11v-9H30v9z" fill="#4D545D"/><path d="M51 52H1c-.6 0-1-.4-1-1s.4-1 1-1h50c.6 0 1 .4 1 1s-.4 1-1 1zM14 42c-.6 0-1-.4-1-1v-2c0-.6.4-1 1-1s1 .4 1 1v2c0 .6-.4 1-1 1z" fill="#4D545D"/></svg>