<svg width="51" height="60" fill="none" xmlns="http://www.w3.org/2000/svg"><path opacity=".5" d="M47 34H31c-2.2 0-4-1.8-4-4V14c0-2.2 1.8-4 4-4h16c2.2 0 4 1.8 4 4v16c0 2.2-1.8 4-4 4z" fill="#C3A99C" fill-opacity=".85"/><path d="M37 56H7c-.6 0-1-.4-1-1s.4-1 1-1h30c.6 0 1 .4 1 1s-.4 1-1 1z" fill="#4D545D"/><path d="M39 60H5c-.2 0-.5 0-.7-.1-.2 0-.3 0-.5-.1l-.2-.1c-.4-.1-.7-.3-1.1-.4-.1 0-.2-.1-.2-.2-.3-.1-.6-.3-.9-.6-.1-.2-.3-.3-.4-.5-.1-.1-.2-.3-.3-.5-.5-.8-.7-1.6-.7-2.5v-8c0-.2.1-.4.2-.6l3-4c.2-.3.5-.4.8-.4h36c.3 0 .6.1.8.4l3 4c.1.2.2.4.2.6v8c0 .9-.2 1.7-.7 2.5v.1c-.1.2-.2.4-.4.5-.1.1-.2.2-.3.4-.3.3-.6.6-1 .8 0 0-.1.1-.2.1-.3.2-.6.3-1 .4l-.3.1c-.1 0-.3.1-.4.1H39zM4.6 58h35.3c.2-.1.4-.1.6-.3 0 0 .1-.1.2-.1.2-.1.3-.2.5-.4 0-.1.1-.1.2-.2s.2-.2.2-.3c0 0 0-.1.1-.1.2-.6.3-1.1.3-1.6v-7.7L39.5 44h-35L2 47.3V55c0 .5.1 1 .4 1.4 0 0 0 .1.1.1.1.1.1.2.2.2 0 .3.1.3.2.4.1.1.3.3.5.4l.1.1.6.3.2.1h.3zM28 10H16c-1.7 0-3-1.3-3-3V1c0-.6.4-1 1-1h16c.6 0 1 .4 1 1v6c0 1.7-1.3 3-3 3zM15 2v5c0 .6.4 1 1 1h12c.6 0 1-.4 1-1V2H15z" fill="#4D545D"/><path d="M37 56H7c-.6 0-1-.4-1-1s.4-1 1-1h30c.6 0 1 .4 1 1s-.4 1-1 1zm3-12H4c-.6 0-1-.4-1-1V26c0-.6.4-1 1-1h36c.6 0 1 .4 1 1v17c0 .6-.4 1-1 1zM5 42h34V27H5v15z" fill="#4D545D"/><path d="M30.5 39h-17C11 39 9 37 9 34.5s2-4.5 4.5-4.5h17c2.5 0 4.5 2 4.5 4.5S33 39 30.5 39zm-17-7c-1.4 0-2.5 1.1-2.5 2.5s1.1 2.5 2.5 2.5h17c1.4 0 2.5-1.1 2.5-2.5S31.9 32 30.5 32h-17zM40 27H4c-.3 0-.6-.1-.8-.4l-3-4c-.1-.2-.2-.4-.2-.6v-4.6c0-3 2.2-5.6 5.2-5.9l8.9-1.2c.5-.1.9-.5.9-1V9c0-.6.4-1 1-1h12c.6 0 1 .4 1 1v.2c0 .5.4.9.9 1l8.9 1.2c3 .4 5.2 3 5.2 5.9V22c0 .2-.1.4-.2.6l-3 4c-.2.3-.5.4-.8.4zM4.5 25h35l2.5-3.3v-4.3c0-2-1.5-3.7-3.5-4l-8.9-1.2c-1.2-.2-2.2-1.1-2.5-2.2H16.9c-.3 1.2-1.3 2.1-2.5 2.2l-8.9 1.2c-2 .3-3.5 2-3.5 4v4.3L4.5 25z" fill="#4D545D"/></svg>