<svg width="55" height="52" fill="none" xmlns="http://www.w3.org/2000/svg"><path opacity=".5" d="M51 38H35c-2.2 0-4-1.8-4-4V18c0-2.2 1.8-4 4-4h16c2.2 0 4 1.8 4 4v16c0 2.2-1.8 4-4 4z" fill="#C3A99C" fill-opacity=".85"/><path d="M35.1 52c-2.6 0-4.8-1.8-5.4-4.3l-2-8.1c-.2-1-1-1.3-1.7-1.3s-1.5.4-1.7 1.3l-2 8.1c-.3 1.2-1 2.3-2 3.1-1 .8-2.2 1.2-3.5 1.2-2.6 0-4.9-1.9-5.5-4.5L9.1 36.2c-.7-3.2-1.9-5.9-3.7-8-1.9-2.3-3.1-5.1-3.3-8.1 0-.3.1-.6.3-.8.1-.2.4-.3.7-.3h13.4c.4 0 .7-.1 1-.4.3-.3.4-.6.4-1 0-2.5 2.1-4.6 4.6-4.6h7.1c1.2 0 2.4.5 3.2 1.3.9.9 1.3 2 1.3 3.2 0 .8.6 1.4 1.4 1.4H49c.3 0 .5.1.7.3.2.2.3.5.3.8-.3 3-1.4 5.8-3.3 8.1-1.8 2.2-3 4.9-3.7 8l-2.3 11.3c-.3 1.3-1 2.4-2 3.2-1 1-2.3 1.4-3.6 1.4zM26 36.3c1.8 0 3.2 1.2 3.7 2.9l2 8.1c.4 1.6 1.8 2.7 3.5 2.7.8 0 1.6-.3 2.3-.8.7-.5 1.1-1.3 1.3-2.1L41 35.8c.7-3.5 2.1-6.5 4.1-8.9 1.4-1.7 2.4-3.8 2.7-5.9H35.5c-1.9 0-3.4-1.5-3.4-3.4 0-.7-.3-1.3-.8-1.8s-1.1-.7-1.8-.7h-7.1c-1.4 0-2.6 1.1-2.6 2.6 0 .9-.4 1.8-1 2.4-.6.6-1.5 1-2.4 1H4.2c.4 2.2 1.3 4.2 2.7 5.9 2 2.4 3.4 5.4 4.1 8.9l2.3 11.3c.4 1.7 1.8 2.9 3.5 2.9.8 0 1.6-.3 2.2-.8.6-.5 1.1-1.2 1.3-2l2-8.1c.5-1.8 1.9-2.9 3.7-2.9zM26 10c-6.3 0-11.3-3-11.5-3.1-.5-.3-.6-.9-.3-1.4.2-.5.8-.7 1.3-.4 0 0 4.8 2.8 10.5 2.8s10.4-2.8 10.5-2.8c.5-.3 1.1-.1 1.4.4.3.5.1 1.1-.3 1.4C37.3 7 32.3 10 26 10z" fill="#4D545D"/><path d="M50.4 21H35.5c-1.9 0-3.4-1.5-3.4-3.4 0-.7-.3-1.3-.8-1.8s-1.1-.7-1.8-.7h-7.1c-1.4 0-2.6 1.1-2.6 2.6 0 .9-.4 1.8-1 2.4-.6.6-1.5 1-2.4 1H1.6c-.4 0-.8-.3-1-.7-.5-1.8-.7-3.8-.5-5.8C.7 6.9 7 .7 14.6.1c2.3-.2 4.5.1 6.6.8C24.3 2 27.7 2 30.8.9c2.1-.7 4.3-1 6.6-.8 7.6.6 13.9 6.8 14.5 14.4.2 2 0 3.9-.5 5.8-.1.4-.5.7-1 .7zm-28-7.9h7.1c1.2 0 2.4.5 3.2 1.3.9.9 1.3 2 1.3 3.2 0 .8.6 1.4 1.4 1.4h14.1c.3-1.4.4-2.8.3-4.3-.6-6.6-6-12.1-12.7-12.6-2-.2-4 .1-5.8.7-3.4 1.2-7.2 1.2-10.8 0-1.8-.6-3.8-.9-5.8-.7-6.6.5-12.1 6-12.6 12.6-.1 1.5 0 2.9.3 4.3h14.1c.4 0 .7-.1 1-.4.3-.3.4-.6.4-1 0-2.5 2-4.5 4.5-4.5z" fill="#4D545D"/></svg>