<svg width="51" height="60" fill="none" xmlns="http://www.w3.org/2000/svg"><g clip-path="url(#clip0)"><path opacity=".5" d="M47 54H31c-2.2 0-4-1.8-4-4V34c0-2.2 1.8-4 4-4h16c2.2 0 4 1.8 4 4v16c0 2.2-1.8 4-4 4z" fill="#C3A99C" fill-opacity=".85"/><path d="M40 60H4c-2.2 0-4-1.8-4-4V10c0-2.2 1.8-4 4-4h10c.6 0 1 .4 1 1v4h14V7c0-.6.4-1 1-1h10c2.2 0 4 1.8 4 4v46c0 2.2-1.8 4-4 4zM4 8c-1.1 0-2 .9-2 2v46c0 1.1.9 2 2 2h36c1.1 0 2-.9 2-2V10c0-1.1-.9-2-2-2h-9v3c0 1.1-.9 2-2 2H15c-1.1 0-2-.9-2-2V8H4z" fill="#4D545D"/><path d="M39 56H5c-.6 0-1-.4-1-1V11c0-.6.4-1 1-1h9c.6 0 1 .4 1 1h14c0-.6.4-1 1-1h9c.6 0 1 .4 1 1v44c0 .6-.4 1-1 1zM6 54h32V12h-7.3c-.3.6-1 1-1.7 1H15c-.7 0-1.4-.4-1.7-1H6v42z" fill="#4D545D"/><path d="M29 13H15c-1.1 0-2-.9-2-2V7c0-1.1.9-2 2-2h2c0-1.4.6-2.8 1.6-3.7C19.6.4 21-.1 22.4 0c2.6.3 4.5 2.4 4.6 5h2c1.1 0 2 .9 2 2v4c0 1.1-.9 2-2 2zM15 7v4h14V7h-3c-.6 0-1-.4-1-1v-.8c0-1.6-1.2-3-2.7-3.2-.9-.1-1.7.2-2.3.8-.6.6-1 1.4-1 2.2v1c0 .6-.4 1-1 1h-3zm14 0h1-1z" fill="#4D545D"/><path d="M22 6a1 1 0 100-2 1 1 0 000 2zm2.8 27c-1.1 0-2.1-.8-2.3-1.8l-.5-1.9-.4 1.8c-.3 1.1-1.2 1.8-2.3 1.8-1.1 0-2.1-.8-2.4-1.9l-.7-3.4c-.2-.9-.5-1.6-1-2.1-.9-1.1-1.3-2.4-1.2-3.8.2-2.5 2.2-4.5 4.7-4.7.7-.1 1.5 0 2.2.3.7.3 1.5.3 2.2 0 .7-.2 1.4-.3 2.2-.3 2.5.2 4.5 2.2 4.7 4.7.1 1.4-.3 2.7-1.2 3.8-.5.6-.8 1.3-1 2.1l-.7 3.4c-.2 1.2-1.2 2-2.3 2zM22 26.8c.9 0 1.6.6 1.8 1.4l.6 2.5c.1.4.7.4.8 0l.7-3.4c.2-1.2.7-2.2 1.4-3 .5-.6.8-1.5.7-2.3-.1-1.5-1.4-2.8-2.9-2.9-.5 0-.9 0-1.3.2-1.2.4-2.4.4-3.5 0-.5-.3-.9-.3-1.4-.3-1.5.1-2.8 1.4-2.9 2.9-.1.8.2 1.7.7 2.3.7.8 1.2 1.8 1.4 3l.7 3.4c.1.4.7.4.8 0l.6-2.5c.2-.7.9-1.3 1.8-1.3zM23 40H10c-.6 0-1-.4-1-1s.4-1 1-1h13c.6 0 1 .4 1 1s-.4 1-1 1zm0 5H10c-.6 0-1-.4-1-1s.4-1 1-1h13c.6 0 1 .4 1 1s-.4 1-1 1zm0 5H10c-.6 0-1-.4-1-1s.4-1 1-1h13c.6 0 1 .4 1 1s-.4 1-1 1zm11-10h-6c-.6 0-1-.4-1-1s.4-1 1-1h6c.6 0 1 .4 1 1s-.4 1-1 1zm0 5h-6c-.6 0-1-.4-1-1s.4-1 1-1h6c.6 0 1 .4 1 1s-.4 1-1 1zm0 5h-6c-.6 0-1-.4-1-1s.4-1 1-1h6c.6 0 1 .4 1 1s-.4 1-1 1z" fill="#4D545D"/></g><defs><clipPath id="clip0"><path fill="#fff" d="M0 0h51v60H0z"/></clipPath></defs></svg>