<svg width="53" height="55" fill="none" xmlns="http://www.w3.org/2000/svg"><path opacity=".5" d="M40 55H24c-2.2 0-4-1.8-4-4V35c0-2.2 1.8-4 4-4h16c2.2 0 4 1.8 4 4v16c0 2.2-1.8 4-4 4z" fill="#C3A99C" fill-opacity=".85"/><path d="M35.9 52c-2.8 0-5.2-1.9-5.8-4.6l-2.2-8.8c-.3-1.1-1.2-1.5-1.9-1.5s-1.7.4-1.9 1.5l-2.2 8.8c-.3 1.3-1 2.4-2.1 3.3-1.1.8-2.4 1.3-3.7 1.3-2.8 0-5.3-2-5.9-4.8L7.7 34.9c-.7-3.5-2.1-6.4-4-8.8C1 22.9-.3 18.7.1 14.5.7 7 7 .7 14.6.1c2.3-.2 4.5.1 6.6.8C24.4 2 27.7 2 30.8.9c2.1-.7 4.3-1 6.6-.8C45 .7 51.3 7 51.9 14.6c.4 4.2-.9 8.3-3.6 11.6-.6.8-1.2 1.5-1.6 2.3-.2.4-.7.6-1.2.5l-2.5-.9-8 2.7v8.1c0 4 1.9 7.8 5 9.9.2.2.4.4.4.7 0 .3-.1.6-.3.8l-.5.5c-1 .7-2.3 1.2-3.7 1.2zM26 35.1c1.9 0 3.4 1.2 3.9 3.1L32 47c.4 1.8 2 3 3.9 3 .7 0 1.3-.2 1.9-.5C34.8 47 33 43 33 38.8V30c0-.4.3-.8.7-.9l9-3c.2-.1.4-.1.6 0l2.1.7c.4-.6.8-1.2 1.4-1.9 2.3-2.8 3.5-6.4 3.1-10.1-.6-6.6-6-12.1-12.7-12.7-2-.2-3.9.1-5.8.7-3.5 1.2-7.3 1.2-10.9 0-1.9-.6-3.8-.9-5.8-.7-6.6.5-12.1 6-12.6 12.6-.4 3.7.7 7.3 3.1 10.2 2.2 2.6 3.7 5.9 4.4 9.7l2.5 12.3c.4 1.8 2 3.2 3.9 3.2.9 0 1.8-.3 2.5-.8.7-.6 1.2-1.3 1.4-2.2l2.2-8.8c.5-2 2-3.2 3.9-3.2z" fill="#4D545D"/><path d="M26 10c-6.3 0-11.3-3-11.5-3.1-.5-.3-.6-.9-.4-1.4.3-.5.9-.6 1.4-.4 0 0 4.8 2.9 10.5 2.9s10.4-2.8 10.5-2.9c.5-.3 1.1-.1 1.4.3.2.6.1 1.2-.4 1.5C37.3 7 32.3 10 26 10zm17 42h-.2c-1.4-.3-2.7-.9-3.9-1.6C35.2 48 33 43.6 33 38.9V30c0-.4.3-.8.7-.9l9-3c.2-.1.4-.1.6 0l9 3c.4.1.7.5.7.9v8.8c0 6.4-4.1 11.9-9.8 13.2H43zm-8-21.3v8.1c0 4 1.9 7.8 5 9.9.9.6 1.9 1 3 1.3 4.6-1.1 8-5.8 8-11.2v-8.1L43 28l-8 2.7z" fill="#4D545D"/><path d="M42 42c-.3 0-.5-.1-.7-.3l-2-2c-.4-.4-.4-1 0-1.4.4-.4 1-.4 1.4 0l1.3 1.3 4.3-4.3c.4-.4 1-.4 1.4 0 .4.4.4 1 0 1.4l-5 5c-.2.2-.4.3-.7.3z" fill="#4D545D"/></svg>