<svg width="52" height="55" fill="none" xmlns="http://www.w3.org/2000/svg"><g clip-path="url(#clip0)"><path opacity=".5" d="M22 55H6c-2.2 0-4-1.8-4-4V35c0-2.2 1.8-4 4-4h16c2.2 0 4 1.8 4 4v16c0 2.2-1.8 4-4 4z" fill="#C3A99C" fill-opacity=".85"/><path d="M35.9 52c-2.8 0-5.2-1.9-5.8-4.6l-2.2-8.8c-.3-1.1-1.2-1.5-1.9-1.5s-1.7.4-1.9 1.5l-2.2 8.8c-.3 1.3-1 2.4-2.1 3.3-1.1.8-2.4 1.3-3.7 1.3-2.8 0-5.3-2-5.9-4.8L7.7 34.9c-.7-3.5-2.1-6.4-4-8.8C1 22.9-.3 18.7.1 14.5.7 7 7 .7 14.6.1c2.3-.2 4.5.1 6.6.8C24.4 2 27.7 2 30.8.9c2.1-.7 4.3-1 6.6-.8 2.9.3 5.7 1.3 8.1 3.1.4.3.5.8.3 1.2l-3.9 7c0 .1-.1.2-.2.2l-.7.8 1.5-.3 3.8-3.8.1-.1L48 7c.2-.2.5-.2.8-.2.3 0 .5.2.7.4 1.4 2.2 2.3 4.7 2.5 7.3.4 4.2-.9 8.3-3.6 11.6-2 2.4-3.3 5.3-4 8.8l-2.5 12.3c-.3 1.4-1 2.6-2.1 3.4-1.2.9-2.5 1.4-3.9 1.4zM26 35.1c1.9 0 3.4 1.2 3.9 3.1L32 47c.4 1.8 2 3 3.9 3 .9 0 1.8-.3 2.5-.9.7-.6 1.2-1.4 1.4-2.3l2.5-12.3c.8-3.8 2.3-7 4.4-9.7 2.3-2.8 3.5-6.4 3.1-10.1-.2-1.9-.7-3.8-1.7-5.4l-.6.5-4 3.9c-.1.1-.3.2-.5.3l-5 1c-.4.1-.9-.1-1.1-.5-.2-.4-.1-.9.2-1.2l2.9-2.9 3.4-6.1c-1.9-1.2-4.1-2-6.3-2.2-2-.2-3.9.1-5.8.7-3.4 1.2-7.2 1.2-10.8 0-1.9-.6-3.8-.9-5.8-.7-6.6.5-12.1 6-12.6 12.6-.4 3.7.7 7.3 3.1 10.2 2.2 2.6 3.7 5.9 4.4 9.7l2.5 12.3c.4 1.8 2 3.2 3.9 3.2.9 0 1.8-.3 2.5-.8.7-.6 1.2-1.3 1.4-2.2l2.2-8.8c.5-2 2-3.2 3.9-3.2z" fill="#4D545D"/><path d="M26 10c-6.3 0-11.3-3-11.5-3.1-.5-.3-.6-.9-.4-1.4.2-.5.9-.6 1.4-.3 0 0 4.8 2.9 10.5 2.9s10.4-2.8 10.5-2.9c.5-.3 1.1-.2 1.4.3.2.5.1 1.1-.4 1.4C37.3 7 32.3 10 26 10zm6 12c-.3 0-.5-.1-.7-.3-.4-.4-.4-1 0-1.4l2-2c.2-.2.4-.3.7-.3h1.3l1.8-4.4c0-.1.1-.2.2-.3l2.9-2.9L44 3.5c.3-.5.9-.7 1.4-.4.5.3.7.9.4 1.4l-3.9 7c0 .1-.1.2-.2.2l-2.9 2.9-1.9 4.8c-.1.4-.5.6-.9.6h-1.6l-1.7 1.7c-.2.2-.4.3-.7.3z" fill="#4D545D"/><path d="M38 15c-.5 0-.9-.3-1-.8-.1-.5.2-1.1.8-1.2l4.7-.9 3.8-3.8.1-.1L48 7c.4-.3 1.1-.2 1.4.2.3.4.2 1.1-.2 1.4l-1.5 1.1-4 3.9c-.1.1-.3.2-.5.3l-5 1c-.1.1-.1.1-.2.1zm2 4c-.2 0-.4-.1-.5-.2L36.6 17c-.5-.3-.6-.9-.3-1.4.3-.5.9-.6 1.4-.3l2.9 1.8c.5.3.6.9.3 1.4-.2.3-.6.5-.9.5z" fill="#4D545D"/><path d="M40 21c-.6 0-1-.4-1-1v-2c0-.6.4-1 1-1s1 .4 1 1v2c0 .6-.4 1-1 1z" fill="#4D545D"/></g><defs><clipPath id="clip0"><path fill="#fff" d="M0 0h52v55H0z"/></clipPath></defs></svg>