<svg width="52" height="52" fill="none" xmlns="http://www.w3.org/2000/svg"><path opacity=".5" d="M40 25H24c-2.2 0-4-1.8-4-4V5c0-2.2 1.8-4 4-4h16c2.2 0 4 1.8 4 4v16c0 2.2-1.8 4-4 4z" fill="#C3A99C" fill-opacity=".85"/><path d="M22 9H8c-1.1 0-2-.9-2-2V2c0-1.1.9-2 2-2h14c1.1 0 2 .9 2 2v5c0 1.1-.9 2-2 2zM8 2v5h14V2H8z" fill="#4D545D"/><path d="M25 48H5c-2.8 0-5-2.2-5-5V19.2c0-2.9 1.8-5.5 4.5-6.6L8 11.3V8c0-.6.4-1 1-1h12c.6 0 1 .4 1 1v3.3l3.5 1.3c1.4.5 2.5 1.4 3.3 2.6.3.4.2 1-.2 1.3-.4.4-.6.9-.6 1.5v28.5c0 .4-.2.7-.5.9-.8.4-1.6.6-2.5.6zM10 9v3c0 .4-.3.8-.6.9l-4.1 1.5c-2 .8-3.3 2.7-3.3 4.8V43c0 1.7 1.3 3 3 3h20c.3 0 .7-.1 1-.2V18c0-.8.2-1.6.7-2.2-.5-.6-1.2-1-1.9-1.3L20.7 13c-.4-.2-.7-.6-.7-1V9H10z" fill="#4D545D"/><path d="M23 42H1c-.6 0-1-.4-1-1V21c0-.6.4-1 1-1h22c.6 0 1 .4 1 1v20c0 .6-.4 1-1 1zM2 40h20V22H2v18z" fill="#4D545D"/><path d="M13.4 38c-1 0-1.9-.7-2.1-1.7l-.2-1-.2 1c-.2 1-1.1 1.7-2.1 1.7s-1.9-.7-2.2-1.8L6 33.3c-.3-.7-.6-1.3-1-1.8-.8-.9-1.1-2.1-1-3.3.2-2.2 2-4 4.2-4.2.7-.1 1.3 0 1.9.2.6.2 1.2.2 1.8 0 .6-.2 1.3-.3 1.9-.2 2.2.2 4 2 4.2 4.2.1 1.2-.3 2.4-1 3.3-.4.5-.7 1.1-.8 1.8l-.6 2.9c-.3 1.1-1.2 1.8-2.2 1.8zM11 32.4c.8 0 1.5.5 1.7 1.3l.5 2.1c0 .2.4.2.4 0l.6-2.9c.2-1 .6-1.9 1.2-2.6.4-.5.6-1.2.6-1.9-.1-1.2-1.1-2.2-2.4-2.4-.4 0-.7 0-1.1.1-1 .4-2.1.4-3.1 0-.3-.1-.7-.1-1-.1-1.2.1-2.2 1.1-2.4 2.4-.1.7.1 1.4.6 1.9.6.7 1 1.6 1.2 2.6l.6 2.9c0 .2.3.2.4 0l.5-2.1c.2-.8.9-1.3 1.7-1.3zM48 52H30c-2.2 0-4-1.8-4-4V18c0-1.1.5-2.2 1.3-2.9C28 14.4 29 14 30 14h18c2.2 0 4 1.8 4 4v30c0 2.2-1.8 4-4 4zM30 16c-.5 0-1 .2-1.3.5-.5.4-.7.9-.7 1.5v30c0 1.1.9 2 2 2h18c1.1 0 2-.9 2-2V18c0-1.1-.9-2-2-2H30z" fill="#4D545D"/><path d="M35 24h-3c-1.7 0-3-1.3-3-3s1.3-3 3-3h3c1.7 0 3 1.3 3 3s-1.3 3-3 3zm-3-4c-.6 0-1 .4-1 1s.4 1 1 1h3c.6 0 1-.4 1-1s-.4-1-1-1h-3zm14 4h-3c-1.7 0-3-1.3-3-3s1.3-3 3-3h3c1.7 0 3 1.3 3 3s-1.3 3-3 3zm-3-4c-.6 0-1 .4-1 1s.4 1 1 1h3c.6 0 1-.4 1-1s-.4-1-1-1h-3zm-8 12h-3c-1.7 0-3-1.3-3-3s1.3-3 3-3h3c1.7 0 3 1.3 3 3s-1.3 3-3 3zm-3-4c-.6 0-1 .4-1 1s.4 1 1 1h3c.6 0 1-.4 1-1s-.4-1-1-1h-3zm14 4h-3c-1.7 0-3-1.3-3-3s1.3-3 3-3h3c1.7 0 3 1.3 3 3s-1.3 3-3 3zm-3-4c-.6 0-1 .4-1 1s.4 1 1 1h3c.6 0 1-.4 1-1s-.4-1-1-1h-3zm-8 12h-3c-1.7 0-3-1.3-3-3s1.3-3 3-3h3c1.7 0 3 1.3 3 3s-1.3 3-3 3zm-3-4c-.6 0-1 .4-1 1s.4 1 1 1h3c.6 0 1-.4 1-1s-.4-1-1-1h-3zm14 4h-3c-1.7 0-3-1.3-3-3s1.3-3 3-3h3c1.7 0 3 1.3 3 3s-1.3 3-3 3zm-3-4c-.6 0-1 .4-1 1s.4 1 1 1h3c.6 0 1-.4 1-1s-.4-1-1-1h-3zm-8 12h-3c-1.7 0-3-1.3-3-3s1.3-3 3-3h3c1.7 0 3 1.3 3 3s-1.3 3-3 3zm-3-4c-.6 0-1 .4-1 1s.4 1 1 1h3c.6 0 1-.4 1-1s-.4-1-1-1h-3zm14 4h-3c-1.7 0-3-1.3-3-3s1.3-3 3-3h3c1.7 0 3 1.3 3 3s-1.3 3-3 3zm-3-4c-.6 0-1 .4-1 1s.4 1 1 1h3c.6 0 1-.4 1-1s-.4-1-1-1h-3z" fill="#4D545D"/></svg>