<svg width="46" height="15" fill="none" xmlns="http://www.w3.org/2000/svg"><path d="M7.92.035c5.982-.407 10.78 2.94 15.67 5.997C28.489 2.525 34.471-1.358 40.487.77c2.38.841 4.75 3.032 4.837 5.721.087 2.69-2.888 4.474-5.18 5.195-5.804 1.818-11.39-.943-16.3-3.976-.855.6-1.716 1.204-2.596 1.785-.484.305-.968.633-1.529.967a14.996 14.996 0 013.618 3.028.338.338 0 01-.266.537.363.363 0 01-.213-.097 33.24 33.24 0 00-2.839-2.394 5.185 5.185 0 00-1.156-.595c-.933.633-3.869 2.278-6.77 1.523-3.086-.802-1.727-4.26 1.073-4.144 1.774.11 3.508.57 5.102 1.354a47.918 47.918 0 003.173-2.094l1.016-.73-1.001-.64C17.655 3.794 13.5 1.33 8.882 1.172 6.647 1.1 4.2 1.582 2.536 3.183.873 4.784.413 8.102 2.972 9.161c.633.261.372 1.301-.286 1.05C.365 9.32-.584 6.607.37 4.354 1.588 1.452 5.008.233 7.92.034zm23.427 9.924a15.54 15.54 0 005.63.789c2.152-.131 5.359-.968 6.442-3.062 1.292-2.505-1.814-4.904-3.87-5.48-2.49-.706-5.145-.097-7.515.764-2.587.968-4.836 2.419-7.047 3.928a30.669 30.669 0 006.36 3.061zm-16.323-.667c-.595-.112-2.612-.484-3.337.483a.871.871 0 00-.208.59c.024.484.576.968 1.398 1.166a5.473 5.473 0 001.557-.208 11.12 11.12 0 002.718-1.001l.218-.126a7.453 7.453 0 00-2.346-.904z" fill="#FFF7F4"/></svg>