<svg width="91" height="17" viewBox="0 0 91 17" fill="none" xmlns="http://www.w3.org/2000/svg">
<path d="M28.4569 0H27.1274V1.32478V16.2638H40.3376C43.1946 16.2638 45.5141 13.9524 45.5141 11.1056C45.5141 8.25872 43.1946 5.94741 40.3376 5.94741H29.7864V2.64955H43.3926L46.0516 0H28.4569ZM40.3376 8.59696C41.7236 8.59696 42.8551 9.72443 42.8551 11.1056C42.8551 12.4867 41.7236 13.6142 40.3376 13.6142H29.7864V8.59696H40.3376Z" fill="#D6AD68"/>
<path d="M63.1371 4.28439C63.1371 1.9167 61.2135 0 58.8374 0H49.6441L46.9851 2.64955H58.8374C59.7426 2.64955 60.5064 3.38241 60.5064 4.31257C60.5064 5.21455 59.7709 5.97559 58.8374 5.97559V6.00378C58.696 6.00378 58.5545 5.97559 58.4131 5.97559H51.6242L48.9652 8.62515H58.3848C59.7709 8.62515 60.9024 9.75262 60.9024 11.1338C60.9024 12.5149 59.7709 13.6424 58.3848 13.6424H48.5974L45.9384 16.2919H58.3848C61.2418 16.2919 63.5614 13.9806 63.5614 11.1338C63.5614 9.63987 62.9108 8.28691 61.8924 7.32856C62.6562 6.53933 63.1371 5.46823 63.1371 4.28439Z" fill="#D6AD68"/>
<path d="M81.7501 7.0185L88.7936 0H85.0314L79.0628 5.94741H75.244V4.28439V2.64955V0H73.9428H72.6133V1.32478V16.2638H75.244V13.6142V12.2331V8.59696H79.5437L87.2378 16.2638H91L81.7501 7.0185Z" fill="#D6AD68"/>
<path d="M16.3217 0H11.6543L9.02362 2.64955H13.6627L0 16.2638H3.7622L17.4249 2.64955H21.1871V5.94741H16.0954L13.4364 8.59696H21.1871V16.2638H22.9127H23.8461V0H22.7712H16.3217Z" fill="#D6AD68"/>
</svg>
