<svg width="154" height="67" viewBox="0 0 154 67" fill="none" xmlns="http://www.w3.org/2000/svg">
<path d="M114.114 8.44339L110.308 12.2363L114.114 16.0293L117.921 12.2363L114.114 8.44339Z" fill="#D6AD68"/>
<path d="M47.9247 0H45.6856V2.23108V27.39H67.933C72.7445 27.39 76.6509 23.4975 76.6509 18.7031C76.6509 13.9086 72.7445 10.0161 67.933 10.0161H50.1637V4.46215H73.078L77.5561 0H47.9247ZM67.933 14.4783C70.2673 14.4783 72.1729 16.3771 72.1729 18.7031C72.1729 21.0291 70.2673 22.9279 67.933 22.9279H50.1637V14.4783H67.933Z" fill="#D6AD68"/>
<path d="M106.33 7.2154C106.33 3.22794 103.091 0 99.0889 0H83.6063L79.1282 4.46215H99.0889C100.613 4.46215 101.9 5.69637 101.9 7.26287C101.9 8.7819 100.661 10.0636 99.0889 10.0636V10.1111C98.8507 10.1111 98.6125 10.0636 98.3743 10.0636H86.941L82.463 14.5257H98.3267C100.661 14.5257 102.567 16.4245 102.567 18.7505C102.567 21.0766 100.661 22.9753 98.3267 22.9753H81.8436L77.3656 27.4375H98.3267C103.138 27.4375 107.045 23.545 107.045 18.7505C107.045 16.2346 105.949 13.9561 104.234 12.3421C105.52 11.013 106.33 9.20913 106.33 7.2154Z" fill="#D6AD68"/>
<path d="M137.676 11.82L149.539 0H143.203L133.151 10.0161H126.719V7.2154V4.46215V0H124.528H122.289V2.23108V27.39H126.719V22.9279V20.6019V14.4783H133.961L146.918 27.39H153.254L137.676 11.82Z" fill="#D6AD68"/>
<path d="M27.4876 0H19.6272L15.1968 4.46215H23.0096L0 27.39H6.33597L29.3456 4.46215H35.6815V10.0161H27.1065L22.6285 14.4783H35.6815V27.39H38.5875H40.1596V0H38.3493H27.4876Z" fill="#D6AD68"/>
<path d="M2.62507 47.1192H6.10479L6.83737 48.9597H8.72986L5.18907 40.616H3.54079L0 48.9597H1.83144L2.62507 47.1192ZM4.3344 42.8246L5.43326 45.5241H3.23555L4.3344 42.8246Z" fill="black"/>
<path d="M14.5294 49.1439C15.323 49.1439 15.9335 49.0212 16.4829 48.7758C17.0324 48.5304 17.5207 48.1623 17.9481 47.7329L16.7882 46.5058C16.4219 46.8126 16.0556 47.058 15.7504 47.2421C15.4451 47.4261 15.0178 47.4875 14.5904 47.4875C13.9189 47.4875 13.3084 47.2421 12.8811 46.7512C12.4538 46.2604 12.2096 45.6469 12.2096 44.9107C12.2096 44.1745 12.4538 43.561 12.8811 43.0702C13.3084 42.5794 13.9189 42.334 14.5904 42.334C15.0178 42.334 15.3841 42.3954 15.6893 42.5794C15.9945 42.7021 16.3608 42.9475 16.6661 43.3156L17.7649 42.0273C17.3376 41.5978 16.8492 41.2297 16.3608 41.0457C15.8725 40.8003 15.262 40.6776 14.5294 40.6776C13.2474 40.6776 12.2706 41.107 11.416 41.9046C10.6223 42.7635 10.195 43.7451 10.195 44.9721C10.195 46.1991 10.6223 47.1807 11.416 48.0396C12.2096 48.8985 13.3084 49.1439 14.5294 49.1439Z" fill="black"/>
<path d="M23.5645 48.4078V49.3281H25.3959V48.4078C26.6779 48.4078 27.6546 48.0397 28.3872 47.3649C29.1198 46.69 29.4861 45.7698 29.4861 44.7268C29.4861 43.6838 29.1198 42.8249 28.3872 42.1501C27.6546 41.4752 26.6779 41.1071 25.3959 41.1071V40.3709H23.5645V41.1071C22.2825 41.1071 21.3057 41.4139 20.5731 42.0887C19.8406 42.7636 19.4743 43.6225 19.4743 44.6654C19.4743 45.7698 19.8406 46.6287 20.5731 47.3035C21.3057 48.0397 22.2825 48.4078 23.5645 48.4078ZM25.3959 42.7022C26.0674 42.7022 26.6168 42.8863 26.9831 43.2544C27.4105 43.6225 27.5936 44.1133 27.5936 44.7268C27.5936 45.3403 27.4105 45.8311 26.9831 46.1992C26.5558 46.5673 26.0674 46.7514 25.3959 46.7514V42.7022ZM21.9162 43.2544C22.3435 42.8863 22.8929 42.7022 23.5645 42.7022V46.7514C22.8929 46.7514 22.3435 46.5673 21.9162 46.1992C21.4888 45.8311 21.3057 45.3403 21.3057 44.7268C21.3057 44.1133 21.5499 43.6225 21.9162 43.2544Z" fill="black"/>
<path d="M36.0792 40.616H34.4309L30.8902 48.9597H32.7216L33.4542 47.1192H36.9339L37.6665 48.9597H39.559L36.0792 40.616ZM34.1257 45.5241L35.2246 42.8246L36.3234 45.5241H34.1257Z" fill="black"/>
<path d="M43.1608 48.5918C43.5271 48.2237 43.8323 47.6102 44.0155 46.7512C44.1986 45.831 44.3207 44.604 44.3207 42.9475V42.334H46.7016V49.0212H48.533V40.6776H42.6114V42.3954C42.6114 43.4997 42.5503 44.3586 42.4893 45.0948C42.4282 45.7696 42.3061 46.3218 42.184 46.6285C42.0619 46.9967 41.8788 47.1807 41.6957 47.3034C41.5125 47.4261 41.3294 47.4875 41.0241 47.4875C40.9631 47.4875 40.841 47.4875 40.7189 47.4875L40.5968 49.0212C40.841 49.0826 41.2073 49.1439 41.5736 49.1439C42.2451 49.0826 42.7945 48.8985 43.1608 48.5918Z" fill="black"/>
<path d="M56.8355 48.2237C57.3849 47.7329 57.6902 47.058 57.6902 46.1991C57.6902 45.4015 57.446 44.7267 56.8965 44.2359C56.3471 43.7451 55.6145 43.4997 54.6988 43.4997H52.9284V40.6776H51.097V48.9599H54.5767C55.4924 48.9599 56.225 48.7145 56.8355 48.2237ZM52.8674 47.3034V45.0334H54.4546C55.3704 45.0334 55.7977 45.4015 55.7977 46.1377C55.7977 46.9353 55.3704 47.3034 54.4546 47.3034H52.8674Z" fill="black"/>
<path d="M63.3676 48.9599V42.334H65.9316V40.6776H59.0332V42.334H61.5972V48.9599H63.3676Z" fill="black"/>
<path d="M71.9143 49.1441C73.1963 49.1441 74.2341 48.7146 75.0888 47.9171C75.9435 47.0581 76.3708 46.0765 76.3708 44.8495C76.3708 43.6225 75.9434 42.6409 75.1498 41.782C74.2952 40.9231 73.2574 40.555 72.0364 40.555C70.7544 40.555 69.7166 40.9844 68.8619 41.782C68.0072 42.6409 67.5799 43.6225 67.5799 44.8495C67.5799 46.0765 68.0072 47.0581 68.8009 47.9171C69.5945 48.7146 70.6323 49.1441 71.9143 49.1441ZM70.1439 42.9477C70.6323 42.4569 71.1817 42.2115 71.9143 42.2115C72.6469 42.2115 73.2573 42.4569 73.6847 42.9477C74.173 43.4385 74.4172 44.052 74.4172 44.7882C74.4172 45.5244 74.1731 46.1379 73.7457 46.6287C73.2574 47.1195 72.7079 47.3649 71.9753 47.3649C71.2428 47.3649 70.6323 47.1195 70.205 46.6287C69.7166 46.1379 69.4724 45.5244 69.4724 44.7882C69.4113 44.1133 69.6555 43.4385 70.1439 42.9477Z" fill="black"/>
<path d="M84.6123 48.285C85.1617 47.8556 85.4059 47.1807 85.4059 46.3218C85.4059 45.5242 85.1617 44.9107 84.6733 44.4199C84.1849 43.9291 83.4524 43.7451 82.5367 43.7451H80.3389V42.334H84.8565V40.6776H78.5075V48.9599H82.3535C83.3303 48.9599 84.0629 48.7758 84.6123 48.285ZM80.3389 45.2788H82.3535C83.2082 45.2788 83.6355 45.5856 83.6355 46.2604C83.6355 46.9353 83.2082 47.3034 82.3535 47.3034H80.3389V45.2788Z" fill="black"/>
<path d="M89.3129 45.5856H93.2199V43.9905H89.3129V42.2727H93.7694V40.6776H87.5425V48.9599H93.8304V47.3648H89.3129V45.5856Z" fill="black"/>
<path d="M95.4177 42.334H97.9817V48.9599H99.7521V42.334H102.316V40.6776H95.4177V42.334Z" fill="black"/>
<path d="M108.299 40.4933C107.017 40.4933 105.979 40.9227 105.124 41.7203C104.27 42.5792 103.842 43.5608 103.842 44.7878C103.842 46.0148 104.27 46.9964 105.063 47.8553C105.918 48.7143 106.956 49.0824 108.177 49.0824C109.398 49.0824 110.496 48.6529 111.351 47.8553C112.206 46.9964 112.633 46.0148 112.633 44.7878C112.633 43.5608 112.206 42.5792 111.412 41.7203C110.619 40.9227 109.581 40.4933 108.299 40.4933ZM110.13 46.6897C109.642 47.1805 109.092 47.4259 108.36 47.4259C107.627 47.4259 107.017 47.1805 106.589 46.6897C106.101 46.1989 105.857 45.5854 105.857 44.8492C105.857 44.113 106.101 43.4995 106.528 43.0087C107.017 42.5179 107.566 42.2725 108.299 42.2725C109.031 42.2725 109.642 42.5179 110.069 43.0087C110.558 43.4995 110.802 44.113 110.802 44.8492C110.802 45.5854 110.558 46.1989 110.13 46.6897Z" fill="black"/>
<path d="M120.081 43.9291H116.723V40.6776H114.892V48.9599H116.723V45.6469H120.081V48.9599H121.912V40.6776H120.081V43.9291Z" fill="black"/>
<path d="M129.665 43.9291H126.308V40.6776H124.476V48.9599H126.308V45.6469H129.665V48.9599H131.497V40.6776H129.665V43.9291Z" fill="black"/>
<path d="M137.663 43.4997H135.892V40.6776H134.061V48.9599H137.541C138.517 48.9599 139.25 48.7145 139.86 48.2237C140.41 47.7329 140.715 47.058 140.715 46.1991C140.715 45.4015 140.471 44.7267 139.922 44.2359C139.311 43.7451 138.578 43.4997 137.663 43.4997ZM137.48 47.3034H135.831V45.0334H137.419C138.334 45.0334 138.762 45.4015 138.762 46.1377C138.823 46.9353 138.395 47.3034 137.48 47.3034Z" fill="black"/>
<path d="M143.401 40.6776H141.57V48.9599H143.401V40.6776Z" fill="black"/>
<path d="M151.399 40.6776L147.797 46.1377V40.6776H145.965V48.9599H147.675L151.276 43.4997V48.9599H153.108V40.6776H151.399Z" fill="black"/>
<path d="M149.567 40.0638C150.116 40.0638 150.544 39.8798 150.91 39.573C151.276 39.2663 151.46 38.8368 151.582 38.2233L150.483 38.0392C150.3 38.5914 149.994 38.8368 149.567 38.8368C149.14 38.8368 148.773 38.5914 148.651 38.0392L147.614 38.2233C147.675 38.7755 147.919 39.2663 148.285 39.573C148.59 39.8798 149.018 40.0638 149.567 40.0638Z" fill="black"/>
<path d="M4.63969 62.6224C4.3955 62.8065 4.02921 62.8678 3.66292 62.8678C2.62511 62.8678 1.77044 62.4997 1.03787 61.8249L0.0610962 63.1132C0.54948 63.604 1.03786 63.9108 1.5873 64.1562C2.13673 64.4016 2.8693 64.5243 3.72397 64.5243C4.70074 64.5243 5.43332 64.2789 5.98276 63.8494C6.53219 63.42 6.83742 62.8065 6.83742 62.0703C6.83742 61.0887 6.34904 60.4138 5.31122 60.1071C6.22694 59.739 6.65427 59.0641 6.65427 58.2052C6.65427 57.5303 6.34903 57.0395 5.7996 56.6101C5.25017 56.1806 4.51759 55.9966 3.66292 55.9966C2.31987 55.9966 1.221 56.426 0.305284 57.3463L1.28206 58.512C1.89254 57.8984 2.62512 57.5917 3.54084 57.5917C3.96817 57.5917 4.2734 57.653 4.51759 57.8371C4.76178 58.0211 4.88388 58.2052 4.88388 58.512C4.88388 59.1255 4.3955 59.4936 3.41873 59.4936H2.50301V61.0273H3.47979C3.96817 61.0273 4.39551 61.0887 4.70075 61.2727C5.00599 61.4568 5.12807 61.7022 5.12807 62.0089C5.00597 62.2543 4.88389 62.4997 4.63969 62.6224Z" fill="black"/>
<path d="M10.9276 62.4997H14.4073L15.1399 64.3402H17.0323L13.4916 55.9966H11.8433L8.30254 64.3402H10.134L10.9276 62.4997ZM12.698 58.2052L13.7968 60.9046H11.5991L12.698 58.2052Z" fill="black"/>
<path d="M25.1517 63.7882C25.7011 63.4201 26.0064 62.8066 26.0064 62.0704C26.0064 61.5182 25.8843 61.0888 25.6401 60.782C25.3959 60.4753 24.9686 60.2299 24.4802 59.9845C25.2127 59.555 25.579 59.0029 25.579 58.2053C25.579 57.6532 25.3959 57.1624 25.0296 56.7943C24.5412 56.3034 23.8086 56.058 22.8929 56.058H19.0469V64.3404H22.954C23.8697 64.4017 24.6023 64.1563 25.1517 63.7882ZM20.6952 57.6532H22.4656C22.8319 57.6532 23.1371 57.7145 23.3813 57.8986C23.5645 58.0213 23.6866 58.2667 23.6866 58.5121C23.6866 59.1256 23.2592 59.4323 22.4046 59.4323H20.7563V57.6532H20.6952ZM20.6952 60.9661H22.7708C23.6866 60.9661 24.1139 61.2728 24.1139 61.8863C24.1139 62.4998 23.6865 62.8066 22.8319 62.8066H20.6952V60.9661Z" fill="black"/>
<path d="M32.1112 64.5247C33.3932 64.5247 34.431 64.0953 35.2857 63.2977C36.1403 62.4388 36.5677 61.4572 36.5677 60.2302C36.5677 59.0032 36.1403 58.0216 35.3467 57.1627C34.492 56.3038 33.4542 55.9357 32.2333 55.9357C30.9513 55.9357 29.9135 56.3651 29.0588 57.1627C28.2041 58.0216 27.7768 59.0032 27.7768 60.2302C27.7768 61.4572 28.2041 62.4388 28.9977 63.2977C29.7914 64.0953 30.8292 64.5247 32.1112 64.5247ZM30.2798 58.3897C30.7681 57.8989 31.3176 57.6535 32.0501 57.6535C32.7827 57.6535 33.3932 57.8989 33.8205 58.3897C34.3089 58.8805 34.5531 59.494 34.5531 60.2302C34.5531 60.9664 34.3089 61.5799 33.8816 62.0707C33.3932 62.5615 32.8438 62.8069 32.1112 62.8069C31.3786 62.8069 30.7681 62.5615 30.3408 62.0707C29.8524 61.5799 29.6082 60.9664 29.6082 60.2302C29.6082 59.494 29.8524 58.8805 30.2798 58.3897Z" fill="black"/>
<path d="M46.2743 66.1195L46.5184 62.7452H45.5417V56.058H39.498V57.0397C39.498 58.3894 39.4369 59.4937 39.3148 60.3526C39.1927 61.2115 38.9485 62.009 38.6433 62.7452H37.8497V66.1195H39.498L39.62 64.4017H44.8091V66.1195H46.2743ZM43.7102 62.7452H40.5358C41.0241 61.5182 41.2683 60.1685 41.2683 58.5734V57.7145H43.7102V62.7452Z" fill="black"/>
<path d="M65.7789 55.7758H63.5812L60.2236 59.4568V55.7758H58.4532V64.1195H60.2236V61.5428L61.2003 60.5612L63.7643 64.1195H65.962L62.4213 59.3341L65.7789 55.7758Z" fill="black"/>
<path d="M70.4796 55.7147L66.9388 64.1197H68.7703L69.5028 62.2792H72.9825L73.7151 64.1197H75.6076L72.0668 55.7761H70.4796V55.7147ZM70.1743 60.6228L71.2732 57.9233L72.3721 60.6228H70.1743Z" fill="black"/>
<path d="M78.66 57.4936C78.66 58.5979 78.5989 59.4568 78.5379 60.1931C78.4768 60.8679 78.3548 61.4201 78.2327 61.7268C78.1106 62.0949 77.9274 62.279 77.7443 62.4017C77.5611 62.5244 77.378 62.5857 77.0728 62.5857C77.0117 62.5857 76.8896 62.5857 76.7675 62.5857L76.6454 64.1195C76.8896 64.1808 77.2559 64.2422 77.6222 64.2422C78.2937 64.2422 78.7821 64.0581 79.1484 63.7514C79.5147 63.3833 79.8199 62.7698 80.003 61.9109C80.1862 60.9906 80.3083 59.7636 80.3083 58.1071V57.4936H82.6891V64.1808H84.5206V55.7758H78.5989V57.4936H78.66Z" fill="black"/>
<path d="M90.6254 60.1931L88.3666 55.7758H86.352L89.6486 61.9722C89.3434 62.4017 89.0381 62.6471 88.6108 62.6471C88.2445 62.6471 87.9393 62.5857 87.634 62.4017L86.9015 63.7514C87.4509 64.0581 88.0614 64.2422 88.6719 64.2422C89.2823 64.2422 89.7707 64.0581 90.198 63.7514C90.6254 63.4446 90.9917 62.8925 91.3579 62.2176L94.5324 55.7758H92.5789L90.6254 60.1931Z" fill="black"/>
<path d="M108.39 55.7758H106.254L102.957 59.7023V55.7758H101.126V59.7023L97.829 55.7758H95.6313L98.8058 59.3955L95.5092 64.1195H97.7069L100.027 60.7452L101.126 61.9109V64.1195H102.957V61.9109L103.995 60.7452L106.376 64.1195H108.512L105.277 59.3955L108.39 55.7758Z" fill="black"/>
<path d="M115.289 62.3403C114.983 62.5244 114.556 62.5857 114.129 62.5857C113.457 62.5857 112.847 62.3403 112.419 61.8495C111.992 61.3587 111.748 60.7452 111.748 60.009C111.748 59.2728 111.992 58.6593 112.419 58.1685C112.847 57.6777 113.457 57.4323 114.129 57.4323C114.556 57.4323 114.922 57.4936 115.228 57.6777C115.533 57.8004 115.899 58.0458 116.204 58.4139L117.303 57.1255C116.876 56.6961 116.388 56.328 115.899 56.1439C115.411 55.8985 114.8 55.7758 114.068 55.7758C112.786 55.7758 111.809 56.2053 110.954 57.0028C110.161 57.8617 109.733 58.8433 109.733 60.0704C109.733 61.2974 110.161 62.279 110.954 63.1379C111.748 63.9354 112.786 64.3649 114.007 64.3649C114.8 64.3649 115.411 64.2422 115.96 63.9968C116.51 63.7514 116.998 63.3833 117.425 62.9538L116.265 61.7268C115.96 61.9109 115.655 62.1563 115.289 62.3403Z" fill="black"/>
<path d="M126.888 55.7758H124.69L121.332 59.4568V55.7758H119.562V64.1195H121.332V61.5428L122.309 60.5612L124.873 64.1195H127.071L123.53 59.3341L126.888 55.7758Z" fill="black"/>
<path d="M132.809 55.653C131.527 55.653 130.49 56.0825 129.635 56.88C128.78 57.7389 128.353 58.7205 128.353 59.9475C128.353 61.1746 128.78 62.1562 129.574 63.0151C130.428 63.874 131.466 64.2421 132.687 64.2421C133.908 64.2421 135.007 63.8126 135.862 63.0151C136.716 62.1562 137.144 61.1746 137.144 59.9475C137.144 58.7205 136.716 57.7389 135.923 56.88C135.129 56.0825 134.03 55.653 132.809 55.653ZM134.58 61.7881C134.091 62.2789 133.542 62.5243 132.809 62.5243C132.077 62.5243 131.466 62.2789 131.039 61.7881C130.551 61.2973 130.306 60.6838 130.306 59.9475C130.306 59.2113 130.551 58.5978 130.978 58.107C131.466 57.6162 132.016 57.3708 132.748 57.3708C133.481 57.3708 134.091 57.6162 134.519 58.107C135.007 58.5978 135.251 59.2113 135.251 59.9475C135.251 60.6838 135.068 61.2973 134.58 61.7881Z" fill="black"/>
<path d="M141.173 60.7452H145.08V59.0887H141.173V57.4323H145.629V55.7758H139.403V64.1195H145.69V62.463H141.173V60.7452Z" fill="black"/>
<path d="M54.0658 62.5199H52.7412L51.3549 60.0921V60.0112H52.7481L54.0658 62.5199ZM54.0658 57.551L52.7481 60.0597H51.3549V59.9788L52.7412 57.551H54.0658ZM56.3237 62.5199H54.9991L53.6128 60.0921V60.0112H55.006L56.3237 62.5199ZM56.3237 57.551L55.006 60.0597H53.6128V59.9788L54.9991 57.551H56.3237Z" fill="black"/>
<path d="M150.15 62.5199H151.475L152.861 60.0921V60.0112H151.468L150.15 62.5199ZM150.15 57.551L151.468 60.0597H152.861V59.9788L151.475 57.551H150.15ZM147.892 62.5199H149.217L150.603 60.0921V60.0112H149.21L147.892 62.5199ZM147.892 57.551L149.21 60.0597H150.603V59.9788L149.217 57.551H147.892Z" fill="black"/>
</svg>
