<svg width="222" height="18" viewBox="0 0 222 18" fill="none" xmlns="http://www.w3.org/2000/svg">
<path d="M0.867188 17.1093L8.30768 0.776001H10.0425L17.483 17.1093H15.4783L13.5507 12.8252H4.64526L2.71767 17.1093H0.867188ZM5.4163 11.1804H12.8568L9.15582 2.91808L5.4163 11.1804Z" fill="white"/>
<path d="M20.7213 17.1093V0.890747H32.441V2.57381H22.5718V7.54648H27.3908C29.2412 7.54648 30.7062 7.929 31.8628 8.73228C33.0193 9.53556 33.5976 10.7213 33.5976 12.2514C33.5976 13.8197 33.0579 15.0055 31.9784 15.847C30.899 16.6886 29.434 17.1093 27.5835 17.1093H20.7213ZM22.5718 15.4263H27.4679C30.3593 15.4263 31.7857 14.3552 31.7857 12.1749C31.7857 11.1804 31.4001 10.4153 30.6291 9.91807C29.8581 9.4208 28.7786 9.15304 27.3908 9.15304H22.6103V15.4263H22.5718Z" fill="white"/>
<path d="M42.6573 17.3771C40.0358 17.3771 37.7612 16.4973 35.8336 14.776L36.9131 13.5137C38.5708 15.0437 40.4984 15.847 42.6573 15.847C43.6982 15.847 44.5849 15.541 45.3559 14.9672C46.0884 14.3935 46.4739 13.6284 46.4739 12.7104C46.4739 11.7159 46.0498 10.9508 45.2403 10.4536C44.4307 9.9563 43.3512 9.72679 42.0405 9.72679H40.2285V8.23498H42.0405C43.2356 8.23498 44.1994 7.96722 44.9318 7.39345C45.6643 6.85793 46.0498 6.09291 46.0498 5.17487C46.0498 4.33334 45.7029 3.64482 45.0089 3.1093C44.315 2.57378 43.4283 2.26777 42.3489 2.26777C40.4984 2.26777 38.9178 2.87979 37.5299 4.10383L36.4504 2.84154C37.2986 2.11476 38.1853 1.57924 39.1105 1.23498C40.0358 0.89072 41.1152 0.699463 42.3874 0.699463C44.0066 0.699463 45.3174 1.12023 46.3583 1.92351C47.3992 2.72679 47.9003 3.75957 47.9003 5.02187C47.9003 6.85793 46.898 8.12023 44.8933 8.847C45.9342 9.15302 46.7823 9.65028 47.3992 10.3006C48.016 10.9508 48.3244 11.7924 48.3244 12.8251C48.3244 14.1257 47.7847 15.235 46.7052 16.1148C45.7414 16.9563 44.3536 17.3771 42.6573 17.3771Z" fill="white"/>
<path d="M58.7719 17.1093V0.890747H62.3572V7.96725L68.9881 0.890747H73.3444L66.675 7.77599L73.6528 17.1093H69.335L64.2462 10.1858L62.3572 12.1366V17.1093H58.7719Z" fill="white"/>
<path d="M74.424 17.1093L81.4404 0.776001H84.7558L91.7722 17.1093H87.9942L86.4906 13.4755H79.5899L78.0864 17.1093H74.424ZM80.8621 10.3006H85.2184L83.0595 5.0219L80.8621 10.3006Z" fill="white"/>
<path d="M96.4756 0.890747H108.157V17.1093H104.571V4.10386H99.8681V5.32791C99.8681 8.50277 99.6754 10.9509 99.2899 12.7104C98.9043 14.47 98.3646 15.6558 97.6321 16.3443C96.8997 16.9946 95.8973 17.3388 94.5866 17.3388C93.8541 17.3388 93.2372 17.2623 92.6975 17.1476L92.9288 14.2022C93.1601 14.2405 93.3529 14.2405 93.5071 14.2405C94.0468 14.2405 94.4709 14.1257 94.8179 13.8962C95.1648 13.6667 95.4732 13.2077 95.7431 12.5574C96.013 11.8689 96.2443 10.8744 96.3599 9.4973C96.4756 8.15851 96.5527 6.39894 96.5527 4.25687V0.890747H96.4756Z" fill="white"/>
<path d="M118.99 9.45905L122.922 0.890747H126.816L120.532 13.4372C119.838 14.8142 119.067 15.847 118.219 16.4591C117.37 17.0711 116.368 17.3771 115.212 17.3771C113.978 17.3771 112.821 17.0711 111.665 16.4208L113.053 13.8197C113.631 14.164 114.286 14.3552 114.98 14.3552C115.79 14.3552 116.484 13.9345 117.024 13.0547L110.47 0.890747H114.479L118.99 9.45905Z" fill="white"/>
<path d="M142.121 17.1093H138.536V12.7869L136.377 10.4536L131.789 17.071H127.471L133.948 7.85246L127.703 0.814209H131.982L138.536 8.38798V0.890712H142.121V8.46448L148.675 0.890712H152.954L146.708 7.92896L153.185 17.1475H148.867L144.241 10.5301L142.082 12.8634V17.1093H142.121Z" fill="white"/>
<path d="M163.054 17.3771C160.664 17.3771 158.66 16.5738 157.079 14.9672C155.498 13.3607 154.689 11.3716 154.689 9.00002C154.689 6.66668 155.498 4.67761 157.079 3.0328C158.698 1.42625 160.741 0.584717 163.209 0.584717C164.635 0.584717 165.83 0.814225 166.794 1.27324C167.758 1.73226 168.683 2.38253 169.57 3.22406L167.411 5.67215C166.717 5.02187 166.061 4.56286 165.445 4.2951C164.828 4.02734 164.095 3.87433 163.209 3.87433C161.821 3.87433 160.703 4.3716 159.816 5.32789C158.929 6.32242 158.467 7.50821 158.467 8.96177C158.467 10.3771 158.929 11.6011 159.816 12.5956C160.703 13.5902 161.859 14.0874 163.209 14.0874C164.095 14.0874 164.828 13.9344 165.483 13.6284C166.139 13.3224 166.794 12.8252 167.526 12.1749L169.801 14.623C168.914 15.5793 167.951 16.2678 166.91 16.7268C165.83 17.1476 164.558 17.3771 163.054 17.3771Z" fill="white"/>
<path d="M172.615 17.1093V0.890747H176.201V7.96725L182.831 0.890747H187.188L180.518 7.77599L187.496 17.1093H183.178L178.09 10.1858L176.201 12.1366V17.1093H172.615Z" fill="white"/>
<path d="M203.842 14.929C202.184 16.5738 200.103 17.3771 197.597 17.3771C195.091 17.3771 193.048 16.5738 191.39 14.929C189.732 13.3224 188.923 11.3334 188.923 8.96177C188.923 6.62843 189.771 4.63936 191.428 3.0328C193.086 1.388 195.168 0.584717 197.674 0.584717C200.18 0.584717 202.223 1.388 203.881 3.0328C205.538 4.63936 206.348 6.62843 206.348 9.00002C206.348 11.3333 205.5 13.3224 203.842 14.929ZM194.127 12.5956C195.052 13.5902 196.247 14.0874 197.674 14.0874C199.1 14.0874 200.295 13.5902 201.221 12.6339C202.146 11.6394 202.608 10.4536 202.608 9.00002C202.608 7.58472 202.146 6.36067 201.221 5.36614C200.295 4.3716 199.1 3.87433 197.674 3.87433C196.247 3.87433 195.052 4.3716 194.127 5.32789C193.202 6.32242 192.739 7.50821 192.739 8.96177C192.701 10.4153 193.163 11.6394 194.127 12.5956Z" fill="white"/>
<path d="M209.548 17.1093V0.890747H221.884V4.06561H213.133V7.35523H220.844V10.5301H213.133V13.9345H222V17.1093H209.548Z" fill="white"/>
</svg>
