<svg width="375" height="41" viewBox="0 0 375 41" fill="none" xmlns="http://www.w3.org/2000/svg">
<path d="M187.372 13.4895H191.559L192.441 15.7044H194.718L190.457 5.66357H188.474L184.213 15.7044H186.417L187.372 13.4895ZM189.429 8.32143L190.751 11.5699H188.107L189.429 8.32143Z" fill="white"/>
<path d="M201.697 15.9257C202.653 15.9257 203.387 15.7781 204.048 15.4828C204.71 15.1875 205.297 14.7445 205.811 14.2277L204.416 12.7511C203.975 13.1202 203.534 13.4156 203.167 13.637C202.799 13.8585 202.285 13.9324 201.771 13.9324C200.963 13.9324 200.228 13.637 199.714 13.0464C199.2 12.4558 198.906 11.7175 198.906 10.8315C198.906 9.94557 199.2 9.20728 199.714 8.61665C200.228 8.02601 200.963 7.7307 201.771 7.7307C202.285 7.7307 202.726 7.80453 203.093 8.02601C203.461 8.17367 203.901 8.46899 204.269 8.91196L205.591 7.36155C205.077 6.84474 204.489 6.40177 203.901 6.18028C203.314 5.88496 202.579 5.7373 201.697 5.7373C200.155 5.7373 198.979 6.25411 197.951 7.21389C196.996 8.2475 196.481 9.42877 196.481 10.9054C196.481 12.3819 196.996 13.5632 197.951 14.5968C198.906 15.6304 200.228 15.9257 201.697 15.9257Z" fill="white"/>
<path d="M212.571 15.0398V16.1472H214.775V15.0398C216.317 15.0398 217.493 14.5968 218.374 13.7847C219.256 12.9726 219.697 11.8651 219.697 10.61C219.697 9.35495 219.256 8.32134 218.374 7.50921C217.493 6.69709 216.317 6.25412 214.775 6.25412V5.36816H212.571V6.25412C211.028 6.25412 209.852 6.62326 208.971 7.43538C208.089 8.24751 207.648 9.28112 207.648 10.5362C207.648 11.8651 208.089 12.8988 208.971 13.7109C209.852 14.5968 211.028 15.0398 212.571 15.0398ZM214.775 8.17368C215.583 8.17368 216.244 8.39517 216.685 8.83814C217.199 9.28112 217.419 9.87175 217.419 10.61C217.419 11.3483 217.199 11.939 216.685 12.3819C216.17 12.8249 215.583 13.0464 214.775 13.0464V8.17368ZM210.587 8.83814C211.101 8.39517 211.762 8.17368 212.571 8.17368V13.0464C211.762 13.0464 211.101 12.8249 210.587 12.3819C210.073 11.939 209.852 11.3483 209.852 10.61C209.852 9.87175 210.146 9.28112 210.587 8.83814Z" fill="white"/>
<path d="M227.631 5.66357H225.647L221.386 15.7044H223.59L224.472 13.4895H228.659L229.541 15.7044H231.818L227.631 5.66357ZM225.28 11.5699L226.602 8.32143L227.925 11.5699H225.28Z" fill="white"/>
<path d="M236.152 15.2613C236.593 14.8183 236.961 14.08 237.181 13.0464C237.401 11.939 237.548 10.4624 237.548 8.46899V7.7307H240.413V15.7781H242.617V5.7373H235.491V7.80453C235.491 9.13345 235.418 10.1671 235.344 11.053C235.271 11.8651 235.124 12.5296 234.977 12.8987C234.83 13.3417 234.61 13.5632 234.389 13.7109C234.169 13.8585 233.948 13.9324 233.581 13.9324C233.508 13.9324 233.361 13.9324 233.214 13.9324L233.067 15.7781C233.361 15.8519 233.802 15.9257 234.242 15.9257C235.05 15.8519 235.712 15.6304 236.152 15.2613Z" fill="white"/>
<path d="M252.609 14.8183C253.27 14.2277 253.637 13.4156 253.637 12.3819C253.637 11.4222 253.343 10.61 252.682 10.0194C252.021 9.42877 251.14 9.13345 250.038 9.13345H247.907V5.7373H245.703V15.7043H249.891C250.993 15.7043 251.874 15.4089 252.609 14.8183ZM247.834 13.7109V10.9792H249.744C250.846 10.9792 251.36 11.4222 251.36 12.3081C251.36 13.2679 250.846 13.7109 249.744 13.7109H247.834Z" fill="white"/>
<path d="M260.469 15.7043V7.7307H263.555V5.7373H255.253V7.7307H258.339V15.7043H260.469Z" fill="white"/>
<path d="M270.755 15.9259C272.297 15.9259 273.546 15.4091 274.575 14.4494C275.603 13.4158 276.118 12.2345 276.118 10.7579C276.118 9.28131 275.603 8.10004 274.648 7.06643C273.62 6.03282 272.371 5.58984 270.902 5.58984C269.359 5.58984 268.11 6.10665 267.081 7.06643C266.053 8.10004 265.539 9.28131 265.539 10.7579C265.539 12.2345 266.053 13.4158 267.008 14.4494C267.963 15.4091 269.212 15.9259 270.755 15.9259ZM268.624 8.46919C269.212 7.87855 269.873 7.58324 270.755 7.58324C271.636 7.58324 272.371 7.87855 272.885 8.46919C273.473 9.05982 273.767 9.79811 273.767 10.6841C273.767 11.57 273.473 12.3083 272.959 12.8989C272.371 13.4896 271.71 13.7849 270.828 13.7849C269.946 13.7849 269.212 13.4896 268.698 12.8989C268.11 12.3083 267.816 11.57 267.816 10.6841C267.743 9.87194 268.036 9.05982 268.624 8.46919Z" fill="white"/>
<path d="M286.035 14.8921C286.697 14.3753 286.991 13.5632 286.991 12.5296C286.991 11.5698 286.697 10.8315 286.109 10.2409C285.521 9.65026 284.64 9.42877 283.538 9.42877H280.893V7.7307H286.329V5.7373H278.689V15.7043H283.317C284.493 15.7043 285.374 15.4828 286.035 14.8921ZM280.893 11.2745H283.317C284.346 11.2745 284.86 11.6436 284.86 12.4558C284.86 13.2679 284.346 13.7109 283.317 13.7109H280.893V11.2745Z" fill="white"/>
<path d="M291.692 11.6436H296.394V9.72409H291.692V7.65687H297.055V5.7373H289.562V15.7043H297.128V13.7847H291.692V11.6436Z" fill="white"/>
<path d="M299.039 7.7307H302.124V15.7043H304.255V7.7307H307.34V5.7373H299.039V7.7307Z" fill="white"/>
<path d="M314.54 5.51562C312.997 5.51562 311.748 6.03243 310.72 6.99221C309.691 8.02582 309.177 9.20709 309.177 10.6837C309.177 12.1603 309.691 13.3415 310.646 14.3751C311.675 15.4088 312.923 15.8517 314.393 15.8517C315.862 15.8517 317.184 15.3349 318.213 14.3751C319.241 13.3415 319.756 12.1603 319.756 10.6837C319.756 9.20709 319.241 8.02582 318.286 6.99221C317.331 6.03243 316.082 5.51562 314.54 5.51562ZM316.744 12.9724C316.156 13.563 315.495 13.8583 314.613 13.8583C313.732 13.8583 312.997 13.563 312.483 12.9724C311.895 12.3818 311.601 11.6435 311.601 10.7575C311.601 9.87155 311.895 9.13326 312.409 8.54263C312.997 7.95199 313.658 7.65668 314.54 7.65668C315.421 7.65668 316.156 7.95199 316.67 8.54263C317.258 9.13326 317.552 9.87155 317.552 10.7575C317.552 11.6435 317.258 12.3818 316.744 12.9724Z" fill="white"/>
<path d="M328.719 9.65026H324.678V5.7373H322.474V15.7043H324.678V11.7175H328.719V15.7043H330.923V5.7373H328.719V9.65026Z" fill="white"/>
<path d="M340.252 9.65026H336.212V5.7373H334.008V15.7043H336.212V11.7175H340.252V15.7043H342.456V5.7373H340.252V9.65026Z" fill="white"/>
<path d="M349.876 9.13345H347.746V5.7373H345.542V15.7043H349.73C350.905 15.7043 351.787 15.4089 352.521 14.8183C353.182 14.2277 353.55 13.4156 353.55 12.3819C353.55 11.4222 353.256 10.61 352.595 10.0194C351.86 9.42877 350.978 9.13345 349.876 9.13345ZM349.656 13.7109H347.673V10.9792H349.583C350.685 10.9792 351.199 11.4222 351.199 12.3081C351.272 13.2679 350.758 13.7109 349.656 13.7109Z" fill="white"/>
<path d="M356.782 5.7373H354.578V15.7043H356.782V5.7373Z" fill="white"/>
<path d="M366.406 5.7373L362.072 12.3081V5.7373H359.868V15.7043H361.925L366.259 9.13345V15.7043H368.463V5.7373H366.406Z" fill="white"/>
<path d="M364.202 4.99887C364.864 4.99887 365.378 4.77738 365.819 4.40823C366.259 4.03909 366.48 3.52228 366.627 2.78399L365.304 2.5625C365.084 3.22696 364.717 3.52228 364.202 3.52228C363.688 3.52228 363.247 3.22696 363.1 2.5625L361.852 2.78399C361.925 3.44845 362.219 4.03909 362.66 4.40823C363.027 4.77738 363.541 4.99887 364.202 4.99887Z" fill="white"/>
<path d="M189.797 32.5834C189.503 32.8049 189.062 32.8787 188.621 32.8787C187.372 32.8787 186.344 32.4358 185.462 31.6236L184.287 33.1741C184.874 33.7647 185.462 34.1338 186.123 34.4292C186.784 34.7245 187.666 34.8721 188.695 34.8721C189.87 34.8721 190.752 34.5768 191.413 34.06C192.074 33.5432 192.441 32.8049 192.441 31.919C192.441 30.7377 191.854 29.9256 190.605 29.5564C191.707 29.1135 192.221 28.3013 192.221 27.2677C192.221 26.4556 191.854 25.865 191.192 25.3482C190.531 24.8314 189.65 24.6099 188.621 24.6099C187.005 24.6099 185.682 25.1267 184.58 26.2341L185.756 27.6369C186.491 26.8986 187.372 26.5294 188.474 26.5294C188.988 26.5294 189.356 26.6033 189.65 26.8247C189.943 27.0462 190.09 27.2677 190.09 27.6369C190.09 28.3752 189.503 28.8181 188.327 28.8181H187.225V30.6639H188.401C188.988 30.6639 189.503 30.7377 189.87 30.9592C190.237 31.1807 190.384 31.476 190.384 31.8451C190.237 32.1405 190.09 32.4358 189.797 32.5834Z" fill="white"/>
<path d="M197.363 32.4358H201.551L202.432 34.6506H204.71L200.449 24.6099H198.465L194.204 34.6506H196.408L197.363 32.4358ZM199.494 27.2677L200.816 30.5162H198.171L199.494 27.2677Z" fill="white"/>
<path d="M214.48 33.9866C215.141 33.5436 215.509 32.8053 215.509 31.9194C215.509 31.2549 215.362 30.7381 215.068 30.3689C214.774 29.9998 214.26 29.7045 213.672 29.4092C214.554 28.8924 214.995 28.2279 214.995 27.2681C214.995 26.6036 214.774 26.013 214.333 25.57C213.746 24.9794 212.864 24.6841 211.762 24.6841H207.134V34.651H211.836C212.938 34.7249 213.819 34.4295 214.48 33.9866ZM209.117 26.6036H211.248C211.689 26.6036 212.056 26.6775 212.35 26.899C212.57 27.0466 212.717 27.3419 212.717 27.6373C212.717 28.3755 212.203 28.7447 211.174 28.7447H209.191V26.6036H209.117ZM209.117 30.5904H211.615C212.717 30.5904 213.231 30.9596 213.231 31.6979C213.231 32.4362 212.717 32.8053 211.689 32.8053H209.117V30.5904Z" fill="white"/>
<path d="M222.856 34.8727C224.398 34.8727 225.647 34.3559 226.676 33.3961C227.704 32.3625 228.219 31.1813 228.219 29.7047C228.219 28.2281 227.704 27.0468 226.749 26.0132C225.721 24.9796 224.472 24.5366 223.003 24.5366C221.46 24.5366 220.211 25.0534 219.182 26.0132C218.154 27.0468 217.64 28.2281 217.64 29.7047C217.64 31.1813 218.154 32.3625 219.109 33.3961C220.064 34.3559 221.313 34.8727 222.856 34.8727ZM220.652 27.4898C221.239 26.8992 221.901 26.6038 222.782 26.6038C223.664 26.6038 224.398 26.8992 224.913 27.4898C225.5 28.0804 225.794 28.8187 225.794 29.7047C225.794 30.5906 225.5 31.3289 224.986 31.9196C224.398 32.5102 223.737 32.8055 222.856 32.8055C221.974 32.8055 221.239 32.5102 220.725 31.9196C220.137 31.3289 219.844 30.5906 219.844 29.7047C219.844 28.8187 220.137 28.0804 220.652 27.4898Z" fill="white"/>
<path d="M239.899 36.7921L240.193 32.7315H239.018V24.6841H231.745V25.8654C231.745 27.4896 231.671 28.8185 231.524 29.8521C231.377 30.8857 231.084 31.8455 230.716 32.7315H229.761V36.7921H231.745L231.892 34.7249H238.136V36.7921H239.899ZM236.814 32.7315H232.994C233.581 31.2549 233.875 29.6306 233.875 27.7111V26.6775H236.814V32.7315Z" fill="white"/>
<path d="M263.371 24.3442H260.727L256.686 28.774V24.3442H254.556V34.385H256.686V31.2842L257.862 30.1029L260.947 34.385H263.592L259.331 28.6263L263.371 24.3442Z" fill="white"/>
<path d="M269.028 24.2705L264.767 34.3851H266.971L267.853 32.1702H272.04L272.922 34.3851H275.199L270.938 24.3443H269.028V24.2705ZM268.661 30.1769L269.983 26.9284L271.305 30.1769H268.661Z" fill="white"/>
<path d="M278.873 26.4115C278.873 27.7404 278.799 28.774 278.726 29.6599C278.652 30.4721 278.505 31.1365 278.358 31.5057C278.211 31.9487 277.991 32.1701 277.771 32.3178C277.55 32.4655 277.33 32.5393 276.963 32.5393C276.889 32.5393 276.742 32.5393 276.595 32.5393L276.448 34.385C276.742 34.4589 277.183 34.5327 277.624 34.5327C278.432 34.5327 279.02 34.3112 279.46 33.942C279.901 33.4991 280.268 32.7608 280.489 31.7272C280.709 30.6197 280.856 29.1431 280.856 27.1498V26.4115H283.721V34.4589H285.925V24.3442H278.799V26.4115H278.873Z" fill="white"/>
<path d="M293.271 29.6599L290.553 24.3442H288.129L292.096 31.801C291.729 32.3178 291.361 32.6131 290.847 32.6131C290.406 32.6131 290.039 32.5393 289.672 32.3178L288.79 33.942C289.451 34.3112 290.186 34.5327 290.921 34.5327C291.655 34.5327 292.243 34.3112 292.757 33.942C293.271 33.5729 293.712 32.9084 294.153 32.0963L297.973 24.3442H295.622L293.271 29.6599Z" fill="white"/>
<path d="M314.65 24.3442H312.079L308.112 29.0693V24.3442H305.908V29.0693L301.941 24.3442H299.296L303.116 28.7002L299.149 34.385H301.794L304.585 30.3244L305.908 31.7272V34.385H308.112V31.7272L309.361 30.3244L312.226 34.385H314.797L310.903 28.7002L314.65 24.3442Z" fill="white"/>
<path d="M322.951 32.244C322.584 32.4655 322.07 32.5393 321.556 32.5393C320.747 32.5393 320.013 32.244 319.499 31.6533C318.984 31.0627 318.69 30.3244 318.69 29.4385C318.69 28.5525 318.984 27.8142 319.499 27.2236C320.013 26.6329 320.747 26.3376 321.556 26.3376C322.07 26.3376 322.511 26.4115 322.878 26.6329C323.245 26.7806 323.686 27.0759 324.053 27.5189L325.376 25.9685C324.861 25.4517 324.274 25.0087 323.686 24.7872C323.098 24.4919 322.364 24.3442 321.482 24.3442C319.939 24.3442 318.764 24.861 317.735 25.8208C316.78 26.8544 316.266 28.0357 316.266 29.5123C316.266 30.9889 316.78 32.1701 317.735 33.2038C318.69 34.1635 319.939 34.6803 321.409 34.6803C322.364 34.6803 323.098 34.5327 323.76 34.2374C324.421 33.9421 325.008 33.4991 325.523 32.9823L324.127 31.5057C323.76 31.7272 323.392 32.0225 322.951 32.244Z" fill="white"/>
<path d="M336.91 24.3442H334.265L330.225 28.774V24.3442H328.094V34.385H330.225V31.2842L331.4 30.1029L334.486 34.385H337.13L332.869 28.6263L336.91 24.3442Z" fill="white"/>
<path d="M344.036 24.1963C342.493 24.1963 341.244 24.7131 340.216 25.6729C339.187 26.7065 338.673 27.8878 338.673 29.3643C338.673 30.8409 339.187 32.0222 340.142 33.0558C341.171 34.0894 342.42 34.5324 343.889 34.5324C345.358 34.5324 346.681 34.0156 347.709 33.0558C348.738 32.0222 349.252 30.8409 349.252 29.3643C349.252 27.8878 348.738 26.7065 347.783 25.6729C346.827 24.7131 345.505 24.1963 344.036 24.1963ZM346.166 31.5792C345.579 32.1699 344.917 32.4652 344.036 32.4652C343.154 32.4652 342.42 32.1699 341.905 31.5792C341.318 30.9886 341.024 30.2503 341.024 29.3643C341.024 28.4784 341.318 27.7401 341.832 27.1495C342.42 26.5588 343.081 26.2635 343.962 26.2635C344.844 26.2635 345.579 26.5588 346.093 27.1495C346.681 27.7401 346.974 28.4784 346.974 29.3643C346.974 30.2503 346.754 30.9886 346.166 31.5792Z" fill="white"/>
<path d="M354.101 30.3244H358.802V28.331H354.101V26.3376H359.464V24.3442H351.97V34.385H359.537V32.3916H354.101V30.3244Z" fill="white"/>
<path d="M249.276 32.46H247.682L246.014 29.5384V29.441H247.69L249.276 32.46ZM249.276 26.4805L247.69 29.4994H246.014V29.402L247.682 26.4805H249.276ZM251.993 32.46H250.399L248.731 29.5384V29.441H250.407L251.993 32.46ZM251.993 26.4805L250.407 29.4994H248.731V29.402L250.399 26.4805H251.993Z" fill="white"/>
<path d="M364.904 32.46H366.498L368.166 29.5384V29.441H366.489L364.904 32.46ZM364.904 26.4805L366.489 29.4994H368.166V29.402L366.498 26.4805H364.904ZM362.187 32.46H363.78L365.449 29.5384V29.441H363.772L362.187 32.46ZM362.187 26.4805L363.772 29.4994H365.449V29.402L363.78 26.4805H362.187Z" fill="white"/>
<path d="M53.958 5.97949H51.6035V8.32557V34.7814H74.9977C80.0572 34.7814 84.1649 30.6882 84.1649 25.6466C84.1649 20.6051 80.0572 16.5119 74.9977 16.5119H56.3124V10.6717H80.4079L85.1167 5.97949H53.958ZM74.9977 21.2041C77.4523 21.2041 79.4561 23.2007 79.4561 25.6466C79.4561 28.0925 77.4523 30.0892 74.9977 30.0892H56.3124V21.2041H74.9977Z" fill="#D6AD68"/>
<path d="M115.374 13.5668C115.374 9.37382 111.968 5.97949 107.76 5.97949H91.4789L86.77 10.6717H107.76C109.363 10.6717 110.715 11.9695 110.715 13.6167C110.715 15.2141 109.413 16.5618 107.76 16.5618V16.6117C107.509 16.6117 107.259 16.5618 107.008 16.5618H94.9855L90.2766 21.254H106.958C109.413 21.254 111.417 23.2506 111.417 25.6966C111.417 28.1425 109.413 30.1391 106.958 30.1391H89.6254L84.9165 34.8313H106.958C112.018 34.8313 116.125 30.7381 116.125 25.6966C116.125 23.051 114.973 20.655 113.17 18.9578C114.522 17.5601 115.374 15.6633 115.374 13.5668Z" fill="#D6AD68"/>
<path d="M148.336 18.4087L160.81 5.97949H154.147L143.577 16.5119H136.815V13.5668V10.6717V5.97949H134.51H132.156V8.32557V34.7814H136.815V30.0892V27.6433V21.2041H144.429L158.055 34.7814H164.717L148.336 18.4087Z" fill="#D6AD68"/>
<path d="M32.4675 5.97949H24.2019L19.5431 10.6717H27.7586L3.56299 34.7814H10.2256L34.4212 10.6717H41.0838V16.5119H32.0668L27.3579 21.2041H41.0838V34.7814H44.1395H45.7927V5.97949H43.8891H32.4675Z" fill="#D6AD68"/>
<path d="M123.56 14.8582L119.557 18.8467L123.56 22.8351L127.562 18.8467L123.56 14.8582Z" fill="#D6AD68"/>
</svg>
